<?xml version="1.0" encoding="UTF-8" standalone="no"?><svg xmlns="http://www.w3.org/2000/svg" xmlns:xlink="http://www.w3.org/1999/xlink" contentScriptType="application/ecmascript" contentStyleType="text/css" height="516px" preserveAspectRatio="none" style="width:559px;height:516px;" version="1.1" viewBox="0 0 559 516" width="559px" zoomAndPan="magnify"><defs><filter height="300%" id="f1v6ax5qa4aapr" width="300%" x="-1" y="-1"><feGaussianBlur result="blurOut" stdDeviation="2.0"/><feColorMatrix in="blurOut" result="blurOut2" type="matrix" values="0 0 0 0 0 0 0 0 0 0 0 0 0 0 0 0 0 0 .4 0"/><feOffset dx="4.0" dy="4.0" in="blurOut2" result="blurOut3"/><feBlend in="SourceGraphic" in2="blurOut3" mode="normal"/></filter></defs><g><!--cluster de.interactive_instruments.etf.dal.dto.report--><polygon fill="#FFFFFF" filter="url(#f1v6ax5qa4aapr)" points="14,130,333,130,340,152.4883,537,152.4883,537,504,14,504,14,130" style="stroke: #000000; stroke-width: 1.5;"/><line style="stroke: #000000; stroke-width: 1.5;" x1="14" x2="340" y1="152.4883" y2="152.4883"/><text fill="#000000" font-family="sans-serif" font-size="14" font-weight="bold" lengthAdjust="spacingAndGlyphs" textLength="313" x="18" y="145.5352">de.interactive_instruments.etf.dal.dto.report</text><!--cluster de.interactive_instruments.etf.dal.dto--><polygon fill="#FFFFFF" filter="url(#f1v6ax5qa4aapr)" points="136,16,408,16,415,38.4883,469,38.4883,469,99,136,99,136,16" style="stroke: #000000; stroke-width: 1.5;"/><line style="stroke: #000000; stroke-width: 1.5;" x1="136" x2="415" y1="38.4883" y2="38.4883"/><text fill="#000000" font-family="sans-serif" font-size="14" font-weight="bold" lengthAdjust="spacingAndGlyphs" textLength="266" x="140" y="31.5352">de.interactive_instruments.etf.dal.dto</text><!--class de.interactive_instruments.etf.dal.dto.report.StatisticalReportTableDto--><a target="_top" xlink:actuate="onRequest" xlink:href="StatisticalReportTableDto.html" xlink:show="new" xlink:title="StatisticalReportTableDto.html" xlink:type="simple"><rect fill="#FEFECE" filter="url(#f1v6ax5qa4aapr)" height="73.9102" id="de.interactive_instruments.etf.dal.dto.report.StatisticalReportTableDto" style="stroke: #A80036; stroke-width: 1.5;" width="236" x="84" y="157"/><ellipse cx="125.55" cy="173" fill="#ADD1B2" rx="11" ry="11" style="stroke: #A80036; stroke-width: 1.0;"/><path d="M128.0231,179.1431 Q127.4421,179.4419 126.8029,179.5913 Q126.1638,179.7407 125.4582,179.7407 Q122.9514,179.7407 121.6315,178.0889 Q120.3117,176.437 120.3117,173.3159 Q120.3117,170.1865 121.6315,168.5347 Q122.9514,166.8828 125.4582,166.8828 Q126.1638,166.8828 126.8112,167.0322 Q127.4587,167.1816 128.0231,167.4805 L128.0231,170.2031 Q127.3923,169.6221 126.7988,169.3523 Q126.2053,169.0825 125.5744,169.0825 Q124.2297,169.0825 123.5449,170.1492 Q122.8601,171.2158 122.8601,173.3159 Q122.8601,175.4077 123.5449,176.4744 Q124.2297,177.541 125.5744,177.541 Q126.2053,177.541 126.7988,177.2712 Q127.3923,177.0015 128.0231,176.4204 Z "/><text fill="#000000" font-family="sans-serif" font-size="12" lengthAdjust="spacingAndGlyphs" textLength="145" x="145.45" y="177.5352">StatisticalReportTableDto</text><line style="stroke: #A80036; stroke-width: 1.5;" x1="85" x2="319" y1="189" y2="189"/><line style="stroke: #A80036; stroke-width: 1.5;" x1="85" x2="319" y1="197" y2="197"/><ellipse cx="95" cy="208.9775" fill="#84BE84" rx="3" ry="3" style="stroke: #038048; stroke-width: 1.0;"/><text fill="#000000" font-family="sans-serif" font-size="11" lengthAdjust="spacingAndGlyphs" textLength="143" x="104" y="211.6348">StatisticalReportTableDto()</text><ellipse cx="95" cy="221.9326" fill="#84BE84" rx="3" ry="3" style="stroke: #038048; stroke-width: 1.0;"/><text fill="#000000" font-family="sans-serif" font-size="11" lengthAdjust="spacingAndGlyphs" textLength="210" x="104" y="224.5898">createCopy(): StatisticalReportTableDto</text></a><!--class de.interactive_instruments.etf.dal.dto.report.StatisticalReportTableDto.Entry--><a target="_top" xlink:actuate="onRequest" xlink:href="StatisticalReportTableDto.Entry.html" xlink:show="new" xlink:title="StatisticalReportTableDto.Entry.html" xlink:type="simple"><rect fill="#FEFECE" filter="url(#f1v6ax5qa4aapr)" height="60.9551" id="de.interactive_instruments.etf.dal.dto.report.StatisticalReportTableDto.Entry" style="stroke: #A80036; stroke-width: 1.5;" width="210" x="22" y="402.5"/><ellipse cx="37" cy="418.5" fill="#ADD1B2" rx="11" ry="11" style="stroke: #A80036; stroke-width: 1.0;"/><path d="M39.4731,424.6431 Q38.8921,424.9419 38.2529,425.0913 Q37.6138,425.2407 36.9082,425.2407 Q34.4014,425.2407 33.0815,423.5889 Q31.7617,421.937 31.7617,418.8159 Q31.7617,415.6865 33.0815,414.0347 Q34.4014,412.3828 36.9082,412.3828 Q37.6138,412.3828 38.2612,412.5322 Q38.9087,412.6816 39.4731,412.9805 L39.4731,415.7031 Q38.8423,415.1221 38.2488,414.8523 Q37.6553,414.5825 37.0244,414.5825 Q35.6797,414.5825 34.9949,415.6492 Q34.3101,416.7158 34.3101,418.8159 Q34.3101,420.9077 34.9949,421.9744 Q35.6797,423.041 37.0244,423.041 Q37.6553,423.041 38.2488,422.7712 Q38.8423,422.5015 39.4731,421.9204 Z "/><text fill="#000000" font-family="sans-serif" font-size="12" lengthAdjust="spacingAndGlyphs" textLength="178" x="51" y="423.0352">StatisticalReportTableDto.Entry</text><line style="stroke: #A80036; stroke-width: 1.5;" x1="23" x2="231" y1="434.5" y2="434.5"/><line style="stroke: #A80036; stroke-width: 1.5;" x1="23" x2="231" y1="442.5" y2="442.5"/><ellipse cx="33" cy="454.4775" fill="#84BE84" rx="3" ry="3" style="stroke: #038048; stroke-width: 1.0;"/><text fill="#000000" font-family="sans-serif" font-size="11" lengthAdjust="spacingAndGlyphs" textLength="79" x="42" y="457.1348">Entry(Object[])</text></a><!--class de.interactive_instruments.etf.dal.dto.report.StatisticalReportTableTypeDto--><a target="_top" xlink:actuate="onRequest" xlink:href="StatisticalReportTableTypeDto.html" xlink:show="new" xlink:title="StatisticalReportTableTypeDto.html" xlink:type="simple"><rect fill="#FEFECE" filter="url(#f1v6ax5qa4aapr)" height="125.7305" id="de.interactive_instruments.etf.dal.dto.report.StatisticalReportTableTypeDto" style="stroke: #A80036; stroke-width: 1.5;" width="262" x="267" y="370"/><ellipse cx="307.2" cy="386" fill="#ADD1B2" rx="11" ry="11" style="stroke: #A80036; stroke-width: 1.0;"/><path d="M309.6731,392.1431 Q309.0921,392.4419 308.4529,392.5913 Q307.8138,392.7407 307.1082,392.7407 Q304.6014,392.7407 303.2815,391.0889 Q301.9617,389.437 301.9617,386.3159 Q301.9617,383.1865 303.2815,381.5347 Q304.6014,379.8828 307.1082,379.8828 Q307.8138,379.8828 308.4612,380.0322 Q309.1087,380.1816 309.6731,380.4805 L309.6731,383.2031 Q309.0423,382.6221 308.4488,382.3523 Q307.8553,382.0825 307.2244,382.0825 Q305.8797,382.0825 305.1949,383.1492 Q304.5101,384.2158 304.5101,386.3159 Q304.5101,388.4077 305.1949,389.4744 Q305.8797,390.541 307.2244,390.541 Q307.8553,390.541 308.4488,390.2712 Q309.0423,390.0015 309.6731,389.4204 Z "/><text fill="#000000" font-family="sans-serif" font-size="12" lengthAdjust="spacingAndGlyphs" textLength="174" x="326.8" y="390.5352">StatisticalReportTableTypeDto</text><line style="stroke: #A80036; stroke-width: 1.5;" x1="268" x2="528" y1="402" y2="402"/><line style="stroke: #A80036; stroke-width: 1.5;" x1="268" x2="528" y1="410" y2="410"/><ellipse cx="278" cy="421.9775" fill="#84BE84" rx="3" ry="3" style="stroke: #038048; stroke-width: 1.0;"/><text fill="#000000" font-family="sans-serif" font-size="11" lengthAdjust="spacingAndGlyphs" textLength="169" x="287" y="424.6348">StatisticalReportTableTypeDto()</text><ellipse cx="278" cy="434.9326" fill="#84BE84" rx="3" ry="3" style="stroke: #038048; stroke-width: 1.0;"/><text fill="#000000" font-family="sans-serif" font-size="11" lengthAdjust="spacingAndGlyphs" textLength="214" x="287" y="437.5898">getColumnHeaderLabels(): List&lt;String&gt;</text><ellipse cx="278" cy="447.8877" fill="#84BE84" rx="3" ry="3" style="stroke: #038048; stroke-width: 1.0;"/><text fill="#000000" font-family="sans-serif" font-size="11" lengthAdjust="spacingAndGlyphs" textLength="236" x="287" y="450.5449">setColumnHeaderLabels(List&lt;String&gt;): void</text><ellipse cx="278" cy="460.8428" fill="#84BE84" rx="3" ry="3" style="stroke: #038048; stroke-width: 1.0;"/><text fill="#000000" font-family="sans-serif" font-size="11" lengthAdjust="spacingAndGlyphs" textLength="208" x="287" y="463.5">getColumnExpressions(): List&lt;String&gt;</text><ellipse cx="278" cy="473.7979" fill="#84BE84" rx="3" ry="3" style="stroke: #038048; stroke-width: 1.0;"/><text fill="#000000" font-family="sans-serif" font-size="11" lengthAdjust="spacingAndGlyphs" textLength="230" x="287" y="476.4551">setColumnExpressions(List&lt;String&gt;): void</text><ellipse cx="278" cy="486.7529" fill="#84BE84" rx="3" ry="3" style="stroke: #038048; stroke-width: 1.0;"/><text fill="#000000" font-family="sans-serif" font-size="11" lengthAdjust="spacingAndGlyphs" textLength="236" x="287" y="489.4102">createCopy(): StatisticalReportTableTypeDto</text></a><!--class de.interactive_instruments.etf.dal.dto.MetaDataItemDto--><rect fill="#FEFECE" filter="url(#f1v6ax5qa4aapr)" height="48" id="de.interactive_instruments.etf.dal.dto.MetaDataItemDto" style="stroke: #A80036; stroke-width: 1.5;" width="144" x="144" y="43"/><ellipse cx="159" cy="59" fill="#A9DCDF" rx="11" ry="11" style="stroke: #A80036; stroke-width: 1.0;"/><path d="M159.1133,54.5981 L157.9595,59.6699 L160.2754,59.6699 Z M157.6191,52.3569 L160.6157,52.3569 L163.9609,64.75 L161.5122,64.75 L160.7485,61.687 L157.4697,61.687 L156.7227,64.75 L154.2739,64.75 Z "/><text fill="#000000" font-family="sans-serif" font-size="12" font-style="italic" lengthAdjust="spacingAndGlyphs" textLength="100" x="173" y="63.5352">MetaDataItemDto</text><rect fill="#FFFFFF" height="16.1328" style="stroke: #000000; stroke-width: 1.0; stroke-dasharray: 2.0,2.0;" width="10" x="281" y="40"/><text fill="#000000" font-family="sans-serif" font-size="12" font-style="italic" lengthAdjust="spacingAndGlyphs" textLength="8" x="282" y="52.6016">T</text><line style="stroke: #A80036; stroke-width: 1.5;" x1="145" x2="287" y1="75" y2="75"/><line style="stroke: #A80036; stroke-width: 1.5;" x1="145" x2="287" y1="83" y2="83"/><!--class de.interactive_instruments.etf.dal.dto.RepositoryItemDto--><rect fill="#FEFECE" filter="url(#f1v6ax5qa4aapr)" height="48" id="de.interactive_instruments.etf.dal.dto.RepositoryItemDto" style="stroke: #A80036; stroke-width: 1.5;" width="138" x="323" y="43"/><ellipse cx="338" cy="59" fill="#A9DCDF" rx="11" ry="11" style="stroke: #A80036; stroke-width: 1.0;"/><path d="M338.1133,54.5981 L336.9595,59.6699 L339.2754,59.6699 Z M336.6191,52.3569 L339.6157,52.3569 L342.9609,64.75 L340.5122,64.75 L339.7485,61.687 L336.4697,61.687 L335.7227,64.75 L333.2739,64.75 Z "/><text fill="#000000" font-family="sans-serif" font-size="12" font-style="italic" lengthAdjust="spacingAndGlyphs" textLength="106" x="352" y="63.5352">RepositoryItemDto</text><line style="stroke: #A80036; stroke-width: 1.5;" x1="324" x2="460" y1="75" y2="75"/><line style="stroke: #A80036; stroke-width: 1.5;" x1="324" x2="460" y1="83" y2="83"/><!--link de.interactive_instruments.etf.dal.dto.MetaDataItemDto to de.interactive_instruments.etf.dal.dto.report.StatisticalReportTableDto--><path d="M211.1316,111.1638 C209.4864,126.0872 207.6677,142.5858 206.0892,156.9049 " fill="none" id="de.interactive_instruments.etf.dal.dto.MetaDataItemDto-de.interactive_instruments.etf.dal.dto.report.StatisticalReportTableDto" style="stroke: #A80036; stroke-width: 1.0;"/><polygon fill="none" points="204.1844,110.2992,213.3338,91.1867,218.1001,111.8333,204.1844,110.2992" style="stroke: #A80036; stroke-width: 1.0;"/><!--link de.interactive_instruments.etf.dal.dto.report.StatisticalReportTableDto to de.interactive_instruments.etf.dal.dto.report.StatisticalReportTableDto.Entry--><path d="M175.2865,244.9902 C168.2667,259.8547 161.2106,276.3212 156,292 C143.6651,329.1158 135.5736,373.5465 131.1471,402.4776 " fill="none" id="de.interactive_instruments.etf.dal.dto.report.StatisticalReportTableDto-de.interactive_instruments.etf.dal.dto.report.StatisticalReportTableDto.Entry" style="stroke: #A80036; stroke-width: 1.0;"/><ellipse cx="178.4439" cy="238.5011" fill="#FFFFFF" rx="8" ry="8" style="stroke: #A80036; stroke-width: 1.0;"/><line style="stroke: #A80036; stroke-width: 1.0;" x1="174.9435" x2="181.9442" y1="245.6947" y2="231.3075"/><line style="stroke: #A80036; stroke-width: 1.0;" x1="171.2503" x2="185.6374" y1="235.0007" y2="242.0014"/><!--link de.interactive_instruments.etf.dal.dto.report.StatisticalReportTableDto to de.interactive_instruments.etf.dal.dto.report.StatisticalReportTableDto.Entry--><path d="M190.3635,231.0815 C176.1407,276.4049 152.24,352.5685 138.2127,397.2688 " fill="none" id="de.interactive_instruments.etf.dal.dto.report.StatisticalReportTableDto-de.interactive_instruments.etf.dal.dto.report.StatisticalReportTableDto.Entry" style="stroke: #A80036; stroke-width: 1.0;"/><polygon fill="#A80036" points="136.636,402.2933,143.1473,394.904,138.1331,397.5227,135.5144,392.5085,136.636,402.2933" style="stroke: #A80036; stroke-width: 1.0;"/><text fill="#000000" font-family="sans-serif" font-size="13" lengthAdjust="spacingAndGlyphs" textLength="43" x="171" y="305.5684">entries</text><text fill="#000000" font-family="sans-serif" font-size="13" lengthAdjust="spacingAndGlyphs" textLength="6" x="132.0876" y="391.5428">*</text><!--link de.interactive_instruments.etf.dal.dto.RepositoryItemDto to de.interactive_instruments.etf.dal.dto.report.StatisticalReportTableTypeDto--><path d="M392.7271,111.3521 C393.7848,175.8719 395.7532,295.9437 396.9628,369.7307 " fill="none" id="de.interactive_instruments.etf.dal.dto.RepositoryItemDto-de.interactive_instruments.etf.dal.dto.report.StatisticalReportTableTypeDto" style="stroke: #A80036; stroke-width: 1.0;"/><polygon fill="none" points="385.7225,111.1264,392.3937,91.0143,399.7207,110.8968,385.7225,111.1264" style="stroke: #A80036; stroke-width: 1.0;"/><!--link de.interactive_instruments.etf.dal.dto.report.StatisticalReportTableDto to de.interactive_instruments.etf.dal.dto.report.StatisticalReportTableTypeDto--><path d="M232.4099,231.0815 C261.8436,266.9726 307.1373,322.2032 342.9186,365.8344 " fill="none" id="de.interactive_instruments.etf.dal.dto.report.StatisticalReportTableDto-de.interactive_instruments.etf.dal.dto.report.StatisticalReportTableTypeDto" style="stroke: #A80036; stroke-width: 1.0;"/><polygon fill="#A80036" points="346.1316,369.7524,343.5174,360.2568,342.961,365.8862,337.3316,365.3298,346.1316,369.7524" style="stroke: #A80036; stroke-width: 1.0;"/><text fill="#000000" font-family="sans-serif" font-size="13" lengthAdjust="spacingAndGlyphs" textLength="27" x="296" y="305.5684">type</text><!--
@startuml

    namespace de.interactive_instruments.etf.dal.dto.report {

        class StatisticalReportTableDto [[StatisticalReportTableDto.html]] {
            +StatisticalReportTableDto()
            +createCopy(): StatisticalReportTableDto
        }

        class de.interactive_instruments.etf.dal.dto.report.StatisticalReportTableDto.Entry [[StatisticalReportTableDto.Entry.html]] {
            +Entry(Object[])
        }

        class StatisticalReportTableTypeDto [[StatisticalReportTableTypeDto.html]] {
            +StatisticalReportTableTypeDto()
            +getColumnHeaderLabels(): List<String>
            +setColumnHeaderLabels(List<String>): void
            +getColumnExpressions(): List<String>
            +setColumnExpressions(List<String>): void
            +createCopy(): StatisticalReportTableTypeDto
        }

        abstract class de.interactive_instruments.etf.dal.dto.MetaDataItemDto<T>
        de.interactive_instruments.etf.dal.dto.MetaDataItemDto <|- - StatisticalReportTableDto

        StatisticalReportTableDto +- - de.interactive_instruments.etf.dal.dto.report.StatisticalReportTableDto.Entry

        abstract class de.interactive_instruments.etf.dal.dto.RepositoryItemDto
        de.interactive_instruments.etf.dal.dto.RepositoryItemDto <|- - StatisticalReportTableTypeDto

        StatisticalReportTableDto - -> StatisticalReportTableTypeDto: type

        StatisticalReportTableDto - -> "*" de.interactive_instruments.etf.dal.dto.report.StatisticalReportTableDto.Entry: entries

    }

@enduml

PlantUML version 1.2018.08(Sun Jun 24 14:31:00 CEST 2018)
(APACHE source distribution)
Java Runtime: Java(TM) SE Runtime Environment
JVM: Java HotSpot(TM) 64-Bit Server VM
Java Version: 1.8.0_151-b12
Operating System: Mac OS X
OS Version: 10.14.2
Default Encoding: UTF-8
Language: en
Country: US
--></g></svg>