<?xml version="1.0" encoding="UTF-8" standalone="no"?><svg xmlns="http://www.w3.org/2000/svg" xmlns:xlink="http://www.w3.org/1999/xlink" contentScriptType="application/ecmascript" contentStyleType="text/css" height="170px" preserveAspectRatio="none" style="width:336px;height:170px;" version="1.1" viewBox="0 0 336 170" width="336px" zoomAndPan="magnify"><defs><filter height="300%" id="f1d39zwhutlcuw" width="300%" x="-1" y="-1"><feGaussianBlur result="blurOut" stdDeviation="2.0"/><feColorMatrix in="blurOut" result="blurOut2" type="matrix" values="0 0 0 0 0 0 0 0 0 0 0 0 0 0 0 0 0 0 .4 0"/><feOffset dx="4.0" dy="4.0" in="blurOut2" result="blurOut3"/><feBlend in="SourceGraphic" in2="blurOut3" mode="normal"/></filter></defs><g><!--class StatisticalReportTableDto--><a target="_top" xlink:actuate="onRequest" xlink:href="StatisticalReportTableDto.html" xlink:show="new" xlink:title="StatisticalReportTableDto.html" xlink:type="simple"><rect fill="#FEFECE" filter="url(#f1d39zwhutlcuw)" height="151.6406" id="StatisticalReportTableDto" style="stroke: #A80036; stroke-width: 1.5;" width="319" x="6" y="8"/><ellipse cx="88.75" cy="24" fill="#ADD1B2" rx="11" ry="11" style="stroke: #A80036; stroke-width: 1.0;"/><path d="M91.2231,30.1431 Q90.6421,30.4419 90.0029,30.5913 Q89.3638,30.7407 88.6582,30.7407 Q86.1514,30.7407 84.8315,29.0889 Q83.5117,27.437 83.5117,24.3159 Q83.5117,21.1865 84.8315,19.5347 Q86.1514,17.8828 88.6582,17.8828 Q89.3638,17.8828 90.0112,18.0322 Q90.6587,18.1816 91.2231,18.4805 L91.2231,21.2031 Q90.5923,20.6221 89.9988,20.3523 Q89.4053,20.0825 88.7744,20.0825 Q87.4297,20.0825 86.7449,21.1492 Q86.0601,22.2158 86.0601,24.3159 Q86.0601,26.4077 86.7449,27.4744 Q87.4297,28.541 88.7744,28.541 Q89.4053,28.541 89.9988,28.2712 Q90.5923,28.0015 91.2231,27.4204 Z "/><text fill="#000000" font-family="sans-serif" font-size="12" lengthAdjust="spacingAndGlyphs" textLength="145" x="109.25" y="28.5352">StatisticalReportTableDto</text><line style="stroke: #A80036; stroke-width: 1.5;" x1="7" x2="324" y1="40" y2="40"/><polygon fill="none" points="17,46.9775,21,50.9775,17,54.9775,13,50.9775" style="stroke: #B38D22; stroke-width: 1.0;"/><text fill="#000000" font-family="sans-serif" font-size="11" lengthAdjust="spacingAndGlyphs" textLength="190" x="26" y="54.6348">type: StatisticalReportTableTypeDto</text><polygon fill="none" points="17,59.9326,21,63.9326,17,67.9326,13,63.9326" style="stroke: #B38D22; stroke-width: 1.0;"/><text fill="#000000" font-family="sans-serif" font-size="11" lengthAdjust="spacingAndGlyphs" textLength="246" x="26" y="67.5898">entries: List&lt;StatisticalReportTableDto.Entry&gt;</text><line style="stroke: #A80036; stroke-width: 1.5;" x1="7" x2="324" y1="73.9102" y2="73.9102"/><ellipse cx="17" cy="85.8877" fill="#84BE84" rx="3" ry="3" style="stroke: #038048; stroke-width: 1.0;"/><text fill="#000000" font-family="sans-serif" font-size="11" lengthAdjust="spacingAndGlyphs" textLength="143" x="26" y="88.5449">StatisticalReportTableDto()</text><ellipse cx="17" cy="98.8428" fill="#84BE84" rx="3" ry="3" style="stroke: #038048; stroke-width: 1.0;"/><text fill="#000000" font-family="sans-serif" font-size="11" lengthAdjust="spacingAndGlyphs" textLength="218" x="26" y="101.5">getType(): StatisticalReportTableTypeDto</text><ellipse cx="17" cy="111.7979" fill="#84BE84" rx="3" ry="3" style="stroke: #038048; stroke-width: 1.0;"/><text fill="#000000" font-family="sans-serif" font-size="11" lengthAdjust="spacingAndGlyphs" textLength="240" x="26" y="114.4551">setType(StatisticalReportTableTypeDto): void</text><ellipse cx="17" cy="124.7529" fill="#84BE84" rx="3" ry="3" style="stroke: #038048; stroke-width: 1.0;"/><text fill="#000000" font-family="sans-serif" font-size="11" lengthAdjust="spacingAndGlyphs" textLength="271" x="26" y="127.4102">getEntries(): List&lt;StatisticalReportTableDto.Entry&gt;</text><ellipse cx="17" cy="137.708" fill="#84BE84" rx="3" ry="3" style="stroke: #038048; stroke-width: 1.0;"/><text fill="#000000" font-family="sans-serif" font-size="11" lengthAdjust="spacingAndGlyphs" textLength="293" x="26" y="140.3652">setEntries(List&lt;StatisticalReportTableDto.Entry&gt;): void</text><ellipse cx="17" cy="150.6631" fill="#84BE84" rx="3" ry="3" style="stroke: #038048; stroke-width: 1.0;"/><text fill="#000000" font-family="sans-serif" font-size="11" lengthAdjust="spacingAndGlyphs" textLength="210" x="26" y="153.3203">createCopy(): StatisticalReportTableDto</text></a><!--
@startuml

    class StatisticalReportTableDto [[StatisticalReportTableDto.html]] {
        #type: StatisticalReportTableTypeDto
        #entries: List<StatisticalReportTableDto.Entry>
        +StatisticalReportTableDto()
        +getType(): StatisticalReportTableTypeDto
        +setType(StatisticalReportTableTypeDto): void
        +getEntries(): List<StatisticalReportTableDto.Entry>
        +setEntries(List<StatisticalReportTableDto.Entry>): void
        +createCopy(): StatisticalReportTableDto
    }

@enduml

PlantUML version 1.2018.08(Sun Jun 24 14:31:00 CEST 2018)
(APACHE source distribution)
Java Runtime: Java(TM) SE Runtime Environment
JVM: Java HotSpot(TM) 64-Bit Server VM
Java Version: 1.8.0_151-b12
Operating System: Mac OS X
OS Version: 10.14.2
Default Encoding: UTF-8
Language: en
Country: US
--></g></svg>