<?xml version="1.0" encoding="UTF-8" standalone="no"?><svg xmlns="http://www.w3.org/2000/svg" xmlns:xlink="http://www.w3.org/1999/xlink" contentScriptType="application/ecmascript" contentStyleType="text/css" height="124px" preserveAspectRatio="none" style="width:238px;height:124px;" version="1.1" viewBox="0 0 238 124" width="238px" zoomAndPan="magnify"><defs><filter height="300%" id="f10r8hh93xqot7" width="300%" x="-1" y="-1"><feGaussianBlur result="blurOut" stdDeviation="2.0"/><feColorMatrix in="blurOut" result="blurOut2" type="matrix" values="0 0 0 0 0 0 0 0 0 0 0 0 0 0 0 0 0 0 .4 0"/><feOffset dx="4.0" dy="4.0" in="blurOut2" result="blurOut3"/><feBlend in="SourceGraphic" in2="blurOut3" mode="normal"/></filter></defs><g><!--cluster StatisticalReportTableDto--><polygon fill="#FFFFFF" filter="url(#f10r8hh93xqot7)" points="14,16,206,16,213,38.4883,216,38.4883,216,112,14,112,14,16" style="stroke: #000000; stroke-width: 1.5;"/><line style="stroke: #000000; stroke-width: 1.5;" x1="14" x2="213" y1="38.4883" y2="38.4883"/><text fill="#000000" font-family="sans-serif" font-size="14" font-weight="bold" lengthAdjust="spacingAndGlyphs" textLength="186" x="18" y="31.5352">StatisticalReportTableDto</text><!--class StatisticalReportTableDto.Entry--><a target="_top" xlink:actuate="onRequest" xlink:href="StatisticalReportTableDto.Entry.html" xlink:show="new" xlink:title="StatisticalReportTableDto.Entry.html" xlink:type="simple"><rect fill="#FEFECE" filter="url(#f10r8hh93xqot7)" height="60.9551" id="StatisticalReportTableDto.Entry" style="stroke: #A80036; stroke-width: 1.5;" width="105" x="62.5" y="43"/><ellipse cx="97.3" cy="59" fill="#ADD1B2" rx="11" ry="11" style="stroke: #A80036; stroke-width: 1.0;"/><path d="M99.7731,65.1431 Q99.1921,65.4419 98.5529,65.5913 Q97.9138,65.7407 97.2082,65.7407 Q94.7014,65.7407 93.3815,64.0889 Q92.0617,62.437 92.0617,59.3159 Q92.0617,56.1865 93.3815,54.5347 Q94.7014,52.8828 97.2082,52.8828 Q97.9138,52.8828 98.5612,53.0322 Q99.2087,53.1816 99.7731,53.4805 L99.7731,56.2031 Q99.1423,55.6221 98.5488,55.3523 Q97.9553,55.0825 97.3244,55.0825 Q95.9797,55.0825 95.2949,56.1492 Q94.6101,57.2158 94.6101,59.3159 Q94.6101,61.4077 95.2949,62.4744 Q95.9797,63.541 97.3244,63.541 Q97.9553,63.541 98.5488,63.2712 Q99.1423,63.0015 99.7731,62.4204 Z "/><text fill="#000000" font-family="sans-serif" font-size="12" lengthAdjust="spacingAndGlyphs" textLength="29" x="115.7" y="63.5352">Entry</text><line style="stroke: #A80036; stroke-width: 1.5;" x1="63.5" x2="166.5" y1="75" y2="75"/><line style="stroke: #A80036; stroke-width: 1.5;" x1="63.5" x2="166.5" y1="83" y2="83"/><ellipse cx="73.5" cy="94.9775" fill="#84BE84" rx="3" ry="3" style="stroke: #038048; stroke-width: 1.0;"/><text fill="#000000" font-family="sans-serif" font-size="11" lengthAdjust="spacingAndGlyphs" textLength="79" x="82.5" y="97.6348">Entry(Object[])</text></a><!--
@startuml

    class StatisticalReportTableDto.Entry [[StatisticalReportTableDto.Entry.html]] {
        +Entry(Object[])
    }

@enduml

PlantUML version 1.2018.08(Sun Jun 24 14:31:00 CEST 2018)
(APACHE source distribution)
Java Runtime: Java(TM) SE Runtime Environment
JVM: Java HotSpot(TM) 64-Bit Server VM
Java Version: 1.8.0_151-b12
Operating System: Mac OS X
OS Version: 10.14.2
Default Encoding: UTF-8
Language: en
Country: US
--></g></svg>