<?xml version="1.0" encoding="UTF-8" standalone="no"?><svg xmlns="http://www.w3.org/2000/svg" xmlns:xlink="http://www.w3.org/1999/xlink" contentScriptType="application/ecmascript" contentStyleType="text/css" height="144px" preserveAspectRatio="none" style="width:279px;height:144px;" version="1.1" viewBox="0 0 279 144" width="279px" zoomAndPan="magnify"><defs><filter height="300%" id="fumpcss0selns" width="300%" x="-1" y="-1"><feGaussianBlur result="blurOut" stdDeviation="2.0"/><feColorMatrix in="blurOut" result="blurOut2" type="matrix" values="0 0 0 0 0 0 0 0 0 0 0 0 0 0 0 0 0 0 .4 0"/><feOffset dx="4.0" dy="4.0" in="blurOut2" result="blurOut3"/><feBlend in="SourceGraphic" in2="blurOut3" mode="normal"/></filter></defs><g><!--class StatisticalReportTableTypeDto--><a target="_top" xlink:actuate="onRequest" xlink:href="StatisticalReportTableTypeDto.html" xlink:show="new" xlink:title="StatisticalReportTableTypeDto.html" xlink:type="simple"><rect fill="#FEFECE" filter="url(#fumpcss0selns)" height="125.7305" id="StatisticalReportTableTypeDto" style="stroke: #A80036; stroke-width: 1.5;" width="262" x="6" y="8"/><ellipse cx="46.2" cy="24" fill="#ADD1B2" rx="11" ry="11" style="stroke: #A80036; stroke-width: 1.0;"/><path d="M48.6731,30.1431 Q48.0921,30.4419 47.4529,30.5913 Q46.8138,30.7407 46.1082,30.7407 Q43.6014,30.7407 42.2815,29.0889 Q40.9617,27.437 40.9617,24.3159 Q40.9617,21.1865 42.2815,19.5347 Q43.6014,17.8828 46.1082,17.8828 Q46.8138,17.8828 47.4612,18.0322 Q48.1087,18.1816 48.6731,18.4805 L48.6731,21.2031 Q48.0423,20.6221 47.4488,20.3523 Q46.8553,20.0825 46.2244,20.0825 Q44.8797,20.0825 44.1949,21.1492 Q43.5101,22.2158 43.5101,24.3159 Q43.5101,26.4077 44.1949,27.4744 Q44.8797,28.541 46.2244,28.541 Q46.8553,28.541 47.4488,28.2712 Q48.0423,28.0015 48.6731,27.4204 Z "/><text fill="#000000" font-family="sans-serif" font-size="12" lengthAdjust="spacingAndGlyphs" textLength="174" x="65.8" y="28.5352">StatisticalReportTableTypeDto</text><line style="stroke: #A80036; stroke-width: 1.5;" x1="7" x2="267" y1="40" y2="40"/><line style="stroke: #A80036; stroke-width: 1.5;" x1="7" x2="267" y1="48" y2="48"/><ellipse cx="17" cy="59.9775" fill="#84BE84" rx="3" ry="3" style="stroke: #038048; stroke-width: 1.0;"/><text fill="#000000" font-family="sans-serif" font-size="11" lengthAdjust="spacingAndGlyphs" textLength="169" x="26" y="62.6348">StatisticalReportTableTypeDto()</text><ellipse cx="17" cy="72.9326" fill="#84BE84" rx="3" ry="3" style="stroke: #038048; stroke-width: 1.0;"/><text fill="#000000" font-family="sans-serif" font-size="11" lengthAdjust="spacingAndGlyphs" textLength="214" x="26" y="75.5898">getColumnHeaderLabels(): List&lt;String&gt;</text><ellipse cx="17" cy="85.8877" fill="#84BE84" rx="3" ry="3" style="stroke: #038048; stroke-width: 1.0;"/><text fill="#000000" font-family="sans-serif" font-size="11" lengthAdjust="spacingAndGlyphs" textLength="236" x="26" y="88.5449">setColumnHeaderLabels(List&lt;String&gt;): void</text><ellipse cx="17" cy="98.8428" fill="#84BE84" rx="3" ry="3" style="stroke: #038048; stroke-width: 1.0;"/><text fill="#000000" font-family="sans-serif" font-size="11" lengthAdjust="spacingAndGlyphs" textLength="208" x="26" y="101.5">getColumnExpressions(): List&lt;String&gt;</text><ellipse cx="17" cy="111.7979" fill="#84BE84" rx="3" ry="3" style="stroke: #038048; stroke-width: 1.0;"/><text fill="#000000" font-family="sans-serif" font-size="11" lengthAdjust="spacingAndGlyphs" textLength="230" x="26" y="114.4551">setColumnExpressions(List&lt;String&gt;): void</text><ellipse cx="17" cy="124.7529" fill="#84BE84" rx="3" ry="3" style="stroke: #038048; stroke-width: 1.0;"/><text fill="#000000" font-family="sans-serif" font-size="11" lengthAdjust="spacingAndGlyphs" textLength="236" x="26" y="127.4102">createCopy(): StatisticalReportTableTypeDto</text></a><!--
@startuml

    class StatisticalReportTableTypeDto [[StatisticalReportTableTypeDto.html]] {
        +StatisticalReportTableTypeDto()
        +getColumnHeaderLabels(): List<String>
        +setColumnHeaderLabels(List<String>): void
        +getColumnExpressions(): List<String>
        +setColumnExpressions(List<String>): void
        +createCopy(): StatisticalReportTableTypeDto
    }

@enduml

PlantUML version 1.2018.08(Sun Jun 24 14:31:00 CEST 2018)
(APACHE source distribution)
Java Runtime: Java(TM) SE Runtime Environment
JVM: Java HotSpot(TM) 64-Bit Server VM
Java Version: 1.8.0_151-b12
Operating System: Mac OS X
OS Version: 10.14.2
Default Encoding: UTF-8
Language: en
Country: US
--></g></svg>