<?xml version="1.0" encoding="UTF-8" standalone="no"?><svg xmlns="http://www.w3.org/2000/svg" xmlns:xlink="http://www.w3.org/1999/xlink" contentScriptType="application/ecmascript" contentStyleType="text/css" height="79px" preserveAspectRatio="none" style="width:183px;height:79px;" version="1.1" viewBox="0 0 183 79" width="183px" zoomAndPan="magnify"><defs><filter height="300%" id="fbb3e1a1crj3w" width="300%" x="-1" y="-1"><feGaussianBlur result="blurOut" stdDeviation="2.0"/><feColorMatrix in="blurOut" result="blurOut2" type="matrix" values="0 0 0 0 0 0 0 0 0 0 0 0 0 0 0 0 0 0 .4 0"/><feOffset dx="4.0" dy="4.0" in="blurOut2" result="blurOut3"/><feBlend in="SourceGraphic" in2="blurOut3" mode="normal"/></filter></defs><g><!--class IllegalEidException--><a target="_top" xlink:actuate="onRequest" xlink:href="IllegalEidException.html" xlink:show="new" xlink:title="IllegalEidException.html" xlink:type="simple"><rect fill="#FEFECE" filter="url(#fbb3e1a1crj3w)" height="60.9551" id="IllegalEidException" style="stroke: #A80036; stroke-width: 1.5;" width="166" x="6" y="8"/><ellipse cx="33.15" cy="24" fill="#ADD1B2" rx="11" ry="11" style="stroke: #A80036; stroke-width: 1.0;"/><path d="M35.6231,30.1431 Q35.0421,30.4419 34.4029,30.5913 Q33.7638,30.7407 33.0582,30.7407 Q30.5514,30.7407 29.2315,29.0889 Q27.9117,27.437 27.9117,24.3159 Q27.9117,21.1865 29.2315,19.5347 Q30.5514,17.8828 33.0582,17.8828 Q33.7638,17.8828 34.4112,18.0322 Q35.0587,18.1816 35.6231,18.4805 L35.6231,21.2031 Q34.9923,20.6221 34.3988,20.3523 Q33.8053,20.0825 33.1744,20.0825 Q31.8297,20.0825 31.1449,21.1492 Q30.4601,22.2158 30.4601,24.3159 Q30.4601,26.4077 31.1449,27.4744 Q31.8297,28.541 33.1744,28.541 Q33.8053,28.541 34.3988,28.2712 Q34.9923,28.0015 35.6231,27.4204 Z "/><text fill="#000000" font-family="sans-serif" font-size="12" lengthAdjust="spacingAndGlyphs" textLength="107" x="49.85" y="28.5352">IllegalEidException</text><line style="stroke: #A80036; stroke-width: 1.5;" x1="7" x2="171" y1="40" y2="40"/><line style="stroke: #A80036; stroke-width: 1.5;" x1="7" x2="171" y1="48" y2="48"/><ellipse cx="17" cy="59.9775" fill="#84BE84" rx="3" ry="3" style="stroke: #038048; stroke-width: 1.0;"/><text fill="#000000" font-family="sans-serif" font-size="11" lengthAdjust="spacingAndGlyphs" textLength="140" x="26" y="62.6348">IllegalEidException(String)</text></a><!--
@startuml

    class IllegalEidException [[IllegalEidException.html]] {
        +IllegalEidException(String)
    }

@enduml

PlantUML version 1.2018.08(Sun Jun 24 14:31:00 CEST 2018)
(APACHE source distribution)
Java Runtime: Java(TM) SE Runtime Environment
JVM: Java HotSpot(TM) 64-Bit Server VM
Java Version: 1.8.0_151-b12
Operating System: Mac OS X
OS Version: 10.14.2
Default Encoding: UTF-8
Language: en
Country: US
--></g></svg>