<?xml version="1.0" encoding="UTF-8" standalone="no"?><svg xmlns="http://www.w3.org/2000/svg" xmlns:xlink="http://www.w3.org/1999/xlink" contentScriptType="application/ecmascript" contentStyleType="text/css" height="232px" preserveAspectRatio="none" style="width:728px;height:232px;" version="1.1" viewBox="0 0 728 232" width="728px" zoomAndPan="magnify"><defs><filter height="300%" id="ffvo9qd9lmeuz" width="300%" x="-1" y="-1"><feGaussianBlur result="blurOut" stdDeviation="2.0"/><feColorMatrix in="blurOut" result="blurOut2" type="matrix" values="0 0 0 0 0 0 0 0 0 0 0 0 0 0 0 0 0 0 .4 0"/><feOffset dx="4.0" dy="4.0" in="blurOut2" result="blurOut3"/><feBlend in="SourceGraphic" in2="blurOut3" mode="normal"/></filter></defs><g><!--cluster de.interactive_instruments.etf.model.exceptions--><polygon fill="#FFFFFF" filter="url(#ffvo9qd9lmeuz)" points="14,124,362,124,369,146.4883,706,146.4883,706,220,14,220,14,124" style="stroke: #000000; stroke-width: 1.5;"/><line style="stroke: #000000; stroke-width: 1.5;" x1="14" x2="369" y1="146.4883" y2="146.4883"/><text fill="#000000" font-family="sans-serif" font-size="14" font-weight="bold" lengthAdjust="spacingAndGlyphs" textLength="342" x="18" y="139.5352">de.interactive_instruments.etf.model.exceptions</text><!--cluster java.lang--><polygon fill="#FFFFFF" filter="url(#ffvo9qd9lmeuz)" points="336,16,405,16,412,38.4883,653,38.4883,653,99,336,99,336,16" style="stroke: #000000; stroke-width: 1.5;"/><line style="stroke: #000000; stroke-width: 1.5;" x1="336" x2="412" y1="38.4883" y2="38.4883"/><text fill="#000000" font-family="sans-serif" font-size="14" font-weight="bold" lengthAdjust="spacingAndGlyphs" textLength="63" x="340" y="31.5352">java.lang</text><!--class de.interactive_instruments.etf.model.exceptions.IllegalEidException--><a target="_top" xlink:actuate="onRequest" xlink:href="IllegalEidException.html" xlink:show="new" xlink:title="IllegalEidException.html" xlink:type="simple"><rect fill="#FEFECE" filter="url(#ffvo9qd9lmeuz)" height="60.9551" id="de.interactive_instruments.etf.model.exceptions.IllegalEidException" style="stroke: #A80036; stroke-width: 1.5;" width="166" x="532" y="151"/><ellipse cx="559.15" cy="167" fill="#ADD1B2" rx="11" ry="11" style="stroke: #A80036; stroke-width: 1.0;"/><path d="M561.6231,173.1431 Q561.0421,173.4419 560.4029,173.5913 Q559.7638,173.7407 559.0582,173.7407 Q556.5514,173.7407 555.2315,172.0889 Q553.9117,170.437 553.9117,167.3159 Q553.9117,164.1865 555.2315,162.5347 Q556.5514,160.8828 559.0582,160.8828 Q559.7638,160.8828 560.4112,161.0322 Q561.0587,161.1816 561.6231,161.4805 L561.6231,164.2031 Q560.9923,163.6221 560.3988,163.3523 Q559.8053,163.0825 559.1744,163.0825 Q557.8297,163.0825 557.1449,164.1492 Q556.4601,165.2158 556.4601,167.3159 Q556.4601,169.4077 557.1449,170.4744 Q557.8297,171.541 559.1744,171.541 Q559.8053,171.541 560.3988,171.2712 Q560.9923,171.0015 561.6231,170.4204 Z "/><text fill="#000000" font-family="sans-serif" font-size="12" lengthAdjust="spacingAndGlyphs" textLength="107" x="575.85" y="171.5352">IllegalEidException</text><line style="stroke: #A80036; stroke-width: 1.5;" x1="533" x2="697" y1="183" y2="183"/><line style="stroke: #A80036; stroke-width: 1.5;" x1="533" x2="697" y1="191" y2="191"/><ellipse cx="543" cy="202.9775" fill="#84BE84" rx="3" ry="3" style="stroke: #038048; stroke-width: 1.0;"/><text fill="#000000" font-family="sans-serif" font-size="11" lengthAdjust="spacingAndGlyphs" textLength="140" x="552" y="205.6348">IllegalEidException(String)</text></a><!--class de.interactive_instruments.etf.model.exceptions.TestStepNotFoundException--><a target="_top" xlink:actuate="onRequest" xlink:href="TestStepNotFoundException.html" xlink:show="new" xlink:title="TestStepNotFoundException.html" xlink:type="simple"><rect fill="#FEFECE" filter="url(#ffvo9qd9lmeuz)" height="60.9551" id="de.interactive_instruments.etf.model.exceptions.TestStepNotFoundException" style="stroke: #A80036; stroke-width: 1.5;" width="218" x="279" y="151"/><ellipse cx="305.25" cy="167" fill="#ADD1B2" rx="11" ry="11" style="stroke: #A80036; stroke-width: 1.0;"/><path d="M307.7231,173.1431 Q307.1421,173.4419 306.5029,173.5913 Q305.8638,173.7407 305.1582,173.7407 Q302.6514,173.7407 301.3315,172.0889 Q300.0117,170.437 300.0117,167.3159 Q300.0117,164.1865 301.3315,162.5347 Q302.6514,160.8828 305.1582,160.8828 Q305.8638,160.8828 306.5112,161.0322 Q307.1587,161.1816 307.7231,161.4805 L307.7231,164.2031 Q307.0923,163.6221 306.4988,163.3523 Q305.9053,163.0825 305.2744,163.0825 Q303.9297,163.0825 303.2449,164.1492 Q302.5601,165.2158 302.5601,167.3159 Q302.5601,169.4077 303.2449,170.4744 Q303.9297,171.541 305.2744,171.541 Q305.9053,171.541 306.4988,171.2712 Q307.0923,171.0015 307.7231,170.4204 Z "/><text fill="#000000" font-family="sans-serif" font-size="12" lengthAdjust="spacingAndGlyphs" textLength="161" x="321.75" y="171.5352">TestStepNotFoundException</text><line style="stroke: #A80036; stroke-width: 1.5;" x1="280" x2="496" y1="183" y2="183"/><line style="stroke: #A80036; stroke-width: 1.5;" x1="280" x2="496" y1="191" y2="191"/><ellipse cx="290" cy="202.9775" fill="#84BE84" rx="3" ry="3" style="stroke: #038048; stroke-width: 1.0;"/><text fill="#000000" font-family="sans-serif" font-size="11" lengthAdjust="spacingAndGlyphs" textLength="192" x="299" y="205.6348">TestStepNotFoundException(String)</text></a><!--class de.interactive_instruments.etf.model.exceptions.TestCaseNotFoundException--><a target="_top" xlink:actuate="onRequest" xlink:href="TestCaseNotFoundException.html" xlink:show="new" xlink:title="TestCaseNotFoundException.html" xlink:type="simple"><rect fill="#FEFECE" filter="url(#ffvo9qd9lmeuz)" height="60.9551" id="de.interactive_instruments.etf.model.exceptions.TestCaseNotFoundException" style="stroke: #A80036; stroke-width: 1.5;" width="221" x="22.5" y="151"/><ellipse cx="48.75" cy="167" fill="#ADD1B2" rx="11" ry="11" style="stroke: #A80036; stroke-width: 1.0;"/><path d="M51.2231,173.1431 Q50.6421,173.4419 50.0029,173.5913 Q49.3638,173.7407 48.6582,173.7407 Q46.1514,173.7407 44.8315,172.0889 Q43.5117,170.437 43.5117,167.3159 Q43.5117,164.1865 44.8315,162.5347 Q46.1514,160.8828 48.6582,160.8828 Q49.3638,160.8828 50.0112,161.0322 Q50.6587,161.1816 51.2231,161.4805 L51.2231,164.2031 Q50.5923,163.6221 49.9988,163.3523 Q49.4053,163.0825 48.7744,163.0825 Q47.4297,163.0825 46.7449,164.1492 Q46.0601,165.2158 46.0601,167.3159 Q46.0601,169.4077 46.7449,170.4744 Q47.4297,171.541 48.7744,171.541 Q49.4053,171.541 49.9988,171.2712 Q50.5923,171.0015 51.2231,170.4204 Z "/><text fill="#000000" font-family="sans-serif" font-size="12" lengthAdjust="spacingAndGlyphs" textLength="164" x="65.25" y="171.5352">TestCaseNotFoundException</text><line style="stroke: #A80036; stroke-width: 1.5;" x1="23.5" x2="242.5" y1="183" y2="183"/><line style="stroke: #A80036; stroke-width: 1.5;" x1="23.5" x2="242.5" y1="191" y2="191"/><ellipse cx="33.5" cy="202.9775" fill="#84BE84" rx="3" ry="3" style="stroke: #038048; stroke-width: 1.0;"/><text fill="#000000" font-family="sans-serif" font-size="11" lengthAdjust="spacingAndGlyphs" textLength="195" x="42.5" y="205.6348">TestCaseNotFoundException(String)</text></a><!--class java.lang.IllegalArgumentException--><rect fill="#FEFECE" filter="url(#ffvo9qd9lmeuz)" height="48" id="java.lang.IllegalArgumentException" style="stroke: #A80036; stroke-width: 1.5;" width="177" x="467.5" y="43"/><ellipse cx="482.5" cy="59" fill="#ADD1B2" rx="11" ry="11" style="stroke: #A80036; stroke-width: 1.0;"/><path d="M484.9731,65.1431 Q484.3921,65.4419 483.7529,65.5913 Q483.1138,65.7407 482.4082,65.7407 Q479.9014,65.7407 478.5815,64.0889 Q477.2617,62.437 477.2617,59.3159 Q477.2617,56.1865 478.5815,54.5347 Q479.9014,52.8828 482.4082,52.8828 Q483.1138,52.8828 483.7612,53.0322 Q484.4087,53.1816 484.9731,53.4805 L484.9731,56.2031 Q484.3423,55.6221 483.7488,55.3523 Q483.1553,55.0825 482.5244,55.0825 Q481.1797,55.0825 480.4949,56.1492 Q479.8101,57.2158 479.8101,59.3159 Q479.8101,61.4077 480.4949,62.4744 Q481.1797,63.541 482.5244,63.541 Q483.1553,63.541 483.7488,63.2712 Q484.3423,63.0015 484.9731,62.4204 Z "/><text fill="#000000" font-family="sans-serif" font-size="12" lengthAdjust="spacingAndGlyphs" textLength="145" x="496.5" y="63.5352">IllegalArgumentException</text><line style="stroke: #A80036; stroke-width: 1.5;" x1="468.5" x2="643.5" y1="75" y2="75"/><line style="stroke: #A80036; stroke-width: 1.5;" x1="468.5" x2="643.5" y1="83" y2="83"/><!--class java.lang.Exception--><rect fill="#FEFECE" filter="url(#ffvo9qd9lmeuz)" height="48" id="java.lang.Exception" style="stroke: #A80036; stroke-width: 1.5;" width="88" x="344" y="43"/><ellipse cx="359" cy="59" fill="#ADD1B2" rx="11" ry="11" style="stroke: #A80036; stroke-width: 1.0;"/><path d="M361.4731,65.1431 Q360.8921,65.4419 360.2529,65.5913 Q359.6138,65.7407 358.9082,65.7407 Q356.4014,65.7407 355.0815,64.0889 Q353.7617,62.437 353.7617,59.3159 Q353.7617,56.1865 355.0815,54.5347 Q356.4014,52.8828 358.9082,52.8828 Q359.6138,52.8828 360.2612,53.0322 Q360.9087,53.1816 361.4731,53.4805 L361.4731,56.2031 Q360.8423,55.6221 360.2488,55.3523 Q359.6553,55.0825 359.0244,55.0825 Q357.6797,55.0825 356.9949,56.1492 Q356.3101,57.2158 356.3101,59.3159 Q356.3101,61.4077 356.9949,62.4744 Q357.6797,63.541 359.0244,63.541 Q359.6553,63.541 360.2488,63.2712 Q360.8423,63.0015 361.4731,62.4204 Z "/><text fill="#000000" font-family="sans-serif" font-size="12" lengthAdjust="spacingAndGlyphs" textLength="56" x="373" y="63.5352">Exception</text><line style="stroke: #A80036; stroke-width: 1.5;" x1="345" x2="431" y1="75" y2="75"/><line style="stroke: #A80036; stroke-width: 1.5;" x1="345" x2="431" y1="83" y2="83"/><!--link java.lang.IllegalArgumentException to de.interactive_instruments.etf.model.exceptions.IllegalEidException--><path d="M577.5691,108.8587 C584.7544,122.803 592.6177,138.0632 599.2745,150.9818 " fill="none" id="java.lang.IllegalArgumentException-de.interactive_instruments.etf.model.exceptions.IllegalEidException" style="stroke: #A80036; stroke-width: 1.0;"/><polygon fill="none" points="571.3069,111.9879,568.3683,91.003,583.7519,105.5751,571.3069,111.9879" style="stroke: #A80036; stroke-width: 1.0;"/><!--link java.lang.Exception to de.interactive_instruments.etf.model.exceptions.TestStepNotFoundException--><path d="M388,111.2477 C388,124.5296 388,138.7972 388,150.9818 " fill="none" id="java.lang.Exception-de.interactive_instruments.etf.model.exceptions.TestStepNotFoundException" style="stroke: #A80036; stroke-width: 1.0;"/><polygon fill="none" points="381.0001,111.003,388,91.003,395.0001,111.0029,381.0001,111.003" style="stroke: #A80036; stroke-width: 1.0;"/><!--link java.lang.Exception to de.interactive_instruments.etf.model.exceptions.TestCaseNotFoundException--><path d="M325.4698,95.0773 C287.7555,112.0118 239.6913,133.5935 201.0291,150.9536 " fill="none" id="java.lang.Exception-de.interactive_instruments.etf.model.exceptions.TestCaseNotFoundException" style="stroke: #A80036; stroke-width: 1.0;"/><polygon fill="none" points="322.761,88.6203,343.8735,86.8137,328.4957,101.3919,322.761,88.6203" style="stroke: #A80036; stroke-width: 1.0;"/><!--
@startuml

    namespace de.interactive_instruments.etf.model.exceptions {

        class IllegalEidException [[IllegalEidException.html]] {
            +IllegalEidException(String)
        }

        class TestStepNotFoundException [[TestStepNotFoundException.html]] {
            +TestStepNotFoundException(String)
        }

        class TestCaseNotFoundException [[TestCaseNotFoundException.html]] {
            +TestCaseNotFoundException(String)
        }

        class java.lang.IllegalArgumentException
        java.lang.IllegalArgumentException <|- - IllegalEidException

        class java.lang.Exception
        java.lang.Exception <|- - TestStepNotFoundException

        java.lang.Exception <|- - TestCaseNotFoundException

    }

@enduml

PlantUML version 1.2018.08(Sun Jun 24 14:31:00 CEST 2018)
(APACHE source distribution)
Java Runtime: Java(TM) SE Runtime Environment
JVM: Java HotSpot(TM) 64-Bit Server VM
Java Version: 1.8.0_151-b12
Operating System: Mac OS X
OS Version: 10.14.2
Default Encoding: UTF-8
Language: en
Country: US
--></g></svg>