<?xml version="1.0" encoding="UTF-8" standalone="no"?><svg xmlns="http://www.w3.org/2000/svg" xmlns:xlink="http://www.w3.org/1999/xlink" contentScriptType="application/ecmascript" contentStyleType="text/css" height="150px" preserveAspectRatio="none" style="width:240px;height:150px;" version="1.1" viewBox="0 0 240 150" width="240px" zoomAndPan="magnify"><defs><filter height="300%" id="fuor7jj27o270" width="300%" x="-1" y="-1"><feGaussianBlur result="blurOut" stdDeviation="2.0"/><feColorMatrix in="blurOut" result="blurOut2" type="matrix" values="0 0 0 0 0 0 0 0 0 0 0 0 0 0 0 0 0 0 .4 0"/><feOffset dx="4.0" dy="4.0" in="blurOut2" result="blurOut3"/><feBlend in="SourceGraphic" in2="blurOut3" mode="normal"/></filter></defs><g><!--cluster Filter--><polygon fill="#FFFFFF" filter="url(#fuor7jj27o270)" points="14,16,58,16,65,38.4883,218,38.4883,218,138,14,138,14,16" style="stroke: #000000; stroke-width: 1.5;"/><line style="stroke: #000000; stroke-width: 1.5;" x1="14" x2="65" y1="38.4883" y2="38.4883"/><text fill="#000000" font-family="sans-serif" font-size="14" font-weight="bold" lengthAdjust="spacingAndGlyphs" textLength="38" x="18" y="31.5352">Filter</text><!--class Filter.LevelOfDetail--><a target="_top" xlink:actuate="onRequest" xlink:href="Filter.LevelOfDetail.html" xlink:show="new" xlink:title="Filter.LevelOfDetail.html" xlink:type="simple"><rect fill="#FEFECE" filter="url(#fuor7jj27o270)" height="86.8652" id="Filter.LevelOfDetail" style="stroke: #A80036; stroke-width: 1.5;" width="188" x="22" y="43"/><ellipse cx="74.25" cy="59" fill="#EB937F" rx="11" ry="11" style="stroke: #A80036; stroke-width: 1.0;"/><path d="M77.8643,65.5 L70.1445,65.5 L70.1445,53.1069 L77.8643,53.1069 L77.8643,55.2651 L72.5933,55.2651 L72.5933,57.938 L77.3662,57.938 L77.3662,60.0962 L72.5933,60.0962 L72.5933,63.3418 L77.8643,63.3418 Z "/><text fill="#000000" font-family="sans-serif" font-size="12" lengthAdjust="spacingAndGlyphs" textLength="75" x="94.75" y="63.5352">LevelOfDetail</text><line style="stroke: #A80036; stroke-width: 1.5;" x1="23" x2="209" y1="75" y2="75"/><ellipse cx="33" cy="86.9775" fill="none" rx="3" ry="3" style="stroke: #038048; stroke-width: 1.0;"/><text fill="#000000" font-family="sans-serif" font-size="11" lengthAdjust="spacingAndGlyphs" text-decoration="underline" textLength="36" x="42" y="89.6348">SIMPLE</text><line style="stroke: #000000; stroke-width: 1.0;" x1="42" x2="78" y1="91.6348" y2="91.6348"/><ellipse cx="33" cy="99.9326" fill="none" rx="3" ry="3" style="stroke: #038048; stroke-width: 1.0;"/><text fill="#000000" font-family="sans-serif" font-size="11" lengthAdjust="spacingAndGlyphs" text-decoration="underline" textLength="47" x="42" y="102.5898">HISTORY</text><line style="stroke: #000000; stroke-width: 1.0;" x1="42" x2="89" y1="104.5898" y2="104.5898"/><ellipse cx="33" cy="112.8877" fill="none" rx="3" ry="3" style="stroke: #038048; stroke-width: 1.0;"/><text fill="#000000" font-family="sans-serif" font-size="11" lengthAdjust="spacingAndGlyphs" text-decoration="underline" textLength="162" x="42" y="115.5449">DETAILED_WITHOUT_HISTORY</text><line style="stroke: #000000; stroke-width: 1.0;" x1="42" x2="204" y1="117.5449" y2="117.5449"/><line style="stroke: #A80036; stroke-width: 1.5;" x1="23" x2="209" y1="121.8652" y2="121.8652"/></a><!--
@startuml

    enum Filter.LevelOfDetail [[Filter.LevelOfDetail.html]] {
        {static} +SIMPLE
        {static} +HISTORY
        {static} +DETAILED_WITHOUT_HISTORY
    }

@enduml

PlantUML version 1.2018.08(Sun Jun 24 14:31:00 CEST 2018)
(APACHE source distribution)
Java Runtime: Java(TM) SE Runtime Environment
JVM: Java HotSpot(TM) 64-Bit Server VM
Java Version: 1.8.0_151-b12
Operating System: Mac OS X
OS Version: 10.14.2
Default Encoding: UTF-8
Language: en
Country: US
--></g></svg>