<?xml version="1.0" encoding="UTF-8" standalone="no"?><svg xmlns="http://www.w3.org/2000/svg" xmlns:xlink="http://www.w3.org/1999/xlink" contentScriptType="application/ecmascript" contentStyleType="text/css" height="137px" preserveAspectRatio="none" style="width:148px;height:137px;" version="1.1" viewBox="0 0 148 137" width="148px" zoomAndPan="magnify"><defs><filter height="300%" id="f5h3ovm6u4b8m" width="300%" x="-1" y="-1"><feGaussianBlur result="blurOut" stdDeviation="2.0"/><feColorMatrix in="blurOut" result="blurOut2" type="matrix" values="0 0 0 0 0 0 0 0 0 0 0 0 0 0 0 0 0 0 .4 0"/><feOffset dx="4.0" dy="4.0" in="blurOut2" result="blurOut3"/><feBlend in="SourceGraphic" in2="blurOut3" mode="normal"/></filter></defs><g><!--cluster FilterBuilder--><polygon fill="#FFFFFF" filter="url(#f5h3ovm6u4b8m)" points="14,16,109,16,116,38.4883,126,38.4883,126,125,14,125,14,16" style="stroke: #000000; stroke-width: 1.5;"/><line style="stroke: #000000; stroke-width: 1.5;" x1="14" x2="116" y1="38.4883" y2="38.4883"/><text fill="#000000" font-family="sans-serif" font-size="14" font-weight="bold" lengthAdjust="spacingAndGlyphs" textLength="89" x="18" y="31.5352">FilterBuilder</text><!--class FilterBuilder.Order--><a target="_top" xlink:actuate="onRequest" xlink:href="FilterBuilder.Order.html" xlink:show="new" xlink:title="FilterBuilder.Order.html" xlink:type="simple"><rect fill="#FEFECE" filter="url(#f5h3ovm6u4b8m)" height="73.9102" id="FilterBuilder.Order" style="stroke: #A80036; stroke-width: 1.5;" width="95" x="22.5" y="43"/><ellipse cx="50.55" cy="59" fill="#EB937F" rx="11" ry="11" style="stroke: #A80036; stroke-width: 1.0;"/><path d="M54.1643,65.5 L46.4445,65.5 L46.4445,53.1069 L54.1643,53.1069 L54.1643,55.2651 L48.8933,55.2651 L48.8933,57.938 L53.6662,57.938 L53.6662,60.0962 L48.8933,60.0962 L48.8933,63.3418 L54.1643,63.3418 Z "/><text fill="#000000" font-family="sans-serif" font-size="12" lengthAdjust="spacingAndGlyphs" textLength="34" x="67.45" y="63.5352">Order</text><line style="stroke: #A80036; stroke-width: 1.5;" x1="23.5" x2="116.5" y1="75" y2="75"/><ellipse cx="33.5" cy="86.9775" fill="none" rx="3" ry="3" style="stroke: #038048; stroke-width: 1.0;"/><text fill="#000000" font-family="sans-serif" font-size="11" lengthAdjust="spacingAndGlyphs" text-decoration="underline" textLength="63" x="42.5" y="89.6348">ASCENDING</text><line style="stroke: #000000; stroke-width: 1.0;" x1="42.5" x2="105.5" y1="91.6348" y2="91.6348"/><ellipse cx="33.5" cy="99.9326" fill="none" rx="3" ry="3" style="stroke: #038048; stroke-width: 1.0;"/><text fill="#000000" font-family="sans-serif" font-size="11" lengthAdjust="spacingAndGlyphs" text-decoration="underline" textLength="69" x="42.5" y="102.5898">DESCENDING</text><line style="stroke: #000000; stroke-width: 1.0;" x1="42.5" x2="111.5" y1="104.5898" y2="104.5898"/><line style="stroke: #A80036; stroke-width: 1.5;" x1="23.5" x2="116.5" y1="108.9102" y2="108.9102"/></a><!--
@startuml

    enum FilterBuilder.Order [[FilterBuilder.Order.html]] {
        {static} +ASCENDING
        {static} +DESCENDING
    }

@enduml

PlantUML version 1.2018.08(Sun Jun 24 14:31:00 CEST 2018)
(APACHE source distribution)
Java Runtime: Java(TM) SE Runtime Environment
JVM: Java HotSpot(TM) 64-Bit Server VM
Java Version: 1.8.0_151-b12
Operating System: Mac OS X
OS Version: 10.14.2
Default Encoding: UTF-8
Language: en
Country: US
--></g></svg>