<?xml version="1.0" encoding="UTF-8" standalone="no"?><svg xmlns="http://www.w3.org/2000/svg" xmlns:xlink="http://www.w3.org/1999/xlink" contentScriptType="application/ecmascript" contentStyleType="text/css" height="601px" preserveAspectRatio="none" style="width:2221px;height:601px;" version="1.1" viewBox="0 0 2221 601" width="2221px" zoomAndPan="magnify"><defs><filter height="300%" id="fbjjfumw7ukyn" width="300%" x="-1" y="-1"><feGaussianBlur result="blurOut" stdDeviation="2.0"/><feColorMatrix in="blurOut" result="blurOut2" type="matrix" values="0 0 0 0 0 0 0 0 0 0 0 0 0 0 0 0 0 0 .4 0"/><feOffset dx="4.0" dy="4.0" in="blurOut2" result="blurOut3"/><feBlend in="SourceGraphic" in2="blurOut3" mode="normal"/></filter></defs><g><!--cluster de.interactive_instruments.etf.detector--><polygon fill="#FFFFFF" filter="url(#fbjjfumw7ukyn)" points="14,156,296,156,303,178.4883,2199,178.4883,2199,304,14,304,14,156" style="stroke: #000000; stroke-width: 1.5;"/><line style="stroke: #000000; stroke-width: 1.5;" x1="14" x2="303" y1="178.4883" y2="178.4883"/><text fill="#000000" font-family="sans-serif" font-size="14" font-weight="bold" lengthAdjust="spacingAndGlyphs" textLength="276" x="18" y="171.5352">de.interactive_instruments.etf.detector</text><!--cluster java.lang--><polygon fill="#FFFFFF" filter="url(#fbjjfumw7ukyn)" points="504,22.5,573,22.5,580,44.9883,765,44.9883,765,118.5,504,118.5,504,22.5" style="stroke: #000000; stroke-width: 1.5;"/><line style="stroke: #000000; stroke-width: 1.5;" x1="504" x2="580" y1="44.9883" y2="44.9883"/><text fill="#000000" font-family="sans-serif" font-size="14" font-weight="bold" lengthAdjust="spacingAndGlyphs" textLength="63" x="508" y="38.0352">java.lang</text><!--cluster de.interactive_instruments--><polygon fill="#FFFFFF" filter="url(#fbjjfumw7ukyn)" points="1858,16,2055,16,2062,38.4883,2154,38.4883,2154,125,1858,125,1858,16" style="stroke: #000000; stroke-width: 1.5;"/><line style="stroke: #000000; stroke-width: 1.5;" x1="1858" x2="2062" y1="38.4883" y2="38.4883"/><text fill="#000000" font-family="sans-serif" font-size="14" font-weight="bold" lengthAdjust="spacingAndGlyphs" textLength="191" x="1862" y="31.5352">de.interactive_instruments</text><!--cluster de.interactive_instruments.etf.model.capabilities--><polygon fill="#FFFFFF" filter="url(#fbjjfumw7ukyn)" points="597,351,951,351,958,373.4883,961,373.4883,961,589,597,589,597,351" style="stroke: #000000; stroke-width: 1.5;"/><line style="stroke: #000000; stroke-width: 1.5;" x1="597" x2="958" y1="373.4883" y2="373.4883"/><text fill="#000000" font-family="sans-serif" font-size="14" font-weight="bold" lengthAdjust="spacingAndGlyphs" textLength="348" x="601" y="366.5352">de.interactive_instruments.etf.model.capabilities</text><!--class de.interactive_instruments.etf.detector.TestObjectTypeNotDetected--><a target="_top" xlink:actuate="onRequest" xlink:href="TestObjectTypeNotDetected.html" xlink:show="new" xlink:title="TestObjectTypeNotDetected.html" xlink:type="simple"><rect fill="#FEFECE" filter="url(#fbjjfumw7ukyn)" height="73.9102" id="de.interactive_instruments.etf.detector.TestObjectTypeNotDetected" style="stroke: #A80036; stroke-width: 1.5;" width="268" x="22" y="202.5"/><ellipse cx="69.75" cy="218.5" fill="#ADD1B2" rx="11" ry="11" style="stroke: #A80036; stroke-width: 1.0;"/><path d="M72.2231,224.6431 Q71.6421,224.9419 71.0029,225.0913 Q70.3638,225.2407 69.6582,225.2407 Q67.1514,225.2407 65.8315,223.5889 Q64.5117,221.937 64.5117,218.8159 Q64.5117,215.6865 65.8315,214.0347 Q67.1514,212.3828 69.6582,212.3828 Q70.3638,212.3828 71.0112,212.5322 Q71.6587,212.6816 72.2231,212.9805 L72.2231,215.7031 Q71.5923,215.1221 70.9988,214.8523 Q70.4053,214.5825 69.7744,214.5825 Q68.4297,214.5825 67.7449,215.6492 Q67.0601,216.7158 67.0601,218.8159 Q67.0601,220.9077 67.7449,221.9744 Q68.4297,223.041 69.7744,223.041 Q70.4053,223.041 70.9988,222.7712 Q71.5923,222.5015 72.2231,221.9204 Z "/><text fill="#000000" font-family="sans-serif" font-size="12" lengthAdjust="spacingAndGlyphs" textLength="164" x="90.25" y="223.0352">TestObjectTypeNotDetected</text><line style="stroke: #A80036; stroke-width: 1.5;" x1="23" x2="289" y1="234.5" y2="234.5"/><line style="stroke: #A80036; stroke-width: 1.5;" x1="23" x2="289" y1="242.5" y2="242.5"/><ellipse cx="33" cy="254.4775" fill="#84BE84" rx="3" ry="3" style="stroke: #038048; stroke-width: 1.0;"/><text fill="#000000" font-family="sans-serif" font-size="11" lengthAdjust="spacingAndGlyphs" textLength="242" x="42" y="257.1348">TestObjectTypeNotDetected(TestObjectType)</text><ellipse cx="33" cy="267.4326" fill="#84BE84" rx="3" ry="3" style="stroke: #038048; stroke-width: 1.0;"/><text fill="#000000" font-family="sans-serif" font-size="11" lengthAdjust="spacingAndGlyphs" textLength="158" x="42" y="270.0898">TestObjectTypeNotDetected()</text></a><!--class de.interactive_instruments.etf.detector.TestObjectTypeDetectorManager--><a target="_top" xlink:actuate="onRequest" xlink:href="TestObjectTypeDetectorManager.html" xlink:show="new" xlink:title="TestObjectTypeDetectorManager.html" xlink:type="simple"><rect fill="#FEFECE" filter="url(#fbjjfumw7ukyn)" height="112.7754" id="de.interactive_instruments.etf.detector.TestObjectTypeDetectorManager" style="stroke: #A80036; stroke-width: 1.5;" width="337" x="1481.5" y="183"/><ellipse cx="1550.25" cy="199" fill="#ADD1B2" rx="11" ry="11" style="stroke: #A80036; stroke-width: 1.0;"/><path d="M1552.7231,205.1431 Q1552.1421,205.4419 1551.5029,205.5913 Q1550.8638,205.7407 1550.1582,205.7407 Q1547.6514,205.7407 1546.3315,204.0889 Q1545.0117,202.437 1545.0117,199.3159 Q1545.0117,196.1865 1546.3315,194.5347 Q1547.6514,192.8828 1550.1582,192.8828 Q1550.8638,192.8828 1551.5112,193.0322 Q1552.1587,193.1816 1552.7231,193.4805 L1552.7231,196.2031 Q1552.0923,195.6221 1551.4988,195.3523 Q1550.9053,195.0825 1550.2744,195.0825 Q1548.9297,195.0825 1548.2449,196.1492 Q1547.5601,197.2158 1547.5601,199.3159 Q1547.5601,201.4077 1548.2449,202.4744 Q1548.9297,203.541 1550.2744,203.541 Q1550.9053,203.541 1551.4988,203.2712 Q1552.0923,203.0015 1552.7231,202.4204 Z "/><text fill="#000000" font-family="sans-serif" font-size="12" lengthAdjust="spacingAndGlyphs" textLength="191" x="1570.75" y="203.5352">TestObjectTypeDetectorManager</text><line style="stroke: #A80036; stroke-width: 1.5;" x1="1482.5" x2="1817.5" y1="215" y2="215"/><line style="stroke: #A80036; stroke-width: 1.5;" x1="1482.5" x2="1817.5" y1="223" y2="223"/><ellipse cx="1492.5" cy="234.9775" fill="#84BE84" rx="3" ry="3" style="stroke: #038048; stroke-width: 1.0;"/><text fill="#000000" font-family="sans-serif" font-size="11" lengthAdjust="spacingAndGlyphs" text-decoration="underline" textLength="262" x="1501.5" y="237.6348">getTypes(String[]): EidMap&lt;TestObjectTypeDto&gt;</text><line style="stroke: #000000; stroke-width: 1.0;" x1="1501.5" x2="1763.5" y1="239.6348" y2="239.6348"/><ellipse cx="1492.5" cy="247.9326" fill="#84BE84" rx="3" ry="3" style="stroke: #038048; stroke-width: 1.0;"/><text fill="#000000" font-family="sans-serif" font-size="11" lengthAdjust="spacingAndGlyphs" text-decoration="underline" textLength="311" x="1501.5" y="250.5898">getTypes(Collection&lt;EID&gt;): EidMap&lt;TestObjectTypeDto&gt;</text><line style="stroke: #000000; stroke-width: 1.0;" x1="1501.5" x2="1812.5" y1="252.5898" y2="252.5898"/><ellipse cx="1492.5" cy="260.8877" fill="#84BE84" rx="3" ry="3" style="stroke: #038048; stroke-width: 1.0;"/><text fill="#000000" font-family="sans-serif" font-size="11" lengthAdjust="spacingAndGlyphs" text-decoration="underline" textLength="278" x="1501.5" y="263.5449">getSupportedTypes(): EidMap&lt;TestObjectTypeDto&gt;</text><line style="stroke: #000000; stroke-width: 1.0;" x1="1501.5" x2="1779.5" y1="265.5449" y2="265.5449"/><ellipse cx="1492.5" cy="273.8428" fill="#84BE84" rx="3" ry="3" style="stroke: #038048; stroke-width: 1.0;"/><text fill="#000000" font-family="sans-serif" font-size="11" lengthAdjust="spacingAndGlyphs" text-decoration="underline" textLength="228" x="1501.5" y="276.5">detect(Resource): DetectedTestObjectType</text><line style="stroke: #000000; stroke-width: 1.0;" x1="1501.5" x2="1729.5" y1="278.5" y2="278.5"/><ellipse cx="1492.5" cy="286.7979" fill="#84BE84" rx="3" ry="3" style="stroke: #038048; stroke-width: 1.0;"/><text fill="#000000" font-family="sans-serif" font-size="11" lengthAdjust="spacingAndGlyphs" text-decoration="underline" textLength="285" x="1501.5" y="289.4551">detect(Resource, Set&lt;EID&gt;): DetectedTestObjectType</text><line style="stroke: #000000; stroke-width: 1.0;" x1="1501.5" x2="1786.5" y1="291.4551" y2="291.4551"/></a><!--class de.interactive_instruments.etf.detector.TestObjectTypeDetectionNotUnambiguousException--><a target="_top" xlink:actuate="onRequest" xlink:href="TestObjectTypeDetectionNotUnambiguousException.html" xlink:show="new" xlink:title="TestObjectTypeDetectionNotUnambiguousException.html" xlink:type="simple"><rect fill="#FEFECE" filter="url(#fbjjfumw7ukyn)" height="48" id="de.interactive_instruments.etf.detector.TestObjectTypeDetectionNotUnambiguousException" style="stroke: #A80036; stroke-width: 1.5;" width="332" x="1114" y="215.5"/><ellipse cx="1129" cy="231.5" fill="#ADD1B2" rx="11" ry="11" style="stroke: #A80036; stroke-width: 1.0;"/><path d="M1131.4731,237.6431 Q1130.8921,237.9419 1130.2529,238.0913 Q1129.6138,238.2407 1128.9082,238.2407 Q1126.4014,238.2407 1125.0815,236.5889 Q1123.7617,234.937 1123.7617,231.8159 Q1123.7617,228.6865 1125.0815,227.0347 Q1126.4014,225.3828 1128.9082,225.3828 Q1129.6138,225.3828 1130.2612,225.5322 Q1130.9087,225.6816 1131.4731,225.9805 L1131.4731,228.7031 Q1130.8423,228.1221 1130.2488,227.8523 Q1129.6553,227.5825 1129.0244,227.5825 Q1127.6797,227.5825 1126.9949,228.6492 Q1126.3101,229.7158 1126.3101,231.8159 Q1126.3101,233.9077 1126.9949,234.9744 Q1127.6797,236.041 1129.0244,236.041 Q1129.6553,236.041 1130.2488,235.7712 Q1130.8423,235.5015 1131.4731,234.9204 Z "/><text fill="#000000" font-family="sans-serif" font-size="12" lengthAdjust="spacingAndGlyphs" textLength="300" x="1143" y="236.0352">TestObjectTypeDetectionNotUnambiguousException</text><line style="stroke: #A80036; stroke-width: 1.5;" x1="1115" x2="1445" y1="247.5" y2="247.5"/><line style="stroke: #A80036; stroke-width: 1.5;" x1="1115" x2="1445" y1="255.5" y2="255.5"/></a><!--class de.interactive_instruments.etf.detector.TestObjectTypeDetector--><a target="_top" xlink:actuate="onRequest" xlink:href="TestObjectTypeDetector.html" xlink:show="new" xlink:title="TestObjectTypeDetector.html" xlink:type="simple"><rect fill="#FEFECE" filter="url(#fbjjfumw7ukyn)" height="112.7754" id="de.interactive_instruments.etf.detector.TestObjectTypeDetector" style="stroke: #A80036; stroke-width: 1.5;" width="337" x="1853.5" y="183"/><ellipse cx="1947.25" cy="199" fill="#B4A7E5" rx="11" ry="11" style="stroke: #A80036; stroke-width: 1.0;"/><path d="M1943.6777,195.2651 L1943.6777,193.1069 L1951.0571,193.1069 L1951.0571,195.2651 L1948.5918,195.2651 L1948.5918,203.3418 L1951.0571,203.3418 L1951.0571,205.5 L1943.6777,205.5 L1943.6777,203.3418 L1946.1431,203.3418 L1946.1431,195.2651 Z "/><text fill="#000000" font-family="sans-serif" font-size="12" font-style="italic" lengthAdjust="spacingAndGlyphs" textLength="141" x="1967.75" y="203.5352">TestObjectTypeDetector</text><line style="stroke: #A80036; stroke-width: 1.5;" x1="1854.5" x2="2189.5" y1="215" y2="215"/><line style="stroke: #A80036; stroke-width: 1.5;" x1="1854.5" x2="2189.5" y1="223" y2="223"/><ellipse cx="1864.5" cy="234.9775" fill="#84BE84" rx="3" ry="3" style="stroke: #038048; stroke-width: 1.0;"/><text fill="#000000" font-family="sans-serif" font-size="11" lengthAdjust="spacingAndGlyphs" textLength="254" x="1873.5" y="237.6348">detectType(Resource): DetectedTestObjectType</text><ellipse cx="1864.5" cy="247.9326" fill="#84BE84" rx="3" ry="3" style="stroke: #038048; stroke-width: 1.0;"/><text fill="#000000" font-family="sans-serif" font-size="11" lengthAdjust="spacingAndGlyphs" textLength="84" x="1873.5" y="250.5898">getPriority(): int</text><ellipse cx="1864.5" cy="260.8877" fill="#84BE84" rx="3" ry="3" style="stroke: #038048; stroke-width: 1.0;"/><text fill="#000000" font-family="sans-serif" font-size="11" lengthAdjust="spacingAndGlyphs" textLength="219" x="1873.5" y="263.5449">compareTo(TestObjectTypeDetector): int</text><ellipse cx="1864.5" cy="273.8428" fill="#84BE84" rx="3" ry="3" style="stroke: #038048; stroke-width: 1.0;"/><text fill="#000000" font-family="sans-serif" font-size="11" font-style="italic" lengthAdjust="spacingAndGlyphs" textLength="311" x="1873.5" y="276.5">detectType(Resource, Set&lt;EID&gt;): DetectedTestObjectType</text><ellipse cx="1864.5" cy="286.7979" fill="#84BE84" rx="3" ry="3" style="stroke: #038048; stroke-width: 1.0;"/><text fill="#000000" font-family="sans-serif" font-size="11" font-style="italic" lengthAdjust="spacingAndGlyphs" textLength="261" x="1873.5" y="289.4551">supportedTestObjectTypes(): EidMap&lt;TestObjectTypeDto&gt;</text></a><!--class de.interactive_instruments.etf.detector.DetectedTestObjectType--><a target="_top" xlink:actuate="onRequest" xlink:href="DetectedTestObjectType.html" xlink:show="new" xlink:title="DetectedTestObjectType.html" xlink:type="simple"><rect fill="#FEFECE" filter="url(#fbjjfumw7ukyn)" height="86.8652" id="de.interactive_instruments.etf.detector.DetectedTestObjectType" style="stroke: #A80036; stroke-width: 1.5;" width="257" x="821.5" y="196"/><ellipse cx="873.75" cy="212" fill="#B4A7E5" rx="11" ry="11" style="stroke: #A80036; stroke-width: 1.0;"/><path d="M870.1777,208.2651 L870.1777,206.1069 L877.5571,206.1069 L877.5571,208.2651 L875.0918,208.2651 L875.0918,216.3418 L877.5571,216.3418 L877.5571,218.5 L870.1777,218.5 L870.1777,216.3418 L872.6431,216.3418 L872.6431,208.2651 Z "/><text fill="#000000" font-family="sans-serif" font-size="12" font-style="italic" lengthAdjust="spacingAndGlyphs" textLength="144" x="894.25" y="216.5352">DetectedTestObjectType</text><line style="stroke: #A80036; stroke-width: 1.5;" x1="822.5" x2="1077.5" y1="228" y2="228"/><line style="stroke: #A80036; stroke-width: 1.5;" x1="822.5" x2="1077.5" y1="236" y2="236"/><ellipse cx="832.5" cy="247.9775" fill="#84BE84" rx="3" ry="3" style="stroke: #038048; stroke-width: 1.0;"/><text fill="#000000" font-family="sans-serif" font-size="11" font-style="italic" lengthAdjust="spacingAndGlyphs" textLength="224" x="841.5" y="250.6348">enrichAndNormalize(TestObjectDto): void</text><ellipse cx="832.5" cy="260.9326" fill="#84BE84" rx="3" ry="3" style="stroke: #038048; stroke-width: 1.0;"/><text fill="#000000" font-family="sans-serif" font-size="11" font-style="italic" lengthAdjust="spacingAndGlyphs" textLength="192" x="841.5" y="263.5898">getNormalizedResource(): Resource</text><ellipse cx="832.5" cy="273.8877" fill="#84BE84" rx="3" ry="3" style="stroke: #038048; stroke-width: 1.0;"/><text fill="#000000" font-family="sans-serif" font-size="11" font-style="italic" lengthAdjust="spacingAndGlyphs" textLength="231" x="841.5" y="276.5449">toTestObjectTypeDto(): TestObjectTypeDto</text></a><!--class de.interactive_instruments.etf.detector.IncompatibleTestObjectTypeException--><a target="_top" xlink:actuate="onRequest" xlink:href="IncompatibleTestObjectTypeException.html" xlink:show="new" xlink:title="IncompatibleTestObjectTypeException.html" xlink:type="simple"><rect fill="#FEFECE" filter="url(#fbjjfumw7ukyn)" height="73.9102" id="de.interactive_instruments.etf.detector.IncompatibleTestObjectTypeException" style="stroke: #A80036; stroke-width: 1.5;" width="461" x="325.5" y="202.5"/><ellipse cx="440.75" cy="218.5" fill="#ADD1B2" rx="11" ry="11" style="stroke: #A80036; stroke-width: 1.0;"/><path d="M443.2231,224.6431 Q442.6421,224.9419 442.0029,225.0913 Q441.3638,225.2407 440.6582,225.2407 Q438.1514,225.2407 436.8315,223.5889 Q435.5117,221.937 435.5117,218.8159 Q435.5117,215.6865 436.8315,214.0347 Q438.1514,212.3828 440.6582,212.3828 Q441.3638,212.3828 442.0112,212.5322 Q442.6587,212.6816 443.2231,212.9805 L443.2231,215.7031 Q442.5923,215.1221 441.9988,214.8523 Q441.4053,214.5825 440.7744,214.5825 Q439.4297,214.5825 438.7449,215.6492 Q438.0601,216.7158 438.0601,218.8159 Q438.0601,220.9077 438.7449,221.9744 Q439.4297,223.041 440.7744,223.041 Q441.4053,223.041 441.9988,222.7712 Q442.5923,222.5015 443.2231,221.9204 Z "/><text fill="#000000" font-family="sans-serif" font-size="12" lengthAdjust="spacingAndGlyphs" textLength="222" x="461.25" y="223.0352">IncompatibleTestObjectTypeException</text><line style="stroke: #A80036; stroke-width: 1.5;" x1="326.5" x2="785.5" y1="234.5" y2="234.5"/><line style="stroke: #A80036; stroke-width: 1.5;" x1="326.5" x2="785.5" y1="242.5" y2="242.5"/><ellipse cx="336.5" cy="254.4775" fill="#84BE84" rx="3" ry="3" style="stroke: #038048; stroke-width: 1.0;"/><text fill="#000000" font-family="sans-serif" font-size="11" lengthAdjust="spacingAndGlyphs" textLength="435" x="345.5" y="257.1348">IncompatibleTestObjectTypeException(TestObjectType, DetectedTestObjectType)</text><ellipse cx="336.5" cy="267.4326" fill="#84BE84" rx="3" ry="3" style="stroke: #038048; stroke-width: 1.0;"/><text fill="#000000" font-family="sans-serif" font-size="11" lengthAdjust="spacingAndGlyphs" textLength="428" x="345.5" y="270.0898">IncompatibleTestObjectTypeException(Collection&lt;?&gt;, DetectedTestObjectType)</text></a><!--class java.lang.Exception--><rect fill="#FEFECE" filter="url(#fbjjfumw7ukyn)" height="48" id="java.lang.Exception" style="stroke: #A80036; stroke-width: 1.5;" width="88" x="512" y="56"/><ellipse cx="527" cy="72" fill="#ADD1B2" rx="11" ry="11" style="stroke: #A80036; stroke-width: 1.0;"/><path d="M529.4731,78.1431 Q528.8921,78.4419 528.2529,78.5913 Q527.6138,78.7407 526.9082,78.7407 Q524.4014,78.7407 523.0815,77.0889 Q521.7617,75.437 521.7617,72.3159 Q521.7617,69.1865 523.0815,67.5347 Q524.4014,65.8828 526.9082,65.8828 Q527.6138,65.8828 528.2612,66.0322 Q528.9087,66.1816 529.4731,66.4805 L529.4731,69.2031 Q528.8423,68.6221 528.2488,68.3523 Q527.6553,68.0825 527.0244,68.0825 Q525.6797,68.0825 524.9949,69.1492 Q524.3101,70.2158 524.3101,72.3159 Q524.3101,74.4077 524.9949,75.4744 Q525.6797,76.541 527.0244,76.541 Q527.6553,76.541 528.2488,76.2712 Q528.8423,76.0015 529.4731,75.4204 Z "/><text fill="#000000" font-family="sans-serif" font-size="12" lengthAdjust="spacingAndGlyphs" textLength="56" x="541" y="76.5352">Exception</text><line style="stroke: #A80036; stroke-width: 1.5;" x1="513" x2="599" y1="88" y2="88"/><line style="stroke: #A80036; stroke-width: 1.5;" x1="513" x2="599" y1="96" y2="96"/><!--class java.lang.Comparable--><rect fill="#FEFECE" filter="url(#fbjjfumw7ukyn)" height="60.9551" id="java.lang.Comparable" style="stroke: #A80036; stroke-width: 1.5;" width="122" x="635" y="49.5"/><ellipse cx="653.15" cy="65.5" fill="#B4A7E5" rx="11" ry="11" style="stroke: #A80036; stroke-width: 1.0;"/><path d="M649.5777,61.7651 L649.5777,59.6069 L656.9571,59.6069 L656.9571,61.7651 L654.4918,61.7651 L654.4918,69.8418 L656.9571,69.8418 L656.9571,72 L649.5777,72 L649.5777,69.8418 L652.0431,69.8418 L652.0431,61.7651 Z "/><text fill="#000000" font-family="sans-serif" font-size="12" font-style="italic" lengthAdjust="spacingAndGlyphs" textLength="71" x="667.85" y="70.0352">Comparable</text><rect fill="#FFFFFF" height="16.1328" style="stroke: #000000; stroke-width: 1.0; stroke-dasharray: 2.0,2.0;" width="10" x="750" y="46.5"/><text fill="#000000" font-family="sans-serif" font-size="12" font-style="italic" lengthAdjust="spacingAndGlyphs" textLength="8" x="751" y="59.1016">T</text><line style="stroke: #A80036; stroke-width: 1.5;" x1="636" x2="756" y1="81.5" y2="81.5"/><line style="stroke: #A80036; stroke-width: 1.5;" x1="636" x2="756" y1="89.5" y2="89.5"/><ellipse cx="646" cy="101.4775" fill="#84BE84" rx="3" ry="3" style="stroke: #038048; stroke-width: 1.0;"/><text fill="#000000" font-family="sans-serif" font-size="11" font-style="italic" lengthAdjust="spacingAndGlyphs" textLength="96" x="655" y="104.1348">compareTo(T): int</text><!--class de.interactive_instruments.Initializable--><rect fill="#FEFECE" filter="url(#fbjjfumw7ukyn)" height="73.9102" id="de.interactive_instruments.Initializable" style="stroke: #A80036; stroke-width: 1.5;" width="143" x="1866.5" y="43"/><ellipse cx="1902.2" cy="59" fill="#B4A7E5" rx="11" ry="11" style="stroke: #A80036; stroke-width: 1.0;"/><path d="M1898.6277,55.2651 L1898.6277,53.1069 L1906.0071,53.1069 L1906.0071,55.2651 L1903.5418,55.2651 L1903.5418,63.3418 L1906.0071,63.3418 L1906.0071,65.5 L1898.6277,65.5 L1898.6277,63.3418 L1901.0931,63.3418 L1901.0931,55.2651 Z "/><text fill="#000000" font-family="sans-serif" font-size="12" font-style="italic" lengthAdjust="spacingAndGlyphs" textLength="65" x="1920.8" y="63.5352">Initializable</text><line style="stroke: #A80036; stroke-width: 1.5;" x1="1867.5" x2="2008.5" y1="75" y2="75"/><line style="stroke: #A80036; stroke-width: 1.5;" x1="1867.5" x2="2008.5" y1="83" y2="83"/><ellipse cx="1877.5" cy="94.9775" fill="#84BE84" rx="3" ry="3" style="stroke: #038048; stroke-width: 1.0;"/><text fill="#000000" font-family="sans-serif" font-size="11" font-style="italic" lengthAdjust="spacingAndGlyphs" textLength="54" x="1886.5" y="97.6348">init(): void</text><ellipse cx="1877.5" cy="107.9326" fill="#84BE84" rx="3" ry="3" style="stroke: #038048; stroke-width: 1.0;"/><text fill="#000000" font-family="sans-serif" font-size="11" font-style="italic" lengthAdjust="spacingAndGlyphs" textLength="117" x="1886.5" y="110.5898">isInitialized(): boolean</text><!--class de.interactive_instruments.Releasable--><rect fill="#FEFECE" filter="url(#fbjjfumw7ukyn)" height="60.9551" id="de.interactive_instruments.Releasable" style="stroke: #A80036; stroke-width: 1.5;" width="101" x="2044.5" y="49.5"/><ellipse cx="2062.2" cy="65.5" fill="#B4A7E5" rx="11" ry="11" style="stroke: #A80036; stroke-width: 1.0;"/><path d="M2058.6277,61.7651 L2058.6277,59.6069 L2066.0071,59.6069 L2066.0071,61.7651 L2063.5418,61.7651 L2063.5418,69.8418 L2066.0071,69.8418 L2066.0071,72 L2058.6277,72 L2058.6277,69.8418 L2061.0931,69.8418 L2061.0931,61.7651 Z "/><text fill="#000000" font-family="sans-serif" font-size="12" font-style="italic" lengthAdjust="spacingAndGlyphs" textLength="63" x="2076.8" y="70.0352">Releasable</text><line style="stroke: #A80036; stroke-width: 1.5;" x1="2045.5" x2="2144.5" y1="81.5" y2="81.5"/><line style="stroke: #A80036; stroke-width: 1.5;" x1="2045.5" x2="2144.5" y1="89.5" y2="89.5"/><ellipse cx="2055.5" cy="101.4775" fill="#84BE84" rx="3" ry="3" style="stroke: #038048; stroke-width: 1.0;"/><text fill="#000000" font-family="sans-serif" font-size="11" font-style="italic" lengthAdjust="spacingAndGlyphs" textLength="75" x="2064.5" y="104.1348">release(): void</text><!--class de.interactive_instruments.etf.model.capabilities.TestObjectType--><rect fill="#FEFECE" filter="url(#fbjjfumw7ukyn)" height="203.4609" id="de.interactive_instruments.etf.model.capabilities.TestObjectType" style="stroke: #A80036; stroke-width: 1.5;" width="291" x="633.5" y="378"/><ellipse cx="728.75" cy="394" fill="#B4A7E5" rx="11" ry="11" style="stroke: #A80036; stroke-width: 1.0;"/><path d="M725.1777,390.2651 L725.1777,388.1069 L732.5571,388.1069 L732.5571,390.2651 L730.0918,390.2651 L730.0918,398.3418 L732.5571,398.3418 L732.5571,400.5 L725.1777,400.5 L725.1777,398.3418 L727.6431,398.3418 L727.6431,390.2651 Z "/><text fill="#000000" font-family="sans-serif" font-size="12" font-style="italic" lengthAdjust="spacingAndGlyphs" textLength="92" x="749.25" y="398.5352">TestObjectType</text><line style="stroke: #A80036; stroke-width: 1.5;" x1="634.5" x2="923.5" y1="410" y2="410"/><line style="stroke: #A80036; stroke-width: 1.5;" x1="634.5" x2="923.5" y1="418" y2="418"/><ellipse cx="644.5" cy="429.9775" fill="#84BE84" rx="3" ry="3" style="stroke: #038048; stroke-width: 1.0;"/><text fill="#000000" font-family="sans-serif" font-size="11" font-style="italic" lengthAdjust="spacingAndGlyphs" textLength="91" x="653.5" y="432.6348">getLabel(): String</text><ellipse cx="644.5" cy="442.9326" fill="#84BE84" rx="3" ry="3" style="stroke: #038048; stroke-width: 1.0;"/><text fill="#000000" font-family="sans-serif" font-size="11" font-style="italic" lengthAdjust="spacingAndGlyphs" textLength="125" x="653.5" y="445.5898">getDescription(): String</text><ellipse cx="644.5" cy="455.8877" fill="#84BE84" rx="3" ry="3" style="stroke: #038048; stroke-width: 1.0;"/><text fill="#000000" font-family="sans-serif" font-size="11" font-style="italic" lengthAdjust="spacingAndGlyphs" textLength="149" x="653.5" y="458.5449">getParent(): TestObjectType</text><ellipse cx="644.5" cy="468.8428" fill="#84BE84" rx="3" ry="3" style="stroke: #038048; stroke-width: 1.0;"/><text fill="#000000" font-family="sans-serif" font-size="11" font-style="italic" lengthAdjust="spacingAndGlyphs" textLength="223" x="653.5" y="471.5">getSubTypes(): List&lt;TestObjectTypeDto&gt;</text><ellipse cx="644.5" cy="481.7979" fill="#84BE84" rx="3" ry="3" style="stroke: #038048; stroke-width: 1.0;"/><text fill="#000000" font-family="sans-serif" font-size="11" font-style="italic" lengthAdjust="spacingAndGlyphs" textLength="206" x="653.5" y="484.4551">getFilenameExtensions(): List&lt;String&gt;</text><ellipse cx="644.5" cy="494.7529" fill="#84BE84" rx="3" ry="3" style="stroke: #038048; stroke-width: 1.0;"/><text fill="#000000" font-family="sans-serif" font-size="11" font-style="italic" lengthAdjust="spacingAndGlyphs" textLength="160" x="653.5" y="497.4102">getMimeTypes(): List&lt;String&gt;</text><ellipse cx="644.5" cy="507.708" fill="#84BE84" rx="3" ry="3" style="stroke: #038048; stroke-width: 1.0;"/><text fill="#000000" font-family="sans-serif" font-size="11" font-style="italic" lengthAdjust="spacingAndGlyphs" textLength="174" x="653.5" y="510.3652">getDetectionExpression(): String</text><ellipse cx="644.5" cy="520.6631" fill="#84BE84" rx="3" ry="3" style="stroke: #038048; stroke-width: 1.0;"/><text fill="#000000" font-family="sans-serif" font-size="11" font-style="italic" lengthAdjust="spacingAndGlyphs" textLength="254" x="653.5" y="523.3203">getDetectionExpressionType(): ExpressionType</text><ellipse cx="644.5" cy="533.6182" fill="#84BE84" rx="3" ry="3" style="stroke: #038048; stroke-width: 1.0;"/><text fill="#000000" font-family="sans-serif" font-size="11" font-style="italic" lengthAdjust="spacingAndGlyphs" textLength="151" x="653.5" y="536.2754">getLabelExpression(): String</text><ellipse cx="644.5" cy="546.5732" fill="#84BE84" rx="3" ry="3" style="stroke: #038048; stroke-width: 1.0;"/><text fill="#000000" font-family="sans-serif" font-size="11" font-style="italic" lengthAdjust="spacingAndGlyphs" textLength="231" x="653.5" y="549.2305">getLabelExpressionType(): ExpressionType</text><ellipse cx="644.5" cy="559.5283" fill="#84BE84" rx="3" ry="3" style="stroke: #038048; stroke-width: 1.0;"/><text fill="#000000" font-family="sans-serif" font-size="11" font-style="italic" lengthAdjust="spacingAndGlyphs" textLength="185" x="653.5" y="562.1855">getDescriptionExpression(): String</text><ellipse cx="644.5" cy="572.4834" fill="#84BE84" rx="3" ry="3" style="stroke: #038048; stroke-width: 1.0;"/><text fill="#000000" font-family="sans-serif" font-size="11" font-style="italic" lengthAdjust="spacingAndGlyphs" textLength="265" x="653.5" y="575.1406">getDescriptionExpressionType(): ExpressionType</text><!--link java.lang.Exception to de.interactive_instruments.etf.detector.TestObjectTypeNotDetected--><path d="M492.219,95.6784 C441.3633,109.094 368.8355,130.2898 308,156 C276.9385,169.1272 243.962,186.7505 216.6916,202.4232 " fill="none" id="java.lang.Exception-de.interactive_instruments.etf.detector.TestObjectTypeNotDetected" style="stroke: #A80036; stroke-width: 1.0;"/><polygon fill="none" points="490.4668,88.9014,511.5825,90.67,493.9727,102.4553,490.4668,88.9014" style="stroke: #A80036; stroke-width: 1.0;"/><!--link de.interactive_instruments.Initializable to de.interactive_instruments.etf.detector.TestObjectTypeDetector--><path d="M1967.146,135.3427 C1975.2587,150.7472 1984.0796,167.4963 1992.2277,182.9681 " fill="none" id="de.interactive_instruments.Initializable-de.interactive_instruments.etf.detector.TestObjectTypeDetector" style="stroke: #A80036; stroke-width: 1.0; stroke-dasharray: 7.0,7.0;"/><polygon fill="none" points="1960.8202,138.3535,1957.6943,117.3957,1973.2074,131.8298,1960.8202,138.3535" style="stroke: #A80036; stroke-width: 1.0;"/><!--link de.interactive_instruments.Releasable to de.interactive_instruments.etf.detector.TestObjectTypeDetector--><path d="M2072.5315,129.0922 C2064.7733,146.0432 2056.0176,165.1739 2048.0005,182.6907 " fill="none" id="de.interactive_instruments.Releasable-de.interactive_instruments.etf.detector.TestObjectTypeDetector" style="stroke: #A80036; stroke-width: 1.0; stroke-dasharray: 7.0,7.0;"/><polygon fill="none" points="2066.2365,126.0258,2080.9249,110.7532,2078.9666,131.8522,2066.2365,126.0258" style="stroke: #A80036; stroke-width: 1.0;"/><!--link java.lang.Comparable to de.interactive_instruments.etf.detector.TestObjectTypeDetector--><path d="M777.6411,81.6944 C1003.8306,86.983 1635.1119,105.9305 1836,156 C1861.7592,162.4202 1888.3897,172.2455 1913.1699,182.9296 " fill="none" id="java.lang.Comparable-de.interactive_instruments.etf.detector.TestObjectTypeDetector" style="stroke: #A80036; stroke-width: 1.0; stroke-dasharray: 7.0,7.0;"/><polygon fill="none" points="777.1907,88.686,757.3556,81.2315,777.5101,74.6896,777.1907,88.686" style="stroke: #A80036; stroke-width: 1.0;"/><!--link de.interactive_instruments.etf.model.capabilities.TestObjectType to de.interactive_instruments.etf.detector.DetectedTestObjectType--><path d="M863.146,361.4003 C883.0498,333.4653 903.0513,305.3929 918.8348,283.2406 " fill="none" id="de.interactive_instruments.etf.model.capabilities.TestObjectType-de.interactive_instruments.etf.detector.DetectedTestObjectType" style="stroke: #A80036; stroke-width: 1.0; stroke-dasharray: 7.0,7.0;"/><polygon fill="none" points="868.7775,365.5599,851.471,377.7863,857.3756,357.436,868.7775,365.5599" style="stroke: #A80036; stroke-width: 1.0;"/><!--link java.lang.Exception to de.interactive_instruments.etf.detector.IncompatibleTestObjectTypeException--><path d="M556,124.4092 C556,148.9172 556,179.0069 556,202.2726 " fill="none" id="java.lang.Exception-de.interactive_instruments.etf.detector.IncompatibleTestObjectTypeException" style="stroke: #A80036; stroke-width: 1.0;"/><polygon fill="none" points="549.0001,124.2247,556,104.2246,563.0001,124.2246,549.0001,124.2247" style="stroke: #A80036; stroke-width: 1.0;"/><!--link de.interactive_instruments.etf.detector.IncompatibleTestObjectTypeException to de.interactive_instruments.etf.model.capabilities.TestObjectType--><path d="M590.5991,276.7367 C614.9145,302.9058 648.7432,339.3133 681.0348,374.0666 " fill="none" id="de.interactive_instruments.etf.detector.IncompatibleTestObjectTypeException-de.interactive_instruments.etf.model.capabilities.TestObjectType" style="stroke: #A80036; stroke-width: 1.0;"/><polygon fill="#A80036" points="684.558,377.8584,681.3621,368.5425,681.1546,374.1955,675.5015,373.988,684.558,377.8584" style="stroke: #A80036; stroke-width: 1.0;"/><text fill="#000000" font-family="sans-serif" font-size="13" lengthAdjust="spacingAndGlyphs" textLength="152" x="648" y="339.5684">detectedTestObjectType</text><!--
@startuml

    namespace de.interactive_instruments.etf.detector {

        class TestObjectTypeNotDetected [[TestObjectTypeNotDetected.html]] {
            +TestObjectTypeNotDetected(TestObjectType)
            +TestObjectTypeNotDetected()
        }

        class TestObjectTypeDetectorManager [[TestObjectTypeDetectorManager.html]] {
            {static} +getTypes(String[]): EidMap<TestObjectTypeDto>
            {static} +getTypes(Collection<EID>): EidMap<TestObjectTypeDto>
            {static} +getSupportedTypes(): EidMap<TestObjectTypeDto>
            {static} +detect(Resource): DetectedTestObjectType
            {static} +detect(Resource, Set<EID>): DetectedTestObjectType
        }

        class TestObjectTypeDetectionNotUnambiguousException [[TestObjectTypeDetectionNotUnambiguousException.html]] {
        }

        interface TestObjectTypeDetector [[TestObjectTypeDetector.html]] {
            +detectType(Resource): DetectedTestObjectType
            +getPriority(): int
            +compareTo(TestObjectTypeDetector): int
            {abstract} +detectType(Resource, Set<EID>): DetectedTestObjectType
            {abstract} +supportedTestObjectTypes(): EidMap<TestObjectTypeDto>
        }

        interface DetectedTestObjectType [[DetectedTestObjectType.html]] {
            {abstract} +enrichAndNormalize(TestObjectDto): void
            {abstract} +getNormalizedResource(): Resource
            {abstract} +toTestObjectTypeDto(): TestObjectTypeDto
        }

        class IncompatibleTestObjectTypeException [[IncompatibleTestObjectTypeException.html]] {
            +IncompatibleTestObjectTypeException(TestObjectType, DetectedTestObjectType)
            +IncompatibleTestObjectTypeException(Collection<?>, DetectedTestObjectType)
        }

        class java.lang.Exception
        java.lang.Exception <|- - TestObjectTypeNotDetected

        interface de.interactive_instruments.Initializable {
            {abstract} +init(): void
            {abstract} +isInitialized(): boolean
        }
        de.interactive_instruments.Initializable <|.. TestObjectTypeDetector

        interface de.interactive_instruments.Releasable {
            {abstract} +release(): void
        }
        de.interactive_instruments.Releasable <|.. TestObjectTypeDetector

        interface java.lang.Comparable<T> {
            {abstract} +compareTo(T): int
        }
        java.lang.Comparable <|.. TestObjectTypeDetector

        interface de.interactive_instruments.etf.model.capabilities.TestObjectType {
            {abstract} +getLabel(): String
            {abstract} +getDescription(): String
            {abstract} +getParent(): TestObjectType
            {abstract} +getSubTypes(): List<TestObjectTypeDto>
            {abstract} +getFilenameExtensions(): List<String>
            {abstract} +getMimeTypes(): List<String>
            {abstract} +getDetectionExpression(): String
            {abstract} +getDetectionExpressionType(): ExpressionType
            {abstract} +getLabelExpression(): String
            {abstract} +getLabelExpressionType(): ExpressionType
            {abstract} +getDescriptionExpression(): String
            {abstract} +getDescriptionExpressionType(): ExpressionType
        }
        de.interactive_instruments.etf.model.capabilities.TestObjectType <|.. DetectedTestObjectType

        java.lang.Exception <|- - IncompatibleTestObjectTypeException

        IncompatibleTestObjectTypeException - -> de.interactive_instruments.etf.model.capabilities.TestObjectType: detectedTestObjectType

    }

@enduml

PlantUML version 1.2018.08(Sun Jun 24 14:31:00 CEST 2018)
(APACHE source distribution)
Java Runtime: Java(TM) SE Runtime Environment
JVM: Java HotSpot(TM) 64-Bit Server VM
Java Version: 1.8.0_151-b12
Operating System: Mac OS X
OS Version: 10.14.2
Default Encoding: UTF-8
Language: en
Country: US
--></g></svg>
