<?xml version="1.0" encoding="UTF-8" standalone="no"?><svg xmlns="http://www.w3.org/2000/svg" xmlns:xlink="http://www.w3.org/1999/xlink" contentScriptType="application/ecmascript" contentStyleType="text/css" height="67px" preserveAspectRatio="none" style="width:349px;height:67px;" version="1.1" viewBox="0 0 349 67" width="349px" zoomAndPan="magnify"><defs><filter height="300%" id="ffrnaljkr6ncx" width="300%" x="-1" y="-1"><feGaussianBlur result="blurOut" stdDeviation="2.0"/><feColorMatrix in="blurOut" result="blurOut2" type="matrix" values="0 0 0 0 0 0 0 0 0 0 0 0 0 0 0 0 0 0 .4 0"/><feOffset dx="4.0" dy="4.0" in="blurOut2" result="blurOut3"/><feBlend in="SourceGraphic" in2="blurOut3" mode="normal"/></filter></defs><g><!--class TestObjectTypeDetectionNotUnambiguousException--><a target="_top" xlink:actuate="onRequest" xlink:href="TestObjectTypeDetectionNotUnambiguousException.html" xlink:show="new" xlink:title="TestObjectTypeDetectionNotUnambiguousException.html" xlink:type="simple"><rect fill="#FEFECE" filter="url(#ffrnaljkr6ncx)" height="48" id="TestObjectTypeDetectionNotUnambiguousException" style="stroke: #A80036; stroke-width: 1.5;" width="332" x="6" y="8"/><ellipse cx="21" cy="24" fill="#ADD1B2" rx="11" ry="11" style="stroke: #A80036; stroke-width: 1.0;"/><path d="M23.4731,30.1431 Q22.8921,30.4419 22.2529,30.5913 Q21.6138,30.7407 20.9082,30.7407 Q18.4014,30.7407 17.0815,29.0889 Q15.7617,27.437 15.7617,24.3159 Q15.7617,21.1865 17.0815,19.5347 Q18.4014,17.8828 20.9082,17.8828 Q21.6138,17.8828 22.2612,18.0322 Q22.9087,18.1816 23.4731,18.4805 L23.4731,21.2031 Q22.8423,20.6221 22.2488,20.3523 Q21.6553,20.0825 21.0244,20.0825 Q19.6797,20.0825 18.9949,21.1492 Q18.3101,22.2158 18.3101,24.3159 Q18.3101,26.4077 18.9949,27.4744 Q19.6797,28.541 21.0244,28.541 Q21.6553,28.541 22.2488,28.2712 Q22.8423,28.0015 23.4731,27.4204 Z "/><text fill="#000000" font-family="sans-serif" font-size="12" lengthAdjust="spacingAndGlyphs" textLength="300" x="35" y="28.5352">TestObjectTypeDetectionNotUnambiguousException</text><line style="stroke: #A80036; stroke-width: 1.5;" x1="7" x2="337" y1="40" y2="40"/><line style="stroke: #A80036; stroke-width: 1.5;" x1="7" x2="337" y1="48" y2="48"/></a><!--
@startuml

    class TestObjectTypeDetectionNotUnambiguousException [[TestObjectTypeDetectionNotUnambiguousException.html]] {
    }

@enduml

PlantUML version 1.2018.08(Sun Jun 24 14:31:00 CEST 2018)
(APACHE source distribution)
Java Runtime: Java(TM) SE Runtime Environment
JVM: Java HotSpot(TM) 64-Bit Server VM
Java Version: 1.8.0_151-b12
Operating System: Mac OS X
OS Version: 10.14.2
Default Encoding: UTF-8
Language: en
Country: US
--></g></svg>