<?xml version="1.0" encoding="UTF-8" standalone="no"?><svg xmlns="http://www.w3.org/2000/svg" xmlns:xlink="http://www.w3.org/1999/xlink" contentScriptType="application/ecmascript" contentStyleType="text/css" height="92px" preserveAspectRatio="none" style="width:285px;height:92px;" version="1.1" viewBox="0 0 285 92" width="285px" zoomAndPan="magnify"><defs><filter height="300%" id="f1dtcwnjyusj9i" width="300%" x="-1" y="-1"><feGaussianBlur result="blurOut" stdDeviation="2.0"/><feColorMatrix in="blurOut" result="blurOut2" type="matrix" values="0 0 0 0 0 0 0 0 0 0 0 0 0 0 0 0 0 0 .4 0"/><feOffset dx="4.0" dy="4.0" in="blurOut2" result="blurOut3"/><feBlend in="SourceGraphic" in2="blurOut3" mode="normal"/></filter></defs><g><!--class TestObjectTypeNotDetected--><a target="_top" xlink:actuate="onRequest" xlink:href="TestObjectTypeNotDetected.html" xlink:show="new" xlink:title="TestObjectTypeNotDetected.html" xlink:type="simple"><rect fill="#FEFECE" filter="url(#f1dtcwnjyusj9i)" height="73.9102" id="TestObjectTypeNotDetected" style="stroke: #A80036; stroke-width: 1.5;" width="268" x="6" y="8"/><ellipse cx="53.75" cy="24" fill="#ADD1B2" rx="11" ry="11" style="stroke: #A80036; stroke-width: 1.0;"/><path d="M56.2231,30.1431 Q55.6421,30.4419 55.0029,30.5913 Q54.3638,30.7407 53.6582,30.7407 Q51.1514,30.7407 49.8315,29.0889 Q48.5117,27.437 48.5117,24.3159 Q48.5117,21.1865 49.8315,19.5347 Q51.1514,17.8828 53.6582,17.8828 Q54.3638,17.8828 55.0112,18.0322 Q55.6587,18.1816 56.2231,18.4805 L56.2231,21.2031 Q55.5923,20.6221 54.9988,20.3523 Q54.4053,20.0825 53.7744,20.0825 Q52.4297,20.0825 51.7449,21.1492 Q51.0601,22.2158 51.0601,24.3159 Q51.0601,26.4077 51.7449,27.4744 Q52.4297,28.541 53.7744,28.541 Q54.4053,28.541 54.9988,28.2712 Q55.5923,28.0015 56.2231,27.4204 Z "/><text fill="#000000" font-family="sans-serif" font-size="12" lengthAdjust="spacingAndGlyphs" textLength="164" x="74.25" y="28.5352">TestObjectTypeNotDetected</text><line style="stroke: #A80036; stroke-width: 1.5;" x1="7" x2="273" y1="40" y2="40"/><line style="stroke: #A80036; stroke-width: 1.5;" x1="7" x2="273" y1="48" y2="48"/><ellipse cx="17" cy="59.9775" fill="#84BE84" rx="3" ry="3" style="stroke: #038048; stroke-width: 1.0;"/><text fill="#000000" font-family="sans-serif" font-size="11" lengthAdjust="spacingAndGlyphs" textLength="242" x="26" y="62.6348">TestObjectTypeNotDetected(TestObjectType)</text><ellipse cx="17" cy="72.9326" fill="#84BE84" rx="3" ry="3" style="stroke: #038048; stroke-width: 1.0;"/><text fill="#000000" font-family="sans-serif" font-size="11" lengthAdjust="spacingAndGlyphs" textLength="158" x="26" y="75.5898">TestObjectTypeNotDetected()</text></a><!--
@startuml

    class TestObjectTypeNotDetected [[TestObjectTypeNotDetected.html]] {
        +TestObjectTypeNotDetected(TestObjectType)
        +TestObjectTypeNotDetected()
    }

@enduml

PlantUML version 1.2018.08(Sun Jun 24 14:31:00 CEST 2018)
(APACHE source distribution)
Java Runtime: Java(TM) SE Runtime Environment
JVM: Java HotSpot(TM) 64-Bit Server VM
Java Version: 1.8.0_151-b12
Operating System: Mac OS X
OS Version: 10.14.2
Default Encoding: UTF-8
Language: en
Country: US
--></g></svg>