<?xml version="1.0" encoding="UTF-8" standalone="no"?><svg xmlns="http://www.w3.org/2000/svg" xmlns:xlink="http://www.w3.org/1999/xlink" contentScriptType="application/ecmascript" contentStyleType="text/css" height="137px" preserveAspectRatio="none" style="width:236px;height:137px;" version="1.1" viewBox="0 0 236 137" width="236px" zoomAndPan="magnify"><defs><filter height="300%" id="f1pd020yxksruu" width="300%" x="-1" y="-1"><feGaussianBlur result="blurOut" stdDeviation="2.0"/><feColorMatrix in="blurOut" result="blurOut2" type="matrix" values="0 0 0 0 0 0 0 0 0 0 0 0 0 0 0 0 0 0 .4 0"/><feOffset dx="4.0" dy="4.0" in="blurOut2" result="blurOut3"/><feBlend in="SourceGraphic" in2="blurOut3" mode="normal"/></filter></defs><g><!--cluster Arguments--><polygon fill="#FFFFFF" filter="url(#f1pd020yxksruu)" points="14,16,99,16,106,38.4883,214,38.4883,214,125,14,125,14,16" style="stroke: #000000; stroke-width: 1.5;"/><line style="stroke: #000000; stroke-width: 1.5;" x1="14" x2="106" y1="38.4883" y2="38.4883"/><text fill="#000000" font-family="sans-serif" font-size="14" font-weight="bold" lengthAdjust="spacingAndGlyphs" textLength="79" x="18" y="31.5352">Arguments</text><!--class Arguments.ArgumentParameterSet--><a target="_top" xlink:actuate="onRequest" xlink:href="Arguments.ArgumentParameterSet.html" xlink:show="new" xlink:title="Arguments.ArgumentParameterSet.html" xlink:type="simple"><rect fill="#FEFECE" filter="url(#f1pd020yxksruu)" height="73.9102" id="Arguments.ArgumentParameterSet" style="stroke: #A80036; stroke-width: 1.5;" width="184" x="22" y="43"/><ellipse cx="45.55" cy="59" fill="#ADD1B2" rx="11" ry="11" style="stroke: #A80036; stroke-width: 1.0;"/><path d="M48.0231,65.1431 Q47.4421,65.4419 46.8029,65.5913 Q46.1638,65.7407 45.4582,65.7407 Q42.9514,65.7407 41.6315,64.0889 Q40.3117,62.437 40.3117,59.3159 Q40.3117,56.1865 41.6315,54.5347 Q42.9514,52.8828 45.4582,52.8828 Q46.1638,52.8828 46.8112,53.0322 Q47.4587,53.1816 48.0231,53.4805 L48.0231,56.2031 Q47.3923,55.6221 46.7988,55.3523 Q46.2053,55.0825 45.5744,55.0825 Q44.2297,55.0825 43.5449,56.1492 Q42.8601,57.2158 42.8601,59.3159 Q42.8601,61.4077 43.5449,62.4744 Q44.2297,63.541 45.5744,63.541 Q46.2053,63.541 46.7988,63.2712 Q47.3923,63.0015 48.0231,62.4204 Z "/><text fill="#000000" font-family="sans-serif" font-size="12" lengthAdjust="spacingAndGlyphs" textLength="133" x="61.45" y="63.5352">ArgumentParameterSet</text><line style="stroke: #A80036; stroke-width: 1.5;" x1="23" x2="205" y1="75" y2="75"/><line style="stroke: #A80036; stroke-width: 1.5;" x1="23" x2="205" y1="83" y2="83"/><ellipse cx="33" cy="94.9775" fill="#84BE84" rx="3" ry="3" style="stroke: #038048; stroke-width: 1.0;"/><text fill="#000000" font-family="sans-serif" font-size="11" lengthAdjust="spacingAndGlyphs" textLength="106" x="42" y="97.6348">value(String): String</text><ellipse cx="33" cy="107.9326" fill="#84BE84" rx="3" ry="3" style="stroke: #038048; stroke-width: 1.0;"/><text fill="#000000" font-family="sans-serif" font-size="11" lengthAdjust="spacingAndGlyphs" textLength="158" x="42" y="110.5898">values(): Map&lt;String, String&gt;</text></a><!--
@startuml

    class Arguments.ArgumentParameterSet [[Arguments.ArgumentParameterSet.html]] {
        +value(String): String
        +values(): Map<String, String>
    }

@enduml

PlantUML version 1.2018.08(Sun Jun 24 14:31:00 CEST 2018)
(APACHE source distribution)
Java Runtime: Java(TM) SE Runtime Environment
JVM: Java HotSpot(TM) 64-Bit Server VM
Java Version: 1.8.0_151-b12
Operating System: Mac OS X
OS Version: 10.14.2
Default Encoding: UTF-8
Language: en
Country: US
--></g></svg>