<?xml version="1.0" encoding="UTF-8" standalone="no"?><svg xmlns="http://www.w3.org/2000/svg" xmlns:xlink="http://www.w3.org/1999/xlink" contentScriptType="application/ecmascript" contentStyleType="text/css" height="163px" preserveAspectRatio="none" style="width:210px;height:163px;" version="1.1" viewBox="0 0 210 163" width="210px" zoomAndPan="magnify"><defs><filter height="300%" id="f1x3bshijmzuhn" width="300%" x="-1" y="-1"><feGaussianBlur result="blurOut" stdDeviation="2.0"/><feColorMatrix in="blurOut" result="blurOut2" type="matrix" values="0 0 0 0 0 0 0 0 0 0 0 0 0 0 0 0 0 0 .4 0"/><feOffset dx="4.0" dy="4.0" in="blurOut2" result="blurOut3"/><feBlend in="SourceGraphic" in2="blurOut3" mode="normal"/></filter></defs><g><!--cluster Arguments--><polygon fill="#FFFFFF" filter="url(#f1x3bshijmzuhn)" points="14,16,99,16,106,38.4883,188,38.4883,188,151,14,151,14,16" style="stroke: #000000; stroke-width: 1.5;"/><line style="stroke: #000000; stroke-width: 1.5;" x1="14" x2="106" y1="38.4883" y2="38.4883"/><text fill="#000000" font-family="sans-serif" font-size="14" font-weight="bold" lengthAdjust="spacingAndGlyphs" textLength="79" x="18" y="31.5352">Arguments</text><!--class Arguments.Argument--><a target="_top" xlink:actuate="onRequest" xlink:href="Arguments.Argument.html" xlink:show="new" xlink:title="Arguments.Argument.html" xlink:type="simple"><rect fill="#FEFECE" filter="url(#f1x3bshijmzuhn)" height="99.8203" id="Arguments.Argument" style="stroke: #A80036; stroke-width: 1.5;" width="158" x="22" y="43"/><ellipse cx="68.75" cy="59" fill="#ADD1B2" rx="11" ry="11" style="stroke: #A80036; stroke-width: 1.0;"/><path d="M71.2231,65.1431 Q70.6421,65.4419 70.0029,65.5913 Q69.3638,65.7407 68.6582,65.7407 Q66.1514,65.7407 64.8315,64.0889 Q63.5117,62.437 63.5117,59.3159 Q63.5117,56.1865 64.8315,54.5347 Q66.1514,52.8828 68.6582,52.8828 Q69.3638,52.8828 70.0112,53.0322 Q70.6587,53.1816 71.2231,53.4805 L71.2231,56.2031 Q70.5923,55.6221 69.9988,55.3523 Q69.4053,55.0825 68.7744,55.0825 Q67.4297,55.0825 66.7449,56.1492 Q66.0601,57.2158 66.0601,59.3159 Q66.0601,61.4077 66.7449,62.4744 Q67.4297,63.541 68.7744,63.541 Q69.4053,63.541 69.9988,63.2712 Q70.5923,63.0015 71.2231,62.4204 Z "/><text fill="#000000" font-family="sans-serif" font-size="12" lengthAdjust="spacingAndGlyphs" textLength="56" x="89.25" y="63.5352">Argument</text><line style="stroke: #A80036; stroke-width: 1.5;" x1="23" x2="179" y1="75" y2="75"/><line style="stroke: #A80036; stroke-width: 1.5;" x1="23" x2="179" y1="83" y2="83"/><ellipse cx="33" cy="94.9775" fill="#84BE84" rx="3" ry="3" style="stroke: #038048; stroke-width: 1.0;"/><text fill="#000000" font-family="sans-serif" font-size="11" lengthAdjust="spacingAndGlyphs" textLength="62" x="42" y="97.6348">Argument()</text><ellipse cx="33" cy="107.9326" fill="#84BE84" rx="3" ry="3" style="stroke: #038048; stroke-width: 1.0;"/><text fill="#000000" font-family="sans-serif" font-size="11" lengthAdjust="spacingAndGlyphs" textLength="132" x="42" y="110.5898">Argument(String, String)</text><ellipse cx="33" cy="120.8877" fill="#84BE84" rx="3" ry="3" style="stroke: #038048; stroke-width: 1.0;"/><text fill="#000000" font-family="sans-serif" font-size="11" lengthAdjust="spacingAndGlyphs" textLength="93" x="42" y="123.5449">getName(): String</text><ellipse cx="33" cy="133.8428" fill="#84BE84" rx="3" ry="3" style="stroke: #038048; stroke-width: 1.0;"/><text fill="#000000" font-family="sans-serif" font-size="11" lengthAdjust="spacingAndGlyphs" textLength="92" x="42" y="136.5">getValue(): String</text></a><!--
@startuml

    class Arguments.Argument [[Arguments.Argument.html]] {
        +Argument()
        +Argument(String, String)
        +getName(): String
        +getValue(): String
    }

@enduml

PlantUML version 1.2018.08(Sun Jun 24 14:31:00 CEST 2018)
(APACHE source distribution)
Java Runtime: Java(TM) SE Runtime Environment
JVM: Java HotSpot(TM) 64-Bit Server VM
Java Version: 1.8.0_151-b12
Operating System: Mac OS X
OS Version: 10.14.2
Default Encoding: UTF-8
Language: en
Country: US
--></g></svg>