<?xml version="1.0" encoding="UTF-8" standalone="no"?><svg xmlns="http://www.w3.org/2000/svg" xmlns:xlink="http://www.w3.org/1999/xlink" contentScriptType="application/ecmascript" contentStyleType="text/css" height="170px" preserveAspectRatio="none" style="width:451px;height:170px;" version="1.1" viewBox="0 0 451 170" width="451px" zoomAndPan="magnify"><defs><filter height="300%" id="f1umfiqpdwgtkj" width="300%" x="-1" y="-1"><feGaussianBlur result="blurOut" stdDeviation="2.0"/><feColorMatrix in="blurOut" result="blurOut2" type="matrix" values="0 0 0 0 0 0 0 0 0 0 0 0 0 0 0 0 0 0 .4 0"/><feOffset dx="4.0" dy="4.0" in="blurOut2" result="blurOut3"/><feBlend in="SourceGraphic" in2="blurOut3" mode="normal"/></filter></defs><g><!--class Arguments--><a target="_top" xlink:actuate="onRequest" xlink:href="Arguments.html" xlink:show="new" xlink:title="Arguments.html" xlink:type="simple"><rect fill="#FEFECE" filter="url(#f1umfiqpdwgtkj)" height="151.6406" id="Arguments" style="stroke: #A80036; stroke-width: 1.5;" width="434" x="6" y="8"/><ellipse cx="187.75" cy="24" fill="#ADD1B2" rx="11" ry="11" style="stroke: #A80036; stroke-width: 1.0;"/><path d="M190.2231,30.1431 Q189.6421,30.4419 189.0029,30.5913 Q188.3638,30.7407 187.6582,30.7407 Q185.1514,30.7407 183.8315,29.0889 Q182.5117,27.437 182.5117,24.3159 Q182.5117,21.1865 183.8315,19.5347 Q185.1514,17.8828 187.6582,17.8828 Q188.3638,17.8828 189.0112,18.0322 Q189.6587,18.1816 190.2231,18.4805 L190.2231,21.2031 Q189.5923,20.6221 188.9988,20.3523 Q188.4053,20.0825 187.7744,20.0825 Q186.4297,20.0825 185.7449,21.1492 Q185.0601,22.2158 185.0601,24.3159 Q185.0601,26.4077 185.7449,27.4744 Q186.4297,28.541 187.7744,28.541 Q188.4053,28.541 188.9988,28.2712 Q189.5923,28.0015 190.2231,27.4204 Z "/><text fill="#000000" font-family="sans-serif" font-size="12" lengthAdjust="spacingAndGlyphs" textLength="62" x="208.25" y="28.5352">Arguments</text><line style="stroke: #A80036; stroke-width: 1.5;" x1="7" x2="439" y1="40" y2="40"/><line style="stroke: #A80036; stroke-width: 1.5;" x1="7" x2="439" y1="48" y2="48"/><ellipse cx="17" cy="59.9775" fill="#84BE84" rx="3" ry="3" style="stroke: #038048; stroke-width: 1.0;"/><text fill="#000000" font-family="sans-serif" font-size="11" lengthAdjust="spacingAndGlyphs" textLength="150" x="26" y="62.6348">Arguments(PropertyHolder)</text><ellipse cx="17" cy="72.9326" fill="#84BE84" rx="3" ry="3" style="stroke: #038048; stroke-width: 1.0;"/><text fill="#000000" font-family="sans-serif" font-size="11" lengthAdjust="spacingAndGlyphs" textLength="68" x="26" y="75.5898">Arguments()</text><ellipse cx="17" cy="85.8877" fill="#84BE84" rx="3" ry="3" style="stroke: #038048; stroke-width: 1.0;"/><text fill="#000000" font-family="sans-serif" font-size="11" lengthAdjust="spacingAndGlyphs" textLength="178" x="26" y="88.5449">Arguments(Map&lt;String, String&gt;)</text><ellipse cx="17" cy="98.8428" fill="#84BE84" rx="3" ry="3" style="stroke: #038048; stroke-width: 1.0;"/><text fill="#000000" font-family="sans-serif" font-size="11" lengthAdjust="spacingAndGlyphs" textLength="152" x="26" y="101.5">setValue(String, String): void</text><ellipse cx="17" cy="111.7979" fill="#84BE84" rx="3" ry="3" style="stroke: #038048; stroke-width: 1.0;"/><text fill="#000000" font-family="sans-serif" font-size="11" lengthAdjust="spacingAndGlyphs" textLength="408" x="26" y="114.4551">argumentParameterSet(Parameterizable): Arguments.ArgumentParameterSet</text><ellipse cx="17" cy="124.7529" fill="#84BE84" rx="3" ry="3" style="stroke: #038048; stroke-width: 1.0;"/><text fill="#000000" font-family="sans-serif" font-size="11" lengthAdjust="spacingAndGlyphs" textLength="99" x="26" y="127.4102">isEmpty(): boolean</text><ellipse cx="17" cy="137.708" fill="#84BE84" rx="3" ry="3" style="stroke: #038048; stroke-width: 1.0;"/><text fill="#000000" font-family="sans-serif" font-size="11" lengthAdjust="spacingAndGlyphs" textLength="106" x="26" y="140.3652">value(String): String</text><ellipse cx="17" cy="150.6631" fill="#84BE84" rx="3" ry="3" style="stroke: #038048; stroke-width: 1.0;"/><text fill="#000000" font-family="sans-serif" font-size="11" lengthAdjust="spacingAndGlyphs" textLength="158" x="26" y="153.3203">values(): Map&lt;String, String&gt;</text></a><!--
@startuml

    class Arguments [[Arguments.html]] {
        +Arguments(PropertyHolder)
        +Arguments()
        +Arguments(Map<String, String>)
        +setValue(String, String): void
        +argumentParameterSet(Parameterizable): Arguments.ArgumentParameterSet
        +isEmpty(): boolean
        +value(String): String
        +values(): Map<String, String>
    }

@enduml

PlantUML version 1.2018.08(Sun Jun 24 14:31:00 CEST 2018)
(APACHE source distribution)
Java Runtime: Java(TM) SE Runtime Environment
JVM: Java HotSpot(TM) 64-Bit Server VM
Java Version: 1.8.0_151-b12
Operating System: Mac OS X
OS Version: 10.14.2
Default Encoding: UTF-8
Language: en
Country: US
--></g></svg>