<?xml version="1.0" encoding="UTF-8" standalone="no"?><svg xmlns="http://www.w3.org/2000/svg" xmlns:xlink="http://www.w3.org/1999/xlink" contentScriptType="application/ecmascript" contentStyleType="text/css" height="92px" preserveAspectRatio="none" style="width:276px;height:92px;" version="1.1" viewBox="0 0 276 92" width="276px" zoomAndPan="magnify"><defs><filter height="300%" id="f126l9chep7r3" width="300%" x="-1" y="-1"><feGaussianBlur result="blurOut" stdDeviation="2.0"/><feColorMatrix in="blurOut" result="blurOut2" type="matrix" values="0 0 0 0 0 0 0 0 0 0 0 0 0 0 0 0 0 0 .4 0"/><feOffset dx="4.0" dy="4.0" in="blurOut2" result="blurOut3"/><feBlend in="SourceGraphic" in2="blurOut3" mode="normal"/></filter></defs><g><!--class IncompleteDtoException--><a target="_top" xlink:actuate="onRequest" xlink:href="IncompleteDtoException.html" xlink:show="new" xlink:title="IncompleteDtoException.html" xlink:type="simple"><rect fill="#FEFECE" filter="url(#f126l9chep7r3)" height="73.9102" id="IncompleteDtoException" style="stroke: #A80036; stroke-width: 1.5;" width="259" x="6" y="8"/><ellipse cx="61.75" cy="24" fill="#ADD1B2" rx="11" ry="11" style="stroke: #A80036; stroke-width: 1.0;"/><path d="M64.2231,30.1431 Q63.6421,30.4419 63.0029,30.5913 Q62.3638,30.7407 61.6582,30.7407 Q59.1514,30.7407 57.8315,29.0889 Q56.5117,27.437 56.5117,24.3159 Q56.5117,21.1865 57.8315,19.5347 Q59.1514,17.8828 61.6582,17.8828 Q62.3638,17.8828 63.0112,18.0322 Q63.6587,18.1816 64.2231,18.4805 L64.2231,21.2031 Q63.5923,20.6221 62.9988,20.3523 Q62.4053,20.0825 61.7744,20.0825 Q60.4297,20.0825 59.7449,21.1492 Q59.0601,22.2158 59.0601,24.3159 Q59.0601,26.4077 59.7449,27.4744 Q60.4297,28.541 61.7744,28.541 Q62.4053,28.541 62.9988,28.2712 Q63.5923,28.0015 64.2231,27.4204 Z "/><text fill="#000000" font-family="sans-serif" font-size="12" lengthAdjust="spacingAndGlyphs" textLength="139" x="82.25" y="28.5352">IncompleteDtoException</text><line style="stroke: #A80036; stroke-width: 1.5;" x1="7" x2="264" y1="40" y2="40"/><line style="stroke: #A80036; stroke-width: 1.5;" x1="7" x2="264" y1="48" y2="48"/><ellipse cx="17" cy="59.9775" fill="#84BE84" rx="3" ry="3" style="stroke: #038048; stroke-width: 1.0;"/><text fill="#000000" font-family="sans-serif" font-size="11" lengthAdjust="spacingAndGlyphs" textLength="171" x="26" y="62.6348">IncompleteDtoException(String)</text><ellipse cx="17" cy="72.9326" fill="#84BE84" rx="3" ry="3" style="stroke: #038048; stroke-width: 1.0;"/><text fill="#000000" font-family="sans-serif" font-size="11" lengthAdjust="spacingAndGlyphs" textLength="233" x="26" y="75.5898">IncompleteDtoException(String, Throwable)</text></a><!--
@startuml

    class IncompleteDtoException [[IncompleteDtoException.html]] {
        +IncompleteDtoException(String)
        +IncompleteDtoException(String, Throwable)
    }

@enduml

PlantUML version 1.2018.08(Sun Jun 24 14:31:00 CEST 2018)
(APACHE source distribution)
Java Runtime: Java(TM) SE Runtime Environment
JVM: Java HotSpot(TM) 64-Bit Server VM
Java Version: 1.8.0_151-b12
Operating System: Mac OS X
OS Version: 10.14.2
Default Encoding: UTF-8
Language: en
Country: US
--></g></svg>