<?xml version="1.0" encoding="UTF-8" standalone="no"?><svg xmlns="http://www.w3.org/2000/svg" xmlns:xlink="http://www.w3.org/1999/xlink" contentScriptType="application/ecmascript" contentStyleType="text/css" height="183px" preserveAspectRatio="none" style="width:217px;height:183px;" version="1.1" viewBox="0 0 217 183" width="217px" zoomAndPan="magnify"><defs><filter height="300%" id="f5qle9n4i14k4" width="300%" x="-1" y="-1"><feGaussianBlur result="blurOut" stdDeviation="2.0"/><feColorMatrix in="blurOut" result="blurOut2" type="matrix" values="0 0 0 0 0 0 0 0 0 0 0 0 0 0 0 0 0 0 .4 0"/><feOffset dx="4.0" dy="4.0" in="blurOut2" result="blurOut3"/><feBlend in="SourceGraphic" in2="blurOut3" mode="normal"/></filter></defs><g><!--class ComponentDto--><a target="_top" xlink:actuate="onRequest" xlink:href="ComponentDto.html" xlink:show="new" xlink:title="ComponentDto.html" xlink:type="simple"><rect fill="#FEFECE" filter="url(#f5qle9n4i14k4)" height="164.5957" id="ComponentDto" style="stroke: #A80036; stroke-width: 1.5;" width="200" x="6" y="8"/><ellipse cx="58.75" cy="24" fill="#ADD1B2" rx="11" ry="11" style="stroke: #A80036; stroke-width: 1.0;"/><path d="M61.2231,30.1431 Q60.6421,30.4419 60.0029,30.5913 Q59.3638,30.7407 58.6582,30.7407 Q56.1514,30.7407 54.8315,29.0889 Q53.5117,27.437 53.5117,24.3159 Q53.5117,21.1865 54.8315,19.5347 Q56.1514,17.8828 58.6582,17.8828 Q59.3638,17.8828 60.0112,18.0322 Q60.6587,18.1816 61.2231,18.4805 L61.2231,21.2031 Q60.5923,20.6221 59.9988,20.3523 Q59.4053,20.0825 58.7744,20.0825 Q57.4297,20.0825 56.7449,21.1492 Q56.0601,22.2158 56.0601,24.3159 Q56.0601,26.4077 56.7449,27.4744 Q57.4297,28.541 58.7744,28.541 Q59.4053,28.541 59.9988,28.2712 Q60.5923,28.0015 61.2231,27.4204 Z "/><text fill="#000000" font-family="sans-serif" font-size="12" lengthAdjust="spacingAndGlyphs" textLength="86" x="79.25" y="28.5352">ComponentDto</text><line style="stroke: #A80036; stroke-width: 1.5;" x1="7" x2="205" y1="40" y2="40"/><polygon fill="none" points="17,46.9775,21,50.9775,17,54.9775,13,50.9775" style="stroke: #B38D22; stroke-width: 1.0;"/><text fill="#000000" font-family="sans-serif" font-size="11" lengthAdjust="spacingAndGlyphs" textLength="76" x="26" y="54.6348">vendor: String</text><polygon fill="none" points="17,59.9326,21,63.9326,17,67.9326,13,63.9326" style="stroke: #B38D22; stroke-width: 1.0;"/><text fill="#000000" font-family="sans-serif" font-size="11" lengthAdjust="spacingAndGlyphs" textLength="78" x="26" y="67.5898">version: String</text><line style="stroke: #A80036; stroke-width: 1.5;" x1="7" x2="205" y1="73.9102" y2="73.9102"/><ellipse cx="17" cy="85.8877" fill="#84BE84" rx="3" ry="3" style="stroke: #038048; stroke-width: 1.0;"/><text fill="#000000" font-family="sans-serif" font-size="11" lengthAdjust="spacingAndGlyphs" textLength="90" x="26" y="88.5449">ComponentDto()</text><ellipse cx="17" cy="98.8428" fill="#84BE84" rx="3" ry="3" style="stroke: #038048; stroke-width: 1.0;"/><text fill="#000000" font-family="sans-serif" font-size="11" lengthAdjust="spacingAndGlyphs" textLength="174" x="26" y="101.5">ComponentDto(ComponentInfo)</text><ellipse cx="17" cy="111.7979" fill="#84BE84" rx="3" ry="3" style="stroke: #038048; stroke-width: 1.0;"/><text fill="#000000" font-family="sans-serif" font-size="11" lengthAdjust="spacingAndGlyphs" textLength="102" x="26" y="114.4551">getVendor(): String</text><ellipse cx="17" cy="124.7529" fill="#84BE84" rx="3" ry="3" style="stroke: #038048; stroke-width: 1.0;"/><text fill="#000000" font-family="sans-serif" font-size="11" lengthAdjust="spacingAndGlyphs" textLength="124" x="26" y="127.4102">setVendor(String): void</text><ellipse cx="17" cy="137.708" fill="#84BE84" rx="3" ry="3" style="stroke: #038048; stroke-width: 1.0;"/><text fill="#000000" font-family="sans-serif" font-size="11" lengthAdjust="spacingAndGlyphs" textLength="104" x="26" y="140.3652">getVersion(): String</text><ellipse cx="17" cy="150.6631" fill="#84BE84" rx="3" ry="3" style="stroke: #038048; stroke-width: 1.0;"/><text fill="#000000" font-family="sans-serif" font-size="11" lengthAdjust="spacingAndGlyphs" textLength="126" x="26" y="153.3203">setVersion(String): void</text><ellipse cx="17" cy="163.6182" fill="#84BE84" rx="3" ry="3" style="stroke: #038048; stroke-width: 1.0;"/><text fill="#000000" font-family="sans-serif" font-size="11" lengthAdjust="spacingAndGlyphs" textLength="157" x="26" y="166.2754">createCopy(): ComponentDto</text></a><!--
@startuml

    class ComponentDto [[ComponentDto.html]] {
        #vendor: String
        #version: String
        +ComponentDto()
        +ComponentDto(ComponentInfo)
        +getVendor(): String
        +setVendor(String): void
        +getVersion(): String
        +setVersion(String): void
        +createCopy(): ComponentDto
    }

@enduml

PlantUML version 1.2018.08(Sun Jun 24 14:31:00 CEST 2018)
(APACHE source distribution)
Java Runtime: Java(TM) SE Runtime Environment
JVM: Java HotSpot(TM) 64-Bit Server VM
Java Version: 1.8.0_151-b12
Operating System: Mac OS X
OS Version: 10.14.2
Default Encoding: UTF-8
Language: en
Country: US
--></g></svg>