<?xml version="1.0" encoding="UTF-8" standalone="no"?><svg xmlns="http://www.w3.org/2000/svg" xmlns:xlink="http://www.w3.org/1999/xlink" contentScriptType="application/ecmascript" contentStyleType="text/css" height="170px" preserveAspectRatio="none" style="width:240px;height:170px;" version="1.1" viewBox="0 0 240 170" width="240px" zoomAndPan="magnify"><defs><filter height="300%" id="f1eotpksyo47bs" width="300%" x="-1" y="-1"><feGaussianBlur result="blurOut" stdDeviation="2.0"/><feColorMatrix in="blurOut" result="blurOut2" type="matrix" values="0 0 0 0 0 0 0 0 0 0 0 0 0 0 0 0 0 0 .4 0"/><feOffset dx="4.0" dy="4.0" in="blurOut2" result="blurOut3"/><feBlend in="SourceGraphic" in2="blurOut3" mode="normal"/></filter></defs><g><!--class CredentialDto--><a target="_top" xlink:actuate="onRequest" xlink:href="CredentialDto.html" xlink:show="new" xlink:title="CredentialDto.html" xlink:type="simple"><rect fill="#FEFECE" filter="url(#f1eotpksyo47bs)" height="151.6406" id="CredentialDto" style="stroke: #A80036; stroke-width: 1.5;" width="223" x="6" y="8"/><ellipse cx="73.75" cy="24" fill="#ADD1B2" rx="11" ry="11" style="stroke: #A80036; stroke-width: 1.0;"/><path d="M76.2231,30.1431 Q75.6421,30.4419 75.0029,30.5913 Q74.3638,30.7407 73.6582,30.7407 Q71.1514,30.7407 69.8315,29.0889 Q68.5117,27.437 68.5117,24.3159 Q68.5117,21.1865 69.8315,19.5347 Q71.1514,17.8828 73.6582,17.8828 Q74.3638,17.8828 75.0112,18.0322 Q75.6587,18.1816 76.2231,18.4805 L76.2231,21.2031 Q75.5923,20.6221 74.9988,20.3523 Q74.4053,20.0825 73.7744,20.0825 Q72.4297,20.0825 71.7449,21.1492 Q71.0601,22.2158 71.0601,24.3159 Q71.0601,26.4077 71.7449,27.4744 Q72.4297,28.541 73.7744,28.541 Q74.4053,28.541 74.9988,28.2712 Q75.5923,28.0015 76.2231,27.4204 Z "/><text fill="#000000" font-family="sans-serif" font-size="12" lengthAdjust="spacingAndGlyphs" textLength="79" x="94.25" y="28.5352">CredentialDto</text><line style="stroke: #A80036; stroke-width: 1.5;" x1="7" x2="228" y1="40" y2="40"/><line style="stroke: #A80036; stroke-width: 1.5;" x1="7" x2="228" y1="48" y2="48"/><ellipse cx="17" cy="59.9775" fill="#84BE84" rx="3" ry="3" style="stroke: #038048; stroke-width: 1.0;"/><text fill="#000000" font-family="sans-serif" font-size="11" lengthAdjust="spacingAndGlyphs" textLength="82" x="26" y="62.6348">CredentialDto()</text><ellipse cx="17" cy="72.9326" fill="#84BE84" rx="3" ry="3" style="stroke: #038048; stroke-width: 1.0;"/><text fill="#000000" font-family="sans-serif" font-size="11" lengthAdjust="spacingAndGlyphs" textLength="175" x="26" y="75.5898">getApplicableTo(): ModelItemDto</text><ellipse cx="17" cy="85.8877" fill="#84BE84" rx="3" ry="3" style="stroke: #038048; stroke-width: 1.0;"/><text fill="#000000" font-family="sans-serif" font-size="11" lengthAdjust="spacingAndGlyphs" textLength="197" x="26" y="88.5449">setApplicableTo(ModelItemDto): void</text><ellipse cx="17" cy="98.8428" fill="#84BE84" rx="3" ry="3" style="stroke: #038048; stroke-width: 1.0;"/><text fill="#000000" font-family="sans-serif" font-size="11" lengthAdjust="spacingAndGlyphs" textLength="135" x="26" y="101.5">getApplicableUri(): String</text><ellipse cx="17" cy="111.7979" fill="#84BE84" rx="3" ry="3" style="stroke: #038048; stroke-width: 1.0;"/><text fill="#000000" font-family="sans-serif" font-size="11" lengthAdjust="spacingAndGlyphs" textLength="157" x="26" y="114.4551">setApplicableUri(String): void</text><ellipse cx="17" cy="124.7529" fill="#84BE84" rx="3" ry="3" style="stroke: #038048; stroke-width: 1.0;"/><text fill="#000000" font-family="sans-serif" font-size="11" lengthAdjust="spacingAndGlyphs" textLength="98" x="26" y="127.4102">getCipher(): byte[]</text><ellipse cx="17" cy="137.708" fill="#84BE84" rx="3" ry="3" style="stroke: #038048; stroke-width: 1.0;"/><text fill="#000000" font-family="sans-serif" font-size="11" lengthAdjust="spacingAndGlyphs" textLength="120" x="26" y="140.3652">setCipher(byte[]): void</text><ellipse cx="17" cy="150.6631" fill="#84BE84" rx="3" ry="3" style="stroke: #038048; stroke-width: 1.0;"/><text fill="#000000" font-family="sans-serif" font-size="11" lengthAdjust="spacingAndGlyphs" textLength="149" x="26" y="153.3203">createCopy(): CredentialDto</text></a><!--
@startuml

    class CredentialDto [[CredentialDto.html]] {
        +CredentialDto()
        +getApplicableTo(): ModelItemDto
        +setApplicableTo(ModelItemDto): void
        +getApplicableUri(): String
        +setApplicableUri(String): void
        +getCipher(): byte[]
        +setCipher(byte[]): void
        +createCopy(): CredentialDto
    }

@enduml

PlantUML version 1.2018.08(Sun Jun 24 14:31:00 CEST 2018)
(APACHE source distribution)
Java Runtime: Java(TM) SE Runtime Environment
JVM: Java HotSpot(TM) 64-Bit Server VM
Java Version: 1.8.0_151-b12
Operating System: Mac OS X
OS Version: 10.14.2
Default Encoding: UTF-8
Language: en
Country: US
--></g></svg>