<?xml version="1.0" encoding="UTF-8" standalone="no"?><svg xmlns="http://www.w3.org/2000/svg" xmlns:xlink="http://www.w3.org/1999/xlink" contentScriptType="application/ecmascript" contentStyleType="text/css" height="131px" preserveAspectRatio="none" style="width:295px;height:131px;" version="1.1" viewBox="0 0 295 131" width="295px" zoomAndPan="magnify"><defs><filter height="300%" id="fdb86h5h4306z" width="300%" x="-1" y="-1"><feGaussianBlur result="blurOut" stdDeviation="2.0"/><feColorMatrix in="blurOut" result="blurOut2" type="matrix" values="0 0 0 0 0 0 0 0 0 0 0 0 0 0 0 0 0 0 .4 0"/><feOffset dx="4.0" dy="4.0" in="blurOut2" result="blurOut3"/><feBlend in="SourceGraphic" in2="blurOut3" mode="normal"/></filter></defs><g><!--class NamingConventionDto--><a target="_top" xlink:actuate="onRequest" xlink:href="NamingConventionDto.html" xlink:show="new" xlink:title="NamingConventionDto.html" xlink:type="simple"><rect fill="#FEFECE" filter="url(#fdb86h5h4306z)" height="112.7754" id="NamingConventionDto" style="stroke: #A80036; stroke-width: 1.5;" width="278" x="6" y="8"/><ellipse cx="77.25" cy="24" fill="#ADD1B2" rx="11" ry="11" style="stroke: #A80036; stroke-width: 1.0;"/><path d="M79.7231,30.1431 Q79.1421,30.4419 78.5029,30.5913 Q77.8638,30.7407 77.1582,30.7407 Q74.6514,30.7407 73.3315,29.0889 Q72.0117,27.437 72.0117,24.3159 Q72.0117,21.1865 73.3315,19.5347 Q74.6514,17.8828 77.1582,17.8828 Q77.8638,17.8828 78.5112,18.0322 Q79.1587,18.1816 79.7231,18.4805 L79.7231,21.2031 Q79.0923,20.6221 78.4988,20.3523 Q77.9053,20.0825 77.2744,20.0825 Q75.9297,20.0825 75.2449,21.1492 Q74.5601,22.2158 74.5601,24.3159 Q74.5601,26.4077 75.2449,27.4744 Q75.9297,28.541 77.2744,28.541 Q77.9053,28.541 78.4988,28.2712 Q79.0923,28.0015 79.7231,27.4204 Z "/><text fill="#000000" font-family="sans-serif" font-size="12" lengthAdjust="spacingAndGlyphs" textLength="127" x="97.75" y="28.5352">NamingConventionDto</text><line style="stroke: #A80036; stroke-width: 1.5;" x1="7" x2="283" y1="40" y2="40"/><line style="stroke: #A80036; stroke-width: 1.5;" x1="7" x2="283" y1="48" y2="48"/><ellipse cx="17" cy="59.9775" fill="#84BE84" rx="3" ry="3" style="stroke: #038048; stroke-width: 1.0;"/><text fill="#000000" font-family="sans-serif" font-size="11" lengthAdjust="spacingAndGlyphs" textLength="130" x="26" y="62.6348">NamingConventionDto()</text><ellipse cx="17" cy="72.9326" fill="#84BE84" rx="3" ry="3" style="stroke: #038048; stroke-width: 1.0;"/><text fill="#000000" font-family="sans-serif" font-size="11" lengthAdjust="spacingAndGlyphs" textLength="252" x="26" y="75.5898">NamingConventionDto(NamingConventionDto)</text><ellipse cx="17" cy="85.8877" fill="#84BE84" rx="3" ry="3" style="stroke: #038048; stroke-width: 1.0;"/><text fill="#000000" font-family="sans-serif" font-size="11" lengthAdjust="spacingAndGlyphs" textLength="96" x="26" y="88.5449">getRegex(): String</text><ellipse cx="17" cy="98.8428" fill="#84BE84" rx="3" ry="3" style="stroke: #038048; stroke-width: 1.0;"/><text fill="#000000" font-family="sans-serif" font-size="11" lengthAdjust="spacingAndGlyphs" textLength="118" x="26" y="101.5">setRegex(String): void</text><ellipse cx="17" cy="111.7979" fill="#84BE84" rx="3" ry="3" style="stroke: #038048; stroke-width: 1.0;"/><text fill="#000000" font-family="sans-serif" font-size="11" lengthAdjust="spacingAndGlyphs" textLength="197" x="26" y="114.4551">createCopy(): NamingConventionDto</text></a><!--
@startuml

    class NamingConventionDto [[NamingConventionDto.html]] {
        +NamingConventionDto()
        +NamingConventionDto(NamingConventionDto)
        +getRegex(): String
        +setRegex(String): void
        +createCopy(): NamingConventionDto
    }

@enduml

PlantUML version 1.2018.08(Sun Jun 24 14:31:00 CEST 2018)
(APACHE source distribution)
Java Runtime: Java(TM) SE Runtime Environment
JVM: Java HotSpot(TM) 64-Bit Server VM
Java Version: 1.8.0_151-b12
Operating System: Mac OS X
OS Version: 10.14.2
Default Encoding: UTF-8
Language: en
Country: US
--></g></svg>