<?xml version="1.0" encoding="UTF-8" standalone="no"?><svg xmlns="http://www.w3.org/2000/svg" xmlns:xlink="http://www.w3.org/1999/xlink" contentScriptType="application/ecmascript" contentStyleType="text/css" height="118px" preserveAspectRatio="none" style="width:157px;height:118px;" version="1.1" viewBox="0 0 157 118" width="157px" zoomAndPan="magnify"><defs><filter height="300%" id="f7gpf0zh7lrce" width="300%" x="-1" y="-1"><feGaussianBlur result="blurOut" stdDeviation="2.0"/><feColorMatrix in="blurOut" result="blurOut2" type="matrix" values="0 0 0 0 0 0 0 0 0 0 0 0 0 0 0 0 0 0 .4 0"/><feOffset dx="4.0" dy="4.0" in="blurOut2" result="blurOut3"/><feBlend in="SourceGraphic" in2="blurOut3" mode="normal"/></filter></defs><g><!--class TagDto--><a target="_top" xlink:actuate="onRequest" xlink:href="TagDto.html" xlink:show="new" xlink:title="TagDto.html" xlink:type="simple"><rect fill="#FEFECE" filter="url(#f7gpf0zh7lrce)" height="99.8203" id="TagDto" style="stroke: #A80036; stroke-width: 1.5;" width="140" x="6" y="8"/><ellipse cx="50.75" cy="24" fill="#ADD1B2" rx="11" ry="11" style="stroke: #A80036; stroke-width: 1.0;"/><path d="M53.2231,30.1431 Q52.6421,30.4419 52.0029,30.5913 Q51.3638,30.7407 50.6582,30.7407 Q48.1514,30.7407 46.8315,29.0889 Q45.5117,27.437 45.5117,24.3159 Q45.5117,21.1865 46.8315,19.5347 Q48.1514,17.8828 50.6582,17.8828 Q51.3638,17.8828 52.0112,18.0322 Q52.6587,18.1816 53.2231,18.4805 L53.2231,21.2031 Q52.5923,20.6221 51.9988,20.3523 Q51.4053,20.0825 50.7744,20.0825 Q49.4297,20.0825 48.7449,21.1492 Q48.0601,22.2158 48.0601,24.3159 Q48.0601,26.4077 48.7449,27.4744 Q49.4297,28.541 50.7744,28.541 Q51.4053,28.541 51.9988,28.2712 Q52.5923,28.0015 53.2231,27.4204 Z "/><text fill="#000000" font-family="sans-serif" font-size="12" lengthAdjust="spacingAndGlyphs" textLength="42" x="71.25" y="28.5352">TagDto</text><line style="stroke: #A80036; stroke-width: 1.5;" x1="7" x2="145" y1="40" y2="40"/><line style="stroke: #A80036; stroke-width: 1.5;" x1="7" x2="145" y1="48" y2="48"/><ellipse cx="17" cy="59.9775" fill="#84BE84" rx="3" ry="3" style="stroke: #038048; stroke-width: 1.0;"/><text fill="#000000" font-family="sans-serif" font-size="11" lengthAdjust="spacingAndGlyphs" textLength="47" x="26" y="62.6348">TagDto()</text><ellipse cx="17" cy="72.9326" fill="#84BE84" rx="3" ry="3" style="stroke: #038048; stroke-width: 1.0;"/><text fill="#000000" font-family="sans-serif" font-size="11" lengthAdjust="spacingAndGlyphs" textLength="84" x="26" y="75.5898">getPriority(): int</text><ellipse cx="17" cy="85.8877" fill="#84BE84" rx="3" ry="3" style="stroke: #038048; stroke-width: 1.0;"/><text fill="#000000" font-family="sans-serif" font-size="11" lengthAdjust="spacingAndGlyphs" textLength="106" x="26" y="88.5449">setPriority(int): void</text><ellipse cx="17" cy="98.8428" fill="#84BE84" rx="3" ry="3" style="stroke: #038048; stroke-width: 1.0;"/><text fill="#000000" font-family="sans-serif" font-size="11" lengthAdjust="spacingAndGlyphs" textLength="114" x="26" y="101.5">createCopy(): TagDto</text></a><!--
@startuml

    class TagDto [[TagDto.html]] {
        +TagDto()
        +getPriority(): int
        +setPriority(int): void
        +createCopy(): TagDto
    }

@enduml

PlantUML version 1.2018.08(Sun Jun 24 14:31:00 CEST 2018)
(APACHE source distribution)
Java Runtime: Java(TM) SE Runtime Environment
JVM: Java HotSpot(TM) 64-Bit Server VM
Java Version: 1.8.0_151-b12
Operating System: Mac OS X
OS Version: 10.14.2
Default Encoding: UTF-8
Language: en
Country: US
--></g></svg>