<?xml version="1.0" encoding="UTF-8" standalone="no"?><svg xmlns="http://www.w3.org/2000/svg" xmlns:xlink="http://www.w3.org/1999/xlink" contentScriptType="application/ecmascript" contentStyleType="text/css" height="235px" preserveAspectRatio="none" style="width:372px;height:235px;" version="1.1" viewBox="0 0 372 235" width="372px" zoomAndPan="magnify"><defs><filter height="300%" id="f7tk8yd3qtnfo" width="300%" x="-1" y="-1"><feGaussianBlur result="blurOut" stdDeviation="2.0"/><feColorMatrix in="blurOut" result="blurOut2" type="matrix" values="0 0 0 0 0 0 0 0 0 0 0 0 0 0 0 0 0 0 .4 0"/><feOffset dx="4.0" dy="4.0" in="blurOut2" result="blurOut3"/><feBlend in="SourceGraphic" in2="blurOut3" mode="normal"/></filter></defs><g><!--class TestRunTemplateDto--><a target="_top" xlink:actuate="onRequest" xlink:href="TestRunTemplateDto.html" xlink:show="new" xlink:title="TestRunTemplateDto.html" xlink:type="simple"><rect fill="#FEFECE" filter="url(#f7tk8yd3qtnfo)" height="216.416" id="TestRunTemplateDto" style="stroke: #A80036; stroke-width: 1.5;" width="355" x="6" y="8"/><ellipse cx="118.25" cy="24" fill="#ADD1B2" rx="11" ry="11" style="stroke: #A80036; stroke-width: 1.0;"/><path d="M120.7231,30.1431 Q120.1421,30.4419 119.5029,30.5913 Q118.8638,30.7407 118.1582,30.7407 Q115.6514,30.7407 114.3315,29.0889 Q113.0117,27.437 113.0117,24.3159 Q113.0117,21.1865 114.3315,19.5347 Q115.6514,17.8828 118.1582,17.8828 Q118.8638,17.8828 119.5112,18.0322 Q120.1587,18.1816 120.7231,18.4805 L120.7231,21.2031 Q120.0923,20.6221 119.4988,20.3523 Q118.9053,20.0825 118.2744,20.0825 Q116.9297,20.0825 116.2449,21.1492 Q115.5601,22.2158 115.5601,24.3159 Q115.5601,26.4077 116.2449,27.4744 Q116.9297,28.541 118.2744,28.541 Q118.9053,28.541 119.4988,28.2712 Q120.0923,28.0015 120.7231,27.4204 Z "/><text fill="#000000" font-family="sans-serif" font-size="12" lengthAdjust="spacingAndGlyphs" textLength="122" x="138.75" y="28.5352">TestRunTemplateDto</text><line style="stroke: #A80036; stroke-width: 1.5;" x1="7" x2="360" y1="40" y2="40"/><line style="stroke: #A80036; stroke-width: 1.5;" x1="7" x2="360" y1="48" y2="48"/><ellipse cx="17" cy="59.9775" fill="#84BE84" rx="3" ry="3" style="stroke: #038048; stroke-width: 1.0;"/><text fill="#000000" font-family="sans-serif" font-size="11" lengthAdjust="spacingAndGlyphs" textLength="120" x="26" y="62.6348">TestRunTemplateDto()</text><ellipse cx="17" cy="72.9326" fill="#84BE84" rx="3" ry="3" style="stroke: #038048; stroke-width: 1.0;"/><text fill="#000000" font-family="sans-serif" font-size="11" lengthAdjust="spacingAndGlyphs" textLength="307" x="26" y="75.5898">getExecutableTestSuites(): List&lt;ExecutableTestSuiteDto&gt;</text><ellipse cx="17" cy="85.8877" fill="#84BE84" rx="3" ry="3" style="stroke: #038048; stroke-width: 1.0;"/><text fill="#000000" font-family="sans-serif" font-size="11" lengthAdjust="spacingAndGlyphs" textLength="329" x="26" y="88.5449">setExecutableTestSuites(List&lt;ExecutableTestSuiteDto&gt;): void</text><ellipse cx="17" cy="98.8428" fill="#84BE84" rx="3" ry="3" style="stroke: #038048; stroke-width: 1.0;"/><text fill="#000000" font-family="sans-serif" font-size="11" lengthAdjust="spacingAndGlyphs" textLength="290" x="26" y="101.5">addExecutableTestSuite(ExecutableTestSuiteDto): void</text><ellipse cx="17" cy="111.7979" fill="#84BE84" rx="3" ry="3" style="stroke: #038048; stroke-width: 1.0;"/><text fill="#000000" font-family="sans-serif" font-size="11" lengthAdjust="spacingAndGlyphs" textLength="209" x="26" y="114.4551">getTestObjects(): List&lt;TestObjectDto&gt;</text><ellipse cx="17" cy="124.7529" fill="#84BE84" rx="3" ry="3" style="stroke: #038048; stroke-width: 1.0;"/><text fill="#000000" font-family="sans-serif" font-size="11" lengthAdjust="spacingAndGlyphs" textLength="231" x="26" y="127.4102">setTestObjects(List&lt;TestObjectDto&gt;): void</text><ellipse cx="17" cy="137.708" fill="#84BE84" rx="3" ry="3" style="stroke: #038048; stroke-width: 1.0;"/><text fill="#000000" font-family="sans-serif" font-size="11" lengthAdjust="spacingAndGlyphs" textLength="192" x="26" y="140.3652">addTestObject(TestObjectDto): void</text><ellipse cx="17" cy="150.6631" fill="#84BE84" rx="3" ry="3" style="stroke: #038048; stroke-width: 1.0;"/><text fill="#000000" font-family="sans-serif" font-size="11" lengthAdjust="spacingAndGlyphs" textLength="125" x="26" y="153.3203">properties(): Properties</text><ellipse cx="17" cy="163.6182" fill="#84BE84" rx="3" ry="3" style="stroke: #038048; stroke-width: 1.0;"/><text fill="#000000" font-family="sans-serif" font-size="11" lengthAdjust="spacingAndGlyphs" textLength="148" x="26" y="166.2754">properties(Properties): void</text><ellipse cx="17" cy="176.5732" fill="#84BE84" rx="3" ry="3" style="stroke: #038048; stroke-width: 1.0;"/><text fill="#000000" font-family="sans-serif" font-size="11" lengthAdjust="spacingAndGlyphs" textLength="161" x="26" y="179.2305">getParameters(): ParameterSet</text><ellipse cx="17" cy="189.5283" fill="#84BE84" rx="3" ry="3" style="stroke: #038048; stroke-width: 1.0;"/><text fill="#000000" font-family="sans-serif" font-size="11" lengthAdjust="spacingAndGlyphs" textLength="183" x="26" y="192.1855">setParameters(ParameterSet): void</text><ellipse cx="17" cy="202.4834" fill="#84BE84" rx="3" ry="3" style="stroke: #038048; stroke-width: 1.0;"/><text fill="#000000" font-family="sans-serif" font-size="11" lengthAdjust="spacingAndGlyphs" textLength="140" x="26" y="205.1406">ensureBasicValidity(): void</text><ellipse cx="17" cy="215.4385" fill="#84BE84" rx="3" ry="3" style="stroke: #038048; stroke-width: 1.0;"/><text fill="#000000" font-family="sans-serif" font-size="11" lengthAdjust="spacingAndGlyphs" textLength="94" x="26" y="218.0957">createCopy(): Dto</text></a><!--
@startuml

    class TestRunTemplateDto [[TestRunTemplateDto.html]] {
        +TestRunTemplateDto()
        +getExecutableTestSuites(): List<ExecutableTestSuiteDto>
        +setExecutableTestSuites(List<ExecutableTestSuiteDto>): void
        +addExecutableTestSuite(ExecutableTestSuiteDto): void
        +getTestObjects(): List<TestObjectDto>
        +setTestObjects(List<TestObjectDto>): void
        +addTestObject(TestObjectDto): void
        +properties(): Properties
        +properties(Properties): void
        +getParameters(): ParameterSet
        +setParameters(ParameterSet): void
        +ensureBasicValidity(): void
        +createCopy(): Dto
    }

@enduml

PlantUML version 1.2018.08(Sun Jun 24 14:31:00 CEST 2018)
(APACHE source distribution)
Java Runtime: Java(TM) SE Runtime Environment
JVM: Java HotSpot(TM) 64-Bit Server VM
Java Version: 1.8.0_151-b12
Operating System: Mac OS X
OS Version: 10.14.2
Default Encoding: UTF-8
Language: en
Country: US
--></g></svg>