<?xml version="1.0" encoding="UTF-8" standalone="no"?><svg xmlns="http://www.w3.org/2000/svg" xmlns:xlink="http://www.w3.org/1999/xlink" contentScriptType="application/ecmascript" contentStyleType="text/css" height="118px" preserveAspectRatio="none" style="width:236px;height:118px;" version="1.1" viewBox="0 0 236 118" width="236px" zoomAndPan="magnify"><defs><filter height="300%" id="fnka94ix63b9z" width="300%" x="-1" y="-1"><feGaussianBlur result="blurOut" stdDeviation="2.0"/><feColorMatrix in="blurOut" result="blurOut2" type="matrix" values="0 0 0 0 0 0 0 0 0 0 0 0 0 0 0 0 0 0 .4 0"/><feOffset dx="4.0" dy="4.0" in="blurOut2" result="blurOut3"/><feBlend in="SourceGraphic" in2="blurOut3" mode="normal"/></filter></defs><g><!--class CachedLocalResource--><a target="_top" xlink:actuate="onRequest" xlink:href="CachedLocalResource.html" xlink:show="new" xlink:title="CachedLocalResource.html" xlink:type="simple"><rect fill="#FEFECE" filter="url(#fnka94ix63b9z)" height="99.8203" id="CachedLocalResource" style="stroke: #A80036; stroke-width: 1.5;" width="219" x="6" y="8"/><ellipse cx="48.9" cy="24" fill="#ADD1B2" rx="11" ry="11" style="stroke: #A80036; stroke-width: 1.0;"/><path d="M51.3731,30.1431 Q50.7921,30.4419 50.1529,30.5913 Q49.5138,30.7407 48.8082,30.7407 Q46.3014,30.7407 44.9815,29.0889 Q43.6617,27.437 43.6617,24.3159 Q43.6617,21.1865 44.9815,19.5347 Q46.3014,17.8828 48.8082,17.8828 Q49.5138,17.8828 50.1612,18.0322 Q50.8087,18.1816 51.3731,18.4805 L51.3731,21.2031 Q50.7423,20.6221 50.1488,20.3523 Q49.5553,20.0825 48.9244,20.0825 Q47.5797,20.0825 46.8949,21.1492 Q46.2101,22.2158 46.2101,24.3159 Q46.2101,26.4077 46.8949,27.4744 Q47.5797,28.541 48.9244,28.541 Q49.5553,28.541 50.1488,28.2712 Q50.7423,28.0015 51.3731,27.4204 Z "/><text fill="#000000" font-family="sans-serif" font-size="12" lengthAdjust="spacingAndGlyphs" textLength="125" x="69.1" y="28.5352">CachedLocalResource</text><line style="stroke: #A80036; stroke-width: 1.5;" x1="7" x2="224" y1="40" y2="40"/><line style="stroke: #A80036; stroke-width: 1.5;" x1="7" x2="224" y1="48" y2="48"/><ellipse cx="17" cy="59.9775" fill="#84BE84" rx="3" ry="3" style="stroke: #038048; stroke-width: 1.0;"/><text fill="#000000" font-family="sans-serif" font-size="11" lengthAdjust="spacingAndGlyphs" textLength="123" x="26" y="62.6348">getFromCache(): byte[]</text><ellipse cx="17" cy="72.9326" fill="#84BE84" rx="3" ry="3" style="stroke: #038048; stroke-width: 1.0;"/><text fill="#000000" font-family="sans-serif" font-size="11" lengthAdjust="spacingAndGlyphs" textLength="87" x="26" y="75.5898">recache(): byte[]</text><ellipse cx="17" cy="85.8877" fill="#84BE84" rx="3" ry="3" style="stroke: #038048; stroke-width: 1.0;"/><text fill="#000000" font-family="sans-serif" font-size="11" lengthAdjust="spacingAndGlyphs" textLength="152" x="26" y="88.5449">recacheIfModified(): boolean</text><ellipse cx="17" cy="98.8428" fill="#84BE84" rx="3" ry="3" style="stroke: #038048; stroke-width: 1.0;"/><text fill="#000000" font-family="sans-serif" font-size="11" lengthAdjust="spacingAndGlyphs" textLength="193" x="26" y="101.5">createCopy(): CachedLocalResource</text></a><!--
@startuml

    class CachedLocalResource [[CachedLocalResource.html]] {
        +getFromCache(): byte[]
        +recache(): byte[]
        +recacheIfModified(): boolean
        +createCopy(): CachedLocalResource
    }

@enduml

PlantUML version 1.2018.08(Sun Jun 24 14:31:00 CEST 2018)
(APACHE source distribution)
Java Runtime: Java(TM) SE Runtime Environment
JVM: Java HotSpot(TM) 64-Bit Server VM
Java Version: 1.8.0_151-b12
Operating System: Mac OS X
OS Version: 10.14.2
Default Encoding: UTF-8
Language: en
Country: US
--></g></svg>