<?xml version="1.0" encoding="UTF-8" standalone="no"?><svg xmlns="http://www.w3.org/2000/svg" xmlns:xlink="http://www.w3.org/1999/xlink" contentScriptType="application/ecmascript" contentStyleType="text/css" height="878px" preserveAspectRatio="none" style="width:507px;height:878px;" version="1.1" viewBox="0 0 507 878" width="507px" zoomAndPan="magnify"><defs><filter height="300%" id="f1ujjcjtfkyec0" width="300%" x="-1" y="-1"><feGaussianBlur result="blurOut" stdDeviation="2.0"/><feColorMatrix in="blurOut" result="blurOut2" type="matrix" values="0 0 0 0 0 0 0 0 0 0 0 0 0 0 0 0 0 0 .4 0"/><feOffset dx="4.0" dy="4.0" in="blurOut2" result="blurOut3"/><feBlend in="SourceGraphic" in2="blurOut3" mode="normal"/></filter></defs><g><!--cluster de.interactive_instruments.etf.dal.dto.run--><polygon fill="#FFFFFF" filter="url(#f1ujjcjtfkyec0)" points="14,130,313,130,320,152.4883,364,152.4883,364,866,14,866,14,130" style="stroke: #000000; stroke-width: 1.5;"/><line style="stroke: #000000; stroke-width: 1.5;" x1="14" x2="320" y1="152.4883" y2="152.4883"/><text fill="#000000" font-family="sans-serif" font-size="14" font-weight="bold" lengthAdjust="spacingAndGlyphs" textLength="293" x="18" y="145.5352">de.interactive_instruments.etf.dal.dto.run</text><!--cluster de.interactive_instruments.etf.dal.dto--><polygon fill="#FFFFFF" filter="url(#f1ujjcjtfkyec0)" points="203,16,475,16,482,38.4883,485,38.4883,485,99,203,99,203,16" style="stroke: #000000; stroke-width: 1.5;"/><line style="stroke: #000000; stroke-width: 1.5;" x1="203" x2="482" y1="38.4883" y2="38.4883"/><text fill="#000000" font-family="sans-serif" font-size="14" font-weight="bold" lengthAdjust="spacingAndGlyphs" textLength="266" x="207" y="31.5352">de.interactive_instruments.etf.dal.dto</text><!--class de.interactive_instruments.etf.dal.dto.run.TestTaskDto--><a target="_top" xlink:actuate="onRequest" xlink:href="TestTaskDto.html" xlink:show="new" xlink:title="TestTaskDto.html" xlink:type="simple"><rect fill="#FEFECE" filter="url(#f1ujjcjtfkyec0)" height="229.3711" id="de.interactive_instruments.etf.dal.dto.run.TestTaskDto" style="stroke: #A80036; stroke-width: 1.5;" width="312" x="39" y="629"/><ellipse cx="154.25" cy="645" fill="#ADD1B2" rx="11" ry="11" style="stroke: #A80036; stroke-width: 1.0;"/><path d="M156.7231,651.1431 Q156.1421,651.4419 155.5029,651.5913 Q154.8638,651.7407 154.1582,651.7407 Q151.6514,651.7407 150.3315,650.0889 Q149.0117,648.437 149.0117,645.3159 Q149.0117,642.1865 150.3315,640.5347 Q151.6514,638.8828 154.1582,638.8828 Q154.8638,638.8828 155.5112,639.0322 Q156.1587,639.1816 156.7231,639.4805 L156.7231,642.2031 Q156.0923,641.6221 155.4988,641.3523 Q154.9053,641.0825 154.2744,641.0825 Q152.9297,641.0825 152.2449,642.1492 Q151.5601,643.2158 151.5601,645.3159 Q151.5601,647.4077 152.2449,648.4744 Q152.9297,649.541 154.2744,649.541 Q154.9053,649.541 155.4988,649.2712 Q156.0923,649.0015 156.7231,648.4204 Z "/><text fill="#000000" font-family="sans-serif" font-size="12" lengthAdjust="spacingAndGlyphs" textLength="73" x="174.75" y="649.5352">TestTaskDto</text><line style="stroke: #A80036; stroke-width: 1.5;" x1="40" x2="350" y1="661" y2="661"/><line style="stroke: #A80036; stroke-width: 1.5;" x1="40" x2="350" y1="669" y2="669"/><ellipse cx="50" cy="680.9775" fill="#84BE84" rx="3" ry="3" style="stroke: #038048; stroke-width: 1.0;"/><text fill="#000000" font-family="sans-serif" font-size="11" lengthAdjust="spacingAndGlyphs" textLength="75" x="59" y="683.6348">TestTaskDto()</text><ellipse cx="50" cy="693.9326" fill="#84BE84" rx="3" ry="3" style="stroke: #038048; stroke-width: 1.0;"/><text fill="#000000" font-family="sans-serif" font-size="11" lengthAdjust="spacingAndGlyphs" textLength="264" x="59" y="696.5898">getExecutableTestSuite(): ExecutableTestSuiteDto</text><ellipse cx="50" cy="706.8877" fill="#84BE84" rx="3" ry="3" style="stroke: #038048; stroke-width: 1.0;"/><text fill="#000000" font-family="sans-serif" font-size="11" lengthAdjust="spacingAndGlyphs" textLength="286" x="59" y="709.5449">setExecutableTestSuite(ExecutableTestSuiteDto): void</text><ellipse cx="50" cy="719.8428" fill="#84BE84" rx="3" ry="3" style="stroke: #038048; stroke-width: 1.0;"/><text fill="#000000" font-family="sans-serif" font-size="11" lengthAdjust="spacingAndGlyphs" textLength="166" x="59" y="722.5">getTestObject(): TestObjectDto</text><ellipse cx="50" cy="732.7979" fill="#84BE84" rx="3" ry="3" style="stroke: #038048; stroke-width: 1.0;"/><text fill="#000000" font-family="sans-serif" font-size="11" lengthAdjust="spacingAndGlyphs" textLength="188" x="59" y="735.4551">setTestObject(TestObjectDto): void</text><ellipse cx="50" cy="745.7529" fill="#84BE84" rx="3" ry="3" style="stroke: #038048; stroke-width: 1.0;"/><text fill="#000000" font-family="sans-serif" font-size="11" lengthAdjust="spacingAndGlyphs" textLength="166" x="59" y="748.4102">getResultStyle(): ResultStyleDto</text><ellipse cx="50" cy="758.708" fill="#84BE84" rx="3" ry="3" style="stroke: #038048; stroke-width: 1.0;"/><text fill="#000000" font-family="sans-serif" font-size="11" lengthAdjust="spacingAndGlyphs" textLength="188" x="59" y="761.3652">setResultStyle(ResultStyleDto): void</text><ellipse cx="50" cy="771.6631" fill="#84BE84" rx="3" ry="3" style="stroke: #038048; stroke-width: 1.0;"/><text fill="#000000" font-family="sans-serif" font-size="11" lengthAdjust="spacingAndGlyphs" textLength="212" x="59" y="774.3203">getTestTaskResult(): TestTaskResultDto</text><ellipse cx="50" cy="784.6182" fill="#84BE84" rx="3" ry="3" style="stroke: #038048; stroke-width: 1.0;"/><text fill="#000000" font-family="sans-serif" font-size="11" lengthAdjust="spacingAndGlyphs" textLength="234" x="59" y="787.2754">setTestTaskResult(TestTaskResultDto): void</text><ellipse cx="50" cy="797.5732" fill="#84BE84" rx="3" ry="3" style="stroke: #038048; stroke-width: 1.0;"/><text fill="#000000" font-family="sans-serif" font-size="11" lengthAdjust="spacingAndGlyphs" textLength="151" x="59" y="800.2305">getArguments(): Arguments</text><ellipse cx="50" cy="810.5283" fill="#84BE84" rx="3" ry="3" style="stroke: #038048; stroke-width: 1.0;"/><text fill="#000000" font-family="sans-serif" font-size="11" lengthAdjust="spacingAndGlyphs" textLength="173" x="59" y="813.1855">setArguments(Arguments): void</text><ellipse cx="50" cy="823.4834" fill="#84BE84" rx="3" ry="3" style="stroke: #038048; stroke-width: 1.0;"/><text fill="#000000" font-family="sans-serif" font-size="11" lengthAdjust="spacingAndGlyphs" textLength="89" x="59" y="826.1406">toString(): String</text><ellipse cx="50" cy="836.4385" fill="#84BE84" rx="3" ry="3" style="stroke: #038048; stroke-width: 1.0;"/><text fill="#000000" font-family="sans-serif" font-size="11" lengthAdjust="spacingAndGlyphs" textLength="140" x="59" y="839.0957">ensureBasicValidity(): void</text><ellipse cx="50" cy="849.3936" fill="#84BE84" rx="3" ry="3" style="stroke: #038048; stroke-width: 1.0;"/><text fill="#000000" font-family="sans-serif" font-size="11" lengthAdjust="spacingAndGlyphs" textLength="142" x="59" y="852.0508">createCopy(): TestTaskDto</text></a><!--class de.interactive_instruments.etf.dal.dto.run.TestRunDto--><a target="_top" xlink:actuate="onRequest" xlink:href="TestRunDto.html" xlink:show="new" xlink:title="TestRunDto.html" xlink:type="simple"><rect fill="#FEFECE" filter="url(#f1ujjcjtfkyec0)" height="333.0117" id="de.interactive_instruments.etf.dal.dto.run.TestRunDto" style="stroke: #A80036; stroke-width: 1.5;" width="333" x="22.5" y="157"/><ellipse cx="151.25" cy="173" fill="#ADD1B2" rx="11" ry="11" style="stroke: #A80036; stroke-width: 1.0;"/><path d="M153.7231,179.1431 Q153.1421,179.4419 152.5029,179.5913 Q151.8638,179.7407 151.1582,179.7407 Q148.6514,179.7407 147.3315,178.0889 Q146.0117,176.437 146.0117,173.3159 Q146.0117,170.1865 147.3315,168.5347 Q148.6514,166.8828 151.1582,166.8828 Q151.8638,166.8828 152.5112,167.0322 Q153.1587,167.1816 153.7231,167.4805 L153.7231,170.2031 Q153.0923,169.6221 152.4988,169.3523 Q151.9053,169.0825 151.2744,169.0825 Q149.9297,169.0825 149.2449,170.1492 Q148.5601,171.2158 148.5601,173.3159 Q148.5601,175.4077 149.2449,176.4744 Q149.9297,177.541 151.2744,177.541 Q151.9053,177.541 152.4988,177.2712 Q153.0923,177.0015 153.7231,176.4204 Z "/><text fill="#000000" font-family="sans-serif" font-size="12" lengthAdjust="spacingAndGlyphs" textLength="67" x="171.75" y="177.5352">TestRunDto</text><line style="stroke: #A80036; stroke-width: 1.5;" x1="23.5" x2="354.5" y1="189" y2="189"/><line style="stroke: #A80036; stroke-width: 1.5;" x1="23.5" x2="354.5" y1="197" y2="197"/><ellipse cx="33.5" cy="208.9775" fill="#84BE84" rx="3" ry="3" style="stroke: #038048; stroke-width: 1.0;"/><text fill="#000000" font-family="sans-serif" font-size="11" lengthAdjust="spacingAndGlyphs" textLength="71" x="42.5" y="211.6348">TestRunDto()</text><ellipse cx="33.5" cy="221.9326" fill="#84BE84" rx="3" ry="3" style="stroke: #038048; stroke-width: 1.0;"/><text fill="#000000" font-family="sans-serif" font-size="11" lengthAdjust="spacingAndGlyphs" textLength="91" x="42.5" y="224.5898">getLabel(): String</text><ellipse cx="33.5" cy="234.8877" fill="#84BE84" rx="3" ry="3" style="stroke: #038048; stroke-width: 1.0;"/><text fill="#000000" font-family="sans-serif" font-size="11" lengthAdjust="spacingAndGlyphs" textLength="113" x="42.5" y="237.5449">setLabel(String): void</text><ellipse cx="33.5" cy="247.8428" fill="#84BE84" rx="3" ry="3" style="stroke: #038048; stroke-width: 1.0;"/><text fill="#000000" font-family="sans-serif" font-size="11" lengthAdjust="spacingAndGlyphs" textLength="127" x="42.5" y="250.5">getDefaultLang(): String</text><ellipse cx="33.5" cy="260.7979" fill="#84BE84" rx="3" ry="3" style="stroke: #038048; stroke-width: 1.0;"/><text fill="#000000" font-family="sans-serif" font-size="11" lengthAdjust="spacingAndGlyphs" textLength="149" x="42.5" y="263.4551">setDefaultLang(String): void</text><ellipse cx="33.5" cy="273.7529" fill="#84BE84" rx="3" ry="3" style="stroke: #038048; stroke-width: 1.0;"/><text fill="#000000" font-family="sans-serif" font-size="11" lengthAdjust="spacingAndGlyphs" textLength="139" x="42.5" y="276.4102">getStartTimestamp(): Date</text><ellipse cx="33.5" cy="286.708" fill="#84BE84" rx="3" ry="3" style="stroke: #038048; stroke-width: 1.0;"/><text fill="#000000" font-family="sans-serif" font-size="11" lengthAdjust="spacingAndGlyphs" textLength="161" x="42.5" y="289.3652">setStartTimestamp(Date): void</text><ellipse cx="33.5" cy="299.6631" fill="#84BE84" rx="3" ry="3" style="stroke: #038048; stroke-width: 1.0;"/><text fill="#000000" font-family="sans-serif" font-size="11" lengthAdjust="spacingAndGlyphs" textLength="113" x="42.5" y="302.3203">getStartedBy(): String</text><ellipse cx="33.5" cy="312.6182" fill="#84BE84" rx="3" ry="3" style="stroke: #038048; stroke-width: 1.0;"/><text fill="#000000" font-family="sans-serif" font-size="11" lengthAdjust="spacingAndGlyphs" textLength="135" x="42.5" y="315.2754">setStartedBy(String): void</text><ellipse cx="33.5" cy="325.5732" fill="#84BE84" rx="3" ry="3" style="stroke: #038048; stroke-width: 1.0;"/><text fill="#000000" font-family="sans-serif" font-size="11" lengthAdjust="spacingAndGlyphs" textLength="106" x="42.5" y="328.2305">getLogPath(): String</text><ellipse cx="33.5" cy="338.5283" fill="#84BE84" rx="3" ry="3" style="stroke: #038048; stroke-width: 1.0;"/><text fill="#000000" font-family="sans-serif" font-size="11" lengthAdjust="spacingAndGlyphs" textLength="128" x="42.5" y="341.1855">setLogPath(String): void</text><ellipse cx="33.5" cy="351.4834" fill="#84BE84" rx="3" ry="3" style="stroke: #038048; stroke-width: 1.0;"/><text fill="#000000" font-family="sans-serif" font-size="11" lengthAdjust="spacingAndGlyphs" textLength="172" x="42.5" y="354.1406">addTestTask(TestTaskDto): void</text><ellipse cx="33.5" cy="364.4385" fill="#84BE84" rx="3" ry="3" style="stroke: #038048; stroke-width: 1.0;"/><text fill="#000000" font-family="sans-serif" font-size="11" lengthAdjust="spacingAndGlyphs" textLength="209" x="42.5" y="367.0957">getTestObjects(): List&lt;TestObjectDto&gt;</text><ellipse cx="33.5" cy="377.3936" fill="#84BE84" rx="3" ry="3" style="stroke: #038048; stroke-width: 1.0;"/><text fill="#000000" font-family="sans-serif" font-size="11" lengthAdjust="spacingAndGlyphs" textLength="307" x="42.5" y="380.0508">getExecutableTestSuites(): List&lt;ExecutableTestSuiteDto&gt;</text><ellipse cx="33.5" cy="390.3486" fill="#84BE84" rx="3" ry="3" style="stroke: #038048; stroke-width: 1.0;"/><text fill="#000000" font-family="sans-serif" font-size="11" lengthAdjust="spacingAndGlyphs" textLength="255" x="42.5" y="393.0059">getTestTaskResults(): List&lt;TestTaskResultDto&gt;</text><ellipse cx="33.5" cy="403.3037" fill="#84BE84" rx="3" ry="3" style="stroke: #038048; stroke-width: 1.0;"/><text fill="#000000" font-family="sans-serif" font-size="11" lengthAdjust="spacingAndGlyphs" textLength="152" x="42.5" y="405.9609">getTestResultStatus(): String</text><ellipse cx="33.5" cy="416.2588" fill="#84BE84" rx="3" ry="3" style="stroke: #038048; stroke-width: 1.0;"/><text fill="#000000" font-family="sans-serif" font-size="11" lengthAdjust="spacingAndGlyphs" textLength="231" x="42.5" y="418.916">setTestResultStatus(TestResultStatus): void</text><ellipse cx="33.5" cy="429.2139" fill="#84BE84" rx="3" ry="3" style="stroke: #038048; stroke-width: 1.0;"/><text fill="#000000" font-family="sans-serif" font-size="11" lengthAdjust="spacingAndGlyphs" textLength="174" x="42.5" y="431.8711">setTestResultStatus(String): void</text><ellipse cx="33.5" cy="442.1689" fill="#84BE84" rx="3" ry="3" style="stroke: #038048; stroke-width: 1.0;"/><text fill="#000000" font-family="sans-serif" font-size="11" lengthAdjust="spacingAndGlyphs" textLength="89" x="42.5" y="444.8262">toString(): String</text><ellipse cx="33.5" cy="455.124" fill="#84BE84" rx="3" ry="3" style="stroke: #038048; stroke-width: 1.0;"/><text fill="#000000" font-family="sans-serif" font-size="11" lengthAdjust="spacingAndGlyphs" textLength="151" x="42.5" y="457.7813">getDescriptiveLabel(): String</text><ellipse cx="33.5" cy="468.0791" fill="#84BE84" rx="3" ry="3" style="stroke: #038048; stroke-width: 1.0;"/><text fill="#000000" font-family="sans-serif" font-size="11" lengthAdjust="spacingAndGlyphs" textLength="140" x="42.5" y="470.7363">ensureBasicValidity(): void</text><ellipse cx="33.5" cy="481.0342" fill="#84BE84" rx="3" ry="3" style="stroke: #038048; stroke-width: 1.0;"/><text fill="#000000" font-family="sans-serif" font-size="11" lengthAdjust="spacingAndGlyphs" textLength="138" x="42.5" y="483.6914">createCopy(): TestRunDto</text></a><!--class de.interactive_instruments.etf.dal.dto.ModelItemDto--><rect fill="#FEFECE" filter="url(#f1ujjcjtfkyec0)" height="48" id="de.interactive_instruments.etf.dal.dto.ModelItemDto" style="stroke: #A80036; stroke-width: 1.5;" width="124" x="282" y="43"/><ellipse cx="297" cy="59" fill="#A9DCDF" rx="11" ry="11" style="stroke: #A80036; stroke-width: 1.0;"/><path d="M297.1133,54.5981 L295.9595,59.6699 L298.2754,59.6699 Z M295.6191,52.3569 L298.6157,52.3569 L301.9609,64.75 L299.5122,64.75 L298.7485,61.687 L295.4697,61.687 L294.7227,64.75 L292.2739,64.75 Z "/><text fill="#000000" font-family="sans-serif" font-size="12" font-style="italic" lengthAdjust="spacingAndGlyphs" textLength="80" x="311" y="63.5352">ModelItemDto</text><rect fill="#FFFFFF" height="16.1328" style="stroke: #000000; stroke-width: 1.0; stroke-dasharray: 2.0,2.0;" width="10" x="399" y="40"/><text fill="#000000" font-family="sans-serif" font-size="12" font-style="italic" lengthAdjust="spacingAndGlyphs" textLength="8" x="400" y="52.6016">T</text><line style="stroke: #A80036; stroke-width: 1.5;" x1="283" x2="405" y1="75" y2="75"/><line style="stroke: #A80036; stroke-width: 1.5;" x1="283" x2="405" y1="83" y2="83"/><!--link de.interactive_instruments.etf.dal.dto.ModelItemDto to de.interactive_instruments.etf.dal.dto.run.TestTaskDto--><path d="M366.5414,109.5593 C369.208,116.2401 371.5081,123.1911 373,130 C407.2451,286.2923 421.2133,337.437 373,490 C357.3221,539.6103 328.0705,587.9298 297.7445,628.8483 " fill="none" id="de.interactive_instruments.etf.dal.dto.ModelItemDto-de.interactive_instruments.etf.dal.dto.run.TestTaskDto" style="stroke: #A80036; stroke-width: 1.0;"/><polygon fill="none" points="360.129,112.3688,358.1577,91.2711,372.8554,106.5347,360.129,112.3688" style="stroke: #A80036; stroke-width: 1.0;"/><!--link de.interactive_instruments.etf.dal.dto.ModelItemDto to de.interactive_instruments.etf.dal.dto.run.TestRunDto--><path d="M318.903,108.5315 C310.4101,122.5859 300.3376,139.2542 289.6154,156.9977 " fill="none" id="de.interactive_instruments.etf.dal.dto.ModelItemDto-de.interactive_instruments.etf.dal.dto.run.TestRunDto" style="stroke: #A80036; stroke-width: 1.0;"/><polygon fill="none" points="313.083,104.6279,329.418,91.1309,325.0652,111.8687,313.083,104.6279" style="stroke: #A80036; stroke-width: 1.0;"/><!--link de.interactive_instruments.etf.dal.dto.run.TestRunDto to de.interactive_instruments.etf.dal.dto.run.TestTaskDto--><path d="M191.38,490.0984 C192.0182,534.7746 192.6956,582.1912 193.2896,623.7749 " fill="none" id="de.interactive_instruments.etf.dal.dto.run.TestRunDto-de.interactive_instruments.etf.dal.dto.run.TestTaskDto" style="stroke: #A80036; stroke-width: 1.0;"/><polygon fill="#A80036" points="193.3617,628.8166,197.2325,619.7603,193.2901,623.8171,189.2333,619.8748,193.3617,628.8166" style="stroke: #A80036; stroke-width: 1.0;"/><text fill="#000000" font-family="sans-serif" font-size="13" lengthAdjust="spacingAndGlyphs" textLength="61" x="193" y="564.5684">testTasks</text><text fill="#000000" font-family="sans-serif" font-size="13" lengthAdjust="spacingAndGlyphs" textLength="6" x="187.0501" y="618.1737">*</text><!--
@startuml

    namespace de.interactive_instruments.etf.dal.dto.run {

        class TestTaskDto [[TestTaskDto.html]] {
            +TestTaskDto()
            +getExecutableTestSuite(): ExecutableTestSuiteDto
            +setExecutableTestSuite(ExecutableTestSuiteDto): void
            +getTestObject(): TestObjectDto
            +setTestObject(TestObjectDto): void
            +getResultStyle(): ResultStyleDto
            +setResultStyle(ResultStyleDto): void
            +getTestTaskResult(): TestTaskResultDto
            +setTestTaskResult(TestTaskResultDto): void
            +getArguments(): Arguments
            +setArguments(Arguments): void
            +toString(): String
            +ensureBasicValidity(): void
            +createCopy(): TestTaskDto
        }

        class TestRunDto [[TestRunDto.html]] {
            +TestRunDto()
            +getLabel(): String
            +setLabel(String): void
            +getDefaultLang(): String
            +setDefaultLang(String): void
            +getStartTimestamp(): Date
            +setStartTimestamp(Date): void
            +getStartedBy(): String
            +setStartedBy(String): void
            +getLogPath(): String
            +setLogPath(String): void
            +addTestTask(TestTaskDto): void
            +getTestObjects(): List<TestObjectDto>
            +getExecutableTestSuites(): List<ExecutableTestSuiteDto>
            +getTestTaskResults(): List<TestTaskResultDto>
            +getTestResultStatus(): String
            +setTestResultStatus(TestResultStatus): void
            +setTestResultStatus(String): void
            +toString(): String
            +getDescriptiveLabel(): String
            +ensureBasicValidity(): void
            +createCopy(): TestRunDto
        }

        abstract class de.interactive_instruments.etf.dal.dto.ModelItemDto<T>
        de.interactive_instruments.etf.dal.dto.ModelItemDto <|- - TestTaskDto

        de.interactive_instruments.etf.dal.dto.ModelItemDto <|- - TestRunDto

        TestRunDto - -> "*" TestTaskDto: testTasks

    }

@enduml

PlantUML version 1.2018.08(Sun Jun 24 14:31:00 CEST 2018)
(APACHE source distribution)
Java Runtime: Java(TM) SE Runtime Environment
JVM: Java HotSpot(TM) 64-Bit Server VM
Java Version: 1.8.0_151-b12
Operating System: Mac OS X
OS Version: 10.14.2
Default Encoding: UTF-8
Language: en
Country: US
--></g></svg>