<?xml version="1.0" encoding="UTF-8" standalone="no"?><svg xmlns="http://www.w3.org/2000/svg" xmlns:xlink="http://www.w3.org/1999/xlink" contentScriptType="application/ecmascript" contentStyleType="text/css" height="248px" preserveAspectRatio="none" style="width:329px;height:248px;" version="1.1" viewBox="0 0 329 248" width="329px" zoomAndPan="magnify"><defs><filter height="300%" id="fsxdp6v281xf3" width="300%" x="-1" y="-1"><feGaussianBlur result="blurOut" stdDeviation="2.0"/><feColorMatrix in="blurOut" result="blurOut2" type="matrix" values="0 0 0 0 0 0 0 0 0 0 0 0 0 0 0 0 0 0 .4 0"/><feOffset dx="4.0" dy="4.0" in="blurOut2" result="blurOut3"/><feBlend in="SourceGraphic" in2="blurOut3" mode="normal"/></filter></defs><g><!--class TestTaskDto--><a target="_top" xlink:actuate="onRequest" xlink:href="TestTaskDto.html" xlink:show="new" xlink:title="TestTaskDto.html" xlink:type="simple"><rect fill="#FEFECE" filter="url(#fsxdp6v281xf3)" height="229.3711" id="TestTaskDto" style="stroke: #A80036; stroke-width: 1.5;" width="312" x="6" y="8"/><ellipse cx="121.25" cy="24" fill="#ADD1B2" rx="11" ry="11" style="stroke: #A80036; stroke-width: 1.0;"/><path d="M123.7231,30.1431 Q123.1421,30.4419 122.5029,30.5913 Q121.8638,30.7407 121.1582,30.7407 Q118.6514,30.7407 117.3315,29.0889 Q116.0117,27.437 116.0117,24.3159 Q116.0117,21.1865 117.3315,19.5347 Q118.6514,17.8828 121.1582,17.8828 Q121.8638,17.8828 122.5112,18.0322 Q123.1587,18.1816 123.7231,18.4805 L123.7231,21.2031 Q123.0923,20.6221 122.4988,20.3523 Q121.9053,20.0825 121.2744,20.0825 Q119.9297,20.0825 119.2449,21.1492 Q118.5601,22.2158 118.5601,24.3159 Q118.5601,26.4077 119.2449,27.4744 Q119.9297,28.541 121.2744,28.541 Q121.9053,28.541 122.4988,28.2712 Q123.0923,28.0015 123.7231,27.4204 Z "/><text fill="#000000" font-family="sans-serif" font-size="12" lengthAdjust="spacingAndGlyphs" textLength="73" x="141.75" y="28.5352">TestTaskDto</text><line style="stroke: #A80036; stroke-width: 1.5;" x1="7" x2="317" y1="40" y2="40"/><line style="stroke: #A80036; stroke-width: 1.5;" x1="7" x2="317" y1="48" y2="48"/><ellipse cx="17" cy="59.9775" fill="#84BE84" rx="3" ry="3" style="stroke: #038048; stroke-width: 1.0;"/><text fill="#000000" font-family="sans-serif" font-size="11" lengthAdjust="spacingAndGlyphs" textLength="75" x="26" y="62.6348">TestTaskDto()</text><ellipse cx="17" cy="72.9326" fill="#84BE84" rx="3" ry="3" style="stroke: #038048; stroke-width: 1.0;"/><text fill="#000000" font-family="sans-serif" font-size="11" lengthAdjust="spacingAndGlyphs" textLength="264" x="26" y="75.5898">getExecutableTestSuite(): ExecutableTestSuiteDto</text><ellipse cx="17" cy="85.8877" fill="#84BE84" rx="3" ry="3" style="stroke: #038048; stroke-width: 1.0;"/><text fill="#000000" font-family="sans-serif" font-size="11" lengthAdjust="spacingAndGlyphs" textLength="286" x="26" y="88.5449">setExecutableTestSuite(ExecutableTestSuiteDto): void</text><ellipse cx="17" cy="98.8428" fill="#84BE84" rx="3" ry="3" style="stroke: #038048; stroke-width: 1.0;"/><text fill="#000000" font-family="sans-serif" font-size="11" lengthAdjust="spacingAndGlyphs" textLength="166" x="26" y="101.5">getTestObject(): TestObjectDto</text><ellipse cx="17" cy="111.7979" fill="#84BE84" rx="3" ry="3" style="stroke: #038048; stroke-width: 1.0;"/><text fill="#000000" font-family="sans-serif" font-size="11" lengthAdjust="spacingAndGlyphs" textLength="188" x="26" y="114.4551">setTestObject(TestObjectDto): void</text><ellipse cx="17" cy="124.7529" fill="#84BE84" rx="3" ry="3" style="stroke: #038048; stroke-width: 1.0;"/><text fill="#000000" font-family="sans-serif" font-size="11" lengthAdjust="spacingAndGlyphs" textLength="166" x="26" y="127.4102">getResultStyle(): ResultStyleDto</text><ellipse cx="17" cy="137.708" fill="#84BE84" rx="3" ry="3" style="stroke: #038048; stroke-width: 1.0;"/><text fill="#000000" font-family="sans-serif" font-size="11" lengthAdjust="spacingAndGlyphs" textLength="188" x="26" y="140.3652">setResultStyle(ResultStyleDto): void</text><ellipse cx="17" cy="150.6631" fill="#84BE84" rx="3" ry="3" style="stroke: #038048; stroke-width: 1.0;"/><text fill="#000000" font-family="sans-serif" font-size="11" lengthAdjust="spacingAndGlyphs" textLength="212" x="26" y="153.3203">getTestTaskResult(): TestTaskResultDto</text><ellipse cx="17" cy="163.6182" fill="#84BE84" rx="3" ry="3" style="stroke: #038048; stroke-width: 1.0;"/><text fill="#000000" font-family="sans-serif" font-size="11" lengthAdjust="spacingAndGlyphs" textLength="234" x="26" y="166.2754">setTestTaskResult(TestTaskResultDto): void</text><ellipse cx="17" cy="176.5732" fill="#84BE84" rx="3" ry="3" style="stroke: #038048; stroke-width: 1.0;"/><text fill="#000000" font-family="sans-serif" font-size="11" lengthAdjust="spacingAndGlyphs" textLength="151" x="26" y="179.2305">getArguments(): Arguments</text><ellipse cx="17" cy="189.5283" fill="#84BE84" rx="3" ry="3" style="stroke: #038048; stroke-width: 1.0;"/><text fill="#000000" font-family="sans-serif" font-size="11" lengthAdjust="spacingAndGlyphs" textLength="173" x="26" y="192.1855">setArguments(Arguments): void</text><ellipse cx="17" cy="202.4834" fill="#84BE84" rx="3" ry="3" style="stroke: #038048; stroke-width: 1.0;"/><text fill="#000000" font-family="sans-serif" font-size="11" lengthAdjust="spacingAndGlyphs" textLength="89" x="26" y="205.1406">toString(): String</text><ellipse cx="17" cy="215.4385" fill="#84BE84" rx="3" ry="3" style="stroke: #038048; stroke-width: 1.0;"/><text fill="#000000" font-family="sans-serif" font-size="11" lengthAdjust="spacingAndGlyphs" textLength="140" x="26" y="218.0957">ensureBasicValidity(): void</text><ellipse cx="17" cy="228.3936" fill="#84BE84" rx="3" ry="3" style="stroke: #038048; stroke-width: 1.0;"/><text fill="#000000" font-family="sans-serif" font-size="11" lengthAdjust="spacingAndGlyphs" textLength="142" x="26" y="231.0508">createCopy(): TestTaskDto</text></a><!--
@startuml

    class TestTaskDto [[TestTaskDto.html]] {
        +TestTaskDto()
        +getExecutableTestSuite(): ExecutableTestSuiteDto
        +setExecutableTestSuite(ExecutableTestSuiteDto): void
        +getTestObject(): TestObjectDto
        +setTestObject(TestObjectDto): void
        +getResultStyle(): ResultStyleDto
        +setResultStyle(ResultStyleDto): void
        +getTestTaskResult(): TestTaskResultDto
        +setTestTaskResult(TestTaskResultDto): void
        +getArguments(): Arguments
        +setArguments(Arguments): void
        +toString(): String
        +ensureBasicValidity(): void
        +createCopy(): TestTaskDto
    }

@enduml

PlantUML version 1.2018.08(Sun Jun 24 14:31:00 CEST 2018)
(APACHE source distribution)
Java Runtime: Java(TM) SE Runtime Environment
JVM: Java HotSpot(TM) 64-Bit Server VM
Java Version: 1.8.0_151-b12
Operating System: Mac OS X
OS Version: 10.14.2
Default Encoding: UTF-8
Language: en
Country: US
--></g></svg>