<?xml version="1.0" encoding="UTF-8" standalone="no"?><svg xmlns="http://www.w3.org/2000/svg" xmlns:xlink="http://www.w3.org/1999/xlink" contentScriptType="application/ecmascript" contentStyleType="text/css" height="105px" preserveAspectRatio="none" style="width:299px;height:105px;" version="1.1" viewBox="0 0 299 105" width="299px" zoomAndPan="magnify"><defs><filter height="300%" id="f1eoydoo0n3wnw" width="300%" x="-1" y="-1"><feGaussianBlur result="blurOut" stdDeviation="2.0"/><feColorMatrix in="blurOut" result="blurOut2" type="matrix" values="0 0 0 0 0 0 0 0 0 0 0 0 0 0 0 0 0 0 .4 0"/><feOffset dx="4.0" dy="4.0" in="blurOut2" result="blurOut3"/><feBlend in="SourceGraphic" in2="blurOut3" mode="normal"/></filter></defs><g><!--class LangTranslationTemplateCollectionDto--><a target="_top" xlink:actuate="onRequest" xlink:href="LangTranslationTemplateCollectionDto.html" xlink:show="new" xlink:title="LangTranslationTemplateCollectionDto.html" xlink:type="simple"><rect fill="#FEFECE" filter="url(#f1eoydoo0n3wnw)" height="86.8652" id="LangTranslationTemplateCollectionDto" style="stroke: #A80036; stroke-width: 1.5;" width="282" x="6" y="8"/><ellipse cx="34.05" cy="24" fill="#ADD1B2" rx="11" ry="11" style="stroke: #A80036; stroke-width: 1.0;"/><path d="M36.5231,30.1431 Q35.9421,30.4419 35.3029,30.5913 Q34.6638,30.7407 33.9582,30.7407 Q31.4514,30.7407 30.1315,29.0889 Q28.8117,27.437 28.8117,24.3159 Q28.8117,21.1865 30.1315,19.5347 Q31.4514,17.8828 33.9582,17.8828 Q34.6638,17.8828 35.3112,18.0322 Q35.9587,18.1816 36.5231,18.4805 L36.5231,21.2031 Q35.8923,20.6221 35.2988,20.3523 Q34.7053,20.0825 34.0744,20.0825 Q32.7297,20.0825 32.0449,21.1492 Q31.3601,22.2158 31.3601,24.3159 Q31.3601,26.4077 32.0449,27.4744 Q32.7297,28.541 34.0744,28.541 Q34.7053,28.541 35.2988,28.2712 Q35.8923,28.0015 36.5231,27.4204 Z "/><text fill="#000000" font-family="sans-serif" font-size="12" lengthAdjust="spacingAndGlyphs" textLength="221" x="50.95" y="28.5352">LangTranslationTemplateCollectionDto</text><line style="stroke: #A80036; stroke-width: 1.5;" x1="7" x2="287" y1="40" y2="40"/><line style="stroke: #A80036; stroke-width: 1.5;" x1="7" x2="287" y1="48" y2="48"/><ellipse cx="17" cy="59.9775" fill="#84BE84" rx="3" ry="3" style="stroke: #038048; stroke-width: 1.0;"/><text fill="#000000" font-family="sans-serif" font-size="11" lengthAdjust="spacingAndGlyphs" textLength="93" x="26" y="62.6348">getName(): String</text><ellipse cx="17" cy="72.9326" fill="#84BE84" rx="3" ry="3" style="stroke: #038048; stroke-width: 1.0;"/><text fill="#000000" font-family="sans-serif" font-size="11" lengthAdjust="spacingAndGlyphs" textLength="256" x="26" y="75.5898">getByLanguage(String): TranslationTemplateDto</text><ellipse cx="17" cy="85.8877" fill="#84BE84" rx="3" ry="3" style="stroke: #038048; stroke-width: 1.0;"/><text fill="#000000" font-family="sans-serif" font-size="11" lengthAdjust="spacingAndGlyphs" textLength="155" x="26" y="88.5449">getLanguages(): Set&lt;String&gt;</text></a><!--
@startuml

    class LangTranslationTemplateCollectionDto [[LangTranslationTemplateCollectionDto.html]] {
        +getName(): String
        +getByLanguage(String): TranslationTemplateDto
        +getLanguages(): Set<String>
    }

@enduml

PlantUML version 1.2018.08(Sun Jun 24 14:31:00 CEST 2018)
(APACHE source distribution)
Java Runtime: Java(TM) SE Runtime Environment
JVM: Java HotSpot(TM) 64-Bit Server VM
Java Version: 1.8.0_151-b12
Operating System: Mac OS X
OS Version: 10.14.2
Default Encoding: UTF-8
Language: en
Country: US
--></g></svg>