<?xml version="1.0" encoding="UTF-8" standalone="no"?><svg xmlns="http://www.w3.org/2000/svg" xmlns:xlink="http://www.w3.org/1999/xlink" contentScriptType="application/ecmascript" contentStyleType="text/css" height="470px" preserveAspectRatio="none" style="width:1621px;height:470px;" version="1.1" viewBox="0 0 1621 470" width="1621px" zoomAndPan="magnify"><defs><filter height="300%" id="f1w3g9aabqoug4" width="300%" x="-1" y="-1"><feGaussianBlur result="blurOut" stdDeviation="2.0"/><feColorMatrix in="blurOut" result="blurOut2" type="matrix" values="0 0 0 0 0 0 0 0 0 0 0 0 0 0 0 0 0 0 .4 0"/><feOffset dx="4.0" dy="4.0" in="blurOut2" result="blurOut3"/><feBlend in="SourceGraphic" in2="blurOut3" mode="normal"/></filter></defs><g><!--cluster de.interactive_instruments.etf.dal.dto.translation--><polygon fill="#FFFFFF" filter="url(#f1w3g9aabqoug4)" points="14,124,368,124,375,146.4883,1599,146.4883,1599,458,14,458,14,124" style="stroke: #000000; stroke-width: 1.5;"/><line style="stroke: #000000; stroke-width: 1.5;" x1="14" x2="375" y1="146.4883" y2="146.4883"/><text fill="#000000" font-family="sans-serif" font-size="14" font-weight="bold" lengthAdjust="spacingAndGlyphs" textLength="348" x="18" y="139.5352">de.interactive_instruments.etf.dal.dto.translation</text><!--cluster de.interactive_instruments.etf.dal.dto--><polygon fill="#FFFFFF" filter="url(#f1w3g9aabqoug4)" points="368,16,640,16,647,38.4883,650,38.4883,650,99,368,99,368,16" style="stroke: #000000; stroke-width: 1.5;"/><line style="stroke: #000000; stroke-width: 1.5;" x1="368" x2="647" y1="38.4883" y2="38.4883"/><text fill="#000000" font-family="sans-serif" font-size="14" font-weight="bold" lengthAdjust="spacingAndGlyphs" textLength="266" x="372" y="31.5352">de.interactive_instruments.etf.dal.dto</text><!--class de.interactive_instruments.etf.dal.dto.translation.LangTranslationTemplateCollectionDto--><a target="_top" xlink:actuate="onRequest" xlink:href="LangTranslationTemplateCollectionDto.html" xlink:show="new" xlink:title="LangTranslationTemplateCollectionDto.html" xlink:type="simple"><rect fill="#FEFECE" filter="url(#f1w3g9aabqoug4)" height="86.8652" id="de.interactive_instruments.etf.dal.dto.translation.LangTranslationTemplateCollectionDto" style="stroke: #A80036; stroke-width: 1.5;" width="282" x="1309" y="177"/><ellipse cx="1337.05" cy="193" fill="#ADD1B2" rx="11" ry="11" style="stroke: #A80036; stroke-width: 1.0;"/><path d="M1339.5231,199.1431 Q1338.9421,199.4419 1338.3029,199.5913 Q1337.6638,199.7407 1336.9582,199.7407 Q1334.4514,199.7407 1333.1315,198.0889 Q1331.8117,196.437 1331.8117,193.3159 Q1331.8117,190.1865 1333.1315,188.5347 Q1334.4514,186.8828 1336.9582,186.8828 Q1337.6638,186.8828 1338.3112,187.0322 Q1338.9587,187.1816 1339.5231,187.4805 L1339.5231,190.2031 Q1338.8923,189.6221 1338.2988,189.3523 Q1337.7053,189.0825 1337.0744,189.0825 Q1335.7297,189.0825 1335.0449,190.1492 Q1334.3601,191.2158 1334.3601,193.3159 Q1334.3601,195.4077 1335.0449,196.4744 Q1335.7297,197.541 1337.0744,197.541 Q1337.7053,197.541 1338.2988,197.2712 Q1338.8923,197.0015 1339.5231,196.4204 Z "/><text fill="#000000" font-family="sans-serif" font-size="12" lengthAdjust="spacingAndGlyphs" textLength="221" x="1353.95" y="197.5352">LangTranslationTemplateCollectionDto</text><line style="stroke: #A80036; stroke-width: 1.5;" x1="1310" x2="1590" y1="209" y2="209"/><line style="stroke: #A80036; stroke-width: 1.5;" x1="1310" x2="1590" y1="217" y2="217"/><ellipse cx="1320" cy="228.9775" fill="#84BE84" rx="3" ry="3" style="stroke: #038048; stroke-width: 1.0;"/><text fill="#000000" font-family="sans-serif" font-size="11" lengthAdjust="spacingAndGlyphs" textLength="93" x="1329" y="231.6348">getName(): String</text><ellipse cx="1320" cy="241.9326" fill="#84BE84" rx="3" ry="3" style="stroke: #038048; stroke-width: 1.0;"/><text fill="#000000" font-family="sans-serif" font-size="11" lengthAdjust="spacingAndGlyphs" textLength="256" x="1329" y="244.5898">getByLanguage(String): TranslationTemplateDto</text><ellipse cx="1320" cy="254.8877" fill="#84BE84" rx="3" ry="3" style="stroke: #038048; stroke-width: 1.0;"/><text fill="#000000" font-family="sans-serif" font-size="11" lengthAdjust="spacingAndGlyphs" textLength="155" x="1329" y="257.5449">getLanguages(): Set&lt;String&gt;</text></a><!--class de.interactive_instruments.etf.dal.dto.translation.TranslationTemplateDto--><a target="_top" xlink:actuate="onRequest" xlink:href="TranslationTemplateDto.html" xlink:show="new" xlink:title="TranslationTemplateDto.html" xlink:type="simple"><rect fill="#FEFECE" filter="url(#f1w3g9aabqoug4)" height="99.8203" id="de.interactive_instruments.etf.dal.dto.translation.TranslationTemplateDto" style="stroke: #A80036; stroke-width: 1.5;" width="271" x="1002.5" y="170.5"/><ellipse cx="1064.25" cy="186.5" fill="#ADD1B2" rx="11" ry="11" style="stroke: #A80036; stroke-width: 1.0;"/><path d="M1066.7231,192.6431 Q1066.1421,192.9419 1065.5029,193.0913 Q1064.8638,193.2407 1064.1582,193.2407 Q1061.6514,193.2407 1060.3315,191.5889 Q1059.0117,189.937 1059.0117,186.8159 Q1059.0117,183.6865 1060.3315,182.0347 Q1061.6514,180.3828 1064.1582,180.3828 Q1064.8638,180.3828 1065.5112,180.5322 Q1066.1587,180.6816 1066.7231,180.9805 L1066.7231,183.7031 Q1066.0923,183.1221 1065.4988,182.8523 Q1064.9053,182.5825 1064.2744,182.5825 Q1062.9297,182.5825 1062.2449,183.6492 Q1061.5601,184.7158 1061.5601,186.8159 Q1061.5601,188.9077 1062.2449,189.9744 Q1062.9297,191.041 1064.2744,191.041 Q1064.9053,191.041 1065.4988,190.7712 Q1066.0923,190.5015 1066.7231,189.9204 Z "/><text fill="#000000" font-family="sans-serif" font-size="12" lengthAdjust="spacingAndGlyphs" textLength="139" x="1084.75" y="191.0352">TranslationTemplateDto</text><line style="stroke: #A80036; stroke-width: 1.5;" x1="1003.5" x2="1272.5" y1="202.5" y2="202.5"/><line style="stroke: #A80036; stroke-width: 1.5;" x1="1003.5" x2="1272.5" y1="210.5" y2="210.5"/><ellipse cx="1013.5" cy="222.4775" fill="#84BE84" rx="3" ry="3" style="stroke: #038048; stroke-width: 1.0;"/><text fill="#000000" font-family="sans-serif" font-size="11" lengthAdjust="spacingAndGlyphs" textLength="245" x="1022.5" y="225.1348">TranslationTemplateDto(String, String, String)</text><ellipse cx="1013.5" cy="235.4326" fill="#84BE84" rx="3" ry="3" style="stroke: #038048; stroke-width: 1.0;"/><text fill="#000000" font-family="sans-serif" font-size="11" lengthAdjust="spacingAndGlyphs" textLength="93" x="1022.5" y="238.0898">getName(): String</text><ellipse cx="1013.5" cy="248.3877" fill="#84BE84" rx="3" ry="3" style="stroke: #038048; stroke-width: 1.0;"/><text fill="#000000" font-family="sans-serif" font-size="11" lengthAdjust="spacingAndGlyphs" textLength="115" x="1022.5" y="251.0449">getLanguage(): String</text><ellipse cx="1013.5" cy="261.3428" fill="#84BE84" rx="3" ry="3" style="stroke: #038048; stroke-width: 1.0;"/><text fill="#000000" font-family="sans-serif" font-size="11" lengthAdjust="spacingAndGlyphs" textLength="140" x="1022.5" y="264">getStrWithTokens(): String</text></a><!--class de.interactive_instruments.etf.dal.dto.translation.TranslationTemplateBundleDto--><a target="_top" xlink:actuate="onRequest" xlink:href="TranslationTemplateBundleDto.html" xlink:show="new" xlink:title="TranslationTemplateBundleDto.html" xlink:type="simple"><rect fill="#FEFECE" filter="url(#f1w3g9aabqoug4)" height="138.6855" id="de.interactive_instruments.etf.dal.dto.translation.TranslationTemplateBundleDto" style="stroke: #A80036; stroke-width: 1.5;" width="462" x="505" y="151"/><ellipse cx="642.75" cy="167" fill="#ADD1B2" rx="11" ry="11" style="stroke: #A80036; stroke-width: 1.0;"/><path d="M645.2231,173.1431 Q644.6421,173.4419 644.0029,173.5913 Q643.3638,173.7407 642.6582,173.7407 Q640.1514,173.7407 638.8315,172.0889 Q637.5117,170.437 637.5117,167.3159 Q637.5117,164.1865 638.8315,162.5347 Q640.1514,160.8828 642.6582,160.8828 Q643.3638,160.8828 644.0112,161.0322 Q644.6587,161.1816 645.2231,161.4805 L645.2231,164.2031 Q644.5923,163.6221 643.9988,163.3523 Q643.4053,163.0825 642.7744,163.0825 Q641.4297,163.0825 640.7449,164.1492 Q640.0601,165.2158 640.0601,167.3159 Q640.0601,169.4077 640.7449,170.4744 Q641.4297,171.541 642.7744,171.541 Q643.4053,171.541 643.9988,171.2712 Q644.5923,171.0015 645.2231,170.4204 Z "/><text fill="#000000" font-family="sans-serif" font-size="12" lengthAdjust="spacingAndGlyphs" textLength="178" x="663.25" y="171.5352">TranslationTemplateBundleDto</text><line style="stroke: #A80036; stroke-width: 1.5;" x1="506" x2="966" y1="183" y2="183"/><line style="stroke: #A80036; stroke-width: 1.5;" x1="506" x2="966" y1="191" y2="191"/><ellipse cx="516" cy="202.9775" fill="#84BE84" rx="3" ry="3" style="stroke: #038048; stroke-width: 1.0;"/><text fill="#000000" font-family="sans-serif" font-size="11" lengthAdjust="spacingAndGlyphs" textLength="173" x="525" y="205.6348">TranslationTemplateBundleDto()</text><ellipse cx="516" cy="215.9326" fill="#84BE84" rx="3" ry="3" style="stroke: #038048; stroke-width: 1.0;"/><text fill="#000000" font-family="sans-serif" font-size="11" lengthAdjust="spacingAndGlyphs" textLength="374" x="525" y="218.5898">addTranslationTemplates(Collection&lt;TranslationTemplateDto&gt;): void</text><ellipse cx="516" cy="228.8877" fill="#84BE84" rx="3" ry="3" style="stroke: #038048; stroke-width: 1.0;"/><text fill="#000000" font-family="sans-serif" font-size="11" lengthAdjust="spacingAndGlyphs" textLength="436" x="525" y="231.5449">getTranslationTemplateCollection(String): LangTranslationTemplateCollectionDto</text><ellipse cx="516" cy="241.8428" fill="#84BE84" rx="3" ry="3" style="stroke: #038048; stroke-width: 1.0;"/><text fill="#000000" font-family="sans-serif" font-size="11" lengthAdjust="spacingAndGlyphs" textLength="340" x="525" y="244.5">getTranslationTemplate(String, String): TranslationTemplateDto</text><ellipse cx="516" cy="254.7979" fill="#84BE84" rx="3" ry="3" style="stroke: #038048; stroke-width: 1.0;"/><text fill="#000000" font-family="sans-serif" font-size="11" lengthAdjust="spacingAndGlyphs" textLength="86" x="525" y="257.4551">getSource(): URI</text><ellipse cx="516" cy="267.7529" fill="#84BE84" rx="3" ry="3" style="stroke: #038048; stroke-width: 1.0;"/><text fill="#000000" font-family="sans-serif" font-size="11" lengthAdjust="spacingAndGlyphs" textLength="108" x="525" y="270.4102">setSource(URI): void</text><ellipse cx="516" cy="280.708" fill="#84BE84" rx="3" ry="3" style="stroke: #038048; stroke-width: 1.0;"/><text fill="#000000" font-family="sans-serif" font-size="11" lengthAdjust="spacingAndGlyphs" textLength="240" x="525" y="283.3652">createCopy(): TranslationTemplateBundleDto</text></a><!--class de.interactive_instruments.etf.dal.dto.translation.TranslationArgumentCollectionDto--><a target="_top" xlink:actuate="onRequest" xlink:href="TranslationArgumentCollectionDto.html" xlink:show="new" xlink:title="TranslationArgumentCollectionDto.html" xlink:type="simple"><rect fill="#FEFECE" filter="url(#f1w3g9aabqoug4)" height="125.7305" id="de.interactive_instruments.etf.dal.dto.translation.TranslationArgumentCollectionDto" style="stroke: #A80036; stroke-width: 1.5;" width="448" x="22" y="157.5"/><ellipse cx="144.25" cy="173.5" fill="#ADD1B2" rx="11" ry="11" style="stroke: #A80036; stroke-width: 1.0;"/><path d="M146.7231,179.6431 Q146.1421,179.9419 145.5029,180.0913 Q144.8638,180.2407 144.1582,180.2407 Q141.6514,180.2407 140.3315,178.5889 Q139.0117,176.937 139.0117,173.8159 Q139.0117,170.6865 140.3315,169.0347 Q141.6514,167.3828 144.1582,167.3828 Q144.8638,167.3828 145.5112,167.5322 Q146.1587,167.6816 146.7231,167.9805 L146.7231,170.7031 Q146.0923,170.1221 145.4988,169.8523 Q144.9053,169.5825 144.2744,169.5825 Q142.9297,169.5825 142.2449,170.6492 Q141.5601,171.7158 141.5601,173.8159 Q141.5601,175.9077 142.2449,176.9744 Q142.9297,178.041 144.2744,178.041 Q144.9053,178.041 145.4988,177.7712 Q146.0923,177.5015 146.7231,176.9204 Z "/><text fill="#000000" font-family="sans-serif" font-size="12" lengthAdjust="spacingAndGlyphs" textLength="195" x="164.75" y="178.0352">TranslationArgumentCollectionDto</text><line style="stroke: #A80036; stroke-width: 1.5;" x1="23" x2="469" y1="189.5" y2="189.5"/><line style="stroke: #A80036; stroke-width: 1.5;" x1="23" x2="469" y1="197.5" y2="197.5"/><ellipse cx="33" cy="209.4775" fill="#84BE84" rx="3" ry="3" style="stroke: #038048; stroke-width: 1.0;"/><text fill="#000000" font-family="sans-serif" font-size="11" lengthAdjust="spacingAndGlyphs" textLength="196" x="42" y="212.1348">TranslationArgumentCollectionDto()</text><ellipse cx="33" cy="222.4326" fill="#84BE84" rx="3" ry="3" style="stroke: #038048; stroke-width: 1.0;"/><text fill="#000000" font-family="sans-serif" font-size="11" lengthAdjust="spacingAndGlyphs" textLength="422" x="42" y="225.0898">getTokenValues(): Map&lt;String, TranslationArgumentCollectionDto.Argument&gt;</text><ellipse cx="33" cy="235.3877" fill="#84BE84" rx="3" ry="3" style="stroke: #038048; stroke-width: 1.0;"/><text fill="#000000" font-family="sans-serif" font-size="11" lengthAdjust="spacingAndGlyphs" textLength="189" x="42" y="238.0449">addTokenValue(String, String): void</text><ellipse cx="33" cy="248.3428" fill="#84BE84" rx="3" ry="3" style="stroke: #038048; stroke-width: 1.0;"/><text fill="#000000" font-family="sans-serif" font-size="11" lengthAdjust="spacingAndGlyphs" textLength="159" x="42" y="251">getRefTemplateName(): String</text><ellipse cx="33" cy="261.2979" fill="#84BE84" rx="3" ry="3" style="stroke: #038048; stroke-width: 1.0;"/><text fill="#000000" font-family="sans-serif" font-size="11" lengthAdjust="spacingAndGlyphs" textLength="181" x="42" y="263.9551">setRefTemplateName(String): void</text><ellipse cx="33" cy="274.2529" fill="#84BE84" rx="3" ry="3" style="stroke: #038048; stroke-width: 1.0;"/><text fill="#000000" font-family="sans-serif" font-size="11" lengthAdjust="spacingAndGlyphs" textLength="263" x="42" y="276.9102">createCopy(): TranslationArgumentCollectionDto</text></a><!--class de.interactive_instruments.etf.dal.dto.translation.TranslationArgumentCollectionDto.Argument--><a target="_top" xlink:actuate="onRequest" xlink:href="TranslationArgumentCollectionDto.Argument.html" xlink:show="new" xlink:title="TranslationArgumentCollectionDto.Argument.html" xlink:type="simple"><rect fill="#FEFECE" filter="url(#f1w3g9aabqoug4)" height="99.8203" id="de.interactive_instruments.etf.dal.dto.translation.TranslationArgumentCollectionDto.Argument" style="stroke: #A80036; stroke-width: 1.5;" width="287" x="102.5" y="350"/><ellipse cx="117.5" cy="366" fill="#ADD1B2" rx="11" ry="11" style="stroke: #A80036; stroke-width: 1.0;"/><path d="M119.9731,372.1431 Q119.3921,372.4419 118.7529,372.5913 Q118.1138,372.7407 117.4082,372.7407 Q114.9014,372.7407 113.5815,371.0889 Q112.2617,369.437 112.2617,366.3159 Q112.2617,363.1865 113.5815,361.5347 Q114.9014,359.8828 117.4082,359.8828 Q118.1138,359.8828 118.7612,360.0322 Q119.4087,360.1816 119.9731,360.4805 L119.9731,363.2031 Q119.3423,362.6221 118.7488,362.3523 Q118.1553,362.0825 117.5244,362.0825 Q116.1797,362.0825 115.4949,363.1492 Q114.8101,364.2158 114.8101,366.3159 Q114.8101,368.4077 115.4949,369.4744 Q116.1797,370.541 117.5244,370.541 Q118.1553,370.541 118.7488,370.2712 Q119.3423,370.0015 119.9731,369.4204 Z "/><text fill="#000000" font-family="sans-serif" font-size="12" lengthAdjust="spacingAndGlyphs" textLength="255" x="131.5" y="370.5352">TranslationArgumentCollectionDto.Argument</text><line style="stroke: #A80036; stroke-width: 1.5;" x1="103.5" x2="388.5" y1="382" y2="382"/><line style="stroke: #A80036; stroke-width: 1.5;" x1="103.5" x2="388.5" y1="390" y2="390"/><ellipse cx="113.5" cy="401.9775" fill="#84BE84" rx="3" ry="3" style="stroke: #038048; stroke-width: 1.0;"/><text fill="#000000" font-family="sans-serif" font-size="11" lengthAdjust="spacingAndGlyphs" textLength="62" x="122.5" y="404.6348">Argument()</text><ellipse cx="113.5" cy="414.9326" fill="#84BE84" rx="3" ry="3" style="stroke: #038048; stroke-width: 1.0;"/><text fill="#000000" font-family="sans-serif" font-size="11" lengthAdjust="spacingAndGlyphs" textLength="132" x="122.5" y="417.5898">Argument(String, String)</text><ellipse cx="113.5" cy="427.8877" fill="#84BE84" rx="3" ry="3" style="stroke: #038048; stroke-width: 1.0;"/><text fill="#000000" font-family="sans-serif" font-size="11" lengthAdjust="spacingAndGlyphs" textLength="96" x="122.5" y="430.5449">getToken(): String</text><ellipse cx="113.5" cy="440.8428" fill="#84BE84" rx="3" ry="3" style="stroke: #038048; stroke-width: 1.0;"/><text fill="#000000" font-family="sans-serif" font-size="11" lengthAdjust="spacingAndGlyphs" textLength="92" x="122.5" y="443.5">getValue(): String</text></a><!--class de.interactive_instruments.etf.dal.dto.ModelItemDto--><rect fill="#FEFECE" filter="url(#f1w3g9aabqoug4)" height="48" id="de.interactive_instruments.etf.dal.dto.ModelItemDto" style="stroke: #A80036; stroke-width: 1.5;" width="124" x="518" y="43"/><ellipse cx="533" cy="59" fill="#A9DCDF" rx="11" ry="11" style="stroke: #A80036; stroke-width: 1.0;"/><path d="M533.1133,54.5981 L531.9595,59.6699 L534.2754,59.6699 Z M531.6191,52.3569 L534.6157,52.3569 L537.9609,64.75 L535.5122,64.75 L534.7485,61.687 L531.4697,61.687 L530.7227,64.75 L528.2739,64.75 Z "/><text fill="#000000" font-family="sans-serif" font-size="12" font-style="italic" lengthAdjust="spacingAndGlyphs" textLength="80" x="547" y="63.5352">ModelItemDto</text><rect fill="#FFFFFF" height="16.1328" style="stroke: #000000; stroke-width: 1.0; stroke-dasharray: 2.0,2.0;" width="10" x="635" y="40"/><text fill="#000000" font-family="sans-serif" font-size="12" font-style="italic" lengthAdjust="spacingAndGlyphs" textLength="8" x="636" y="52.6016">T</text><line style="stroke: #A80036; stroke-width: 1.5;" x1="519" x2="641" y1="75" y2="75"/><line style="stroke: #A80036; stroke-width: 1.5;" x1="519" x2="641" y1="83" y2="83"/><!--class de.interactive_instruments.etf.dal.dto.Dto--><rect fill="#FEFECE" filter="url(#f1w3g9aabqoug4)" height="48" id="de.interactive_instruments.etf.dal.dto.Dto" style="stroke: #A80036; stroke-width: 1.5;" width="52" x="376" y="43"/><ellipse cx="391" cy="59" fill="#A9DCDF" rx="11" ry="11" style="stroke: #A80036; stroke-width: 1.0;"/><path d="M391.1133,54.5981 L389.9595,59.6699 L392.2754,59.6699 Z M389.6191,52.3569 L392.6157,52.3569 L395.9609,64.75 L393.5122,64.75 L392.7485,61.687 L389.4697,61.687 L388.7227,64.75 L386.2739,64.75 Z "/><text fill="#000000" font-family="sans-serif" font-size="12" font-style="italic" lengthAdjust="spacingAndGlyphs" textLength="20" x="405" y="63.5352">Dto</text><line style="stroke: #A80036; stroke-width: 1.5;" x1="377" x2="427" y1="75" y2="75"/><line style="stroke: #A80036; stroke-width: 1.5;" x1="377" x2="427" y1="83" y2="83"/><!--link de.interactive_instruments.etf.dal.dto.ModelItemDto to de.interactive_instruments.etf.dal.dto.translation.TranslationTemplateBundleDto--><path d="M619.3928,105.7615 C633.3416,119.4867 649.4931,135.3795 665.247,150.8808 " fill="none" id="de.interactive_instruments.etf.dal.dto.ModelItemDto-de.interactive_instruments.etf.dal.dto.translation.TranslationTemplateBundleDto" style="stroke: #A80036; stroke-width: 1.0;"/><polygon fill="none" points="614.065,110.3396,604.7187,91.3225,623.8842,100.3604,614.065,110.3396" style="stroke: #A80036; stroke-width: 1.0;"/><!--link de.interactive_instruments.etf.dal.dto.Dto to de.interactive_instruments.etf.dal.dto.translation.TranslationArgumentCollectionDto--><path d="M363.0189,105.3564 C347.0729,121.0469 328.1965,139.6208 310.3113,157.2193 " fill="none" id="de.interactive_instruments.etf.dal.dto.Dto-de.interactive_instruments.etf.dal.dto.translation.TranslationArgumentCollectionDto" style="stroke: #A80036; stroke-width: 1.0;"/><polygon fill="none" points="358.1158,100.3604,377.2813,91.3225,367.935,110.3396,358.1158,100.3604" style="stroke: #A80036; stroke-width: 1.0;"/><!--link de.interactive_instruments.etf.dal.dto.translation.TranslationArgumentCollectionDto to de.interactive_instruments.etf.dal.dto.translation.TranslationArgumentCollectionDto.Argument--><path d="M246,298.5813 C246,315.9558 246,333.9237 246,349.8207 " fill="none" id="de.interactive_instruments.etf.dal.dto.translation.TranslationArgumentCollectionDto-de.interactive_instruments.etf.dal.dto.translation.TranslationArgumentCollectionDto.Argument" style="stroke: #A80036; stroke-width: 1.0;"/><ellipse cx="246.0001" cy="291.5326" fill="#FFFFFF" rx="8" ry="8" style="stroke: #A80036; stroke-width: 1.0;"/><line style="stroke: #A80036; stroke-width: 1.0;" x1="246.0002" x2="246" y1="299.5326" y2="283.5326"/><line style="stroke: #A80036; stroke-width: 1.0;" x1="238.0001" x2="254.0001" y1="291.5327" y2="291.5325"/><!--
@startuml

    namespace de.interactive_instruments.etf.dal.dto.translation {

        class LangTranslationTemplateCollectionDto [[LangTranslationTemplateCollectionDto.html]] {
            +getName(): String
            +getByLanguage(String): TranslationTemplateDto
            +getLanguages(): Set<String>
        }

        class TranslationTemplateDto [[TranslationTemplateDto.html]] {
            +TranslationTemplateDto(String, String, String)
            +getName(): String
            +getLanguage(): String
            +getStrWithTokens(): String
        }

        class TranslationTemplateBundleDto [[TranslationTemplateBundleDto.html]] {
            +TranslationTemplateBundleDto()
            +addTranslationTemplates(Collection<TranslationTemplateDto>): void
            +getTranslationTemplateCollection(String): LangTranslationTemplateCollectionDto
            +getTranslationTemplate(String, String): TranslationTemplateDto
            +getSource(): URI
            +setSource(URI): void
            +createCopy(): TranslationTemplateBundleDto
        }

        class TranslationArgumentCollectionDto [[TranslationArgumentCollectionDto.html]] {
            +TranslationArgumentCollectionDto()
            +getTokenValues(): Map<String, TranslationArgumentCollectionDto.Argument>
            +addTokenValue(String, String): void
            +getRefTemplateName(): String
            +setRefTemplateName(String): void
            +createCopy(): TranslationArgumentCollectionDto
        }

        class de.interactive_instruments.etf.dal.dto.translation.TranslationArgumentCollectionDto.Argument [[TranslationArgumentCollectionDto.Argument.html]] {
            +Argument()
            +Argument(String, String)
            +getToken(): String
            +getValue(): String
        }

        abstract class de.interactive_instruments.etf.dal.dto.ModelItemDto<T>
        de.interactive_instruments.etf.dal.dto.ModelItemDto <|- - TranslationTemplateBundleDto

        abstract class de.interactive_instruments.etf.dal.dto.Dto
        de.interactive_instruments.etf.dal.dto.Dto <|- - TranslationArgumentCollectionDto

        TranslationArgumentCollectionDto +- - de.interactive_instruments.etf.dal.dto.translation.TranslationArgumentCollectionDto.Argument

    }

@enduml

PlantUML version 1.2018.08(Sun Jun 24 14:31:00 CEST 2018)
(APACHE source distribution)
Java Runtime: Java(TM) SE Runtime Environment
JVM: Java HotSpot(TM) 64-Bit Server VM
Java Version: 1.8.0_151-b12
Operating System: Mac OS X
OS Version: 10.14.2
Default Encoding: UTF-8
Language: en
Country: US
--></g></svg>