<?xml version="1.0" encoding="UTF-8" standalone="no"?><svg xmlns="http://www.w3.org/2000/svg" xmlns:xlink="http://www.w3.org/1999/xlink" contentScriptType="application/ecmascript" contentStyleType="text/css" height="157px" preserveAspectRatio="none" style="width:479px;height:157px;" version="1.1" viewBox="0 0 479 157" width="479px" zoomAndPan="magnify"><defs><filter height="300%" id="f1kkmcdacx2dap" width="300%" x="-1" y="-1"><feGaussianBlur result="blurOut" stdDeviation="2.0"/><feColorMatrix in="blurOut" result="blurOut2" type="matrix" values="0 0 0 0 0 0 0 0 0 0 0 0 0 0 0 0 0 0 .4 0"/><feOffset dx="4.0" dy="4.0" in="blurOut2" result="blurOut3"/><feBlend in="SourceGraphic" in2="blurOut3" mode="normal"/></filter></defs><g><!--class TranslationTemplateBundleDto--><a target="_top" xlink:actuate="onRequest" xlink:href="TranslationTemplateBundleDto.html" xlink:show="new" xlink:title="TranslationTemplateBundleDto.html" xlink:type="simple"><rect fill="#FEFECE" filter="url(#f1kkmcdacx2dap)" height="138.6855" id="TranslationTemplateBundleDto" style="stroke: #A80036; stroke-width: 1.5;" width="462" x="6" y="8"/><ellipse cx="143.75" cy="24" fill="#ADD1B2" rx="11" ry="11" style="stroke: #A80036; stroke-width: 1.0;"/><path d="M146.2231,30.1431 Q145.6421,30.4419 145.0029,30.5913 Q144.3638,30.7407 143.6582,30.7407 Q141.1514,30.7407 139.8315,29.0889 Q138.5117,27.437 138.5117,24.3159 Q138.5117,21.1865 139.8315,19.5347 Q141.1514,17.8828 143.6582,17.8828 Q144.3638,17.8828 145.0112,18.0322 Q145.6587,18.1816 146.2231,18.4805 L146.2231,21.2031 Q145.5923,20.6221 144.9988,20.3523 Q144.4053,20.0825 143.7744,20.0825 Q142.4297,20.0825 141.7449,21.1492 Q141.0601,22.2158 141.0601,24.3159 Q141.0601,26.4077 141.7449,27.4744 Q142.4297,28.541 143.7744,28.541 Q144.4053,28.541 144.9988,28.2712 Q145.5923,28.0015 146.2231,27.4204 Z "/><text fill="#000000" font-family="sans-serif" font-size="12" lengthAdjust="spacingAndGlyphs" textLength="178" x="164.25" y="28.5352">TranslationTemplateBundleDto</text><line style="stroke: #A80036; stroke-width: 1.5;" x1="7" x2="467" y1="40" y2="40"/><line style="stroke: #A80036; stroke-width: 1.5;" x1="7" x2="467" y1="48" y2="48"/><ellipse cx="17" cy="59.9775" fill="#84BE84" rx="3" ry="3" style="stroke: #038048; stroke-width: 1.0;"/><text fill="#000000" font-family="sans-serif" font-size="11" lengthAdjust="spacingAndGlyphs" textLength="173" x="26" y="62.6348">TranslationTemplateBundleDto()</text><ellipse cx="17" cy="72.9326" fill="#84BE84" rx="3" ry="3" style="stroke: #038048; stroke-width: 1.0;"/><text fill="#000000" font-family="sans-serif" font-size="11" lengthAdjust="spacingAndGlyphs" textLength="374" x="26" y="75.5898">addTranslationTemplates(Collection&lt;TranslationTemplateDto&gt;): void</text><ellipse cx="17" cy="85.8877" fill="#84BE84" rx="3" ry="3" style="stroke: #038048; stroke-width: 1.0;"/><text fill="#000000" font-family="sans-serif" font-size="11" lengthAdjust="spacingAndGlyphs" textLength="436" x="26" y="88.5449">getTranslationTemplateCollection(String): LangTranslationTemplateCollectionDto</text><ellipse cx="17" cy="98.8428" fill="#84BE84" rx="3" ry="3" style="stroke: #038048; stroke-width: 1.0;"/><text fill="#000000" font-family="sans-serif" font-size="11" lengthAdjust="spacingAndGlyphs" textLength="340" x="26" y="101.5">getTranslationTemplate(String, String): TranslationTemplateDto</text><ellipse cx="17" cy="111.7979" fill="#84BE84" rx="3" ry="3" style="stroke: #038048; stroke-width: 1.0;"/><text fill="#000000" font-family="sans-serif" font-size="11" lengthAdjust="spacingAndGlyphs" textLength="86" x="26" y="114.4551">getSource(): URI</text><ellipse cx="17" cy="124.7529" fill="#84BE84" rx="3" ry="3" style="stroke: #038048; stroke-width: 1.0;"/><text fill="#000000" font-family="sans-serif" font-size="11" lengthAdjust="spacingAndGlyphs" textLength="108" x="26" y="127.4102">setSource(URI): void</text><ellipse cx="17" cy="137.708" fill="#84BE84" rx="3" ry="3" style="stroke: #038048; stroke-width: 1.0;"/><text fill="#000000" font-family="sans-serif" font-size="11" lengthAdjust="spacingAndGlyphs" textLength="240" x="26" y="140.3652">createCopy(): TranslationTemplateBundleDto</text></a><!--
@startuml

    class TranslationTemplateBundleDto [[TranslationTemplateBundleDto.html]] {
        +TranslationTemplateBundleDto()
        +addTranslationTemplates(Collection<TranslationTemplateDto>): void
        +getTranslationTemplateCollection(String): LangTranslationTemplateCollectionDto
        +getTranslationTemplate(String, String): TranslationTemplateDto
        +getSource(): URI
        +setSource(URI): void
        +createCopy(): TranslationTemplateBundleDto
    }

@enduml

PlantUML version 1.2018.08(Sun Jun 24 14:31:00 CEST 2018)
(APACHE source distribution)
Java Runtime: Java(TM) SE Runtime Environment
JVM: Java HotSpot(TM) 64-Bit Server VM
Java Version: 1.8.0_151-b12
Operating System: Mac OS X
OS Version: 10.14.2
Default Encoding: UTF-8
Language: en
Country: US
--></g></svg>