<?xml version="1.0" encoding="UTF-8" standalone="no"?><svg xmlns="http://www.w3.org/2000/svg" xmlns:xlink="http://www.w3.org/1999/xlink" contentScriptType="application/ecmascript" contentStyleType="text/css" height="144px" preserveAspectRatio="none" style="width:465px;height:144px;" version="1.1" viewBox="0 0 465 144" width="465px" zoomAndPan="magnify"><defs><filter height="300%" id="f1gm7n6c1lp3h5" width="300%" x="-1" y="-1"><feGaussianBlur result="blurOut" stdDeviation="2.0"/><feColorMatrix in="blurOut" result="blurOut2" type="matrix" values="0 0 0 0 0 0 0 0 0 0 0 0 0 0 0 0 0 0 .4 0"/><feOffset dx="4.0" dy="4.0" in="blurOut2" result="blurOut3"/><feBlend in="SourceGraphic" in2="blurOut3" mode="normal"/></filter></defs><g><!--class TranslationArgumentCollectionDto--><a target="_top" xlink:actuate="onRequest" xlink:href="TranslationArgumentCollectionDto.html" xlink:show="new" xlink:title="TranslationArgumentCollectionDto.html" xlink:type="simple"><rect fill="#FEFECE" filter="url(#f1gm7n6c1lp3h5)" height="125.7305" id="TranslationArgumentCollectionDto" style="stroke: #A80036; stroke-width: 1.5;" width="448" x="6" y="8"/><ellipse cx="128.25" cy="24" fill="#ADD1B2" rx="11" ry="11" style="stroke: #A80036; stroke-width: 1.0;"/><path d="M130.7231,30.1431 Q130.1421,30.4419 129.5029,30.5913 Q128.8638,30.7407 128.1582,30.7407 Q125.6514,30.7407 124.3315,29.0889 Q123.0117,27.437 123.0117,24.3159 Q123.0117,21.1865 124.3315,19.5347 Q125.6514,17.8828 128.1582,17.8828 Q128.8638,17.8828 129.5112,18.0322 Q130.1587,18.1816 130.7231,18.4805 L130.7231,21.2031 Q130.0923,20.6221 129.4988,20.3523 Q128.9053,20.0825 128.2744,20.0825 Q126.9297,20.0825 126.2449,21.1492 Q125.5601,22.2158 125.5601,24.3159 Q125.5601,26.4077 126.2449,27.4744 Q126.9297,28.541 128.2744,28.541 Q128.9053,28.541 129.4988,28.2712 Q130.0923,28.0015 130.7231,27.4204 Z "/><text fill="#000000" font-family="sans-serif" font-size="12" lengthAdjust="spacingAndGlyphs" textLength="195" x="148.75" y="28.5352">TranslationArgumentCollectionDto</text><line style="stroke: #A80036; stroke-width: 1.5;" x1="7" x2="453" y1="40" y2="40"/><line style="stroke: #A80036; stroke-width: 1.5;" x1="7" x2="453" y1="48" y2="48"/><ellipse cx="17" cy="59.9775" fill="#84BE84" rx="3" ry="3" style="stroke: #038048; stroke-width: 1.0;"/><text fill="#000000" font-family="sans-serif" font-size="11" lengthAdjust="spacingAndGlyphs" textLength="196" x="26" y="62.6348">TranslationArgumentCollectionDto()</text><ellipse cx="17" cy="72.9326" fill="#84BE84" rx="3" ry="3" style="stroke: #038048; stroke-width: 1.0;"/><text fill="#000000" font-family="sans-serif" font-size="11" lengthAdjust="spacingAndGlyphs" textLength="422" x="26" y="75.5898">getTokenValues(): Map&lt;String, TranslationArgumentCollectionDto.Argument&gt;</text><ellipse cx="17" cy="85.8877" fill="#84BE84" rx="3" ry="3" style="stroke: #038048; stroke-width: 1.0;"/><text fill="#000000" font-family="sans-serif" font-size="11" lengthAdjust="spacingAndGlyphs" textLength="189" x="26" y="88.5449">addTokenValue(String, String): void</text><ellipse cx="17" cy="98.8428" fill="#84BE84" rx="3" ry="3" style="stroke: #038048; stroke-width: 1.0;"/><text fill="#000000" font-family="sans-serif" font-size="11" lengthAdjust="spacingAndGlyphs" textLength="159" x="26" y="101.5">getRefTemplateName(): String</text><ellipse cx="17" cy="111.7979" fill="#84BE84" rx="3" ry="3" style="stroke: #038048; stroke-width: 1.0;"/><text fill="#000000" font-family="sans-serif" font-size="11" lengthAdjust="spacingAndGlyphs" textLength="181" x="26" y="114.4551">setRefTemplateName(String): void</text><ellipse cx="17" cy="124.7529" fill="#84BE84" rx="3" ry="3" style="stroke: #038048; stroke-width: 1.0;"/><text fill="#000000" font-family="sans-serif" font-size="11" lengthAdjust="spacingAndGlyphs" textLength="263" x="26" y="127.4102">createCopy(): TranslationArgumentCollectionDto</text></a><!--
@startuml

    class TranslationArgumentCollectionDto [[TranslationArgumentCollectionDto.html]] {
        +TranslationArgumentCollectionDto()
        +getTokenValues(): Map<String, TranslationArgumentCollectionDto.Argument>
        +addTokenValue(String, String): void
        +getRefTemplateName(): String
        +setRefTemplateName(String): void
        +createCopy(): TranslationArgumentCollectionDto
    }

@enduml

PlantUML version 1.2018.08(Sun Jun 24 14:31:00 CEST 2018)
(APACHE source distribution)
Java Runtime: Java(TM) SE Runtime Environment
JVM: Java HotSpot(TM) 64-Bit Server VM
Java Version: 1.8.0_151-b12
Operating System: Mac OS X
OS Version: 10.14.2
Default Encoding: UTF-8
Language: en
Country: US
--></g></svg>