<?xml version="1.0" encoding="UTF-8" standalone="no"?><svg xmlns="http://www.w3.org/2000/svg" xmlns:xlink="http://www.w3.org/1999/xlink" contentScriptType="application/ecmascript" contentStyleType="text/css" height="163px" preserveAspectRatio="none" style="width:305px;height:163px;" version="1.1" viewBox="0 0 305 163" width="305px" zoomAndPan="magnify"><defs><filter height="300%" id="fox5ncn1zshrl" width="300%" x="-1" y="-1"><feGaussianBlur result="blurOut" stdDeviation="2.0"/><feColorMatrix in="blurOut" result="blurOut2" type="matrix" values="0 0 0 0 0 0 0 0 0 0 0 0 0 0 0 0 0 0 .4 0"/><feOffset dx="4.0" dy="4.0" in="blurOut2" result="blurOut3"/><feBlend in="SourceGraphic" in2="blurOut3" mode="normal"/></filter></defs><g><!--cluster TranslationArgumentCollectionDto--><polygon fill="#FFFFFF" filter="url(#fox5ncn1zshrl)" points="14,16,273,16,280,38.4883,283,38.4883,283,151,14,151,14,16" style="stroke: #000000; stroke-width: 1.5;"/><line style="stroke: #000000; stroke-width: 1.5;" x1="14" x2="280" y1="38.4883" y2="38.4883"/><text fill="#000000" font-family="sans-serif" font-size="14" font-weight="bold" lengthAdjust="spacingAndGlyphs" textLength="253" x="18" y="31.5352">TranslationArgumentCollectionDto</text><!--class TranslationArgumentCollectionDto.Argument--><a target="_top" xlink:actuate="onRequest" xlink:href="TranslationArgumentCollectionDto.Argument.html" xlink:show="new" xlink:title="TranslationArgumentCollectionDto.Argument.html" xlink:type="simple"><rect fill="#FEFECE" filter="url(#fox5ncn1zshrl)" height="99.8203" id="TranslationArgumentCollectionDto.Argument" style="stroke: #A80036; stroke-width: 1.5;" width="158" x="69" y="43"/><ellipse cx="115.75" cy="59" fill="#ADD1B2" rx="11" ry="11" style="stroke: #A80036; stroke-width: 1.0;"/><path d="M118.2231,65.1431 Q117.6421,65.4419 117.0029,65.5913 Q116.3638,65.7407 115.6582,65.7407 Q113.1514,65.7407 111.8315,64.0889 Q110.5117,62.437 110.5117,59.3159 Q110.5117,56.1865 111.8315,54.5347 Q113.1514,52.8828 115.6582,52.8828 Q116.3638,52.8828 117.0112,53.0322 Q117.6587,53.1816 118.2231,53.4805 L118.2231,56.2031 Q117.5923,55.6221 116.9988,55.3523 Q116.4053,55.0825 115.7744,55.0825 Q114.4297,55.0825 113.7449,56.1492 Q113.0601,57.2158 113.0601,59.3159 Q113.0601,61.4077 113.7449,62.4744 Q114.4297,63.541 115.7744,63.541 Q116.4053,63.541 116.9988,63.2712 Q117.5923,63.0015 118.2231,62.4204 Z "/><text fill="#000000" font-family="sans-serif" font-size="12" lengthAdjust="spacingAndGlyphs" textLength="56" x="136.25" y="63.5352">Argument</text><line style="stroke: #A80036; stroke-width: 1.5;" x1="70" x2="226" y1="75" y2="75"/><line style="stroke: #A80036; stroke-width: 1.5;" x1="70" x2="226" y1="83" y2="83"/><ellipse cx="80" cy="94.9775" fill="#84BE84" rx="3" ry="3" style="stroke: #038048; stroke-width: 1.0;"/><text fill="#000000" font-family="sans-serif" font-size="11" lengthAdjust="spacingAndGlyphs" textLength="62" x="89" y="97.6348">Argument()</text><ellipse cx="80" cy="107.9326" fill="#84BE84" rx="3" ry="3" style="stroke: #038048; stroke-width: 1.0;"/><text fill="#000000" font-family="sans-serif" font-size="11" lengthAdjust="spacingAndGlyphs" textLength="132" x="89" y="110.5898">Argument(String, String)</text><ellipse cx="80" cy="120.8877" fill="#84BE84" rx="3" ry="3" style="stroke: #038048; stroke-width: 1.0;"/><text fill="#000000" font-family="sans-serif" font-size="11" lengthAdjust="spacingAndGlyphs" textLength="96" x="89" y="123.5449">getToken(): String</text><ellipse cx="80" cy="133.8428" fill="#84BE84" rx="3" ry="3" style="stroke: #038048; stroke-width: 1.0;"/><text fill="#000000" font-family="sans-serif" font-size="11" lengthAdjust="spacingAndGlyphs" textLength="92" x="89" y="136.5">getValue(): String</text></a><!--
@startuml

    class TranslationArgumentCollectionDto.Argument [[TranslationArgumentCollectionDto.Argument.html]] {
        +Argument()
        +Argument(String, String)
        +getToken(): String
        +getValue(): String
    }

@enduml

PlantUML version 1.2018.08(Sun Jun 24 14:31:00 CEST 2018)
(APACHE source distribution)
Java Runtime: Java(TM) SE Runtime Environment
JVM: Java HotSpot(TM) 64-Bit Server VM
Java Version: 1.8.0_151-b12
Operating System: Mac OS X
OS Version: 10.14.2
Default Encoding: UTF-8
Language: en
Country: US
--></g></svg>