<?xml version="1.0" encoding="UTF-8" standalone="no"?><svg xmlns="http://www.w3.org/2000/svg" xmlns:xlink="http://www.w3.org/1999/xlink" contentScriptType="application/ecmascript" contentStyleType="text/css" height="118px" preserveAspectRatio="none" style="width:288px;height:118px;" version="1.1" viewBox="0 0 288 118" width="288px" zoomAndPan="magnify"><defs><filter height="300%" id="fypary8p1haid" width="300%" x="-1" y="-1"><feGaussianBlur result="blurOut" stdDeviation="2.0"/><feColorMatrix in="blurOut" result="blurOut2" type="matrix" values="0 0 0 0 0 0 0 0 0 0 0 0 0 0 0 0 0 0 .4 0"/><feOffset dx="4.0" dy="4.0" in="blurOut2" result="blurOut3"/><feBlend in="SourceGraphic" in2="blurOut3" mode="normal"/></filter></defs><g><!--class TranslationTemplateDto--><a target="_top" xlink:actuate="onRequest" xlink:href="TranslationTemplateDto.html" xlink:show="new" xlink:title="TranslationTemplateDto.html" xlink:type="simple"><rect fill="#FEFECE" filter="url(#fypary8p1haid)" height="99.8203" id="TranslationTemplateDto" style="stroke: #A80036; stroke-width: 1.5;" width="271" x="6" y="8"/><ellipse cx="67.75" cy="24" fill="#ADD1B2" rx="11" ry="11" style="stroke: #A80036; stroke-width: 1.0;"/><path d="M70.2231,30.1431 Q69.6421,30.4419 69.0029,30.5913 Q68.3638,30.7407 67.6582,30.7407 Q65.1514,30.7407 63.8315,29.0889 Q62.5117,27.437 62.5117,24.3159 Q62.5117,21.1865 63.8315,19.5347 Q65.1514,17.8828 67.6582,17.8828 Q68.3638,17.8828 69.0112,18.0322 Q69.6587,18.1816 70.2231,18.4805 L70.2231,21.2031 Q69.5923,20.6221 68.9988,20.3523 Q68.4053,20.0825 67.7744,20.0825 Q66.4297,20.0825 65.7449,21.1492 Q65.0601,22.2158 65.0601,24.3159 Q65.0601,26.4077 65.7449,27.4744 Q66.4297,28.541 67.7744,28.541 Q68.4053,28.541 68.9988,28.2712 Q69.5923,28.0015 70.2231,27.4204 Z "/><text fill="#000000" font-family="sans-serif" font-size="12" lengthAdjust="spacingAndGlyphs" textLength="139" x="88.25" y="28.5352">TranslationTemplateDto</text><line style="stroke: #A80036; stroke-width: 1.5;" x1="7" x2="276" y1="40" y2="40"/><line style="stroke: #A80036; stroke-width: 1.5;" x1="7" x2="276" y1="48" y2="48"/><ellipse cx="17" cy="59.9775" fill="#84BE84" rx="3" ry="3" style="stroke: #038048; stroke-width: 1.0;"/><text fill="#000000" font-family="sans-serif" font-size="11" lengthAdjust="spacingAndGlyphs" textLength="245" x="26" y="62.6348">TranslationTemplateDto(String, String, String)</text><ellipse cx="17" cy="72.9326" fill="#84BE84" rx="3" ry="3" style="stroke: #038048; stroke-width: 1.0;"/><text fill="#000000" font-family="sans-serif" font-size="11" lengthAdjust="spacingAndGlyphs" textLength="93" x="26" y="75.5898">getName(): String</text><ellipse cx="17" cy="85.8877" fill="#84BE84" rx="3" ry="3" style="stroke: #038048; stroke-width: 1.0;"/><text fill="#000000" font-family="sans-serif" font-size="11" lengthAdjust="spacingAndGlyphs" textLength="115" x="26" y="88.5449">getLanguage(): String</text><ellipse cx="17" cy="98.8428" fill="#84BE84" rx="3" ry="3" style="stroke: #038048; stroke-width: 1.0;"/><text fill="#000000" font-family="sans-serif" font-size="11" lengthAdjust="spacingAndGlyphs" textLength="140" x="26" y="101.5">getStrWithTokens(): String</text></a><!--
@startuml

    class TranslationTemplateDto [[TranslationTemplateDto.html]] {
        +TranslationTemplateDto(String, String, String)
        +getName(): String
        +getLanguage(): String
        +getStrWithTokens(): String
    }

@enduml

PlantUML version 1.2018.08(Sun Jun 24 14:31:00 CEST 2018)
(APACHE source distribution)
Java Runtime: Java(TM) SE Runtime Environment
JVM: Java HotSpot(TM) 64-Bit Server VM
Java Version: 1.8.0_151-b12
Operating System: Mac OS X
OS Version: 10.14.2
Default Encoding: UTF-8
Language: en
Country: US
--></g></svg>