<?xml version="1.0" encoding="UTF-8" standalone="no"?><svg xmlns="http://www.w3.org/2000/svg" xmlns:xlink="http://www.w3.org/1999/xlink" contentScriptType="application/ecmascript" contentStyleType="text/css" height="79px" preserveAspectRatio="none" style="width:257px;height:79px;" version="1.1" viewBox="0 0 257 79" width="257px" zoomAndPan="magnify"><defs><filter height="300%" id="f1l41shlzzmyxf" width="300%" x="-1" y="-1"><feGaussianBlur result="blurOut" stdDeviation="2.0"/><feColorMatrix in="blurOut" result="blurOut2" type="matrix" values="0 0 0 0 0 0 0 0 0 0 0 0 0 0 0 0 0 0 .4 0"/><feOffset dx="4.0" dy="4.0" in="blurOut2" result="blurOut3"/><feBlend in="SourceGraphic" in2="blurOut3" mode="normal"/></filter></defs><g><!--class ComponentNotLoadedException--><a target="_top" xlink:actuate="onRequest" xlink:href="ComponentNotLoadedException.html" xlink:show="new" xlink:title="ComponentNotLoadedException.html" xlink:type="simple"><rect fill="#FEFECE" filter="url(#f1l41shlzzmyxf)" height="60.9551" id="ComponentNotLoadedException" style="stroke: #A80036; stroke-width: 1.5;" width="240" x="6" y="8"/><ellipse cx="31.35" cy="24" fill="#ADD1B2" rx="11" ry="11" style="stroke: #A80036; stroke-width: 1.0;"/><path d="M33.8231,30.1431 Q33.2421,30.4419 32.6029,30.5913 Q31.9638,30.7407 31.2582,30.7407 Q28.7514,30.7407 27.4315,29.0889 Q26.1117,27.437 26.1117,24.3159 Q26.1117,21.1865 27.4315,19.5347 Q28.7514,17.8828 31.2582,17.8828 Q31.9638,17.8828 32.6112,18.0322 Q33.2587,18.1816 33.8231,18.4805 L33.8231,21.2031 Q33.1923,20.6221 32.5988,20.3523 Q32.0053,20.0825 31.3744,20.0825 Q30.0297,20.0825 29.3449,21.1492 Q28.6601,22.2158 28.6601,24.3159 Q28.6601,26.4077 29.3449,27.4744 Q30.0297,28.541 31.3744,28.541 Q32.0053,28.541 32.5988,28.2712 Q33.1923,28.0015 33.8231,27.4204 Z "/><text fill="#000000" font-family="sans-serif" font-size="12" lengthAdjust="spacingAndGlyphs" textLength="185" x="47.65" y="28.5352">ComponentNotLoadedException</text><line style="stroke: #A80036; stroke-width: 1.5;" x1="7" x2="245" y1="40" y2="40"/><line style="stroke: #A80036; stroke-width: 1.5;" x1="7" x2="245" y1="48" y2="48"/><ellipse cx="17" cy="59.9775" fill="#84BE84" rx="3" ry="3" style="stroke: #038048; stroke-width: 1.0;"/><text fill="#000000" font-family="sans-serif" font-size="11" lengthAdjust="spacingAndGlyphs" textLength="214" x="26" y="62.6348">ComponentNotLoadedException(String)</text></a><!--
@startuml

    class ComponentNotLoadedException [[ComponentNotLoadedException.html]] {
        +ComponentNotLoadedException(String)
    }

@enduml

PlantUML version 1.2018.08(Sun Jun 24 14:31:00 CEST 2018)
(APACHE source distribution)
Java Runtime: Java(TM) SE Runtime Environment
JVM: Java HotSpot(TM) 64-Bit Server VM
Java Version: 1.8.0_151-b12
Operating System: Mac OS X
OS Version: 10.14.2
Default Encoding: UTF-8
Language: en
Country: US
--></g></svg>