<?xml version="1.0" encoding="UTF-8" standalone="no"?><svg xmlns="http://www.w3.org/2000/svg" xmlns:xlink="http://www.w3.org/1999/xlink" contentScriptType="application/ecmascript" contentStyleType="text/css" height="105px" preserveAspectRatio="none" style="width:295px;height:105px;" version="1.1" viewBox="0 0 295 105" width="295px" zoomAndPan="magnify"><defs><filter height="300%" id="f10h9drxulsjls" width="300%" x="-1" y="-1"><feGaussianBlur result="blurOut" stdDeviation="2.0"/><feColorMatrix in="blurOut" result="blurOut2" type="matrix" values="0 0 0 0 0 0 0 0 0 0 0 0 0 0 0 0 0 0 .4 0"/><feOffset dx="4.0" dy="4.0" in="blurOut2" result="blurOut3"/><feBlend in="SourceGraphic" in2="blurOut3" mode="normal"/></filter></defs><g><!--class ComponentLoadingException--><a target="_top" xlink:actuate="onRequest" xlink:href="ComponentLoadingException.html" xlink:show="new" xlink:title="ComponentLoadingException.html" xlink:type="simple"><rect fill="#FEFECE" filter="url(#f10h9drxulsjls)" height="86.8652" id="ComponentLoadingException" style="stroke: #A80036; stroke-width: 1.5;" width="278" x="6" y="8"/><ellipse cx="57.25" cy="24" fill="#ADD1B2" rx="11" ry="11" style="stroke: #A80036; stroke-width: 1.0;"/><path d="M59.7231,30.1431 Q59.1421,30.4419 58.5029,30.5913 Q57.8638,30.7407 57.1582,30.7407 Q54.6514,30.7407 53.3315,29.0889 Q52.0117,27.437 52.0117,24.3159 Q52.0117,21.1865 53.3315,19.5347 Q54.6514,17.8828 57.1582,17.8828 Q57.8638,17.8828 58.5112,18.0322 Q59.1587,18.1816 59.7231,18.4805 L59.7231,21.2031 Q59.0923,20.6221 58.4988,20.3523 Q57.9053,20.0825 57.2744,20.0825 Q55.9297,20.0825 55.2449,21.1492 Q54.5601,22.2158 54.5601,24.3159 Q54.5601,26.4077 55.2449,27.4744 Q55.9297,28.541 57.2744,28.541 Q57.9053,28.541 58.4988,28.2712 Q59.0923,28.0015 59.7231,27.4204 Z "/><text fill="#000000" font-family="sans-serif" font-size="12" lengthAdjust="spacingAndGlyphs" textLength="167" x="77.75" y="28.5352">ComponentLoadingException</text><line style="stroke: #A80036; stroke-width: 1.5;" x1="7" x2="283" y1="40" y2="40"/><line style="stroke: #A80036; stroke-width: 1.5;" x1="7" x2="283" y1="48" y2="48"/><ellipse cx="17" cy="59.9775" fill="#84BE84" rx="3" ry="3" style="stroke: #038048; stroke-width: 1.0;"/><text fill="#000000" font-family="sans-serif" font-size="11" lengthAdjust="spacingAndGlyphs" textLength="249" x="26" y="62.6348">ComponentLoadingException(Path, Exception)</text><ellipse cx="17" cy="72.9326" fill="#84BE84" rx="3" ry="3" style="stroke: #038048; stroke-width: 1.0;"/><text fill="#000000" font-family="sans-serif" font-size="11" lengthAdjust="spacingAndGlyphs" textLength="252" x="26" y="75.5898">ComponentLoadingException(Path, Throwable)</text><ellipse cx="17" cy="85.8877" fill="#84BE84" rx="3" ry="3" style="stroke: #038048; stroke-width: 1.0;"/><text fill="#000000" font-family="sans-serif" font-size="11" lengthAdjust="spacingAndGlyphs" textLength="199" x="26" y="88.5449">ComponentLoadingException(String)</text></a><!--
@startuml

    class ComponentLoadingException [[ComponentLoadingException.html]] {
        +ComponentLoadingException(Path, Exception)
        +ComponentLoadingException(Path, Throwable)
        +ComponentLoadingException(String)
    }

@enduml

PlantUML version 1.2018.08(Sun Jun 24 14:31:00 CEST 2018)
(APACHE source distribution)
Java Runtime: Java(TM) SE Runtime Environment
JVM: Java HotSpot(TM) 64-Bit Server VM
Java Version: 1.8.0_151-b12
Operating System: Mac OS X
OS Version: 10.14.2
Default Encoding: UTF-8
Language: en
Country: US
--></g></svg>