<?xml version="1.0" encoding="UTF-8" standalone="no"?><svg xmlns="http://www.w3.org/2000/svg" xmlns:xlink="http://www.w3.org/1999/xlink" contentScriptType="application/ecmascript" contentStyleType="text/css" height="284px" preserveAspectRatio="none" style="width:792px;height:284px;" version="1.1" viewBox="0 0 792 284" width="792px" zoomAndPan="magnify"><defs><filter height="300%" id="fptaa8x4ophh3" width="300%" x="-1" y="-1"><feGaussianBlur result="blurOut" stdDeviation="2.0"/><feColorMatrix in="blurOut" result="blurOut2" type="matrix" values="0 0 0 0 0 0 0 0 0 0 0 0 0 0 0 0 0 0 .4 0"/><feOffset dx="4.0" dy="4.0" in="blurOut2" result="blurOut3"/><feBlend in="SourceGraphic" in2="blurOut3" mode="normal"/></filter></defs><g><!--cluster de.interactive_instruments.etf.component--><polygon fill="#FFFFFF" filter="url(#fptaa8x4ophh3)" points="14,124,317,124,324,146.4883,770,146.4883,770,272,14,272,14,124" style="stroke: #000000; stroke-width: 1.5;"/><line style="stroke: #000000; stroke-width: 1.5;" x1="14" x2="324" y1="146.4883" y2="146.4883"/><text fill="#000000" font-family="sans-serif" font-size="14" font-weight="bold" lengthAdjust="spacingAndGlyphs" textLength="297" x="18" y="139.5352">de.interactive_instruments.etf.component</text><!--cluster java.lang--><polygon fill="#FFFFFF" filter="url(#fptaa8x4ophh3)" points="87,16,156,16,163,38.4883,197,38.4883,197,99,87,99,87,16" style="stroke: #000000; stroke-width: 1.5;"/><line style="stroke: #000000; stroke-width: 1.5;" x1="87" x2="163" y1="38.4883" y2="38.4883"/><text fill="#000000" font-family="sans-serif" font-size="14" font-weight="bold" lengthAdjust="spacingAndGlyphs" textLength="63" x="91" y="31.5352">java.lang</text><!--cluster de.interactive_instruments.exceptions--><polygon fill="#FFFFFF" filter="url(#fptaa8x4ophh3)" points="452,16,729,16,736,38.4883,739,38.4883,739,99,452,99,452,16" style="stroke: #000000; stroke-width: 1.5;"/><line style="stroke: #000000; stroke-width: 1.5;" x1="452" x2="736" y1="38.4883" y2="38.4883"/><text fill="#000000" font-family="sans-serif" font-size="14" font-weight="bold" lengthAdjust="spacingAndGlyphs" textLength="271" x="456" y="31.5352">de.interactive_instruments.exceptions</text><!--class de.interactive_instruments.etf.component.ComponentNotLoadedException--><a target="_top" xlink:actuate="onRequest" xlink:href="ComponentNotLoadedException.html" xlink:show="new" xlink:title="ComponentNotLoadedException.html" xlink:type="simple"><rect fill="#FEFECE" filter="url(#fptaa8x4ophh3)" height="60.9551" id="de.interactive_instruments.etf.component.ComponentNotLoadedException" style="stroke: #A80036; stroke-width: 1.5;" width="240" x="22" y="177"/><ellipse cx="47.35" cy="193" fill="#ADD1B2" rx="11" ry="11" style="stroke: #A80036; stroke-width: 1.0;"/><path d="M49.8231,199.1431 Q49.2421,199.4419 48.6029,199.5913 Q47.9638,199.7407 47.2582,199.7407 Q44.7514,199.7407 43.4315,198.0889 Q42.1117,196.437 42.1117,193.3159 Q42.1117,190.1865 43.4315,188.5347 Q44.7514,186.8828 47.2582,186.8828 Q47.9638,186.8828 48.6112,187.0322 Q49.2587,187.1816 49.8231,187.4805 L49.8231,190.2031 Q49.1923,189.6221 48.5988,189.3523 Q48.0053,189.0825 47.3744,189.0825 Q46.0297,189.0825 45.3449,190.1492 Q44.6601,191.2158 44.6601,193.3159 Q44.6601,195.4077 45.3449,196.4744 Q46.0297,197.541 47.3744,197.541 Q48.0053,197.541 48.5988,197.2712 Q49.1923,197.0015 49.8231,196.4204 Z "/><text fill="#000000" font-family="sans-serif" font-size="12" lengthAdjust="spacingAndGlyphs" textLength="185" x="63.65" y="197.5352">ComponentNotLoadedException</text><line style="stroke: #A80036; stroke-width: 1.5;" x1="23" x2="261" y1="209" y2="209"/><line style="stroke: #A80036; stroke-width: 1.5;" x1="23" x2="261" y1="217" y2="217"/><ellipse cx="33" cy="228.9775" fill="#84BE84" rx="3" ry="3" style="stroke: #038048; stroke-width: 1.0;"/><text fill="#000000" font-family="sans-serif" font-size="11" lengthAdjust="spacingAndGlyphs" textLength="214" x="42" y="231.6348">ComponentNotLoadedException(String)</text></a><!--class de.interactive_instruments.etf.component.ComponentInfo--><a target="_top" xlink:actuate="onRequest" xlink:href="ComponentInfo.html" xlink:show="new" xlink:title="ComponentInfo.html" xlink:type="simple"><rect fill="#FEFECE" filter="url(#fptaa8x4ophh3)" height="112.7754" id="de.interactive_instruments.etf.component.ComponentInfo" style="stroke: #A80036; stroke-width: 1.5;" width="151" x="297.5" y="151"/><ellipse cx="326.9" cy="167" fill="#B4A7E5" rx="11" ry="11" style="stroke: #A80036; stroke-width: 1.0;"/><path d="M323.3277,163.2651 L323.3277,161.1069 L330.7071,161.1069 L330.7071,163.2651 L328.2418,163.2651 L328.2418,171.3418 L330.7071,171.3418 L330.7071,173.5 L323.3277,173.5 L323.3277,171.3418 L325.7931,171.3418 L325.7931,163.2651 Z "/><text fill="#000000" font-family="sans-serif" font-size="12" font-style="italic" lengthAdjust="spacingAndGlyphs" textLength="87" x="344.1" y="171.5352">ComponentInfo</text><line style="stroke: #A80036; stroke-width: 1.5;" x1="298.5" x2="447.5" y1="183" y2="183"/><line style="stroke: #A80036; stroke-width: 1.5;" x1="298.5" x2="447.5" y1="191" y2="191"/><ellipse cx="308.5" cy="202.9775" fill="#84BE84" rx="3" ry="3" style="stroke: #038048; stroke-width: 1.0;"/><text fill="#000000" font-family="sans-serif" font-size="11" font-style="italic" lengthAdjust="spacingAndGlyphs" textLength="58" x="317.5" y="205.6348">getId(): EID</text><ellipse cx="308.5" cy="215.9326" fill="#84BE84" rx="3" ry="3" style="stroke: #038048; stroke-width: 1.0;"/><text fill="#000000" font-family="sans-serif" font-size="11" font-style="italic" lengthAdjust="spacingAndGlyphs" textLength="93" x="317.5" y="218.5898">getName(): String</text><ellipse cx="308.5" cy="228.8877" fill="#84BE84" rx="3" ry="3" style="stroke: #038048; stroke-width: 1.0;"/><text fill="#000000" font-family="sans-serif" font-size="11" font-style="italic" lengthAdjust="spacingAndGlyphs" textLength="104" x="317.5" y="231.5449">getVersion(): String</text><ellipse cx="308.5" cy="241.8428" fill="#84BE84" rx="3" ry="3" style="stroke: #038048; stroke-width: 1.0;"/><text fill="#000000" font-family="sans-serif" font-size="11" font-style="italic" lengthAdjust="spacingAndGlyphs" textLength="102" x="317.5" y="244.5">getVendor(): String</text><ellipse cx="308.5" cy="254.7979" fill="#84BE84" rx="3" ry="3" style="stroke: #038048; stroke-width: 1.0;"/><text fill="#000000" font-family="sans-serif" font-size="11" font-style="italic" lengthAdjust="spacingAndGlyphs" textLength="125" x="317.5" y="257.4551">getDescription(): String</text></a><!--class de.interactive_instruments.etf.component.ComponentLoadingException--><a target="_top" xlink:actuate="onRequest" xlink:href="ComponentLoadingException.html" xlink:show="new" xlink:title="ComponentLoadingException.html" xlink:type="simple"><rect fill="#FEFECE" filter="url(#fptaa8x4ophh3)" height="86.8652" id="de.interactive_instruments.etf.component.ComponentLoadingException" style="stroke: #A80036; stroke-width: 1.5;" width="278" x="484" y="164"/><ellipse cx="535.25" cy="180" fill="#ADD1B2" rx="11" ry="11" style="stroke: #A80036; stroke-width: 1.0;"/><path d="M537.7231,186.1431 Q537.1421,186.4419 536.5029,186.5913 Q535.8638,186.7407 535.1582,186.7407 Q532.6514,186.7407 531.3315,185.0889 Q530.0117,183.437 530.0117,180.3159 Q530.0117,177.1865 531.3315,175.5347 Q532.6514,173.8828 535.1582,173.8828 Q535.8638,173.8828 536.5112,174.0322 Q537.1587,174.1816 537.7231,174.4805 L537.7231,177.2031 Q537.0923,176.6221 536.4988,176.3523 Q535.9053,176.0825 535.2744,176.0825 Q533.9297,176.0825 533.2449,177.1492 Q532.5601,178.2158 532.5601,180.3159 Q532.5601,182.4077 533.2449,183.4744 Q533.9297,184.541 535.2744,184.541 Q535.9053,184.541 536.4988,184.2712 Q537.0923,184.0015 537.7231,183.4204 Z "/><text fill="#000000" font-family="sans-serif" font-size="12" lengthAdjust="spacingAndGlyphs" textLength="167" x="555.75" y="184.5352">ComponentLoadingException</text><line style="stroke: #A80036; stroke-width: 1.5;" x1="485" x2="761" y1="196" y2="196"/><line style="stroke: #A80036; stroke-width: 1.5;" x1="485" x2="761" y1="204" y2="204"/><ellipse cx="495" cy="215.9775" fill="#84BE84" rx="3" ry="3" style="stroke: #038048; stroke-width: 1.0;"/><text fill="#000000" font-family="sans-serif" font-size="11" lengthAdjust="spacingAndGlyphs" textLength="249" x="504" y="218.6348">ComponentLoadingException(Path, Exception)</text><ellipse cx="495" cy="228.9326" fill="#84BE84" rx="3" ry="3" style="stroke: #038048; stroke-width: 1.0;"/><text fill="#000000" font-family="sans-serif" font-size="11" lengthAdjust="spacingAndGlyphs" textLength="252" x="504" y="231.5898">ComponentLoadingException(Path, Throwable)</text><ellipse cx="495" cy="241.8877" fill="#84BE84" rx="3" ry="3" style="stroke: #038048; stroke-width: 1.0;"/><text fill="#000000" font-family="sans-serif" font-size="11" lengthAdjust="spacingAndGlyphs" textLength="199" x="504" y="244.5449">ComponentLoadingException(String)</text></a><!--class java.lang.Throwable--><rect fill="#FEFECE" filter="url(#fptaa8x4ophh3)" height="48" id="java.lang.Throwable" style="stroke: #A80036; stroke-width: 1.5;" width="93" x="95.5" y="43"/><ellipse cx="110.5" cy="59" fill="#ADD1B2" rx="11" ry="11" style="stroke: #A80036; stroke-width: 1.0;"/><path d="M112.9731,65.1431 Q112.3921,65.4419 111.7529,65.5913 Q111.1138,65.7407 110.4082,65.7407 Q107.9014,65.7407 106.5815,64.0889 Q105.2617,62.437 105.2617,59.3159 Q105.2617,56.1865 106.5815,54.5347 Q107.9014,52.8828 110.4082,52.8828 Q111.1138,52.8828 111.7612,53.0322 Q112.4087,53.1816 112.9731,53.4805 L112.9731,56.2031 Q112.3423,55.6221 111.7488,55.3523 Q111.1553,55.0825 110.5244,55.0825 Q109.1797,55.0825 108.4949,56.1492 Q107.8101,57.2158 107.8101,59.3159 Q107.8101,61.4077 108.4949,62.4744 Q109.1797,63.541 110.5244,63.541 Q111.1553,63.541 111.7488,63.2712 Q112.3423,63.0015 112.9731,62.4204 Z "/><text fill="#000000" font-family="sans-serif" font-size="12" lengthAdjust="spacingAndGlyphs" textLength="61" x="124.5" y="63.5352">Throwable</text><line style="stroke: #A80036; stroke-width: 1.5;" x1="96.5" x2="187.5" y1="75" y2="75"/><line style="stroke: #A80036; stroke-width: 1.5;" x1="96.5" x2="187.5" y1="83" y2="83"/><!--class de.interactive_instruments.exceptions.InitializationException--><rect fill="#FEFECE" filter="url(#fptaa8x4ophh3)" height="48" id="de.interactive_instruments.exceptions.InitializationException" style="stroke: #A80036; stroke-width: 1.5;" width="156" x="545" y="43"/><ellipse cx="560" cy="59" fill="#ADD1B2" rx="11" ry="11" style="stroke: #A80036; stroke-width: 1.0;"/><path d="M562.4731,65.1431 Q561.8921,65.4419 561.2529,65.5913 Q560.6138,65.7407 559.9082,65.7407 Q557.4014,65.7407 556.0815,64.0889 Q554.7617,62.437 554.7617,59.3159 Q554.7617,56.1865 556.0815,54.5347 Q557.4014,52.8828 559.9082,52.8828 Q560.6138,52.8828 561.2612,53.0322 Q561.9087,53.1816 562.4731,53.4805 L562.4731,56.2031 Q561.8423,55.6221 561.2488,55.3523 Q560.6553,55.0825 560.0244,55.0825 Q558.6797,55.0825 557.9949,56.1492 Q557.3101,57.2158 557.3101,59.3159 Q557.3101,61.4077 557.9949,62.4744 Q558.6797,63.541 560.0244,63.541 Q560.6553,63.541 561.2488,63.2712 Q561.8423,63.0015 562.4731,62.4204 Z "/><text fill="#000000" font-family="sans-serif" font-size="12" lengthAdjust="spacingAndGlyphs" textLength="124" x="574" y="63.5352">InitializationException</text><line style="stroke: #A80036; stroke-width: 1.5;" x1="546" x2="700" y1="75" y2="75"/><line style="stroke: #A80036; stroke-width: 1.5;" x1="546" x2="700" y1="83" y2="83"/><!--link java.lang.Throwable to de.interactive_instruments.etf.component.ComponentNotLoadedException--><path d="M142,111.2474 C142,132.5645 142,157.601 142,176.7956 " fill="none" id="java.lang.Throwable-de.interactive_instruments.etf.component.ComponentNotLoadedException" style="stroke: #A80036; stroke-width: 1.0;"/><polygon fill="none" points="135.0001,111.1528,142,91.1528,149.0001,111.1528,135.0001,111.1528" style="stroke: #A80036; stroke-width: 1.0;"/><!--link de.interactive_instruments.exceptions.InitializationException to de.interactive_instruments.etf.component.ComponentLoadingException--><path d="M623,111.1675 C623,127.9628 623,147.0762 623,163.8256 " fill="none" id="de.interactive_instruments.exceptions.InitializationException-de.interactive_instruments.etf.component.ComponentLoadingException" style="stroke: #A80036; stroke-width: 1.0;"/><polygon fill="none" points="616.0001,111.1528,623,91.1528,630.0001,111.1528,616.0001,111.1528" style="stroke: #A80036; stroke-width: 1.0;"/><!--
@startuml

    namespace de.interactive_instruments.etf.component {

        class ComponentNotLoadedException [[ComponentNotLoadedException.html]] {
            +ComponentNotLoadedException(String)
        }

        interface ComponentInfo [[ComponentInfo.html]] {
            {abstract} +getId(): EID
            {abstract} +getName(): String
            {abstract} +getVersion(): String
            {abstract} +getVendor(): String
            {abstract} +getDescription(): String
        }

        class ComponentLoadingException [[ComponentLoadingException.html]] {
            +ComponentLoadingException(Path, Exception)
            +ComponentLoadingException(Path, Throwable)
            +ComponentLoadingException(String)
        }

        class java.lang.Throwable
        java.lang.Throwable <|- - ComponentNotLoadedException

        class de.interactive_instruments.exceptions.InitializationException
        de.interactive_instruments.exceptions.InitializationException <|- - ComponentLoadingException

    }

@enduml

PlantUML version 1.2018.08(Sun Jun 24 14:31:00 CEST 2018)
(APACHE source distribution)
Java Runtime: Java(TM) SE Runtime Environment
JVM: Java HotSpot(TM) 64-Bit Server VM
Java Version: 1.8.0_151-b12
Operating System: Mac OS X
OS Version: 10.14.2
Default Encoding: UTF-8
Language: en
Country: US
--></g></svg>