<?xml version="1.0" encoding="UTF-8" standalone="no"?><svg xmlns="http://www.w3.org/2000/svg" xmlns:xlink="http://www.w3.org/1999/xlink" contentScriptType="application/ecmascript" contentStyleType="text/css" height="67px" preserveAspectRatio="none" style="width:167px;height:67px;" version="1.1" viewBox="0 0 167 67" width="167px" zoomAndPan="magnify"><defs><filter height="300%" id="f11719je8h07kd" width="300%" x="-1" y="-1"><feGaussianBlur result="blurOut" stdDeviation="2.0"/><feColorMatrix in="blurOut" result="blurOut2" type="matrix" values="0 0 0 0 0 0 0 0 0 0 0 0 0 0 0 0 0 0 .4 0"/><feOffset dx="4.0" dy="4.0" in="blurOut2" result="blurOut3"/><feBlend in="SourceGraphic" in2="blurOut3" mode="normal"/></filter></defs><g><!--class ComponentInitializer--><rect fill="#FEFECE" filter="url(#f11719je8h07kd)" height="48" id="ComponentInitializer" style="stroke: #A80036; stroke-width: 1.5;" width="150" x="6" y="8"/><ellipse cx="21" cy="24" fill="#E3664A" rx="11" ry="11" style="stroke: #A80036; stroke-width: 1.0;"/><path d="M23.0767,24.2261 Q23.0767,23.2881 22.6533,22.7568 Q22.23,22.2256 21.4912,22.2256 Q20.7524,22.2256 20.3333,22.7568 Q19.9141,23.2881 19.9141,24.2261 Q19.9141,25.1724 20.3333,25.7036 Q20.7524,26.2349 21.4912,26.2349 Q22.23,26.2349 22.6533,25.7036 Q23.0767,25.1724 23.0767,24.2261 Z M24.6206,27.6294 L22.9937,27.6294 L22.9937,26.9487 Q22.6782,27.3887 22.2507,27.592 Q21.8232,27.7954 21.2256,27.7954 Q19.8643,27.7954 19.03,26.8159 Q18.1958,25.8364 18.1958,24.2261 Q18.1958,22.624 19.0259,21.6487 Q19.856,20.6733 21.2256,20.6733 Q21.8149,20.6733 22.2632,20.8767 Q22.7114,21.0801 22.9937,21.4702 L22.9937,21.1299 Q22.9937,20.001 22.3752,19.3867 Q21.7568,18.7725 20.6113,18.7725 Q18.8848,18.7725 17.7932,20.2915 Q16.7017,21.8105 16.7017,24.2427 Q16.7017,26.791 17.9634,28.2976 Q19.2251,29.8042 21.3252,29.8042 Q21.9893,29.8042 22.6118,29.6091 Q23.2344,29.4141 23.8071,29.0239 L24.5708,30.4849 Q23.8984,30.9414 23.1057,31.1697 Q22.313,31.3979 21.4082,31.3979 Q18.5029,31.3979 16.7764,29.4639 Q15.0498,27.5298 15.0498,24.2427 Q15.0498,21.0303 16.6021,19.1003 Q18.1543,17.1704 20.7109,17.1704 Q22.5205,17.1704 23.5706,18.262 Q24.6206,19.3535 24.6206,21.2378 Z "/><text fill="#000000" font-family="sans-serif" font-size="12" lengthAdjust="spacingAndGlyphs" textLength="118" x="35" y="28.5352">ComponentInitializer</text><line style="stroke: #A80036; stroke-width: 1.5;" x1="7" x2="155" y1="40" y2="40"/><line style="stroke: #A80036; stroke-width: 1.5;" x1="7" x2="155" y1="48" y2="48"/><!--
@startuml

    annotation ComponentInitializer

@enduml

PlantUML version 1.2018.08(Sun Jun 24 14:31:00 CEST 2018)
(APACHE source distribution)
Java Runtime: Java(TM) SE Runtime Environment
JVM: Java HotSpot(TM) 64-Bit Server VM
Java Version: 1.8.0_151-b12
Operating System: Mac OS X
OS Version: 10.14.2
Default Encoding: UTF-8
Language: en
Country: US
--></g></svg>