<?xml version="1.0" encoding="UTF-8" standalone="no"?><svg xmlns="http://www.w3.org/2000/svg" xmlns:xlink="http://www.w3.org/1999/xlink" contentScriptType="application/ecmascript" contentStyleType="text/css" height="105px" preserveAspectRatio="none" style="width:407px;height:105px;" version="1.1" viewBox="0 0 407 105" width="407px" zoomAndPan="magnify"><defs><filter height="300%" id="ft7k1q5ths7u3" width="300%" x="-1" y="-1"><feGaussianBlur result="blurOut" stdDeviation="2.0"/><feColorMatrix in="blurOut" result="blurOut2" type="matrix" values="0 0 0 0 0 0 0 0 0 0 0 0 0 0 0 0 0 0 .4 0"/><feOffset dx="4.0" dy="4.0" in="blurOut2" result="blurOut3"/><feBlend in="SourceGraphic" in2="blurOut3" mode="normal"/></filter></defs><g><!--class ExecutableTestSuiteUnavailable--><a target="_top" xlink:actuate="onRequest" xlink:href="ExecutableTestSuiteUnavailable.html" xlink:show="new" xlink:title="ExecutableTestSuiteUnavailable.html" xlink:type="simple"><rect fill="#FEFECE" filter="url(#ft7k1q5ths7u3)" height="86.8652" id="ExecutableTestSuiteUnavailable" style="stroke: #A80036; stroke-width: 1.5;" width="390" x="6" y="8"/><ellipse cx="106.25" cy="24" fill="#ADD1B2" rx="11" ry="11" style="stroke: #A80036; stroke-width: 1.0;"/><path d="M108.7231,30.1431 Q108.1421,30.4419 107.5029,30.5913 Q106.8638,30.7407 106.1582,30.7407 Q103.6514,30.7407 102.3315,29.0889 Q101.0117,27.437 101.0117,24.3159 Q101.0117,21.1865 102.3315,19.5347 Q103.6514,17.8828 106.1582,17.8828 Q106.8638,17.8828 107.5112,18.0322 Q108.1587,18.1816 108.7231,18.4805 L108.7231,21.2031 Q108.0923,20.6221 107.4988,20.3523 Q106.9053,20.0825 106.2744,20.0825 Q104.9297,20.0825 104.2449,21.1492 Q103.5601,22.2158 103.5601,24.3159 Q103.5601,26.4077 104.2449,27.4744 Q104.9297,28.541 106.2744,28.541 Q106.9053,28.541 107.4988,28.2712 Q108.0923,28.0015 108.7231,27.4204 Z "/><text fill="#000000" font-family="sans-serif" font-size="12" lengthAdjust="spacingAndGlyphs" textLength="181" x="126.75" y="28.5352">ExecutableTestSuiteUnavailable</text><line style="stroke: #A80036; stroke-width: 1.5;" x1="7" x2="395" y1="40" y2="40"/><line style="stroke: #A80036; stroke-width: 1.5;" x1="7" x2="395" y1="48" y2="48"/><ellipse cx="17" cy="59.9775" fill="#84BE84" rx="3" ry="3" style="stroke: #038048; stroke-width: 1.0;"/><text fill="#000000" font-family="sans-serif" font-size="11" lengthAdjust="spacingAndGlyphs" textLength="302" x="26" y="62.6348">ExecutableTestSuiteUnavailable(ExecutableTestSuiteDto)</text><ellipse cx="17" cy="72.9326" fill="#84BE84" rx="3" ry="3" style="stroke: #038048; stroke-width: 1.0;"/><text fill="#000000" font-family="sans-serif" font-size="11" lengthAdjust="spacingAndGlyphs" textLength="364" x="26" y="75.5898">ExecutableTestSuiteUnavailable(ExecutableTestSuiteDto, Throwable)</text><ellipse cx="17" cy="85.8877" fill="#84BE84" rx="3" ry="3" style="stroke: #038048; stroke-width: 1.0;"/><text fill="#000000" font-family="sans-serif" font-size="11" lengthAdjust="spacingAndGlyphs" textLength="208" x="26" y="88.5449">ExecutableTestSuiteUnavailable(String)</text></a><!--
@startuml

    class ExecutableTestSuiteUnavailable [[ExecutableTestSuiteUnavailable.html]] {
        +ExecutableTestSuiteUnavailable(ExecutableTestSuiteDto)
        +ExecutableTestSuiteUnavailable(ExecutableTestSuiteDto, Throwable)
        +ExecutableTestSuiteUnavailable(String)
    }

@enduml

PlantUML version 1.2018.08(Sun Jun 24 14:31:00 CEST 2018)
(APACHE source distribution)
Java Runtime: Java(TM) SE Runtime Environment
JVM: Java HotSpot(TM) 64-Bit Server VM
Java Version: 1.8.0_151-b12
Operating System: Mac OS X
OS Version: 10.14.2
Default Encoding: UTF-8
Language: en
Country: US
--></g></svg>