<?xml version="1.0" encoding="UTF-8" standalone="no"?><svg xmlns="http://www.w3.org/2000/svg" xmlns:xlink="http://www.w3.org/1999/xlink" contentScriptType="application/ecmascript" contentStyleType="text/css" height="196px" preserveAspectRatio="none" style="width:200px;height:196px;" version="1.1" viewBox="0 0 200 196" width="200px" zoomAndPan="magnify"><defs><filter height="300%" id="fj5hcurfku297" width="300%" x="-1" y="-1"><feGaussianBlur result="blurOut" stdDeviation="2.0"/><feColorMatrix in="blurOut" result="blurOut2" type="matrix" values="0 0 0 0 0 0 0 0 0 0 0 0 0 0 0 0 0 0 .4 0"/><feOffset dx="4.0" dy="4.0" in="blurOut2" result="blurOut3"/><feBlend in="SourceGraphic" in2="blurOut3" mode="normal"/></filter></defs><g><!--class TaskPoolRegistry--><a target="_top" xlink:actuate="onRequest" xlink:href="TaskPoolRegistry.html" xlink:show="new" xlink:title="TaskPoolRegistry.html" xlink:type="simple"><rect fill="#FEFECE" filter="url(#fj5hcurfku297)" height="177.5508" id="TaskPoolRegistry" style="stroke: #A80036; stroke-width: 1.5;" width="180" x="6" y="8"/><ellipse cx="30.9" cy="24" fill="#ADD1B2" rx="11" ry="11" style="stroke: #A80036; stroke-width: 1.0;"/><path d="M33.3731,30.1431 Q32.7921,30.4419 32.1529,30.5913 Q31.5138,30.7407 30.8082,30.7407 Q28.3014,30.7407 26.9815,29.0889 Q25.6617,27.437 25.6617,24.3159 Q25.6617,21.1865 26.9815,19.5347 Q28.3014,17.8828 30.8082,17.8828 Q31.5138,17.8828 32.1612,18.0322 Q32.8087,18.1816 33.3731,18.4805 L33.3731,21.2031 Q32.7423,20.6221 32.1488,20.3523 Q31.5553,20.0825 30.9244,20.0825 Q29.5797,20.0825 28.8949,21.1492 Q28.2101,22.2158 28.2101,24.3159 Q28.2101,26.4077 28.8949,27.4744 Q29.5797,28.541 30.9244,28.541 Q31.5553,28.541 32.1488,28.2712 Q32.7423,28.0015 33.3731,27.4204 Z "/><text fill="#000000" font-family="sans-serif" font-size="12" lengthAdjust="spacingAndGlyphs" textLength="98" x="47.1" y="28.5352">TaskPoolRegistry</text><rect fill="#FFFFFF" height="16.1328" style="stroke: #000000; stroke-width: 1.0; stroke-dasharray: 2.0,2.0;" width="26" x="163" y="5"/><text fill="#000000" font-family="sans-serif" font-size="12" font-style="italic" lengthAdjust="spacingAndGlyphs" textLength="24" x="164" y="17.6016">R, T</text><line style="stroke: #A80036; stroke-width: 1.5;" x1="7" x2="185" y1="40" y2="40"/><line style="stroke: #A80036; stroke-width: 1.5;" x1="7" x2="185" y1="48" y2="48"/><ellipse cx="17" cy="59.9775" fill="#84BE84" rx="3" ry="3" style="stroke: #038048; stroke-width: 1.0;"/><text fill="#000000" font-family="sans-serif" font-size="11" lengthAdjust="spacingAndGlyphs" textLength="154" x="26" y="62.6348">TaskPoolRegistry(int, int, int)</text><ellipse cx="17" cy="72.9326" fill="#84BE84" rx="3" ry="3" style="stroke: #038048; stroke-width: 1.0;"/><text fill="#000000" font-family="sans-serif" font-size="11" lengthAdjust="spacingAndGlyphs" textLength="102" x="26" y="75.5898">getTaskById(EID): T</text><ellipse cx="17" cy="85.8877" fill="#84BE84" rx="3" ry="3" style="stroke: #038048; stroke-width: 1.0;"/><text fill="#000000" font-family="sans-serif" font-size="11" lengthAdjust="spacingAndGlyphs" textLength="120" x="26" y="88.5449">contains(EID): boolean</text><ellipse cx="17" cy="98.8428" fill="#84BE84" rx="3" ry="3" style="stroke: #038048; stroke-width: 1.0;"/><text fill="#000000" font-family="sans-serif" font-size="11" lengthAdjust="spacingAndGlyphs" textLength="105" x="26" y="101.5">removeDone(): void</text><ellipse cx="17" cy="111.7979" fill="#84BE84" rx="3" ry="3" style="stroke: #038048; stroke-width: 1.0;"/><text fill="#000000" font-family="sans-serif" font-size="11" lengthAdjust="spacingAndGlyphs" textLength="141" x="26" y="114.4551">getTasks(): Collection&lt;T&gt;</text><ellipse cx="17" cy="124.7529" fill="#84BE84" rx="3" ry="3" style="stroke: #038048; stroke-width: 1.0;"/><text fill="#000000" font-family="sans-serif" font-size="11" lengthAdjust="spacingAndGlyphs" textLength="143" x="26" y="127.4102">submitTask(T): Future&lt;R&gt;</text><ellipse cx="17" cy="137.708" fill="#84BE84" rx="3" ry="3" style="stroke: #038048; stroke-width: 1.0;"/><text fill="#000000" font-family="sans-serif" font-size="11" lengthAdjust="spacingAndGlyphs" textLength="92" x="26" y="140.3652">release(EID): void</text><ellipse cx="17" cy="150.6631" fill="#84BE84" rx="3" ry="3" style="stroke: #038048; stroke-width: 1.0;"/><text fill="#000000" font-family="sans-serif" font-size="11" lengthAdjust="spacingAndGlyphs" textLength="113" x="26" y="153.3203">cancelTask(EID): void</text><ellipse cx="17" cy="163.6182" fill="#84BE84" rx="3" ry="3" style="stroke: #038048; stroke-width: 1.0;"/><text fill="#000000" font-family="sans-serif" font-size="11" lengthAdjust="spacingAndGlyphs" textLength="66" x="26" y="166.2754">killAll(): void</text><ellipse cx="17" cy="176.5732" fill="#84BE84" rx="3" ry="3" style="stroke: #038048; stroke-width: 1.0;"/><text fill="#000000" font-family="sans-serif" font-size="11" lengthAdjust="spacingAndGlyphs" textLength="111" x="26" y="179.2305">getActiveCount(): int</text></a><!--
@startuml

    class TaskPoolRegistry<R, T> [[TaskPoolRegistry.html]] {
        +TaskPoolRegistry(int, int, int)
        +getTaskById(EID): T
        +contains(EID): boolean
        +removeDone(): void
        +getTasks(): Collection<T>
        +submitTask(T): Future<R>
        +release(EID): void
        +cancelTask(EID): void
        +killAll(): void
        +getActiveCount(): int
    }

@enduml

PlantUML version 1.2018.08(Sun Jun 24 14:31:00 CEST 2018)
(APACHE source distribution)
Java Runtime: Java(TM) SE Runtime Environment
JVM: Java HotSpot(TM) 64-Bit Server VM
Java Version: 1.8.0_151-b12
Operating System: Mac OS X
OS Version: 10.14.2
Default Encoding: UTF-8
Language: en
Country: US
--></g></svg>