<?xml version="1.0" encoding="UTF-8" standalone="no"?><svg xmlns="http://www.w3.org/2000/svg" xmlns:xlink="http://www.w3.org/1999/xlink" contentScriptType="application/ecmascript" contentStyleType="text/css" height="92px" preserveAspectRatio="none" style="width:307px;height:92px;" version="1.1" viewBox="0 0 307 92" width="307px" zoomAndPan="magnify"><defs><filter height="300%" id="flqva0eouxroi" width="300%" x="-1" y="-1"><feGaussianBlur result="blurOut" stdDeviation="2.0"/><feColorMatrix in="blurOut" result="blurOut2" type="matrix" values="0 0 0 0 0 0 0 0 0 0 0 0 0 0 0 0 0 0 .4 0"/><feOffset dx="4.0" dy="4.0" in="blurOut2" result="blurOut3"/><feBlend in="SourceGraphic" in2="blurOut3" mode="normal"/></filter></defs><g><!--class TestRunInitializationException--><a target="_top" xlink:actuate="onRequest" xlink:href="TestRunInitializationException.html" xlink:show="new" xlink:title="TestRunInitializationException.html" xlink:type="simple"><rect fill="#FEFECE" filter="url(#flqva0eouxroi)" height="73.9102" id="TestRunInitializationException" style="stroke: #A80036; stroke-width: 1.5;" width="290" x="6" y="8"/><ellipse cx="61.25" cy="24" fill="#ADD1B2" rx="11" ry="11" style="stroke: #A80036; stroke-width: 1.0;"/><path d="M63.7231,30.1431 Q63.1421,30.4419 62.5029,30.5913 Q61.8638,30.7407 61.1582,30.7407 Q58.6514,30.7407 57.3315,29.0889 Q56.0117,27.437 56.0117,24.3159 Q56.0117,21.1865 57.3315,19.5347 Q58.6514,17.8828 61.1582,17.8828 Q61.8638,17.8828 62.5112,18.0322 Q63.1587,18.1816 63.7231,18.4805 L63.7231,21.2031 Q63.0923,20.6221 62.4988,20.3523 Q61.9053,20.0825 61.2744,20.0825 Q59.9297,20.0825 59.2449,21.1492 Q58.5601,22.2158 58.5601,24.3159 Q58.5601,26.4077 59.2449,27.4744 Q59.9297,28.541 61.2744,28.541 Q61.9053,28.541 62.4988,28.2712 Q63.0923,28.0015 63.7231,27.4204 Z "/><text fill="#000000" font-family="sans-serif" font-size="12" lengthAdjust="spacingAndGlyphs" textLength="171" x="81.75" y="28.5352">TestRunInitializationException</text><line style="stroke: #A80036; stroke-width: 1.5;" x1="7" x2="295" y1="40" y2="40"/><line style="stroke: #A80036; stroke-width: 1.5;" x1="7" x2="295" y1="48" y2="48"/><ellipse cx="17" cy="59.9775" fill="#84BE84" rx="3" ry="3" style="stroke: #038048; stroke-width: 1.0;"/><text fill="#000000" font-family="sans-serif" font-size="11" lengthAdjust="spacingAndGlyphs" textLength="226" x="26" y="62.6348">TestRunInitializationException(Throwable)</text><ellipse cx="17" cy="72.9326" fill="#84BE84" rx="3" ry="3" style="stroke: #038048; stroke-width: 1.0;"/><text fill="#000000" font-family="sans-serif" font-size="11" lengthAdjust="spacingAndGlyphs" textLength="264" x="26" y="75.5898">TestRunInitializationException(String, Throwable)</text></a><!--
@startuml

    class TestRunInitializationException [[TestRunInitializationException.html]] {
        +TestRunInitializationException(Throwable)
        +TestRunInitializationException(String, Throwable)
    }

@enduml

PlantUML version 1.2018.08(Sun Jun 24 14:31:00 CEST 2018)
(APACHE source distribution)
Java Runtime: Java(TM) SE Runtime Environment
JVM: Java HotSpot(TM) 64-Bit Server VM
Java Version: 1.8.0_151-b12
Operating System: Mac OS X
OS Version: 10.14.2
Default Encoding: UTF-8
Language: en
Country: US
--></g></svg>