<?xml version="1.0" encoding="UTF-8" standalone="no"?><svg xmlns="http://www.w3.org/2000/svg" xmlns:xlink="http://www.w3.org/1999/xlink" contentScriptType="application/ecmascript" contentStyleType="text/css" height="105px" preserveAspectRatio="none" style="width:258px;height:105px;" version="1.1" viewBox="0 0 258 105" width="258px" zoomAndPan="magnify"><defs><filter height="300%" id="f1pxz38w4z5rci" width="300%" x="-1" y="-1"><feGaussianBlur result="blurOut" stdDeviation="2.0"/><feColorMatrix in="blurOut" result="blurOut2" type="matrix" values="0 0 0 0 0 0 0 0 0 0 0 0 0 0 0 0 0 0 .4 0"/><feOffset dx="4.0" dy="4.0" in="blurOut2" result="blurOut3"/><feBlend in="SourceGraphic" in2="blurOut3" mode="normal"/></filter></defs><g><!--class NullItemFileObserverRegistry--><a target="_top" xlink:actuate="onRequest" xlink:href="NullItemFileObserverRegistry.html" xlink:show="new" xlink:title="NullItemFileObserverRegistry.html" xlink:type="simple"><rect fill="#FEFECE" filter="url(#f1pxz38w4z5rci)" height="86.8652" id="NullItemFileObserverRegistry" style="stroke: #A80036; stroke-width: 1.5;" width="241" x="6" y="8"/><ellipse cx="40.8" cy="24" fill="#ADD1B2" rx="11" ry="11" style="stroke: #A80036; stroke-width: 1.0;"/><path d="M43.2731,30.1431 Q42.6921,30.4419 42.0529,30.5913 Q41.4138,30.7407 40.7082,30.7407 Q38.2014,30.7407 36.8815,29.0889 Q35.5617,27.437 35.5617,24.3159 Q35.5617,21.1865 36.8815,19.5347 Q38.2014,17.8828 40.7082,17.8828 Q41.4138,17.8828 42.0612,18.0322 Q42.7087,18.1816 43.2731,18.4805 L43.2731,21.2031 Q42.6423,20.6221 42.0488,20.3523 Q41.4553,20.0825 40.8244,20.0825 Q39.4797,20.0825 38.7949,21.1492 Q38.1101,22.2158 38.1101,24.3159 Q38.1101,26.4077 38.7949,27.4744 Q39.4797,28.541 40.8244,28.541 Q41.4553,28.541 42.0488,28.2712 Q42.6423,28.0015 43.2731,27.4204 Z "/><text fill="#000000" font-family="sans-serif" font-size="12" lengthAdjust="spacingAndGlyphs" textLength="165" x="59.2" y="28.5352">NullItemFileObserverRegistry</text><line style="stroke: #A80036; stroke-width: 1.5;" x1="7" x2="246" y1="40" y2="40"/><line style="stroke: #A80036; stroke-width: 1.5;" x1="7" x2="246" y1="48" y2="48"/><ellipse cx="17" cy="59.9775" fill="#84BE84" rx="3" ry="3" style="stroke: #038048; stroke-width: 1.0;"/><text fill="#000000" font-family="sans-serif" font-size="11" lengthAdjust="spacingAndGlyphs" text-decoration="underline" textLength="215" x="26" y="62.6348">instance(): NullItemFileObserverRegistry</text><line style="stroke: #000000; stroke-width: 1.0;" x1="26" x2="241" y1="64.6348" y2="64.6348"/><ellipse cx="17" cy="72.9326" fill="#84BE84" rx="3" ry="3" style="stroke: #038048; stroke-width: 1.0;"/><text fill="#000000" font-family="sans-serif" font-size="11" lengthAdjust="spacingAndGlyphs" textLength="150" x="26" y="75.5898">register(Path, List&lt;?&gt;): void</text><ellipse cx="17" cy="85.8877" fill="#84BE84" rx="3" ry="3" style="stroke: #038048; stroke-width: 1.0;"/><text fill="#000000" font-family="sans-serif" font-size="11" lengthAdjust="spacingAndGlyphs" textLength="134" x="26" y="88.5449">deregister(List&lt;?&gt;): void</text></a><!--
@startuml

    class NullItemFileObserverRegistry [[NullItemFileObserverRegistry.html]] {
        {static} +instance(): NullItemFileObserverRegistry
        +register(Path, List<?>): void
        +deregister(List<?>): void
    }

@enduml

PlantUML version 1.2018.08(Sun Jun 24 14:31:00 CEST 2018)
(APACHE source distribution)
Java Runtime: Java(TM) SE Runtime Environment
JVM: Java HotSpot(TM) 64-Bit Server VM
Java Version: 1.8.0_151-b12
Operating System: Mac OS X
OS Version: 10.14.2
Default Encoding: UTF-8
Language: en
Country: US
--></g></svg>