<?xml version="1.0" encoding="UTF-8" standalone="no"?><svg xmlns="http://www.w3.org/2000/svg" xmlns:xlink="http://www.w3.org/1999/xlink" contentScriptType="application/ecmascript" contentStyleType="text/css" height="105px" preserveAspectRatio="none" style="width:344px;height:105px;" version="1.1" viewBox="0 0 344 105" width="344px" zoomAndPan="magnify"><defs><filter height="300%" id="f15omv67g7ad65" width="300%" x="-1" y="-1"><feGaussianBlur result="blurOut" stdDeviation="2.0"/><feColorMatrix in="blurOut" result="blurOut2" type="matrix" values="0 0 0 0 0 0 0 0 0 0 0 0 0 0 0 0 0 0 .4 0"/><feOffset dx="4.0" dy="4.0" in="blurOut2" result="blurOut3"/><feBlend in="SourceGraphic" in2="blurOut3" mode="normal"/></filter></defs><g><!--class NullLoadingContext--><a target="_top" xlink:actuate="onRequest" xlink:href="NullLoadingContext.html" xlink:show="new" xlink:title="NullLoadingContext.html" xlink:type="simple"><rect fill="#FEFECE" filter="url(#f15omv67g7ad65)" height="86.8652" id="NullLoadingContext" style="stroke: #A80036; stroke-width: 1.5;" width="327" x="6" y="8"/><ellipse cx="109.75" cy="24" fill="#ADD1B2" rx="11" ry="11" style="stroke: #A80036; stroke-width: 1.0;"/><path d="M112.2231,30.1431 Q111.6421,30.4419 111.0029,30.5913 Q110.3638,30.7407 109.6582,30.7407 Q107.1514,30.7407 105.8315,29.0889 Q104.5117,27.437 104.5117,24.3159 Q104.5117,21.1865 105.8315,19.5347 Q107.1514,17.8828 109.6582,17.8828 Q110.3638,17.8828 111.0112,18.0322 Q111.6587,18.1816 112.2231,18.4805 L112.2231,21.2031 Q111.5923,20.6221 110.9988,20.3523 Q110.4053,20.0825 109.7744,20.0825 Q108.4297,20.0825 107.7449,21.1492 Q107.0601,22.2158 107.0601,24.3159 Q107.0601,26.4077 107.7449,27.4744 Q108.4297,28.541 109.7744,28.541 Q110.4053,28.541 110.9988,28.2712 Q111.5923,28.0015 112.2231,27.4204 Z "/><text fill="#000000" font-family="sans-serif" font-size="12" lengthAdjust="spacingAndGlyphs" textLength="111" x="130.25" y="28.5352">NullLoadingContext</text><line style="stroke: #A80036; stroke-width: 1.5;" x1="7" x2="332" y1="40" y2="40"/><line style="stroke: #A80036; stroke-width: 1.5;" x1="7" x2="332" y1="48" y2="48"/><ellipse cx="17" cy="59.9775" fill="#84BE84" rx="3" ry="3" style="stroke: #038048; stroke-width: 1.0;"/><text fill="#000000" font-family="sans-serif" font-size="11" lengthAdjust="spacingAndGlyphs" text-decoration="underline" textLength="166" x="26" y="62.6348">instance(): NullLoadingContext</text><line style="stroke: #000000; stroke-width: 1.0;" x1="26" x2="192" y1="64.6348" y2="64.6348"/><ellipse cx="17" cy="72.9326" fill="#84BE84" rx="3" ry="3" style="stroke: #038048; stroke-width: 1.0;"/><text fill="#000000" font-family="sans-serif" font-size="11" lengthAdjust="spacingAndGlyphs" textLength="165" x="26" y="75.5898">getItemRegistry(): ItemRegistry</text><ellipse cx="17" cy="85.8877" fill="#84BE84" rx="3" ry="3" style="stroke: #038048; stroke-width: 1.0;"/><text fill="#000000" font-family="sans-serif" font-size="11" lengthAdjust="spacingAndGlyphs" textLength="301" x="26" y="88.5449">getItemFileObserverRegistry(): ItemFileObserverRegistry</text></a><!--
@startuml

    class NullLoadingContext [[NullLoadingContext.html]] {
        {static} +instance(): NullLoadingContext
        +getItemRegistry(): ItemRegistry
        +getItemFileObserverRegistry(): ItemFileObserverRegistry
    }

@enduml

PlantUML version 1.2018.08(Sun Jun 24 14:31:00 CEST 2018)
(APACHE source distribution)
Java Runtime: Java(TM) SE Runtime Environment
JVM: Java HotSpot(TM) 64-Bit Server VM
Java Version: 1.8.0_151-b12
Operating System: Mac OS X
OS Version: 10.14.2
Default Encoding: UTF-8
Language: en
Country: US
--></g></svg>