<?xml version="1.0" encoding="UTF-8" standalone="no"?><svg xmlns="http://www.w3.org/2000/svg" xmlns:xlink="http://www.w3.org/1999/xlink" contentScriptType="application/ecmascript" contentStyleType="text/css" height="157px" preserveAspectRatio="none" style="width:572px;height:157px;" version="1.1" viewBox="0 0 572 157" width="572px" zoomAndPan="magnify"><defs><filter height="300%" id="f125rnog7vdyqk" width="300%" x="-1" y="-1"><feGaussianBlur result="blurOut" stdDeviation="2.0"/><feColorMatrix in="blurOut" result="blurOut2" type="matrix" values="0 0 0 0 0 0 0 0 0 0 0 0 0 0 0 0 0 0 .4 0"/><feOffset dx="4.0" dy="4.0" in="blurOut2" result="blurOut3"/><feBlend in="SourceGraphic" in2="blurOut3" mode="normal"/></filter></defs><g><!--class NullItemRegistry--><a target="_top" xlink:actuate="onRequest" xlink:href="NullItemRegistry.html" xlink:show="new" xlink:title="NullItemRegistry.html" xlink:type="simple"><rect fill="#FEFECE" filter="url(#f125rnog7vdyqk)" height="138.6855" id="NullItemRegistry" style="stroke: #A80036; stroke-width: 1.5;" width="555" x="6" y="8"/><ellipse cx="232.75" cy="24" fill="#ADD1B2" rx="11" ry="11" style="stroke: #A80036; stroke-width: 1.0;"/><path d="M235.2231,30.1431 Q234.6421,30.4419 234.0029,30.5913 Q233.3638,30.7407 232.6582,30.7407 Q230.1514,30.7407 228.8315,29.0889 Q227.5117,27.437 227.5117,24.3159 Q227.5117,21.1865 228.8315,19.5347 Q230.1514,17.8828 232.6582,17.8828 Q233.3638,17.8828 234.0112,18.0322 Q234.6587,18.1816 235.2231,18.4805 L235.2231,21.2031 Q234.5923,20.6221 233.9988,20.3523 Q233.4053,20.0825 232.7744,20.0825 Q231.4297,20.0825 230.7449,21.1492 Q230.0601,22.2158 230.0601,24.3159 Q230.0601,26.4077 230.7449,27.4744 Q231.4297,28.541 232.7744,28.541 Q233.4053,28.541 233.9988,28.2712 Q234.5923,28.0015 235.2231,27.4204 Z "/><text fill="#000000" font-family="sans-serif" font-size="12" lengthAdjust="spacingAndGlyphs" textLength="93" x="253.25" y="28.5352">NullItemRegistry</text><line style="stroke: #A80036; stroke-width: 1.5;" x1="7" x2="560" y1="40" y2="40"/><line style="stroke: #A80036; stroke-width: 1.5;" x1="7" x2="560" y1="48" y2="48"/><ellipse cx="17" cy="59.9775" fill="#84BE84" rx="3" ry="3" style="stroke: #038048; stroke-width: 1.0;"/><text fill="#000000" font-family="sans-serif" font-size="11" lengthAdjust="spacingAndGlyphs" text-decoration="underline" textLength="126" x="26" y="62.6348">instance(): ItemRegistry</text><line style="stroke: #000000; stroke-width: 1.0;" x1="26" x2="152" y1="64.6348" y2="64.6348"/><ellipse cx="17" cy="72.9326" fill="#84BE84" rx="3" ry="3" style="stroke: #038048; stroke-width: 1.0;"/><text fill="#000000" font-family="sans-serif" font-size="11" lengthAdjust="spacingAndGlyphs" textLength="156" x="26" y="75.5898">register(Collection&lt;?&gt;): void</text><ellipse cx="17" cy="85.8877" fill="#84BE84" rx="3" ry="3" style="stroke: #038048; stroke-width: 1.0;"/><text fill="#000000" font-family="sans-serif" font-size="11" lengthAdjust="spacingAndGlyphs" textLength="169" x="26" y="88.5449">deregister(Collection&lt;?&gt;): void</text><ellipse cx="17" cy="98.8428" fill="#84BE84" rx="3" ry="3" style="stroke: #038048; stroke-width: 1.0;"/><text fill="#000000" font-family="sans-serif" font-size="11" lengthAdjust="spacingAndGlyphs" textLength="357" x="26" y="101.5">deregisterCallback(ItemRegistry.DependencyChangeListener): void</text><ellipse cx="17" cy="111.7979" fill="#84BE84" rx="3" ry="3" style="stroke: #038048; stroke-width: 1.0;"/><text fill="#000000" font-family="sans-serif" font-size="11" lengthAdjust="spacingAndGlyphs" textLength="151" x="26" y="114.4551">update(Collection&lt;?&gt;): void</text><ellipse cx="17" cy="124.7529" fill="#84BE84" rx="3" ry="3" style="stroke: #038048; stroke-width: 1.0;"/><text fill="#000000" font-family="sans-serif" font-size="11" lengthAdjust="spacingAndGlyphs" textLength="529" x="26" y="127.4102">lookupDependency(Collection&lt;EID&gt;, ItemRegistry.DependencyChangeListener): EidHolderMap&lt;?&gt;</text><ellipse cx="17" cy="137.708" fill="#84BE84" rx="3" ry="3" style="stroke: #038048; stroke-width: 1.0;"/><text fill="#000000" font-family="sans-serif" font-size="11" lengthAdjust="spacingAndGlyphs" textLength="237" x="26" y="140.3652">lookup(Collection&lt;EID&gt;): EidHolderMap&lt;?&gt;</text></a><!--
@startuml

    class NullItemRegistry [[NullItemRegistry.html]] {
        {static} +instance(): ItemRegistry
        +register(Collection<?>): void
        +deregister(Collection<?>): void
        +deregisterCallback(ItemRegistry.DependencyChangeListener): void
        +update(Collection<?>): void
        +lookupDependency(Collection<EID>, ItemRegistry.DependencyChangeListener): EidHolderMap<?>
        +lookup(Collection<EID>): EidHolderMap<?>
    }

@enduml

PlantUML version 1.2018.08(Sun Jun 24 14:31:00 CEST 2018)
(APACHE source distribution)
Java Runtime: Java(TM) SE Runtime Environment
JVM: Java HotSpot(TM) 64-Bit Server VM
Java Version: 1.8.0_151-b12
Operating System: Mac OS X
OS Version: 10.14.2
Default Encoding: UTF-8
Language: en
Country: US
--></g></svg>