<?xml version="1.0" encoding="UTF-8" standalone="no"?><svg xmlns="http://www.w3.org/2000/svg" xmlns:xlink="http://www.w3.org/1999/xlink" contentScriptType="application/ecmascript" contentStyleType="text/css" height="952px" preserveAspectRatio="none" style="width:1600px;height:952px;" version="1.1" viewBox="0 0 1600 952" width="1600px" zoomAndPan="magnify"><defs><filter height="300%" id="f1e5zgefelu9u4" width="300%" x="-1" y="-1"><feGaussianBlur result="blurOut" stdDeviation="2.0"/><feColorMatrix in="blurOut" result="blurOut2" type="matrix" values="0 0 0 0 0 0 0 0 0 0 0 0 0 0 0 0 0 0 .4 0"/><feOffset dx="4.0" dy="4.0" in="blurOut2" result="blurOut3"/><feBlend in="SourceGraphic" in2="blurOut3" mode="normal"/></filter></defs><g><!--cluster de.interactive_instruments.etf.component.loaders--><polygon fill="#FFFFFF" filter="url(#f1e5zgefelu9u4)" points="14,16,373,16,380,38.4883,1217,38.4883,1217,940,14,940,14,16" style="stroke: #000000; stroke-width: 1.5;"/><line style="stroke: #000000; stroke-width: 1.5;" x1="14" x2="380" y1="38.4883" y2="38.4883"/><text fill="#000000" font-family="sans-serif" font-size="14" font-weight="bold" lengthAdjust="spacingAndGlyphs" textLength="353" x="18" y="31.5352">de.interactive_instruments.etf.component.loaders</text><!--cluster de.interactive_instruments--><polygon fill="#FFFFFF" filter="url(#f1e5zgefelu9u4)" points="1225,169,1422,169,1429,191.4883,1432,191.4883,1432,265,1225,265,1225,169" style="stroke: #000000; stroke-width: 1.5;"/><line style="stroke: #000000; stroke-width: 1.5;" x1="1225" x2="1429" y1="191.4883" y2="191.4883"/><text fill="#000000" font-family="sans-serif" font-size="14" font-weight="bold" lengthAdjust="spacingAndGlyphs" textLength="191" x="1229" y="184.5352">de.interactive_instruments</text><!--cluster java.lang--><polygon fill="#FFFFFF" filter="url(#f1e5zgefelu9u4)" points="1440,169,1509,169,1516,191.4883,1578,191.4883,1578,265,1440,265,1440,169" style="stroke: #000000; stroke-width: 1.5;"/><line style="stroke: #000000; stroke-width: 1.5;" x1="1440" x2="1516" y1="191.4883" y2="191.4883"/><text fill="#000000" font-family="sans-serif" font-size="14" font-weight="bold" lengthAdjust="spacingAndGlyphs" textLength="63" x="1444" y="184.5352">java.lang</text><!--class de.interactive_instruments.etf.component.loaders.ItemRegistry--><a target="_top" xlink:actuate="onRequest" xlink:href="ItemRegistry.html" xlink:show="new" xlink:title="ItemRegistry.html" xlink:type="simple"><rect fill="#FEFECE" filter="url(#f1e5zgefelu9u4)" height="125.7305" id="de.interactive_instruments.etf.component.loaders.ItemRegistry" style="stroke: #A80036; stroke-width: 1.5;" width="555" x="307.5" y="544"/><ellipse cx="545.25" cy="560" fill="#B4A7E5" rx="11" ry="11" style="stroke: #A80036; stroke-width: 1.0;"/><path d="M541.6777,556.2651 L541.6777,554.1069 L549.0571,554.1069 L549.0571,556.2651 L546.5918,556.2651 L546.5918,564.3418 L549.0571,564.3418 L549.0571,566.5 L541.6777,566.5 L541.6777,564.3418 L544.1431,564.3418 L544.1431,556.2651 Z "/><text fill="#000000" font-family="sans-serif" font-size="12" font-style="italic" lengthAdjust="spacingAndGlyphs" textLength="71" x="565.75" y="564.5352">ItemRegistry</text><line style="stroke: #A80036; stroke-width: 1.5;" x1="308.5" x2="861.5" y1="576" y2="576"/><line style="stroke: #A80036; stroke-width: 1.5;" x1="308.5" x2="861.5" y1="584" y2="584"/><ellipse cx="318.5" cy="595.9775" fill="#84BE84" rx="3" ry="3" style="stroke: #038048; stroke-width: 1.0;"/><text fill="#000000" font-family="sans-serif" font-size="11" font-style="italic" lengthAdjust="spacingAndGlyphs" textLength="156" x="327.5" y="598.6348">register(Collection&lt;?&gt;): void</text><ellipse cx="318.5" cy="608.9326" fill="#84BE84" rx="3" ry="3" style="stroke: #038048; stroke-width: 1.0;"/><text fill="#000000" font-family="sans-serif" font-size="11" font-style="italic" lengthAdjust="spacingAndGlyphs" textLength="169" x="327.5" y="611.5898">deregister(Collection&lt;?&gt;): void</text><ellipse cx="318.5" cy="621.8877" fill="#84BE84" rx="3" ry="3" style="stroke: #038048; stroke-width: 1.0;"/><text fill="#000000" font-family="sans-serif" font-size="11" font-style="italic" lengthAdjust="spacingAndGlyphs" textLength="151" x="327.5" y="624.5449">update(Collection&lt;?&gt;): void</text><ellipse cx="318.5" cy="634.8428" fill="#84BE84" rx="3" ry="3" style="stroke: #038048; stroke-width: 1.0;"/><text fill="#000000" font-family="sans-serif" font-size="11" font-style="italic" lengthAdjust="spacingAndGlyphs" textLength="529" x="327.5" y="637.5">lookupDependency(Collection&lt;EID&gt;, ItemRegistry.DependencyChangeListener): EidHolderMap&lt;?&gt;</text><ellipse cx="318.5" cy="647.7979" fill="#84BE84" rx="3" ry="3" style="stroke: #038048; stroke-width: 1.0;"/><text fill="#000000" font-family="sans-serif" font-size="11" font-style="italic" lengthAdjust="spacingAndGlyphs" textLength="357" x="327.5" y="650.4551">deregisterCallback(ItemRegistry.DependencyChangeListener): void</text><ellipse cx="318.5" cy="660.7529" fill="#84BE84" rx="3" ry="3" style="stroke: #038048; stroke-width: 1.0;"/><text fill="#000000" font-family="sans-serif" font-size="11" font-style="italic" lengthAdjust="spacingAndGlyphs" textLength="237" x="327.5" y="663.4102">lookup(Collection&lt;EID&gt;): EidHolderMap&lt;?&gt;</text></a><!--class de.interactive_instruments.etf.component.loaders.ItemRegistry.DependencyChangeListener--><a target="_top" xlink:actuate="onRequest" xlink:href="ItemRegistry.DependencyChangeListener.html" xlink:show="new" xlink:title="ItemRegistry.DependencyChangeListener.html" xlink:type="simple"><rect fill="#FEFECE" filter="url(#f1e5zgefelu9u4)" height="86.8652" id="de.interactive_instruments.etf.component.loaders.ItemRegistry.DependencyChangeListener" style="stroke: #A80036; stroke-width: 1.5;" width="320" x="889" y="819"/><ellipse cx="927.85" cy="835" fill="#B4A7E5" rx="11" ry="11" style="stroke: #A80036; stroke-width: 1.0;"/><path d="M924.2777,831.2651 L924.2777,829.1069 L931.6571,829.1069 L931.6571,831.2651 L929.1918,831.2651 L929.1918,839.3418 L931.6571,839.3418 L931.6571,841.5 L924.2777,841.5 L924.2777,839.3418 L926.7431,839.3418 L926.7431,831.2651 Z "/><text fill="#000000" font-family="sans-serif" font-size="12" font-style="italic" lengthAdjust="spacingAndGlyphs" textLength="235" x="947.15" y="839.5352">ItemRegistry.DependencyChangeListener</text><line style="stroke: #A80036; stroke-width: 1.5;" x1="890" x2="1208" y1="851" y2="851"/><line style="stroke: #A80036; stroke-width: 1.5;" x1="890" x2="1208" y1="859" y2="859"/><ellipse cx="900" cy="870.9775" fill="#84BE84" rx="3" ry="3" style="stroke: #038048; stroke-width: 1.0;"/><text fill="#000000" font-family="sans-serif" font-size="11" font-style="italic" lengthAdjust="spacingAndGlyphs" textLength="217" x="909" y="873.6348">fireEventDependencyResolved(Dto): void</text><ellipse cx="900" cy="883.9326" fill="#84BE84" rx="3" ry="3" style="stroke: #038048; stroke-width: 1.0;"/><text fill="#000000" font-family="sans-serif" font-size="11" font-style="italic" lengthAdjust="spacingAndGlyphs" textLength="294" x="909" y="886.5898">fireEventDependencyDeregistered(Class&lt;?&gt;, EID): void</text><ellipse cx="900" cy="896.8877" fill="#84BE84" rx="3" ry="3" style="stroke: #038048; stroke-width: 1.0;"/><text fill="#000000" font-family="sans-serif" font-size="11" font-style="italic" lengthAdjust="spacingAndGlyphs" textLength="214" x="909" y="899.5449">fireEventDependencyUpdated(Dto): void</text></a><!--class de.interactive_instruments.etf.component.loaders.ItemFileObserverRegistry--><a target="_top" xlink:actuate="onRequest" xlink:href="ItemFileObserverRegistry.html" xlink:show="new" xlink:title="ItemFileObserverRegistry.html" xlink:type="simple"><rect fill="#FEFECE" filter="url(#f1e5zgefelu9u4)" height="73.9102" id="de.interactive_instruments.etf.component.loaders.ItemFileObserverRegistry" style="stroke: #A80036; stroke-width: 1.5;" width="176" x="55" y="570"/><ellipse cx="70.45" cy="586" fill="#B4A7E5" rx="11" ry="11" style="stroke: #A80036; stroke-width: 1.0;"/><path d="M66.8777,582.2651 L66.8777,580.1069 L74.2571,580.1069 L74.2571,582.2651 L71.7918,582.2651 L71.7918,590.3418 L74.2571,590.3418 L74.2571,592.5 L66.8777,592.5 L66.8777,590.3418 L69.3431,590.3418 L69.3431,582.2651 Z "/><text fill="#000000" font-family="sans-serif" font-size="12" font-style="italic" lengthAdjust="spacingAndGlyphs" textLength="143" x="84.55" y="590.5352">ItemFileObserverRegistry</text><line style="stroke: #A80036; stroke-width: 1.5;" x1="56" x2="230" y1="602" y2="602"/><line style="stroke: #A80036; stroke-width: 1.5;" x1="56" x2="230" y1="610" y2="610"/><ellipse cx="66" cy="621.9775" fill="#84BE84" rx="3" ry="3" style="stroke: #038048; stroke-width: 1.0;"/><text fill="#000000" font-family="sans-serif" font-size="11" font-style="italic" lengthAdjust="spacingAndGlyphs" textLength="150" x="75" y="624.6348">register(Path, List&lt;?&gt;): void</text><ellipse cx="66" cy="634.9326" fill="#84BE84" rx="3" ry="3" style="stroke: #038048; stroke-width: 1.0;"/><text fill="#000000" font-family="sans-serif" font-size="11" font-style="italic" lengthAdjust="spacingAndGlyphs" textLength="134" x="75" y="637.5898">deregister(List&lt;?&gt;): void</text></a><!--class de.interactive_instruments.etf.component.loaders.LoadingContext--><a target="_top" xlink:actuate="onRequest" xlink:href="LoadingContext.html" xlink:show="new" xlink:title="LoadingContext.html" xlink:type="simple"><rect fill="#FEFECE" filter="url(#f1e5zgefelu9u4)" height="48" id="de.interactive_instruments.etf.component.loaders.LoadingContext" style="stroke: #A80036; stroke-width: 1.5;" width="121" x="361.5" y="62.5"/><ellipse cx="376.5" cy="78.5" fill="#B4A7E5" rx="11" ry="11" style="stroke: #A80036; stroke-width: 1.0;"/><path d="M372.9277,74.7651 L372.9277,72.6069 L380.3071,72.6069 L380.3071,74.7651 L377.8418,74.7651 L377.8418,82.8418 L380.3071,82.8418 L380.3071,85 L372.9277,85 L372.9277,82.8418 L375.3931,82.8418 L375.3931,74.7651 Z "/><text fill="#000000" font-family="sans-serif" font-size="12" font-style="italic" lengthAdjust="spacingAndGlyphs" textLength="89" x="390.5" y="83.0352">LoadingContext</text><line style="stroke: #A80036; stroke-width: 1.5;" x1="362.5" x2="481.5" y1="94.5" y2="94.5"/><line style="stroke: #A80036; stroke-width: 1.5;" x1="362.5" x2="481.5" y1="102.5" y2="102.5"/></a><!--class de.interactive_instruments.etf.component.loaders.NullItemRegistry--><a target="_top" xlink:actuate="onRequest" xlink:href="NullItemRegistry.html" xlink:show="new" xlink:title="NullItemRegistry.html" xlink:type="simple"><rect fill="#FEFECE" filter="url(#f1e5zgefelu9u4)" height="138.6855" id="de.interactive_instruments.etf.component.loaders.NullItemRegistry" style="stroke: #A80036; stroke-width: 1.5;" width="555" x="298.5" y="793"/><ellipse cx="525.25" cy="809" fill="#ADD1B2" rx="11" ry="11" style="stroke: #A80036; stroke-width: 1.0;"/><path d="M527.7231,815.1431 Q527.1421,815.4419 526.5029,815.5913 Q525.8638,815.7407 525.1582,815.7407 Q522.6514,815.7407 521.3315,814.0889 Q520.0117,812.437 520.0117,809.3159 Q520.0117,806.1865 521.3315,804.5347 Q522.6514,802.8828 525.1582,802.8828 Q525.8638,802.8828 526.5112,803.0322 Q527.1587,803.1816 527.7231,803.4805 L527.7231,806.2031 Q527.0923,805.6221 526.4988,805.3523 Q525.9053,805.0825 525.2744,805.0825 Q523.9297,805.0825 523.2449,806.1492 Q522.5601,807.2158 522.5601,809.3159 Q522.5601,811.4077 523.2449,812.4744 Q523.9297,813.541 525.2744,813.541 Q525.9053,813.541 526.4988,813.2712 Q527.0923,813.0015 527.7231,812.4204 Z "/><text fill="#000000" font-family="sans-serif" font-size="12" lengthAdjust="spacingAndGlyphs" textLength="93" x="545.75" y="813.5352">NullItemRegistry</text><line style="stroke: #A80036; stroke-width: 1.5;" x1="299.5" x2="852.5" y1="825" y2="825"/><line style="stroke: #A80036; stroke-width: 1.5;" x1="299.5" x2="852.5" y1="833" y2="833"/><ellipse cx="309.5" cy="844.9775" fill="#84BE84" rx="3" ry="3" style="stroke: #038048; stroke-width: 1.0;"/><text fill="#000000" font-family="sans-serif" font-size="11" lengthAdjust="spacingAndGlyphs" text-decoration="underline" textLength="126" x="318.5" y="847.6348">instance(): ItemRegistry</text><line style="stroke: #000000; stroke-width: 1.0;" x1="318.5" x2="444.5" y1="849.6348" y2="849.6348"/><ellipse cx="309.5" cy="857.9326" fill="#84BE84" rx="3" ry="3" style="stroke: #038048; stroke-width: 1.0;"/><text fill="#000000" font-family="sans-serif" font-size="11" lengthAdjust="spacingAndGlyphs" textLength="156" x="318.5" y="860.5898">register(Collection&lt;?&gt;): void</text><ellipse cx="309.5" cy="870.8877" fill="#84BE84" rx="3" ry="3" style="stroke: #038048; stroke-width: 1.0;"/><text fill="#000000" font-family="sans-serif" font-size="11" lengthAdjust="spacingAndGlyphs" textLength="169" x="318.5" y="873.5449">deregister(Collection&lt;?&gt;): void</text><ellipse cx="309.5" cy="883.8428" fill="#84BE84" rx="3" ry="3" style="stroke: #038048; stroke-width: 1.0;"/><text fill="#000000" font-family="sans-serif" font-size="11" lengthAdjust="spacingAndGlyphs" textLength="357" x="318.5" y="886.5">deregisterCallback(ItemRegistry.DependencyChangeListener): void</text><ellipse cx="309.5" cy="896.7979" fill="#84BE84" rx="3" ry="3" style="stroke: #038048; stroke-width: 1.0;"/><text fill="#000000" font-family="sans-serif" font-size="11" lengthAdjust="spacingAndGlyphs" textLength="151" x="318.5" y="899.4551">update(Collection&lt;?&gt;): void</text><ellipse cx="309.5" cy="909.7529" fill="#84BE84" rx="3" ry="3" style="stroke: #038048; stroke-width: 1.0;"/><text fill="#000000" font-family="sans-serif" font-size="11" lengthAdjust="spacingAndGlyphs" textLength="529" x="318.5" y="912.4102">lookupDependency(Collection&lt;EID&gt;, ItemRegistry.DependencyChangeListener): EidHolderMap&lt;?&gt;</text><ellipse cx="309.5" cy="922.708" fill="#84BE84" rx="3" ry="3" style="stroke: #038048; stroke-width: 1.0;"/><text fill="#000000" font-family="sans-serif" font-size="11" lengthAdjust="spacingAndGlyphs" textLength="237" x="318.5" y="925.3652">lookup(Collection&lt;EID&gt;): EidHolderMap&lt;?&gt;</text></a><!--class de.interactive_instruments.etf.component.loaders.NullItemFileObserverRegistry--><a target="_top" xlink:actuate="onRequest" xlink:href="NullItemFileObserverRegistry.html" xlink:show="new" xlink:title="NullItemFileObserverRegistry.html" xlink:type="simple"><rect fill="#FEFECE" filter="url(#f1e5zgefelu9u4)" height="86.8652" id="de.interactive_instruments.etf.component.loaders.NullItemFileObserverRegistry" style="stroke: #A80036; stroke-width: 1.5;" width="241" x="22.5" y="819"/><ellipse cx="57.3" cy="835" fill="#ADD1B2" rx="11" ry="11" style="stroke: #A80036; stroke-width: 1.0;"/><path d="M59.7731,841.1431 Q59.1921,841.4419 58.5529,841.5913 Q57.9138,841.7407 57.2082,841.7407 Q54.7014,841.7407 53.3815,840.0889 Q52.0617,838.437 52.0617,835.3159 Q52.0617,832.1865 53.3815,830.5347 Q54.7014,828.8828 57.2082,828.8828 Q57.9138,828.8828 58.5612,829.0322 Q59.2087,829.1816 59.7731,829.4805 L59.7731,832.2031 Q59.1423,831.6221 58.5488,831.3523 Q57.9553,831.0825 57.3244,831.0825 Q55.9797,831.0825 55.2949,832.1492 Q54.6101,833.2158 54.6101,835.3159 Q54.6101,837.4077 55.2949,838.4744 Q55.9797,839.541 57.3244,839.541 Q57.9553,839.541 58.5488,839.2712 Q59.1423,839.0015 59.7731,838.4204 Z "/><text fill="#000000" font-family="sans-serif" font-size="12" lengthAdjust="spacingAndGlyphs" textLength="165" x="75.7" y="839.5352">NullItemFileObserverRegistry</text><line style="stroke: #A80036; stroke-width: 1.5;" x1="23.5" x2="262.5" y1="851" y2="851"/><line style="stroke: #A80036; stroke-width: 1.5;" x1="23.5" x2="262.5" y1="859" y2="859"/><ellipse cx="33.5" cy="870.9775" fill="#84BE84" rx="3" ry="3" style="stroke: #038048; stroke-width: 1.0;"/><text fill="#000000" font-family="sans-serif" font-size="11" lengthAdjust="spacingAndGlyphs" text-decoration="underline" textLength="215" x="42.5" y="873.6348">instance(): NullItemFileObserverRegistry</text><line style="stroke: #000000; stroke-width: 1.0;" x1="42.5" x2="257.5" y1="875.6348" y2="875.6348"/><ellipse cx="33.5" cy="883.9326" fill="#84BE84" rx="3" ry="3" style="stroke: #038048; stroke-width: 1.0;"/><text fill="#000000" font-family="sans-serif" font-size="11" lengthAdjust="spacingAndGlyphs" textLength="150" x="42.5" y="886.5898">register(Path, List&lt;?&gt;): void</text><ellipse cx="33.5" cy="896.8877" fill="#84BE84" rx="3" ry="3" style="stroke: #038048; stroke-width: 1.0;"/><text fill="#000000" font-family="sans-serif" font-size="11" lengthAdjust="spacingAndGlyphs" textLength="134" x="42.5" y="899.5449">deregister(List&lt;?&gt;): void</text></a><!--class de.interactive_instruments.etf.component.loaders.ItemFileLoaderFactory--><a target="_top" xlink:actuate="onRequest" xlink:href="ItemFileLoaderFactory.html" xlink:show="new" xlink:title="ItemFileLoaderFactory.html" xlink:type="simple"><rect fill="#FEFECE" filter="url(#f1e5zgefelu9u4)" height="86.8652" id="de.interactive_instruments.etf.component.loaders.ItemFileLoaderFactory" style="stroke: #A80036; stroke-width: 1.5;" width="309" x="899.5" y="43"/><ellipse cx="987.25" cy="59" fill="#B4A7E5" rx="11" ry="11" style="stroke: #A80036; stroke-width: 1.0;"/><path d="M983.6777,55.2651 L983.6777,53.1069 L991.0571,53.1069 L991.0571,55.2651 L988.5918,55.2651 L988.5918,63.3418 L991.0571,63.3418 L991.0571,65.5 L983.6777,65.5 L983.6777,63.3418 L986.1431,63.3418 L986.1431,55.2651 Z "/><text fill="#000000" font-family="sans-serif" font-size="12" font-style="italic" lengthAdjust="spacingAndGlyphs" textLength="125" x="1007.75" y="63.5352">ItemFileLoaderFactory</text><line style="stroke: #A80036; stroke-width: 1.5;" x1="900.5" x2="1207.5" y1="75" y2="75"/><line style="stroke: #A80036; stroke-width: 1.5;" x1="900.5" x2="1207.5" y1="83" y2="83"/><ellipse cx="910.5" cy="94.9775" fill="#84BE84" rx="3" ry="3" style="stroke: #038048; stroke-width: 1.0;"/><text fill="#000000" font-family="sans-serif" font-size="11" lengthAdjust="spacingAndGlyphs" textLength="84" x="919.5" y="97.6348">getPriority(): int</text><ellipse cx="910.5" cy="107.9326" fill="#84BE84" rx="3" ry="3" style="stroke: #038048; stroke-width: 1.0;"/><text fill="#000000" font-family="sans-serif" font-size="11" font-style="italic" lengthAdjust="spacingAndGlyphs" textLength="147" x="919.5" y="110.5898">couldHandle(Path): boolean</text><ellipse cx="910.5" cy="120.8877" fill="#84BE84" rx="3" ry="3" style="stroke: #038048; stroke-width: 1.0;"/><text fill="#000000" font-family="sans-serif" font-size="11" font-style="italic" lengthAdjust="spacingAndGlyphs" textLength="283" x="919.5" y="123.5449">load(Path): ItemFileLoaderFactory.FileChangeListener</text></a><!--class de.interactive_instruments.etf.component.loaders.ItemFileLoaderFactory.FileChangeListener--><a target="_top" xlink:actuate="onRequest" xlink:href="ItemFileLoaderFactory.FileChangeListener.html" xlink:show="new" xlink:title="ItemFileLoaderFactory.FileChangeListener.html" xlink:type="simple"><rect fill="#FEFECE" filter="url(#f1e5zgefelu9u4)" height="86.8652" id="de.interactive_instruments.etf.component.loaders.ItemFileLoaderFactory.FileChangeListener" style="stroke: #A80036; stroke-width: 1.5;" width="268" x="941" y="318"/><ellipse cx="956" cy="334" fill="#B4A7E5" rx="11" ry="11" style="stroke: #A80036; stroke-width: 1.0;"/><path d="M952.4277,330.2651 L952.4277,328.1069 L959.8071,328.1069 L959.8071,330.2651 L957.3418,330.2651 L957.3418,338.3418 L959.8071,338.3418 L959.8071,340.5 L952.4277,340.5 L952.4277,338.3418 L954.8931,338.3418 L954.8931,330.2651 Z "/><text fill="#000000" font-family="sans-serif" font-size="12" font-style="italic" lengthAdjust="spacingAndGlyphs" textLength="236" x="970" y="338.5352">ItemFileLoaderFactory.FileChangeListener</text><line style="stroke: #A80036; stroke-width: 1.5;" x1="942" x2="1208" y1="350" y2="350"/><line style="stroke: #A80036; stroke-width: 1.5;" x1="942" x2="1208" y1="358" y2="358"/><ellipse cx="952" cy="369.9775" fill="#84BE84" rx="3" ry="3" style="stroke: #038048; stroke-width: 1.0;"/><text fill="#000000" font-family="sans-serif" font-size="11" font-style="italic" lengthAdjust="spacingAndGlyphs" textLength="126" x="961" y="372.6348">eventFileCreated(): void</text><ellipse cx="952" cy="382.9326" fill="#84BE84" rx="3" ry="3" style="stroke: #038048; stroke-width: 1.0;"/><text fill="#000000" font-family="sans-serif" font-size="11" font-style="italic" lengthAdjust="spacingAndGlyphs" textLength="124" x="961" y="385.5898">eventFileDeleted(): void</text><ellipse cx="952" cy="395.8877" fill="#84BE84" rx="3" ry="3" style="stroke: #038048; stroke-width: 1.0;"/><text fill="#000000" font-family="sans-serif" font-size="11" font-style="italic" lengthAdjust="spacingAndGlyphs" textLength="129" x="961" y="398.5449">eventFileUpdated(): void</text></a><!--class de.interactive_instruments.etf.component.loaders.NullLoadingContext--><a target="_top" xlink:actuate="onRequest" xlink:href="NullLoadingContext.html" xlink:show="new" xlink:title="NullLoadingContext.html" xlink:type="simple"><rect fill="#FEFECE" filter="url(#f1e5zgefelu9u4)" height="60.9551" id="de.interactive_instruments.etf.component.loaders.NullLoadingContext" style="stroke: #A80036; stroke-width: 1.5;" width="192" x="326" y="331"/><ellipse cx="363.05" cy="347" fill="#ADD1B2" rx="11" ry="11" style="stroke: #A80036; stroke-width: 1.0;"/><path d="M365.5231,353.1431 Q364.9421,353.4419 364.3029,353.5913 Q363.6638,353.7407 362.9582,353.7407 Q360.4514,353.7407 359.1315,352.0889 Q357.8117,350.437 357.8117,347.3159 Q357.8117,344.1865 359.1315,342.5347 Q360.4514,340.8828 362.9582,340.8828 Q363.6638,340.8828 364.3112,341.0322 Q364.9587,341.1816 365.5231,341.4805 L365.5231,344.2031 Q364.8923,343.6221 364.2988,343.3523 Q363.7053,343.0825 363.0744,343.0825 Q361.7297,343.0825 361.0449,344.1492 Q360.3601,345.2158 360.3601,347.3159 Q360.3601,349.4077 361.0449,350.4744 Q361.7297,351.541 363.0744,351.541 Q363.7053,351.541 364.2988,351.2712 Q364.8923,351.0015 365.5231,350.4204 Z "/><text fill="#000000" font-family="sans-serif" font-size="12" lengthAdjust="spacingAndGlyphs" textLength="111" x="381.95" y="351.5352">NullLoadingContext</text><line style="stroke: #A80036; stroke-width: 1.5;" x1="327" x2="517" y1="363" y2="363"/><line style="stroke: #A80036; stroke-width: 1.5;" x1="327" x2="517" y1="371" y2="371"/><ellipse cx="337" cy="382.9775" fill="#84BE84" rx="3" ry="3" style="stroke: #038048; stroke-width: 1.0;"/><text fill="#000000" font-family="sans-serif" font-size="11" lengthAdjust="spacingAndGlyphs" text-decoration="underline" textLength="166" x="346" y="385.6348">instance(): NullLoadingContext</text><line style="stroke: #000000; stroke-width: 1.0;" x1="346" x2="512" y1="387.6348" y2="387.6348"/></a><!--class de.interactive_instruments.Releasable--><rect fill="#FEFECE" filter="url(#f1e5zgefelu9u4)" height="60.9551" id="de.interactive_instruments.Releasable" style="stroke: #A80036; stroke-width: 1.5;" width="101" x="1233.5" y="196"/><ellipse cx="1251.2" cy="212" fill="#B4A7E5" rx="11" ry="11" style="stroke: #A80036; stroke-width: 1.0;"/><path d="M1247.6277,208.2651 L1247.6277,206.1069 L1255.0071,206.1069 L1255.0071,208.2651 L1252.5418,208.2651 L1252.5418,216.3418 L1255.0071,216.3418 L1255.0071,218.5 L1247.6277,218.5 L1247.6277,216.3418 L1250.0931,216.3418 L1250.0931,208.2651 Z "/><text fill="#000000" font-family="sans-serif" font-size="12" font-style="italic" lengthAdjust="spacingAndGlyphs" textLength="63" x="1265.8" y="216.5352">Releasable</text><line style="stroke: #A80036; stroke-width: 1.5;" x1="1234.5" x2="1333.5" y1="228" y2="228"/><line style="stroke: #A80036; stroke-width: 1.5;" x1="1234.5" x2="1333.5" y1="236" y2="236"/><ellipse cx="1244.5" cy="247.9775" fill="#84BE84" rx="3" ry="3" style="stroke: #038048; stroke-width: 1.0;"/><text fill="#000000" font-family="sans-serif" font-size="11" font-style="italic" lengthAdjust="spacingAndGlyphs" textLength="75" x="1253.5" y="250.6348">release(): void</text><!--class java.lang.Comparable--><rect fill="#FEFECE" filter="url(#f1e5zgefelu9u4)" height="60.9551" id="java.lang.Comparable" style="stroke: #A80036; stroke-width: 1.5;" width="122" x="1448" y="196"/><ellipse cx="1466.15" cy="212" fill="#B4A7E5" rx="11" ry="11" style="stroke: #A80036; stroke-width: 1.0;"/><path d="M1462.5777,208.2651 L1462.5777,206.1069 L1469.9571,206.1069 L1469.9571,208.2651 L1467.4918,208.2651 L1467.4918,216.3418 L1469.9571,216.3418 L1469.9571,218.5 L1462.5777,218.5 L1462.5777,216.3418 L1465.0431,216.3418 L1465.0431,208.2651 Z "/><text fill="#000000" font-family="sans-serif" font-size="12" font-style="italic" lengthAdjust="spacingAndGlyphs" textLength="71" x="1480.85" y="216.5352">Comparable</text><rect fill="#FFFFFF" height="16.1328" style="stroke: #000000; stroke-width: 1.0; stroke-dasharray: 2.0,2.0;" width="10" x="1563" y="193"/><text fill="#000000" font-family="sans-serif" font-size="12" font-style="italic" lengthAdjust="spacingAndGlyphs" textLength="8" x="1564" y="205.6016">T</text><line style="stroke: #A80036; stroke-width: 1.5;" x1="1449" x2="1569" y1="228" y2="228"/><line style="stroke: #A80036; stroke-width: 1.5;" x1="1449" x2="1569" y1="236" y2="236"/><ellipse cx="1459" cy="247.9775" fill="#84BE84" rx="3" ry="3" style="stroke: #038048; stroke-width: 1.0;"/><text fill="#000000" font-family="sans-serif" font-size="11" font-style="italic" lengthAdjust="spacingAndGlyphs" textLength="96" x="1468" y="250.6348">compareTo(T): int</text><!--link de.interactive_instruments.etf.component.loaders.ItemRegistry to de.interactive_instruments.etf.component.loaders.ItemRegistry.DependencyChangeListener--><path d="M712.9541,677.4575 C795.1718,722.7304 899.3779,780.1111 969.7833,818.8796 " fill="none" id="de.interactive_instruments.etf.component.loaders.ItemRegistry-de.interactive_instruments.etf.component.loaders.ItemRegistry.DependencyChangeListener" style="stroke: #A80036; stroke-width: 1.0;"/><ellipse cx="706.7045" cy="674.0162" fill="#FFFFFF" rx="8" ry="8" style="stroke: #A80036; stroke-width: 1.0;"/><line style="stroke: #A80036; stroke-width: 1.0;" x1="713.7123" x2="699.6967" y1="677.875" y2="670.1573"/><line style="stroke: #A80036; stroke-width: 1.0;" x1="702.8456" x2="710.5634" y1="681.024" y2="667.0084"/><!--link de.interactive_instruments.etf.component.loaders.ItemRegistry to de.interactive_instruments.etf.component.loaders.NullItemRegistry--><path d="M582.0547,690.6143 C580.8889,723.7082 579.5645,761.3075 578.4522,792.8839 " fill="none" id="de.interactive_instruments.etf.component.loaders.ItemRegistry-de.interactive_instruments.etf.component.loaders.NullItemRegistry" style="stroke: #A80036; stroke-width: 1.0; stroke-dasharray: 7.0,7.0;"/><polygon fill="none" points="575.0755,689.8985,582.7753,670.1573,589.0668,690.3914,575.0755,689.8985" style="stroke: #A80036; stroke-width: 1.0;"/><!--link de.interactive_instruments.etf.component.loaders.ItemFileObserverRegistry to de.interactive_instruments.etf.component.loaders.NullItemFileObserverRegistry--><path d="M143,664.2142 C143,711.0172 143,776.2186 143,818.8808 " fill="none" id="de.interactive_instruments.etf.component.loaders.ItemFileObserverRegistry-de.interactive_instruments.etf.component.loaders.NullItemFileObserverRegistry" style="stroke: #A80036; stroke-width: 1.0; stroke-dasharray: 7.0,7.0;"/><polygon fill="none" points="136.0001,664.1519,143,644.1519,150.0001,664.1519,136.0001,664.1519" style="stroke: #A80036; stroke-width: 1.0;"/><!--link de.interactive_instruments.Releasable to de.interactive_instruments.etf.component.loaders.ItemFileLoaderFactory.FileChangeListener--><path d="M1220.5282,267.8798 C1189.5561,287.9315 1164.9065,303.8049 1143.0105,317.8784 " fill="none" id="de.interactive_instruments.Releasable-de.interactive_instruments.etf.component.loaders.ItemFileLoaderFactory.FileChangeListener" style="stroke: #A80036; stroke-width: 1.0; stroke-dasharray: 7.0,7.0;"/><polygon fill="none" points="1216.7287,262.0007,1237.3199,257.0005,1224.3411,273.7503,1216.7287,262.0007" style="stroke: #A80036; stroke-width: 1.0;"/><!--link java.lang.Comparable to de.interactive_instruments.etf.component.loaders.ItemFileLoaderFactory.FileChangeListener--><path d="M1438.6303,264.6903 C1354.1169,298.0908 1274.6856,319.3635 1209.3738,334.4659 " fill="none" id="java.lang.Comparable-de.interactive_instruments.etf.component.loaders.ItemFileLoaderFactory.FileChangeListener" style="stroke: #A80036; stroke-width: 1.0; stroke-dasharray: 7.0,7.0;"/><polygon fill="none" points="1436.1465,258.1441,1457.3124,257.1397,1441.3925,271.124,1436.1465,258.1441" style="stroke: #A80036; stroke-width: 1.0;"/><!--link de.interactive_instruments.etf.component.loaders.ItemFileLoaderFactory to de.interactive_instruments.etf.component.loaders.ItemFileLoaderFactory.FileChangeListener--><path d="M1058.4934,145.3418 C1062.4401,197.0246 1068.0928,271.0481 1071.6534,317.6749 " fill="none" id="de.interactive_instruments.etf.component.loaders.ItemFileLoaderFactory-de.interactive_instruments.etf.component.loaders.ItemFileLoaderFactory.FileChangeListener" style="stroke: #A80036; stroke-width: 1.0;"/><ellipse cx="1057.9367" cy="138.0514" fill="#FFFFFF" rx="8" ry="8" style="stroke: #A80036; stroke-width: 1.0;"/><line style="stroke: #A80036; stroke-width: 1.0;" x1="1058.5459" x2="1057.3275" y1="146.0281" y2="130.0746"/><line style="stroke: #A80036; stroke-width: 1.0;" x1="1049.96" x2="1065.9135" y1="138.6606" y2="137.4421"/><!--link de.interactive_instruments.etf.component.loaders.LoadingContext to de.interactive_instruments.etf.component.loaders.NullLoadingContext--><path d="M422,131.0179 C422,187.2001 422,282.3505 422,330.9492 " fill="none" id="de.interactive_instruments.etf.component.loaders.LoadingContext-de.interactive_instruments.etf.component.loaders.NullLoadingContext" style="stroke: #A80036; stroke-width: 1.0; stroke-dasharray: 7.0,7.0;"/><polygon fill="none" points="415.0001,130.9045,422,110.9044,429.0001,130.9044,415.0001,130.9045" style="stroke: #A80036; stroke-width: 1.0;"/><!--link de.interactive_instruments.etf.component.loaders.LoadingContext to de.interactive_instruments.etf.component.loaders.ItemRegistry--><path d="M482.8697,109.1054 C530.246,131.0934 588,169.5724 588,226.5 C588,226.5 588,226.5 588,474.5 C588,495.3936 587.6226,518.1357 587.1354,538.7861 " fill="none" id="de.interactive_instruments.etf.component.loaders.LoadingContext-de.interactive_instruments.etf.component.loaders.ItemRegistry" style="stroke: #A80036; stroke-width: 1.0;"/><polygon fill="#A80036" points="587.0094,543.9888,591.2263,535.0884,587.1305,538.9903,583.2286,534.8945,587.0094,543.9888" style="stroke: #A80036; stroke-width: 1.0;"/><text fill="#000000" font-family="sans-serif" font-size="13" lengthAdjust="spacingAndGlyphs" textLength="79" x="589" y="366.5684">itemRegistry</text><!--link de.interactive_instruments.etf.component.loaders.LoadingContext to de.interactive_instruments.etf.component.loaders.ItemFileObserverRegistry--><path d="M361.2065,102.6827 C276.1692,127.1398 132,176.0439 132,226.5 C132,226.5 132,226.5 132,474.5 C132,504.7959 134.8914,538.8552 137.7094,564.8554 " fill="none" id="de.interactive_instruments.etf.component.loaders.LoadingContext-de.interactive_instruments.etf.component.loaders.ItemFileObserverRegistry" style="stroke: #A80036; stroke-width: 1.0;"/><polygon fill="#A80036" points="138.2712,569.9445,141.2593,560.5599,137.7225,564.9747,133.3077,561.4378,138.2712,569.9445" style="stroke: #A80036; stroke-width: 1.0;"/><text fill="#000000" font-family="sans-serif" font-size="13" lengthAdjust="spacingAndGlyphs" textLength="157" x="133" y="366.5684">itemFileObserverRegistry</text><!--link de.interactive_instruments.etf.component.loaders.NullLoadingContext to de.interactive_instruments.etf.component.loaders.ItemRegistry--><path d="M440.6106,392.2433 C455.7322,416.9786 477.7918,452.5154 498,483 C510.2928,501.544 523.9622,521.3739 536.7559,539.6144 " fill="none" id="de.interactive_instruments.etf.component.loaders.NullLoadingContext-de.interactive_instruments.etf.component.loaders.ItemRegistry" style="stroke: #A80036; stroke-width: 1.0;"/><polygon fill="#A80036" points="539.6427,543.7245,537.743,534.0606,536.7688,539.6329,531.1965,538.6588,539.6427,543.7245" style="stroke: #A80036; stroke-width: 1.0;"/><text fill="#000000" font-family="sans-serif" font-size="13" lengthAdjust="spacingAndGlyphs" textLength="79" x="499" y="479.5684">itemRegistry</text><!--link de.interactive_instruments.etf.component.loaders.NullLoadingContext to de.interactive_instruments.etf.component.loaders.ItemFileObserverRegistry--><path d="M387.2286,392.0964 C337.1576,436.1552 244.6657,517.5414 188.9947,566.528 " fill="none" id="de.interactive_instruments.etf.component.loaders.NullLoadingContext-de.interactive_instruments.etf.component.loaders.ItemFileObserverRegistry" style="stroke: #A80036; stroke-width: 1.0;"/><polygon fill="#A80036" points="185.0511,569.998,194.4502,567.0556,188.8048,566.695,189.1654,561.0497,185.0511,569.998" style="stroke: #A80036; stroke-width: 1.0;"/><text fill="#000000" font-family="sans-serif" font-size="13" lengthAdjust="spacingAndGlyphs" textLength="157" x="303" y="479.5684">itemFileObserverRegistry</text><!--
@startuml

    namespace de.interactive_instruments.etf.component.loaders {

        interface ItemRegistry [[ItemRegistry.html]] {
            {abstract} +register(Collection<?>): void
            {abstract} +deregister(Collection<?>): void
            {abstract} +update(Collection<?>): void
            {abstract} +lookupDependency(Collection<EID>, ItemRegistry.DependencyChangeListener): EidHolderMap<?>
            {abstract} +deregisterCallback(ItemRegistry.DependencyChangeListener): void
            {abstract} +lookup(Collection<EID>): EidHolderMap<?>
        }

        interface de.interactive_instruments.etf.component.loaders.ItemRegistry.DependencyChangeListener [[ItemRegistry.DependencyChangeListener.html]] {
            {abstract} +fireEventDependencyResolved(Dto): void
            {abstract} +fireEventDependencyDeregistered(Class<?>, EID): void
            {abstract} +fireEventDependencyUpdated(Dto): void
        }

        interface ItemFileObserverRegistry [[ItemFileObserverRegistry.html]] {
            {abstract} +register(Path, List<?>): void
            {abstract} +deregister(List<?>): void
        }

        interface LoadingContext [[LoadingContext.html]] {
        }

        class NullItemRegistry [[NullItemRegistry.html]] {
            {static} +instance(): ItemRegistry
            +register(Collection<?>): void
            +deregister(Collection<?>): void
            +deregisterCallback(ItemRegistry.DependencyChangeListener): void
            +update(Collection<?>): void
            +lookupDependency(Collection<EID>, ItemRegistry.DependencyChangeListener): EidHolderMap<?>
            +lookup(Collection<EID>): EidHolderMap<?>
        }

        class NullItemFileObserverRegistry [[NullItemFileObserverRegistry.html]] {
            {static} +instance(): NullItemFileObserverRegistry
            +register(Path, List<?>): void
            +deregister(List<?>): void
        }

        interface ItemFileLoaderFactory [[ItemFileLoaderFactory.html]] {
            +getPriority(): int
            {abstract} +couldHandle(Path): boolean
            {abstract} +load(Path): ItemFileLoaderFactory.FileChangeListener
        }

        interface de.interactive_instruments.etf.component.loaders.ItemFileLoaderFactory.FileChangeListener [[ItemFileLoaderFactory.FileChangeListener.html]] {
            {abstract} +eventFileCreated(): void
            {abstract} +eventFileDeleted(): void
            {abstract} +eventFileUpdated(): void
        }

        class NullLoadingContext [[NullLoadingContext.html]] {
            {static} +instance(): NullLoadingContext
        }

        ItemRegistry +- - de.interactive_instruments.etf.component.loaders.ItemRegistry.DependencyChangeListener

        ItemRegistry <|.. NullItemRegistry

        ItemFileObserverRegistry <|.. NullItemFileObserverRegistry

        interface de.interactive_instruments.Releasable {
            {abstract} +release(): void
        }
        de.interactive_instruments.Releasable <|.. de.interactive_instruments.etf.component.loaders.ItemFileLoaderFactory.FileChangeListener

        interface java.lang.Comparable<T> {
            {abstract} +compareTo(T): int
        }
        java.lang.Comparable <|.. de.interactive_instruments.etf.component.loaders.ItemFileLoaderFactory.FileChangeListener

        ItemFileLoaderFactory +- - de.interactive_instruments.etf.component.loaders.ItemFileLoaderFactory.FileChangeListener

        LoadingContext <|.. NullLoadingContext

        LoadingContext - -> ItemRegistry: itemRegistry

        LoadingContext - -> ItemFileObserverRegistry: itemFileObserverRegistry

        NullLoadingContext - -> ItemRegistry: itemRegistry

        NullLoadingContext - -> ItemFileObserverRegistry: itemFileObserverRegistry

    }

@enduml

PlantUML version 1.2018.08(Sun Jun 24 14:31:00 CEST 2018)
(APACHE source distribution)
Java Runtime: Java(TM) SE Runtime Environment
JVM: Java HotSpot(TM) 64-Bit Server VM
Java Version: 1.8.0_151-b12
Operating System: Mac OS X
OS Version: 10.14.2
Default Encoding: UTF-8
Language: en
Country: US
--></g></svg>