<?xml version="1.0" encoding="UTF-8" standalone="no"?><svg xmlns="http://www.w3.org/2000/svg" xmlns:xlink="http://www.w3.org/1999/xlink" contentScriptType="application/ecmascript" contentStyleType="text/css" height="222px" preserveAspectRatio="none" style="width:267px;height:222px;" version="1.1" viewBox="0 0 267 222" width="267px" zoomAndPan="magnify"><defs><filter height="300%" id="f1863ri4mptzq9" width="300%" x="-1" y="-1"><feGaussianBlur result="blurOut" stdDeviation="2.0"/><feColorMatrix in="blurOut" result="blurOut2" type="matrix" values="0 0 0 0 0 0 0 0 0 0 0 0 0 0 0 0 0 0 .4 0"/><feOffset dx="4.0" dy="4.0" in="blurOut2" result="blurOut3"/><feBlend in="SourceGraphic" in2="blurOut3" mode="normal"/></filter></defs><g><!--class DefaultEidHolderMap--><a target="_top" xlink:actuate="onRequest" xlink:href="DefaultEidHolderMap.html" xlink:show="new" xlink:title="DefaultEidHolderMap.html" xlink:type="simple"><rect fill="#FEFECE" filter="url(#f1863ri4mptzq9)" height="203.4609" id="DefaultEidHolderMap" style="stroke: #A80036; stroke-width: 1.5;" width="247" x="6" y="8"/><ellipse cx="57.75" cy="24" fill="#ADD1B2" rx="11" ry="11" style="stroke: #A80036; stroke-width: 1.0;"/><path d="M60.2231,30.1431 Q59.6421,30.4419 59.0029,30.5913 Q58.3638,30.7407 57.6582,30.7407 Q55.1514,30.7407 53.8315,29.0889 Q52.5117,27.437 52.5117,24.3159 Q52.5117,21.1865 53.8315,19.5347 Q55.1514,17.8828 57.6582,17.8828 Q58.3638,17.8828 59.0112,18.0322 Q59.6587,18.1816 60.2231,18.4805 L60.2231,21.2031 Q59.5923,20.6221 58.9988,20.3523 Q58.4053,20.0825 57.7744,20.0825 Q56.4297,20.0825 55.7449,21.1492 Q55.0601,22.2158 55.0601,24.3159 Q55.0601,26.4077 55.7449,27.4744 Q56.4297,28.541 57.7744,28.541 Q58.4053,28.541 58.9988,28.2712 Q59.5923,28.0015 60.2231,27.4204 Z "/><text fill="#000000" font-family="sans-serif" font-size="12" lengthAdjust="spacingAndGlyphs" textLength="123" x="78.25" y="28.5352">DefaultEidHolderMap</text><rect fill="#FFFFFF" height="16.1328" style="stroke: #000000; stroke-width: 1.0; stroke-dasharray: 2.0,2.0;" width="10" x="246" y="5"/><text fill="#000000" font-family="sans-serif" font-size="12" font-style="italic" lengthAdjust="spacingAndGlyphs" textLength="8" x="247" y="17.6016">V</text><line style="stroke: #A80036; stroke-width: 1.5;" x1="7" x2="252" y1="40" y2="40"/><line style="stroke: #A80036; stroke-width: 1.5;" x1="7" x2="252" y1="48" y2="48"/><ellipse cx="17" cy="59.9775" fill="#84BE84" rx="3" ry="3" style="stroke: #038048; stroke-width: 1.0;"/><text fill="#000000" font-family="sans-serif" font-size="11" lengthAdjust="spacingAndGlyphs" textLength="120" x="26" y="62.6348">DefaultEidHolderMap()</text><ellipse cx="17" cy="72.9326" fill="#84BE84" rx="3" ry="3" style="stroke: #038048; stroke-width: 1.0;"/><text fill="#000000" font-family="sans-serif" font-size="11" lengthAdjust="spacingAndGlyphs" textLength="190" x="26" y="75.5898">DefaultEidHolderMap(Map&lt;EID, V&gt;)</text><ellipse cx="17" cy="85.8877" fill="#84BE84" rx="3" ry="3" style="stroke: #038048; stroke-width: 1.0;"/><text fill="#000000" font-family="sans-serif" font-size="11" lengthAdjust="spacingAndGlyphs" textLength="199" x="26" y="88.5449">DefaultEidHolderMap(Collection&lt;V&gt;)</text><ellipse cx="17" cy="98.8428" fill="#84BE84" rx="3" ry="3" style="stroke: #038048; stroke-width: 1.0;"/><text fill="#000000" font-family="sans-serif" font-size="11" lengthAdjust="spacingAndGlyphs" textLength="135" x="26" y="101.5">DefaultEidHolderMap(V[])</text><ellipse cx="17" cy="111.7979" fill="#84BE84" rx="3" ry="3" style="stroke: #038048; stroke-width: 1.0;"/><text fill="#000000" font-family="sans-serif" font-size="11" lengthAdjust="spacingAndGlyphs" textLength="127" x="26" y="114.4551">DefaultEidHolderMap(V)</text><ellipse cx="17" cy="124.7529" fill="#84BE84" rx="3" ry="3" style="stroke: #038048; stroke-width: 1.0;"/><text fill="#000000" font-family="sans-serif" font-size="11" lengthAdjust="spacingAndGlyphs" textLength="183" x="26" y="127.4102">unmodifiable(): EidHolderMap&lt;V&gt;</text><ellipse cx="17" cy="137.708" fill="#84BE84" rx="3" ry="3" style="stroke: #038048; stroke-width: 1.0;"/><text fill="#000000" font-family="sans-serif" font-size="11" lengthAdjust="spacingAndGlyphs" textLength="174" x="26" y="140.3652">createCopy(): EidHolderMap&lt;V&gt;</text><ellipse cx="17" cy="150.6631" fill="#84BE84" rx="3" ry="3" style="stroke: #038048; stroke-width: 1.0;"/><text fill="#000000" font-family="sans-serif" font-size="11" lengthAdjust="spacingAndGlyphs" textLength="98" x="26" y="153.3203">toSet(): EidSet&lt;V&gt;</text><ellipse cx="17" cy="163.6182" fill="#84BE84" rx="3" ry="3" style="stroke: #038048; stroke-width: 1.0;"/><text fill="#000000" font-family="sans-serif" font-size="11" lengthAdjust="spacingAndGlyphs" textLength="221" x="26" y="166.2754">getAll(Collection&lt;?&gt;): EidHolderMap&lt;V&gt;</text><ellipse cx="17" cy="176.5732" fill="#84BE84" rx="3" ry="3" style="stroke: #038048; stroke-width: 1.0;"/><text fill="#000000" font-family="sans-serif" font-size="11" lengthAdjust="spacingAndGlyphs" textLength="48" x="26" y="179.2305">add(V): V</text><ellipse cx="17" cy="189.5283" fill="#84BE84" rx="3" ry="3" style="stroke: #038048; stroke-width: 1.0;"/><text fill="#000000" font-family="sans-serif" font-size="11" lengthAdjust="spacingAndGlyphs" textLength="150" x="26" y="192.1855">addAll(Collection&lt;V&gt;): void</text><ellipse cx="17" cy="202.4834" fill="#84BE84" rx="3" ry="3" style="stroke: #038048; stroke-width: 1.0;"/><text fill="#000000" font-family="sans-serif" font-size="11" lengthAdjust="spacingAndGlyphs" text-decoration="underline" textLength="170" x="26" y="205.1406">singleton(V): EidHolderMap&lt;V&gt;</text><line style="stroke: #000000; stroke-width: 1.0;" x1="26" x2="196" y1="207.1406" y2="207.1406"/></a><!--
@startuml

    class DefaultEidHolderMap<V> [[DefaultEidHolderMap.html]] {
        +DefaultEidHolderMap()
        +DefaultEidHolderMap(Map<EID, V>)
        +DefaultEidHolderMap(Collection<V>)
        +DefaultEidHolderMap(V[])
        +DefaultEidHolderMap(V)
        +unmodifiable(): EidHolderMap<V>
        +createCopy(): EidHolderMap<V>
        +toSet(): EidSet<V>
        +getAll(Collection<?>): EidHolderMap<V>
        +add(V): V
        +addAll(Collection<V>): void
        {static} +singleton(V): EidHolderMap<V>
    }

@enduml

PlantUML version 1.2018.08(Sun Jun 24 14:31:00 CEST 2018)
(APACHE source distribution)
Java Runtime: Java(TM) SE Runtime Environment
JVM: Java HotSpot(TM) 64-Bit Server VM
Java Version: 1.8.0_151-b12
Operating System: Mac OS X
OS Version: 10.14.2
Default Encoding: UTF-8
Language: en
Country: US
--></g></svg>