<?xml version="1.0" encoding="UTF-8" standalone="no"?><svg xmlns="http://www.w3.org/2000/svg" xmlns:xlink="http://www.w3.org/1999/xlink" contentScriptType="application/ecmascript" contentStyleType="text/css" height="300px" preserveAspectRatio="none" style="width:252px;height:300px;" version="1.1" viewBox="0 0 252 300" width="252px" zoomAndPan="magnify"><defs><filter height="300%" id="f14lnvtfexlmwv" width="300%" x="-1" y="-1"><feGaussianBlur result="blurOut" stdDeviation="2.0"/><feColorMatrix in="blurOut" result="blurOut2" type="matrix" values="0 0 0 0 0 0 0 0 0 0 0 0 0 0 0 0 0 0 .4 0"/><feOffset dx="4.0" dy="4.0" in="blurOut2" result="blurOut3"/><feBlend in="SourceGraphic" in2="blurOut3" mode="normal"/></filter></defs><g><!--class DefaultEidMap--><a target="_top" xlink:actuate="onRequest" xlink:href="DefaultEidMap.html" xlink:show="new" xlink:title="DefaultEidMap.html" xlink:type="simple"><rect fill="#FEFECE" filter="url(#f14lnvtfexlmwv)" height="281.1914" id="DefaultEidMap" style="stroke: #A80036; stroke-width: 1.5;" width="232" x="6" y="8"/><ellipse cx="69.75" cy="24" fill="#ADD1B2" rx="11" ry="11" style="stroke: #A80036; stroke-width: 1.0;"/><path d="M72.2231,30.1431 Q71.6421,30.4419 71.0029,30.5913 Q70.3638,30.7407 69.6582,30.7407 Q67.1514,30.7407 65.8315,29.0889 Q64.5117,27.437 64.5117,24.3159 Q64.5117,21.1865 65.8315,19.5347 Q67.1514,17.8828 69.6582,17.8828 Q70.3638,17.8828 71.0112,18.0322 Q71.6587,18.1816 72.2231,18.4805 L72.2231,21.2031 Q71.5923,20.6221 70.9988,20.3523 Q70.4053,20.0825 69.7744,20.0825 Q68.4297,20.0825 67.7449,21.1492 Q67.0601,22.2158 67.0601,24.3159 Q67.0601,26.4077 67.7449,27.4744 Q68.4297,28.541 69.7744,28.541 Q70.4053,28.541 70.9988,28.2712 Q71.5923,28.0015 72.2231,27.4204 Z "/><text fill="#000000" font-family="sans-serif" font-size="12" lengthAdjust="spacingAndGlyphs" textLength="84" x="90.25" y="28.5352">DefaultEidMap</text><rect fill="#FFFFFF" height="16.1328" style="stroke: #000000; stroke-width: 1.0; stroke-dasharray: 2.0,2.0;" width="10" x="231" y="5"/><text fill="#000000" font-family="sans-serif" font-size="12" font-style="italic" lengthAdjust="spacingAndGlyphs" textLength="8" x="232" y="17.6016">V</text><line style="stroke: #A80036; stroke-width: 1.5;" x1="7" x2="237" y1="40" y2="40"/><line style="stroke: #A80036; stroke-width: 1.5;" x1="7" x2="237" y1="48" y2="48"/><ellipse cx="17" cy="59.9775" fill="#84BE84" rx="3" ry="3" style="stroke: #038048; stroke-width: 1.0;"/><text fill="#000000" font-family="sans-serif" font-size="11" lengthAdjust="spacingAndGlyphs" textLength="84" x="26" y="62.6348">DefaultEidMap()</text><ellipse cx="17" cy="72.9326" fill="#84BE84" rx="3" ry="3" style="stroke: #038048; stroke-width: 1.0;"/><text fill="#000000" font-family="sans-serif" font-size="11" lengthAdjust="spacingAndGlyphs" textLength="154" x="26" y="75.5898">DefaultEidMap(Map&lt;EID, V&gt;)</text><ellipse cx="17" cy="85.8877" fill="#84BE84" rx="3" ry="3" style="stroke: #038048; stroke-width: 1.0;"/><text fill="#000000" font-family="sans-serif" font-size="11" lengthAdjust="spacingAndGlyphs" textLength="147" x="26" y="88.5449">unmodifiable(): EidMap&lt;V&gt;</text><ellipse cx="17" cy="98.8428" fill="#84BE84" rx="3" ry="3" style="stroke: #038048; stroke-width: 1.0;"/><text fill="#000000" font-family="sans-serif" font-size="11" lengthAdjust="spacingAndGlyphs" textLength="138" x="26" y="101.5">createCopy(): EidMap&lt;V&gt;</text><ellipse cx="17" cy="111.7979" fill="#84BE84" rx="3" ry="3" style="stroke: #038048; stroke-width: 1.0;"/><text fill="#000000" font-family="sans-serif" font-size="11" lengthAdjust="spacingAndGlyphs" textLength="185" x="26" y="114.4551">getAll(Collection&lt;?&gt;): EidMap&lt;V&gt;</text><ellipse cx="17" cy="124.7529" fill="#84BE84" rx="3" ry="3" style="stroke: #038048; stroke-width: 1.0;"/><text fill="#000000" font-family="sans-serif" font-size="11" lengthAdjust="spacingAndGlyphs" textLength="168" x="26" y="127.4102">removeAll(Collection&lt;?&gt;): void</text><ellipse cx="17" cy="137.708" fill="#84BE84" rx="3" ry="3" style="stroke: #038048; stroke-width: 1.0;"/><text fill="#000000" font-family="sans-serif" font-size="11" lengthAdjust="spacingAndGlyphs" textLength="49" x="26" y="140.3652">size(): int</text><ellipse cx="17" cy="150.6631" fill="#84BE84" rx="3" ry="3" style="stroke: #038048; stroke-width: 1.0;"/><text fill="#000000" font-family="sans-serif" font-size="11" lengthAdjust="spacingAndGlyphs" textLength="99" x="26" y="153.3203">isEmpty(): boolean</text><ellipse cx="17" cy="163.6182" fill="#84BE84" rx="3" ry="3" style="stroke: #038048; stroke-width: 1.0;"/><text fill="#000000" font-family="sans-serif" font-size="11" lengthAdjust="spacingAndGlyphs" textLength="206" x="26" y="166.2754">_internalContainsKey(Object): boolean</text><ellipse cx="17" cy="176.5732" fill="#84BE84" rx="3" ry="3" style="stroke: #038048; stroke-width: 1.0;"/><text fill="#000000" font-family="sans-serif" font-size="11" lengthAdjust="spacingAndGlyphs" textLength="167" x="26" y="179.2305">containsValue(Object): boolean</text><ellipse cx="17" cy="189.5283" fill="#84BE84" rx="3" ry="3" style="stroke: #038048; stroke-width: 1.0;"/><text fill="#000000" font-family="sans-serif" font-size="11" lengthAdjust="spacingAndGlyphs" textLength="69" x="26" y="192.1855">put(EID, V): V</text><ellipse cx="17" cy="202.4834" fill="#84BE84" rx="3" ry="3" style="stroke: #038048; stroke-width: 1.0;"/><text fill="#000000" font-family="sans-serif" font-size="11" lengthAdjust="spacingAndGlyphs" textLength="145" x="26" y="205.1406">_internalRemove(Object): V</text><ellipse cx="17" cy="215.4385" fill="#84BE84" rx="3" ry="3" style="stroke: #038048; stroke-width: 1.0;"/><text fill="#000000" font-family="sans-serif" font-size="11" lengthAdjust="spacingAndGlyphs" textLength="125" x="26" y="218.0957">putAll(Map&lt;?, ?&gt;): void</text><ellipse cx="17" cy="228.3936" fill="#84BE84" rx="3" ry="3" style="stroke: #038048; stroke-width: 1.0;"/><text fill="#000000" font-family="sans-serif" font-size="11" lengthAdjust="spacingAndGlyphs" textLength="63" x="26" y="231.0508">clear(): void</text><ellipse cx="17" cy="241.3486" fill="#84BE84" rx="3" ry="3" style="stroke: #038048; stroke-width: 1.0;"/><text fill="#000000" font-family="sans-serif" font-size="11" lengthAdjust="spacingAndGlyphs" textLength="99" x="26" y="244.0059">keySet(): Set&lt;EID&gt;</text><ellipse cx="17" cy="254.3037" fill="#84BE84" rx="3" ry="3" style="stroke: #038048; stroke-width: 1.0;"/><text fill="#000000" font-family="sans-serif" font-size="11" lengthAdjust="spacingAndGlyphs" textLength="127" x="26" y="256.9609">values(): Collection&lt;V&gt;</text><ellipse cx="17" cy="267.2588" fill="#84BE84" rx="3" ry="3" style="stroke: #038048; stroke-width: 1.0;"/><text fill="#000000" font-family="sans-serif" font-size="11" lengthAdjust="spacingAndGlyphs" textLength="193" x="26" y="269.916">entrySet(): Set&lt;Map.Entry&lt;EID, V&gt;&gt;</text><ellipse cx="17" cy="280.2139" fill="#84BE84" rx="3" ry="3" style="stroke: #038048; stroke-width: 1.0;"/><text fill="#000000" font-family="sans-serif" font-size="11" lengthAdjust="spacingAndGlyphs" textLength="121" x="26" y="282.8711">_internalGet(Object): V</text></a><!--
@startuml

    class DefaultEidMap<V> [[DefaultEidMap.html]] {
        +DefaultEidMap()
        +DefaultEidMap(Map<EID, V>)
        +unmodifiable(): EidMap<V>
        +createCopy(): EidMap<V>
        +getAll(Collection<?>): EidMap<V>
        +removeAll(Collection<?>): void
        +size(): int
        +isEmpty(): boolean
        +_internalContainsKey(Object): boolean
        +containsValue(Object): boolean
        +put(EID, V): V
        +_internalRemove(Object): V
        +putAll(Map<?, ?>): void
        +clear(): void
        +keySet(): Set<EID>
        +values(): Collection<V>
        +entrySet(): Set<Map.Entry<EID, V>>
        +_internalGet(Object): V
    }

@enduml

PlantUML version 1.2018.08(Sun Jun 24 14:31:00 CEST 2018)
(APACHE source distribution)
Java Runtime: Java(TM) SE Runtime Environment
JVM: Java HotSpot(TM) 64-Bit Server VM
Java Version: 1.8.0_151-b12
Operating System: Mac OS X
OS Version: 10.14.2
Default Encoding: UTF-8
Language: en
Country: US
--></g></svg>