<?xml version="1.0" encoding="UTF-8" standalone="no"?><svg xmlns="http://www.w3.org/2000/svg" xmlns:xlink="http://www.w3.org/1999/xlink" contentScriptType="application/ecmascript" contentStyleType="text/css" height="331px" preserveAspectRatio="none" style="width:324px;height:331px;" version="1.1" viewBox="0 0 324 331" width="324px" zoomAndPan="magnify"><defs><filter height="300%" id="f14s4m82hu8qk6" width="300%" x="-1" y="-1"><feGaussianBlur result="blurOut" stdDeviation="2.0"/><feColorMatrix in="blurOut" result="blurOut2" type="matrix" values="0 0 0 0 0 0 0 0 0 0 0 0 0 0 0 0 0 0 .4 0"/><feOffset dx="4.0" dy="4.0" in="blurOut2" result="blurOut3"/><feBlend in="SourceGraphic" in2="blurOut3" mode="normal"/></filter></defs><g><!--cluster ParameterSet--><polygon fill="#FFFFFF" filter="url(#f14s4m82hu8qk6)" points="14,16,115,16,122,38.4883,302,38.4883,302,319,14,319,14,16" style="stroke: #000000; stroke-width: 1.5;"/><line style="stroke: #000000; stroke-width: 1.5;" x1="14" x2="122" y1="38.4883" y2="38.4883"/><text fill="#000000" font-family="sans-serif" font-size="14" font-weight="bold" lengthAdjust="spacingAndGlyphs" textLength="95" x="18" y="31.5352">ParameterSet</text><!--class ParameterSet.MutableParameter--><a target="_top" xlink:actuate="onRequest" xlink:href="ParameterSet.MutableParameter.html" xlink:show="new" xlink:title="ParameterSet.MutableParameter.html" xlink:type="simple"><rect fill="#FEFECE" filter="url(#f14s4m82hu8qk6)" height="268.2363" id="ParameterSet.MutableParameter" style="stroke: #A80036; stroke-width: 1.5;" width="272" x="22" y="43"/><ellipse cx="100.75" cy="59" fill="#ADD1B2" rx="11" ry="11" style="stroke: #A80036; stroke-width: 1.0;"/><path d="M103.2231,65.1431 Q102.6421,65.4419 102.0029,65.5913 Q101.3638,65.7407 100.6582,65.7407 Q98.1514,65.7407 96.8315,64.0889 Q95.5117,62.437 95.5117,59.3159 Q95.5117,56.1865 96.8315,54.5347 Q98.1514,52.8828 100.6582,52.8828 Q101.3638,52.8828 102.0112,53.0322 Q102.6587,53.1816 103.2231,53.4805 L103.2231,56.2031 Q102.5923,55.6221 101.9988,55.3523 Q101.4053,55.0825 100.7744,55.0825 Q99.4297,55.0825 98.7449,56.1492 Q98.0601,57.2158 98.0601,59.3159 Q98.0601,61.4077 98.7449,62.4744 Q99.4297,63.541 100.7744,63.541 Q101.4053,63.541 101.9988,63.2712 Q102.5923,63.0015 103.2231,62.4204 Z "/><text fill="#000000" font-family="sans-serif" font-size="12" lengthAdjust="spacingAndGlyphs" textLength="106" x="121.25" y="63.5352">MutableParameter</text><line style="stroke: #A80036; stroke-width: 1.5;" x1="23" x2="293" y1="75" y2="75"/><line style="stroke: #A80036; stroke-width: 1.5;" x1="23" x2="293" y1="83" y2="83"/><ellipse cx="33" cy="94.9775" fill="#84BE84" rx="3" ry="3" style="stroke: #038048; stroke-width: 1.0;"/><text fill="#000000" font-family="sans-serif" font-size="11" lengthAdjust="spacingAndGlyphs" textLength="104" x="42" y="97.6348">MutableParameter()</text><ellipse cx="33" cy="107.9326" fill="#84BE84" rx="3" ry="3" style="stroke: #038048; stroke-width: 1.0;"/><text fill="#000000" font-family="sans-serif" font-size="11" lengthAdjust="spacingAndGlyphs" textLength="246" x="42" y="110.5898">MutableParameter(Parameterizable.Parameter)</text><ellipse cx="33" cy="120.8877" fill="#84BE84" rx="3" ry="3" style="stroke: #038048; stroke-width: 1.0;"/><text fill="#000000" font-family="sans-serif" font-size="11" lengthAdjust="spacingAndGlyphs" textLength="174" x="42" y="123.5449">MutableParameter(String, String)</text><ellipse cx="33" cy="133.8428" fill="#84BE84" rx="3" ry="3" style="stroke: #038048; stroke-width: 1.0;"/><text fill="#000000" font-family="sans-serif" font-size="11" lengthAdjust="spacingAndGlyphs" textLength="115" x="42" y="136.5">setName(String): void</text><ellipse cx="33" cy="146.7979" fill="#84BE84" rx="3" ry="3" style="stroke: #038048; stroke-width: 1.0;"/><text fill="#000000" font-family="sans-serif" font-size="11" lengthAdjust="spacingAndGlyphs" textLength="152" x="42" y="149.4551">setDefaultValue(String): void</text><ellipse cx="33" cy="159.7529" fill="#84BE84" rx="3" ry="3" style="stroke: #038048; stroke-width: 1.0;"/><text fill="#000000" font-family="sans-serif" font-size="11" lengthAdjust="spacingAndGlyphs" textLength="147" x="42" y="162.4102">setDescription(String): void</text><ellipse cx="33" cy="172.708" fill="#84BE84" rx="3" ry="3" style="stroke: #038048; stroke-width: 1.0;"/><text fill="#000000" font-family="sans-serif" font-size="11" lengthAdjust="spacingAndGlyphs" textLength="162" x="42" y="175.3652">setAllowedValues(String): void</text><ellipse cx="33" cy="185.6631" fill="#84BE84" rx="3" ry="3" style="stroke: #038048; stroke-width: 1.0;"/><text fill="#000000" font-family="sans-serif" font-size="11" lengthAdjust="spacingAndGlyphs" textLength="111" x="42" y="188.3203">setType(String): void</text><ellipse cx="33" cy="198.6182" fill="#84BE84" rx="3" ry="3" style="stroke: #038048; stroke-width: 1.0;"/><text fill="#000000" font-family="sans-serif" font-size="11" lengthAdjust="spacingAndGlyphs" textLength="144" x="42" y="201.2754">setRequired(boolean): void</text><ellipse cx="33" cy="211.5732" fill="#84BE84" rx="3" ry="3" style="stroke: #038048; stroke-width: 1.0;"/><text fill="#000000" font-family="sans-serif" font-size="11" lengthAdjust="spacingAndGlyphs" textLength="226" x="42" y="214.2305">setExcludingParameter(Set&lt;String&gt;): void</text><ellipse cx="33" cy="224.5283" fill="#84BE84" rx="3" ry="3" style="stroke: #038048; stroke-width: 1.0;"/><text fill="#000000" font-family="sans-serif" font-size="11" lengthAdjust="spacingAndGlyphs" textLength="93" x="42" y="227.1855">getName(): String</text><ellipse cx="33" cy="237.4834" fill="#84BE84" rx="3" ry="3" style="stroke: #038048; stroke-width: 1.0;"/><text fill="#000000" font-family="sans-serif" font-size="11" lengthAdjust="spacingAndGlyphs" textLength="130" x="42" y="240.1406">getDefaultValue(): String</text><ellipse cx="33" cy="250.4385" fill="#84BE84" rx="3" ry="3" style="stroke: #038048; stroke-width: 1.0;"/><text fill="#000000" font-family="sans-serif" font-size="11" lengthAdjust="spacingAndGlyphs" textLength="125" x="42" y="253.0957">getDescription(): String</text><ellipse cx="33" cy="263.3936" fill="#84BE84" rx="3" ry="3" style="stroke: #038048; stroke-width: 1.0;"/><text fill="#000000" font-family="sans-serif" font-size="11" lengthAdjust="spacingAndGlyphs" textLength="140" x="42" y="266.0508">getAllowedValues(): String</text><ellipse cx="33" cy="276.3486" fill="#84BE84" rx="3" ry="3" style="stroke: #038048; stroke-width: 1.0;"/><text fill="#000000" font-family="sans-serif" font-size="11" lengthAdjust="spacingAndGlyphs" textLength="89" x="42" y="279.0059">getType(): String</text><ellipse cx="33" cy="289.3037" fill="#84BE84" rx="3" ry="3" style="stroke: #038048; stroke-width: 1.0;"/><text fill="#000000" font-family="sans-serif" font-size="11" lengthAdjust="spacingAndGlyphs" textLength="114" x="42" y="291.9609">isRequired(): boolean</text><ellipse cx="33" cy="302.2588" fill="#84BE84" rx="3" ry="3" style="stroke: #038048; stroke-width: 1.0;"/><text fill="#000000" font-family="sans-serif" font-size="11" lengthAdjust="spacingAndGlyphs" textLength="204" x="42" y="304.916">getExcludingParameter(): Set&lt;String&gt;</text></a><!--
@startuml

    class ParameterSet.MutableParameter [[ParameterSet.MutableParameter.html]] {
        +MutableParameter()
        +MutableParameter(Parameterizable.Parameter)
        +MutableParameter(String, String)
        +setName(String): void
        +setDefaultValue(String): void
        +setDescription(String): void
        +setAllowedValues(String): void
        +setType(String): void
        +setRequired(boolean): void
        +setExcludingParameter(Set<String>): void
        +getName(): String
        +getDefaultValue(): String
        +getDescription(): String
        +getAllowedValues(): String
        +getType(): String
        +isRequired(): boolean
        +getExcludingParameter(): Set<String>
    }

@enduml

PlantUML version 1.2018.08(Sun Jun 24 14:31:00 CEST 2018)
(APACHE source distribution)
Java Runtime: Java(TM) SE Runtime Environment
JVM: Java HotSpot(TM) 64-Bit Server VM
Java Version: 1.8.0_151-b12
Operating System: Mac OS X
OS Version: 10.14.2
Default Encoding: UTF-8
Language: en
Country: US
--></g></svg>