<?xml version="1.0" encoding="UTF-8" standalone="no"?><svg xmlns="http://www.w3.org/2000/svg" xmlns:xlink="http://www.w3.org/1999/xlink" contentScriptType="application/ecmascript" contentStyleType="text/css" height="183px" preserveAspectRatio="none" style="width:348px;height:183px;" version="1.1" viewBox="0 0 348 183" width="348px" zoomAndPan="magnify"><defs><filter height="300%" id="f1hq36achmza19" width="300%" x="-1" y="-1"><feGaussianBlur result="blurOut" stdDeviation="2.0"/><feColorMatrix in="blurOut" result="blurOut2" type="matrix" values="0 0 0 0 0 0 0 0 0 0 0 0 0 0 0 0 0 0 .4 0"/><feOffset dx="4.0" dy="4.0" in="blurOut2" result="blurOut3"/><feBlend in="SourceGraphic" in2="blurOut3" mode="normal"/></filter></defs><g><!--class ParameterSet--><a target="_top" xlink:actuate="onRequest" xlink:href="ParameterSet.html" xlink:show="new" xlink:title="ParameterSet.html" xlink:type="simple"><rect fill="#FEFECE" filter="url(#f1hq36achmza19)" height="164.5957" id="ParameterSet" style="stroke: #A80036; stroke-width: 1.5;" width="331" x="6" y="8"/><ellipse cx="128.75" cy="24" fill="#ADD1B2" rx="11" ry="11" style="stroke: #A80036; stroke-width: 1.0;"/><path d="M131.2231,30.1431 Q130.6421,30.4419 130.0029,30.5913 Q129.3638,30.7407 128.6582,30.7407 Q126.1514,30.7407 124.8315,29.0889 Q123.5117,27.437 123.5117,24.3159 Q123.5117,21.1865 124.8315,19.5347 Q126.1514,17.8828 128.6582,17.8828 Q129.3638,17.8828 130.0112,18.0322 Q130.6587,18.1816 131.2231,18.4805 L131.2231,21.2031 Q130.5923,20.6221 129.9988,20.3523 Q129.4053,20.0825 128.7744,20.0825 Q127.4297,20.0825 126.7449,21.1492 Q126.0601,22.2158 126.0601,24.3159 Q126.0601,26.4077 126.7449,27.4744 Q127.4297,28.541 128.7744,28.541 Q129.4053,28.541 129.9988,28.2712 Q130.5923,28.0015 131.2231,27.4204 Z "/><text fill="#000000" font-family="sans-serif" font-size="12" lengthAdjust="spacingAndGlyphs" textLength="77" x="149.25" y="28.5352">ParameterSet</text><line style="stroke: #A80036; stroke-width: 1.5;" x1="7" x2="336" y1="40" y2="40"/><line style="stroke: #A80036; stroke-width: 1.5;" x1="7" x2="336" y1="48" y2="48"/><ellipse cx="17" cy="59.9775" fill="#84BE84" rx="3" ry="3" style="stroke: #038048; stroke-width: 1.0;"/><text fill="#000000" font-family="sans-serif" font-size="11" lengthAdjust="spacingAndGlyphs" textLength="78" x="26" y="62.6348">ParameterSet()</text><ellipse cx="17" cy="72.9326" fill="#84BE84" rx="3" ry="3" style="stroke: #038048; stroke-width: 1.0;"/><text fill="#000000" font-family="sans-serif" font-size="11" lengthAdjust="spacingAndGlyphs" textLength="148" x="26" y="75.5898">ParameterSet(ParameterSet)</text><ellipse cx="17" cy="85.8877" fill="#84BE84" rx="3" ry="3" style="stroke: #038048; stroke-width: 1.0;"/><text fill="#000000" font-family="sans-serif" font-size="11" lengthAdjust="spacingAndGlyphs" textLength="261" x="26" y="88.5449">asNameDefaultValuePairs(): Collection&lt;String[]&gt;</text><ellipse cx="17" cy="98.8428" fill="#84BE84" rx="3" ry="3" style="stroke: #038048; stroke-width: 1.0;"/><text fill="#000000" font-family="sans-serif" font-size="11" lengthAdjust="spacingAndGlyphs" textLength="152" x="26" y="101.5">getParamTypeName(): String</text><ellipse cx="17" cy="111.7979" fill="#84BE84" rx="3" ry="3" style="stroke: #038048; stroke-width: 1.0;"/><text fill="#000000" font-family="sans-serif" font-size="11" lengthAdjust="spacingAndGlyphs" textLength="305" x="26" y="114.4551">getParameters(): Collection&lt;Parameterizable.Parameter&gt;</text><ellipse cx="17" cy="124.7529" fill="#84BE84" rx="3" ry="3" style="stroke: #038048; stroke-width: 1.0;"/><text fill="#000000" font-family="sans-serif" font-size="11" lengthAdjust="spacingAndGlyphs" textLength="259" x="26" y="127.4102">getParameter(String): Parameterizable.Parameter</text><ellipse cx="17" cy="137.708" fill="#84BE84" rx="3" ry="3" style="stroke: #038048; stroke-width: 1.0;"/><text fill="#000000" font-family="sans-serif" font-size="11" lengthAdjust="spacingAndGlyphs" textLength="181" x="26" y="140.3652">addParameter(String, String): void</text><ellipse cx="17" cy="150.6631" fill="#84BE84" rx="3" ry="3" style="stroke: #038048; stroke-width: 1.0;"/><text fill="#000000" font-family="sans-serif" font-size="11" lengthAdjust="spacingAndGlyphs" textLength="253" x="26" y="153.3203">addParameter(Parameterizable.Parameter): void</text><ellipse cx="17" cy="163.6182" fill="#84BE84" rx="3" ry="3" style="stroke: #038048; stroke-width: 1.0;"/><text fill="#000000" font-family="sans-serif" font-size="11" lengthAdjust="spacingAndGlyphs" textLength="99" x="26" y="166.2754">isEmpty(): boolean</text></a><!--
@startuml

    class ParameterSet [[ParameterSet.html]] {
        +ParameterSet()
        +ParameterSet(ParameterSet)
        +asNameDefaultValuePairs(): Collection<String[]>
        +getParamTypeName(): String
        +getParameters(): Collection<Parameterizable.Parameter>
        +getParameter(String): Parameterizable.Parameter
        +addParameter(String, String): void
        +addParameter(Parameterizable.Parameter): void
        +isEmpty(): boolean
    }

@enduml

PlantUML version 1.2018.08(Sun Jun 24 14:31:00 CEST 2018)
(APACHE source distribution)
Java Runtime: Java(TM) SE Runtime Environment
JVM: Java HotSpot(TM) 64-Bit Server VM
Java Version: 1.8.0_151-b12
Operating System: Mac OS X
OS Version: 10.14.2
Default Encoding: UTF-8
Language: en
Country: US
--></g></svg>