<?xml version="1.0" encoding="UTF-8" standalone="no"?><svg xmlns="http://www.w3.org/2000/svg" xmlns:xlink="http://www.w3.org/1999/xlink" contentScriptType="application/ecmascript" contentStyleType="text/css" height="853px" preserveAspectRatio="none" style="width:1089px;height:853px;" version="1.1" viewBox="0 0 1089 853" width="1089px" zoomAndPan="magnify"><defs><filter height="300%" id="f1amqc4yrui56n" width="300%" x="-1" y="-1"><feGaussianBlur result="blurOut" stdDeviation="2.0"/><feColorMatrix in="blurOut" result="blurOut2" type="matrix" values="0 0 0 0 0 0 0 0 0 0 0 0 0 0 0 0 0 0 .4 0"/><feOffset dx="4.0" dy="4.0" in="blurOut2" result="blurOut3"/><feBlend in="SourceGraphic" in2="blurOut3" mode="normal"/></filter></defs><g><!--cluster de.interactive_instruments.etf.repository--><polygon fill="#FFFFFF" filter="url(#f1amqc4yrui56n)" points="128,156,425,156,432,178.4883,719,178.4883,719,841,128,841,128,156" style="stroke: #000000; stroke-width: 1.5;"/><line style="stroke: #000000; stroke-width: 1.5;" x1="128" x2="432" y1="178.4883" y2="178.4883"/><text fill="#000000" font-family="sans-serif" font-size="14" font-weight="bold" lengthAdjust="spacingAndGlyphs" textLength="291" x="132" y="171.5352">de.interactive_instruments.etf.repository</text><!--cluster de.interactive_instruments--><polygon fill="#FFFFFF" filter="url(#f1amqc4yrui56n)" points="379,22.5,576,22.5,583,44.9883,1067,44.9883,1067,118.5,379,118.5,379,22.5" style="stroke: #000000; stroke-width: 1.5;"/><line style="stroke: #000000; stroke-width: 1.5;" x1="379" x2="583" y1="44.9883" y2="44.9883"/><text fill="#000000" font-family="sans-serif" font-size="14" font-weight="bold" lengthAdjust="spacingAndGlyphs" textLength="191" x="383" y="38.0352">de.interactive_instruments</text><!--cluster de.interactive_instruments.model.std--><polygon fill="#FFFFFF" filter="url(#f1amqc4yrui56n)" points="14,16,285,16,292,38.4883,355,38.4883,355,125,14,125,14,16" style="stroke: #000000; stroke-width: 1.5;"/><line style="stroke: #000000; stroke-width: 1.5;" x1="14" x2="292" y1="38.4883" y2="38.4883"/><text fill="#000000" font-family="sans-serif" font-size="14" font-weight="bold" lengthAdjust="spacingAndGlyphs" textLength="265" x="18" y="31.5352">de.interactive_instruments.model.std</text><!--cluster java.lang--><polygon fill="#FFFFFF" filter="url(#f1amqc4yrui56n)" points="727,361,796,361,803,383.4883,865,383.4883,865,457,727,457,727,361" style="stroke: #000000; stroke-width: 1.5;"/><line style="stroke: #000000; stroke-width: 1.5;" x1="727" x2="803" y1="383.4883" y2="383.4883"/><text fill="#000000" font-family="sans-serif" font-size="14" font-weight="bold" lengthAdjust="spacingAndGlyphs" textLength="63" x="731" y="376.5352">java.lang</text><!--class de.interactive_instruments.etf.repository.RemoteRepositoryItem--><a target="_top" xlink:actuate="onRequest" xlink:href="RemoteRepositoryItem.html" xlink:show="new" xlink:title="RemoteRepositoryItem.html" xlink:type="simple"><rect fill="#FEFECE" filter="url(#f1amqc4yrui56n)" height="99.8203" id="de.interactive_instruments.etf.repository.RemoteRepositoryItem" style="stroke: #A80036; stroke-width: 1.5;" width="162" x="546" y="733"/><ellipse cx="561" cy="749" fill="#B4A7E5" rx="11" ry="11" style="stroke: #A80036; stroke-width: 1.0;"/><path d="M557.4277,745.2651 L557.4277,743.1069 L564.8071,743.1069 L564.8071,745.2651 L562.3418,745.2651 L562.3418,753.3418 L564.8071,753.3418 L564.8071,755.5 L557.4277,755.5 L557.4277,753.3418 L559.8931,753.3418 L559.8931,745.2651 Z "/><text fill="#000000" font-family="sans-serif" font-size="12" font-style="italic" lengthAdjust="spacingAndGlyphs" textLength="130" x="575" y="753.5352">RemoteRepositoryItem</text><line style="stroke: #A80036; stroke-width: 1.5;" x1="547" x2="707" y1="765" y2="765"/><line style="stroke: #A80036; stroke-width: 1.5;" x1="547" x2="707" y1="773" y2="773"/><ellipse cx="557" cy="784.9775" fill="#84BE84" rx="3" ry="3" style="stroke: #038048; stroke-width: 1.0;"/><text fill="#000000" font-family="sans-serif" font-size="11" font-style="italic" lengthAdjust="spacingAndGlyphs" textLength="134" x="566" y="787.6348">makeAvailable(Path): IFile</text><ellipse cx="557" cy="797.9326" fill="#84BE84" rx="3" ry="3" style="stroke: #038048; stroke-width: 1.0;"/><text fill="#000000" font-family="sans-serif" font-size="11" font-style="italic" lengthAdjust="spacingAndGlyphs" textLength="80" x="566" y="800.5898">getLocal(): IFile</text><ellipse cx="557" cy="810.8877" fill="#84BE84" rx="3" ry="3" style="stroke: #038048; stroke-width: 1.0;"/><text fill="#000000" font-family="sans-serif" font-size="11" font-style="italic" lengthAdjust="spacingAndGlyphs" textLength="114" x="566" y="813.5449">isAvailable(): boolean</text><ellipse cx="557" cy="823.8428" fill="#84BE84" rx="3" ry="3" style="stroke: #038048; stroke-width: 1.0;"/><text fill="#000000" font-family="sans-serif" font-size="11" font-style="italic" lengthAdjust="spacingAndGlyphs" textLength="77" x="566" y="826.5">remove(): void</text></a><!--class de.interactive_instruments.etf.repository.Repository--><a target="_top" xlink:actuate="onRequest" xlink:href="Repository.html" xlink:show="new" xlink:title="Repository.html" xlink:type="simple"><rect fill="#FEFECE" filter="url(#f1amqc4yrui56n)" height="138.6855" id="de.interactive_instruments.etf.repository.Repository" style="stroke: #A80036; stroke-width: 1.5;" width="336" x="375" y="183"/><ellipse cx="508.25" cy="199" fill="#B4A7E5" rx="11" ry="11" style="stroke: #A80036; stroke-width: 1.0;"/><path d="M504.6777,195.2651 L504.6777,193.1069 L512.0571,193.1069 L512.0571,195.2651 L509.5918,195.2651 L509.5918,203.3418 L512.0571,203.3418 L512.0571,205.5 L504.6777,205.5 L504.6777,203.3418 L507.1431,203.3418 L507.1431,195.2651 Z "/><text fill="#000000" font-family="sans-serif" font-size="12" font-style="italic" lengthAdjust="spacingAndGlyphs" textLength="61" x="528.75" y="203.5352">Repository</text><line style="stroke: #A80036; stroke-width: 1.5;" x1="376" x2="710" y1="215" y2="215"/><ellipse cx="386" cy="226.9775" fill="none" rx="3" ry="3" style="stroke: #038048; stroke-width: 1.0;"/><text fill="#000000" font-family="sans-serif" font-size="11" lengthAdjust="spacingAndGlyphs" text-decoration="underline" textLength="148" x="395" y="229.6348">REPOSITORY_URI_PK: String</text><line style="stroke: #000000; stroke-width: 1.0;" x1="395" x2="543" y1="231.6348" y2="231.6348"/><ellipse cx="386" cy="239.9326" fill="none" rx="3" ry="3" style="stroke: #038048; stroke-width: 1.0;"/><text fill="#000000" font-family="sans-serif" font-size="11" lengthAdjust="spacingAndGlyphs" text-decoration="underline" textLength="190" x="395" y="242.5898">REPOSITORY_AUTH_PWD_PK: String</text><line style="stroke: #000000; stroke-width: 1.0;" x1="395" x2="585" y1="244.5898" y2="244.5898"/><ellipse cx="386" cy="252.8877" fill="none" rx="3" ry="3" style="stroke: #038048; stroke-width: 1.0;"/><text fill="#000000" font-family="sans-serif" font-size="11" lengthAdjust="spacingAndGlyphs" text-decoration="underline" textLength="194" x="395" y="255.5449">REPOSITORY_AUTH_USER_PK: String</text><line style="stroke: #000000; stroke-width: 1.0;" x1="395" x2="589" y1="257.5449" y2="257.5449"/><line style="stroke: #A80036; stroke-width: 1.5;" x1="376" x2="710" y1="261.8652" y2="261.8652"/><ellipse cx="386" cy="273.8428" fill="#84BE84" rx="3" ry="3" style="stroke: #038048; stroke-width: 1.0;"/><text fill="#000000" font-family="sans-serif" font-size="11" font-style="italic" lengthAdjust="spacingAndGlyphs" textLength="310" x="395" y="276.5">getItemByLabel(String, ImmutableVersion): RepositoryItem</text><ellipse cx="386" cy="286.7979" fill="#84BE84" rx="3" ry="3" style="stroke: #038048; stroke-width: 1.0;"/><text fill="#000000" font-family="sans-serif" font-size="11" font-style="italic" lengthAdjust="spacingAndGlyphs" textLength="239" x="395" y="289.4551">getLatestItemByLabel(String): RepositoryItem</text><ellipse cx="386" cy="299.7529" fill="#84BE84" rx="3" ry="3" style="stroke: #038048; stroke-width: 1.0;"/><text fill="#000000" font-family="sans-serif" font-size="11" font-style="italic" lengthAdjust="spacingAndGlyphs" textLength="308" x="395" y="302.4102">hasNewerItemVersion(String, ImmutableVersion): boolean</text><ellipse cx="386" cy="312.708" fill="#84BE84" rx="3" ry="3" style="stroke: #038048; stroke-width: 1.0;"/><text fill="#000000" font-family="sans-serif" font-size="11" font-style="italic" lengthAdjust="spacingAndGlyphs" textLength="256" x="395" y="315.3652">getItemsForLabel(String): List&lt;RepositoryItem&gt;</text></a><!--class de.interactive_instruments.etf.repository.RepositoryItem--><a target="_top" xlink:actuate="onRequest" xlink:href="RepositoryItem.html" xlink:show="new" xlink:title="RepositoryItem.html" xlink:type="simple"><rect fill="#FEFECE" filter="url(#f1amqc4yrui56n)" height="99.8203" id="de.interactive_instruments.etf.repository.RepositoryItem" style="stroke: #A80036; stroke-width: 1.5;" width="173" x="537.5" y="510"/><ellipse cx="577.25" cy="526" fill="#B4A7E5" rx="11" ry="11" style="stroke: #A80036; stroke-width: 1.0;"/><path d="M573.6777,522.2651 L573.6777,520.1069 L581.0571,520.1069 L581.0571,522.2651 L578.5918,522.2651 L578.5918,530.3418 L581.0571,530.3418 L581.0571,532.5 L573.6777,532.5 L573.6777,530.3418 L576.1431,530.3418 L576.1431,522.2651 Z "/><text fill="#000000" font-family="sans-serif" font-size="12" font-style="italic" lengthAdjust="spacingAndGlyphs" textLength="86" x="596.75" y="530.5352">RepositoryItem</text><line style="stroke: #A80036; stroke-width: 1.5;" x1="538.5" x2="709.5" y1="542" y2="542"/><line style="stroke: #A80036; stroke-width: 1.5;" x1="538.5" x2="709.5" y1="550" y2="550"/><ellipse cx="548.5" cy="561.9775" fill="#84BE84" rx="3" ry="3" style="stroke: #038048; stroke-width: 1.0;"/><text fill="#000000" font-family="sans-serif" font-size="11" lengthAdjust="spacingAndGlyphs" textLength="124" x="557.5" y="564.6348">compareTo(Object): int</text><ellipse cx="548.5" cy="574.9326" fill="#84BE84" rx="3" ry="3" style="stroke: #038048; stroke-width: 1.0;"/><text fill="#000000" font-family="sans-serif" font-size="11" font-style="italic" lengthAdjust="spacingAndGlyphs" textLength="147" x="557.5" y="577.5898">getLastModifiedDate(): Date</text><ellipse cx="548.5" cy="587.8877" fill="#84BE84" rx="3" ry="3" style="stroke: #038048; stroke-width: 1.0;"/><text fill="#000000" font-family="sans-serif" font-size="11" font-style="italic" lengthAdjust="spacingAndGlyphs" textLength="112" x="557.5" y="590.5449">getItemHash(): byte[]</text><ellipse cx="548.5" cy="600.8428" fill="#84BE84" rx="3" ry="3" style="stroke: #038048; stroke-width: 1.0;"/><text fill="#000000" font-family="sans-serif" font-size="11" font-style="italic" lengthAdjust="spacingAndGlyphs" textLength="65" x="557.5" y="603.5">getUri(): URI</text></a><!--class de.interactive_instruments.etf.repository.RepositoryRegistry--><a target="_top" xlink:actuate="onRequest" xlink:href="RepositoryRegistry.html" xlink:show="new" xlink:title="RepositoryRegistry.html" xlink:type="simple"><rect fill="#FEFECE" filter="url(#f1amqc4yrui56n)" height="60.9551" id="de.interactive_instruments.etf.repository.RepositoryRegistry" style="stroke: #A80036; stroke-width: 1.5;" width="204" x="136" y="222"/><ellipse cx="180.25" cy="238" fill="#ADD1B2" rx="11" ry="11" style="stroke: #A80036; stroke-width: 1.0;"/><path d="M182.7231,244.1431 Q182.1421,244.4419 181.5029,244.5913 Q180.8638,244.7407 180.1582,244.7407 Q177.6514,244.7407 176.3315,243.0889 Q175.0117,241.437 175.0117,238.3159 Q175.0117,235.1865 176.3315,233.5347 Q177.6514,231.8828 180.1582,231.8828 Q180.8638,231.8828 181.5112,232.0322 Q182.1587,232.1816 182.7231,232.4805 L182.7231,235.2031 Q182.0923,234.6221 181.4988,234.3523 Q180.9053,234.0825 180.2744,234.0825 Q178.9297,234.0825 178.2449,235.1492 Q177.5601,236.2158 177.5601,238.3159 Q177.5601,240.4077 178.2449,241.4744 Q178.9297,242.541 180.2744,242.541 Q180.9053,242.541 181.4988,242.2712 Q182.0923,242.0015 182.7231,241.4204 Z "/><text fill="#000000" font-family="sans-serif" font-size="12" lengthAdjust="spacingAndGlyphs" textLength="107" x="200.75" y="242.5352">RepositoryRegistry</text><line style="stroke: #A80036; stroke-width: 1.5;" x1="137" x2="339" y1="254" y2="254"/><line style="stroke: #A80036; stroke-width: 1.5;" x1="137" x2="339" y1="262" y2="262"/><ellipse cx="147" cy="273.9775" fill="#84BE84" rx="3" ry="3" style="stroke: #038048; stroke-width: 1.0;"/><text fill="#000000" font-family="sans-serif" font-size="11" lengthAdjust="spacingAndGlyphs" text-decoration="underline" textLength="178" x="156" y="276.6348">getInstance(): RepositoryRegistry</text><line style="stroke: #000000; stroke-width: 1.0;" x1="156" x2="334" y1="278.6348" y2="278.6348"/></a><!--class de.interactive_instruments.Releasable--><rect fill="#FEFECE" filter="url(#f1amqc4yrui56n)" height="60.9551" id="de.interactive_instruments.Releasable" style="stroke: #A80036; stroke-width: 1.5;" width="101" x="957.5" y="49.5"/><ellipse cx="975.2" cy="65.5" fill="#B4A7E5" rx="11" ry="11" style="stroke: #A80036; stroke-width: 1.0;"/><path d="M971.6277,61.7651 L971.6277,59.6069 L979.0071,59.6069 L979.0071,61.7651 L976.5418,61.7651 L976.5418,69.8418 L979.0071,69.8418 L979.0071,72 L971.6277,72 L971.6277,69.8418 L974.0931,69.8418 L974.0931,61.7651 Z "/><text fill="#000000" font-family="sans-serif" font-size="12" font-style="italic" lengthAdjust="spacingAndGlyphs" textLength="63" x="989.8" y="70.0352">Releasable</text><line style="stroke: #A80036; stroke-width: 1.5;" x1="958.5" x2="1057.5" y1="81.5" y2="81.5"/><line style="stroke: #A80036; stroke-width: 1.5;" x1="958.5" x2="1057.5" y1="89.5" y2="89.5"/><ellipse cx="968.5" cy="101.4775" fill="#84BE84" rx="3" ry="3" style="stroke: #038048; stroke-width: 1.0;"/><text fill="#000000" font-family="sans-serif" font-size="11" font-style="italic" lengthAdjust="spacingAndGlyphs" textLength="75" x="977.5" y="104.1348">release(): void</text><!--class de.interactive_instruments.Configurable--><rect fill="#FEFECE" filter="url(#f1amqc4yrui56n)" height="60.9551" id="de.interactive_instruments.Configurable" style="stroke: #A80036; stroke-width: 1.5;" width="305" x="387.5" y="49.5"/><ellipse cx="499.25" cy="65.5" fill="#B4A7E5" rx="11" ry="11" style="stroke: #A80036; stroke-width: 1.0;"/><path d="M495.6777,61.7651 L495.6777,59.6069 L503.0571,59.6069 L503.0571,61.7651 L500.5918,61.7651 L500.5918,69.8418 L503.0571,69.8418 L503.0571,72 L495.6777,72 L495.6777,69.8418 L498.1431,69.8418 L498.1431,61.7651 Z "/><text fill="#000000" font-family="sans-serif" font-size="12" font-style="italic" lengthAdjust="spacingAndGlyphs" textLength="73" x="519.75" y="70.0352">Configurable</text><line style="stroke: #A80036; stroke-width: 1.5;" x1="388.5" x2="691.5" y1="81.5" y2="81.5"/><line style="stroke: #A80036; stroke-width: 1.5;" x1="388.5" x2="691.5" y1="89.5" y2="89.5"/><ellipse cx="398.5" cy="101.4775" fill="#84BE84" rx="3" ry="3" style="stroke: #038048; stroke-width: 1.0;"/><text fill="#000000" font-family="sans-serif" font-size="11" font-style="italic" lengthAdjust="spacingAndGlyphs" textLength="279" x="407.5" y="104.1348">getConfigurationProperties(): ConfigPropertyHolder</text><!--class de.interactive_instruments.Versionable--><rect fill="#FEFECE" filter="url(#f1amqc4yrui56n)" height="60.9551" id="de.interactive_instruments.Versionable" style="stroke: #A80036; stroke-width: 1.5;" width="195" x="727.5" y="49.5"/><ellipse cx="786.75" cy="65.5" fill="#B4A7E5" rx="11" ry="11" style="stroke: #A80036; stroke-width: 1.0;"/><path d="M783.1777,61.7651 L783.1777,59.6069 L790.5571,59.6069 L790.5571,61.7651 L788.0918,61.7651 L788.0918,69.8418 L790.5571,69.8418 L790.5571,72 L783.1777,72 L783.1777,69.8418 L785.6431,69.8418 L785.6431,61.7651 Z "/><text fill="#000000" font-family="sans-serif" font-size="12" font-style="italic" lengthAdjust="spacingAndGlyphs" textLength="68" x="807.25" y="70.0352">Versionable</text><line style="stroke: #A80036; stroke-width: 1.5;" x1="728.5" x2="921.5" y1="81.5" y2="81.5"/><line style="stroke: #A80036; stroke-width: 1.5;" x1="728.5" x2="921.5" y1="89.5" y2="89.5"/><ellipse cx="738.5" cy="101.4775" fill="#84BE84" rx="3" ry="3" style="stroke: #038048; stroke-width: 1.0;"/><text fill="#000000" font-family="sans-serif" font-size="11" font-style="italic" lengthAdjust="spacingAndGlyphs" textLength="169" x="747.5" y="104.1348">getVersion(): ImmutableVersion</text><!--class de.interactive_instruments.model.std.RetrievableItem--><rect fill="#FEFECE" filter="url(#f1amqc4yrui56n)" height="73.9102" id="de.interactive_instruments.model.std.RetrievableItem" style="stroke: #A80036; stroke-width: 1.5;" width="122" x="22" y="43"/><ellipse cx="37" cy="59" fill="#B4A7E5" rx="11" ry="11" style="stroke: #A80036; stroke-width: 1.0;"/><path d="M33.4277,55.2651 L33.4277,53.1069 L40.8071,53.1069 L40.8071,55.2651 L38.3418,55.2651 L38.3418,63.3418 L40.8071,63.3418 L40.8071,65.5 L33.4277,65.5 L33.4277,63.3418 L35.8931,63.3418 L35.8931,55.2651 Z "/><text fill="#000000" font-family="sans-serif" font-size="12" font-style="italic" lengthAdjust="spacingAndGlyphs" textLength="90" x="51" y="63.5352">RetrievableItem</text><line style="stroke: #A80036; stroke-width: 1.5;" x1="23" x2="143" y1="75" y2="75"/><line style="stroke: #A80036; stroke-width: 1.5;" x1="23" x2="143" y1="83" y2="83"/><ellipse cx="33" cy="94.9775" fill="#84BE84" rx="3" ry="3" style="stroke: #038048; stroke-width: 1.0;"/><text fill="#000000" font-family="sans-serif" font-size="11" font-style="italic" lengthAdjust="spacingAndGlyphs" textLength="51" x="42" y="97.6348">getId(): Id</text><ellipse cx="33" cy="107.9326" fill="#84BE84" rx="3" ry="3" style="stroke: #038048; stroke-width: 1.0;"/><text fill="#000000" font-family="sans-serif" font-size="11" font-style="italic" lengthAdjust="spacingAndGlyphs" textLength="91" x="42" y="110.5898">getLabel(): String</text><!--class de.interactive_instruments.model.std.ManagedItemRegistry--><rect fill="#FEFECE" filter="url(#f1amqc4yrui56n)" height="48" id="de.interactive_instruments.model.std.ManagedItemRegistry" style="stroke: #A80036; stroke-width: 1.5;" width="168" x="179" y="56"/><ellipse cx="194" cy="72" fill="#A9DCDF" rx="11" ry="11" style="stroke: #A80036; stroke-width: 1.0;"/><path d="M194.1133,67.5981 L192.9595,72.6699 L195.2754,72.6699 Z M192.6191,65.3569 L195.6157,65.3569 L198.9609,77.75 L196.5122,77.75 L195.7485,74.687 L192.4697,74.687 L191.7227,77.75 L189.2739,77.75 Z "/><text fill="#000000" font-family="sans-serif" font-size="12" font-style="italic" lengthAdjust="spacingAndGlyphs" textLength="124" x="208" y="76.5352">ManagedItemRegistry</text><rect fill="#FFFFFF" height="16.1328" style="stroke: #000000; stroke-width: 1.0; stroke-dasharray: 2.0,2.0;" width="10" x="340" y="53"/><text fill="#000000" font-family="sans-serif" font-size="12" font-style="italic" lengthAdjust="spacingAndGlyphs" textLength="8" x="341" y="65.6016">T</text><line style="stroke: #A80036; stroke-width: 1.5;" x1="180" x2="346" y1="88" y2="88"/><line style="stroke: #A80036; stroke-width: 1.5;" x1="180" x2="346" y1="96" y2="96"/><!--class java.lang.Comparable--><rect fill="#FEFECE" filter="url(#f1amqc4yrui56n)" height="60.9551" id="java.lang.Comparable" style="stroke: #A80036; stroke-width: 1.5;" width="122" x="735" y="388"/><ellipse cx="753.15" cy="404" fill="#B4A7E5" rx="11" ry="11" style="stroke: #A80036; stroke-width: 1.0;"/><path d="M749.5777,400.2651 L749.5777,398.1069 L756.9571,398.1069 L756.9571,400.2651 L754.4918,400.2651 L754.4918,408.3418 L756.9571,408.3418 L756.9571,410.5 L749.5777,410.5 L749.5777,408.3418 L752.0431,408.3418 L752.0431,400.2651 Z "/><text fill="#000000" font-family="sans-serif" font-size="12" font-style="italic" lengthAdjust="spacingAndGlyphs" textLength="71" x="767.85" y="408.5352">Comparable</text><rect fill="#FFFFFF" height="16.1328" style="stroke: #000000; stroke-width: 1.0; stroke-dasharray: 2.0,2.0;" width="10" x="850" y="385"/><text fill="#000000" font-family="sans-serif" font-size="12" font-style="italic" lengthAdjust="spacingAndGlyphs" textLength="8" x="851" y="397.6016">T</text><line style="stroke: #A80036; stroke-width: 1.5;" x1="736" x2="856" y1="420" y2="420"/><line style="stroke: #A80036; stroke-width: 1.5;" x1="736" x2="856" y1="428" y2="428"/><ellipse cx="746" cy="439.9775" fill="#84BE84" rx="3" ry="3" style="stroke: #038048; stroke-width: 1.0;"/><text fill="#000000" font-family="sans-serif" font-size="11" font-style="italic" lengthAdjust="spacingAndGlyphs" textLength="96" x="755" y="442.6348">compareTo(T): int</text><!--link de.interactive_instruments.etf.repository.RepositoryItem to de.interactive_instruments.etf.repository.RemoteRepositoryItem--><path d="M624.947,630.3967 C625.3941,663.6307 625.9174,702.5295 626.3238,732.7362 " fill="none" id="de.interactive_instruments.etf.repository.RepositoryItem-de.interactive_instruments.etf.repository.RemoteRepositoryItem" style="stroke: #A80036; stroke-width: 1.0; stroke-dasharray: 7.0,7.0;"/><polygon fill="none" points="617.943,630.1379,624.6733,610.0456,631.9418,629.9495,617.943,630.1379" style="stroke: #A80036; stroke-width: 1.0;"/><!--link de.interactive_instruments.Releasable to de.interactive_instruments.etf.repository.RemoteRepositoryItem--><path d="M1007.1032,130.7055 C1006.5713,165.073 1006,211.5224 1006,252.5 C1006,252.5 1006,252.5 1006,671.5 C1006,733.0568 819.6677,763.1079 708.305,775.5712 " fill="none" id="de.interactive_instruments.Releasable-de.interactive_instruments.etf.repository.RemoteRepositoryItem" style="stroke: #A80036; stroke-width: 1.0; stroke-dasharray: 7.0,7.0;"/><polygon fill="none" points="1000.1068,130.4188,1007.4322,110.5357,1014.105,130.6473,1000.1068,130.4188" style="stroke: #A80036; stroke-width: 1.0;"/><!--link de.interactive_instruments.model.std.RetrievableItem to de.interactive_instruments.etf.repository.Repository--><path d="M161.7067,124.8968 C161.8045,124.9313 161.9023,124.9657 162,125 C245.2237,154.1888 274.2508,128.3552 358,156 C379.7576,163.182 402.057,172.7058 423.3022,182.9758 " fill="none" id="de.interactive_instruments.model.std.RetrievableItem-de.interactive_instruments.etf.repository.Repository" style="stroke: #A80036; stroke-width: 1.0; stroke-dasharray: 7.0,7.0;"/><polygon fill="none" points="158.9581,131.3349,143.204,117.1641,164.3566,118.4176,158.9581,131.3349" style="stroke: #A80036; stroke-width: 1.0;"/><!--link de.interactive_instruments.Configurable to de.interactive_instruments.etf.repository.Repository--><path d="M540.8844,130.8557 C541.1681,147.1684 541.4874,165.5248 541.7902,182.9377 " fill="none" id="de.interactive_instruments.Configurable-de.interactive_instruments.etf.repository.Repository" style="stroke: #A80036; stroke-width: 1.0; stroke-dasharray: 7.0,7.0;"/><polygon fill="none" points="533.8853,130.9583,540.5363,110.8395,547.8832,130.7148,533.8853,130.9583" style="stroke: #A80036; stroke-width: 1.0;"/><!--link de.interactive_instruments.Releasable to de.interactive_instruments.etf.repository.Repository--><path d="M948.0484,120.9009 C945.3617,122.3428 942.6719,123.717 940,125 C867.5646,159.783 783.3069,188.3731 711.0971,209.6013 " fill="none" id="de.interactive_instruments.Releasable-de.interactive_instruments.etf.repository.Repository" style="stroke: #A80036; stroke-width: 1.0; stroke-dasharray: 7.0,7.0;"/><polygon fill="none" points="944.7237,114.7357,965.5163,110.6528,951.8082,126.811,944.7237,114.7357" style="stroke: #A80036; stroke-width: 1.0;"/><!--link de.interactive_instruments.model.std.RetrievableItem to de.interactive_instruments.etf.repository.RepositoryItem--><path d="M77.113,137.2239 C74.7354,190.2297 79.3904,268.6922 119,322 C220.8834,459.1176 421.8481,520.2427 537.1711,545.0196 " fill="none" id="de.interactive_instruments.model.std.RetrievableItem-de.interactive_instruments.etf.repository.RepositoryItem" style="stroke: #A80036; stroke-width: 1.0; stroke-dasharray: 7.0,7.0;"/><polygon fill="none" points="70.1289,136.7493,78.3946,117.2383,84.1002,137.6453,70.1289,136.7493" style="stroke: #A80036; stroke-width: 1.0;"/><!--link java.lang.Comparable to de.interactive_instruments.etf.repository.RepositoryItem--><path d="M743.2091,461.9297 C724.7818,477.0894 703.9511,494.2263 684.9169,509.8852 " fill="none" id="java.lang.Comparable-de.interactive_instruments.etf.repository.RepositoryItem" style="stroke: #A80036; stroke-width: 1.0; stroke-dasharray: 7.0,7.0;"/><polygon fill="none" points="738.7862,456.5039,758.6786,449.2034,747.6807,467.3155,738.7862,456.5039" style="stroke: #A80036; stroke-width: 1.0;"/><!--link de.interactive_instruments.Versionable to de.interactive_instruments.etf.repository.RepositoryItem--><path d="M850.4101,129.0467 C886.3008,205.872 940.3818,356.2081 873,457 C837.0553,510.7673 767.3148,536.5008 710.7636,548.7985 " fill="none" id="de.interactive_instruments.Versionable-de.interactive_instruments.etf.repository.RepositoryItem" style="stroke: #A80036; stroke-width: 1.0; stroke-dasharray: 7.0,7.0;"/><polygon fill="none" points="843.9599,131.7877,841.543,110.7363,856.5602,125.6857,843.9599,131.7877" style="stroke: #A80036; stroke-width: 1.0;"/><!--link de.interactive_instruments.model.std.ManagedItemRegistry to de.interactive_instruments.etf.repository.RepositoryRegistry--><path d="M256.5925,124.212 C252.1584,154.8071 246.3704,194.744 242.4384,221.8747 " fill="none" id="de.interactive_instruments.model.std.ManagedItemRegistry-de.interactive_instruments.etf.repository.RepositoryRegistry" style="stroke: #A80036; stroke-width: 1.0;"/><polygon fill="none" points="249.6748,123.1384,259.4711,104.3492,263.5301,125.1464,249.6748,123.1384" style="stroke: #A80036; stroke-width: 1.0;"/><!--link de.interactive_instruments.etf.repository.Repository to de.interactive_instruments.etf.repository.RepositoryItem--><path d="M561.3802,322.2765 C575.9403,377.5512 596.0026,453.7137 609.4581,504.7948 " fill="none" id="de.interactive_instruments.etf.repository.Repository-de.interactive_instruments.etf.repository.RepositoryItem" style="stroke: #A80036; stroke-width: 1.0;"/><polygon fill="#A80036" points="610.7393,509.6583,612.3146,499.9362,609.4656,504.8233,604.5786,501.9742,610.7393,509.6583" style="stroke: #A80036; stroke-width: 1.0;"/><text fill="#000000" font-family="sans-serif" font-size="13" lengthAdjust="spacingAndGlyphs" textLength="35" x="597" y="423.5684">items</text><text fill="#000000" font-family="sans-serif" font-size="13" lengthAdjust="spacingAndGlyphs" textLength="6" x="602.4526" y="499.1271">*</text><!--
@startuml

    namespace de.interactive_instruments.etf.repository {

        interface RemoteRepositoryItem [[RemoteRepositoryItem.html]] {
            {abstract} +makeAvailable(Path): IFile
            {abstract} +getLocal(): IFile
            {abstract} +isAvailable(): boolean
            {abstract} +remove(): void
        }

        interface Repository [[Repository.html]] {
            {static} +REPOSITORY_URI_PK: String
            {static} +REPOSITORY_AUTH_PWD_PK: String
            {static} +REPOSITORY_AUTH_USER_PK: String
            {abstract} +getItemByLabel(String, ImmutableVersion): RepositoryItem
            {abstract} +getLatestItemByLabel(String): RepositoryItem
            {abstract} +hasNewerItemVersion(String, ImmutableVersion): boolean
            {abstract} +getItemsForLabel(String): List<RepositoryItem>
        }

        interface RepositoryItem [[RepositoryItem.html]] {
            +compareTo(Object): int
            {abstract} +getLastModifiedDate(): Date
            {abstract} +getItemHash(): byte[]
            {abstract} +getUri(): URI
        }

        class RepositoryRegistry [[RepositoryRegistry.html]] {
            {static} +getInstance(): RepositoryRegistry
        }

        RepositoryItem <|.. RemoteRepositoryItem

        interface de.interactive_instruments.Releasable {
            {abstract} +release(): void
        }
        de.interactive_instruments.Releasable <|.. RemoteRepositoryItem

        interface de.interactive_instruments.model.std.RetrievableItem {
            {abstract} +getId(): Id
            {abstract} +getLabel(): String
        }
        de.interactive_instruments.model.std.RetrievableItem <|.. Repository

        interface de.interactive_instruments.Configurable {
            {abstract} +getConfigurationProperties(): ConfigPropertyHolder
        }
        de.interactive_instruments.Configurable <|.. Repository

        de.interactive_instruments.Releasable <|.. Repository

        de.interactive_instruments.model.std.RetrievableItem <|.. RepositoryItem

        interface java.lang.Comparable<T> {
            {abstract} +compareTo(T): int
        }
        java.lang.Comparable <|.. RepositoryItem

        interface de.interactive_instruments.Versionable {
            {abstract} +getVersion(): ImmutableVersion
        }
        de.interactive_instruments.Versionable <|.. RepositoryItem

        abstract class de.interactive_instruments.model.std.ManagedItemRegistry<T>
        de.interactive_instruments.model.std.ManagedItemRegistry <|- - RepositoryRegistry

        Repository - -> "*" RepositoryItem: items

    }

@enduml

PlantUML version 1.2018.08(Sun Jun 24 14:31:00 CEST 2018)
(APACHE source distribution)
Java Runtime: Java(TM) SE Runtime Environment
JVM: Java HotSpot(TM) 64-Bit Server VM
Java Version: 1.8.0_151-b12
Operating System: Mac OS X
OS Version: 10.14.2
Default Encoding: UTF-8
Language: en
Country: US
--></g></svg>