<?xml version="1.0" encoding="UTF-8" standalone="no"?><svg xmlns="http://www.w3.org/2000/svg" xmlns:xlink="http://www.w3.org/1999/xlink" contentScriptType="application/ecmascript" contentStyleType="text/css" height="79px" preserveAspectRatio="none" style="width:221px;height:79px;" version="1.1" viewBox="0 0 221 79" width="221px" zoomAndPan="magnify"><defs><filter height="300%" id="f1j8h37k8lf5fu" width="300%" x="-1" y="-1"><feGaussianBlur result="blurOut" stdDeviation="2.0"/><feColorMatrix in="blurOut" result="blurOut2" type="matrix" values="0 0 0 0 0 0 0 0 0 0 0 0 0 0 0 0 0 0 .4 0"/><feOffset dx="4.0" dy="4.0" in="blurOut2" result="blurOut3"/><feBlend in="SourceGraphic" in2="blurOut3" mode="normal"/></filter></defs><g><!--class RepositoryRegistry--><a target="_top" xlink:actuate="onRequest" xlink:href="RepositoryRegistry.html" xlink:show="new" xlink:title="RepositoryRegistry.html" xlink:type="simple"><rect fill="#FEFECE" filter="url(#f1j8h37k8lf5fu)" height="60.9551" id="RepositoryRegistry" style="stroke: #A80036; stroke-width: 1.5;" width="204" x="6" y="8"/><ellipse cx="50.25" cy="24" fill="#ADD1B2" rx="11" ry="11" style="stroke: #A80036; stroke-width: 1.0;"/><path d="M52.7231,30.1431 Q52.1421,30.4419 51.5029,30.5913 Q50.8638,30.7407 50.1582,30.7407 Q47.6514,30.7407 46.3315,29.0889 Q45.0117,27.437 45.0117,24.3159 Q45.0117,21.1865 46.3315,19.5347 Q47.6514,17.8828 50.1582,17.8828 Q50.8638,17.8828 51.5112,18.0322 Q52.1587,18.1816 52.7231,18.4805 L52.7231,21.2031 Q52.0923,20.6221 51.4988,20.3523 Q50.9053,20.0825 50.2744,20.0825 Q48.9297,20.0825 48.2449,21.1492 Q47.5601,22.2158 47.5601,24.3159 Q47.5601,26.4077 48.2449,27.4744 Q48.9297,28.541 50.2744,28.541 Q50.9053,28.541 51.4988,28.2712 Q52.0923,28.0015 52.7231,27.4204 Z "/><text fill="#000000" font-family="sans-serif" font-size="12" lengthAdjust="spacingAndGlyphs" textLength="107" x="70.75" y="28.5352">RepositoryRegistry</text><line style="stroke: #A80036; stroke-width: 1.5;" x1="7" x2="209" y1="40" y2="40"/><line style="stroke: #A80036; stroke-width: 1.5;" x1="7" x2="209" y1="48" y2="48"/><ellipse cx="17" cy="59.9775" fill="#84BE84" rx="3" ry="3" style="stroke: #038048; stroke-width: 1.0;"/><text fill="#000000" font-family="sans-serif" font-size="11" lengthAdjust="spacingAndGlyphs" text-decoration="underline" textLength="178" x="26" y="62.6348">getInstance(): RepositoryRegistry</text><line style="stroke: #000000; stroke-width: 1.0;" x1="26" x2="204" y1="64.6348" y2="64.6348"/></a><!--
@startuml

    class RepositoryRegistry [[RepositoryRegistry.html]] {
        {static} +getInstance(): RepositoryRegistry
    }

@enduml

PlantUML version 1.2018.08(Sun Jun 24 14:31:00 CEST 2018)
(APACHE source distribution)
Java Runtime: Java(TM) SE Runtime Environment
JVM: Java HotSpot(TM) 64-Bit Server VM
Java Version: 1.8.0_151-b12
Operating System: Mac OS X
OS Version: 10.14.2
Default Encoding: UTF-8
Language: en
Country: US
--></g></svg>