<?xml version="1.0" encoding="UTF-8" standalone="no"?><svg xmlns="http://www.w3.org/2000/svg" xmlns:xlink="http://www.w3.org/1999/xlink" contentScriptType="application/ecmascript" contentStyleType="text/css" height="248px" preserveAspectRatio="none" style="width:208px;height:248px;" version="1.1" viewBox="0 0 208 248" width="208px" zoomAndPan="magnify"><defs><filter height="300%" id="fih8hea7mkizu" width="300%" x="-1" y="-1"><feGaussianBlur result="blurOut" stdDeviation="2.0"/><feColorMatrix in="blurOut" result="blurOut2" type="matrix" values="0 0 0 0 0 0 0 0 0 0 0 0 0 0 0 0 0 0 .4 0"/><feOffset dx="4.0" dy="4.0" in="blurOut2" result="blurOut3"/><feBlend in="SourceGraphic" in2="blurOut3" mode="normal"/></filter></defs><g><!--class AttachmentDto--><a target="_top" xlink:actuate="onRequest" xlink:href="AttachmentDto.html" xlink:show="new" xlink:title="AttachmentDto.html" xlink:type="simple"><rect fill="#FEFECE" filter="url(#fih8hea7mkizu)" height="229.3711" id="AttachmentDto" style="stroke: #A80036; stroke-width: 1.5;" width="191" x="6" y="8"/><ellipse cx="54.75" cy="24" fill="#ADD1B2" rx="11" ry="11" style="stroke: #A80036; stroke-width: 1.0;"/><path d="M57.2231,30.1431 Q56.6421,30.4419 56.0029,30.5913 Q55.3638,30.7407 54.6582,30.7407 Q52.1514,30.7407 50.8315,29.0889 Q49.5117,27.437 49.5117,24.3159 Q49.5117,21.1865 50.8315,19.5347 Q52.1514,17.8828 54.6582,17.8828 Q55.3638,17.8828 56.0112,18.0322 Q56.6587,18.1816 57.2231,18.4805 L57.2231,21.2031 Q56.5923,20.6221 55.9988,20.3523 Q55.4053,20.0825 54.7744,20.0825 Q53.4297,20.0825 52.7449,21.1492 Q52.0601,22.2158 52.0601,24.3159 Q52.0601,26.4077 52.7449,27.4744 Q53.4297,28.541 54.7744,28.541 Q55.4053,28.541 55.9988,28.2712 Q56.5923,28.0015 57.2231,27.4204 Z "/><text fill="#000000" font-family="sans-serif" font-size="12" lengthAdjust="spacingAndGlyphs" textLength="85" x="75.25" y="28.5352">AttachmentDto</text><line style="stroke: #A80036; stroke-width: 1.5;" x1="7" x2="196" y1="40" y2="40"/><line style="stroke: #A80036; stroke-width: 1.5;" x1="7" x2="196" y1="48" y2="48"/><ellipse cx="17" cy="59.9775" fill="#84BE84" rx="3" ry="3" style="stroke: #038048; stroke-width: 1.0;"/><text fill="#000000" font-family="sans-serif" font-size="11" lengthAdjust="spacingAndGlyphs" textLength="89" x="26" y="62.6348">AttachmentDto()</text><ellipse cx="17" cy="72.9326" fill="#84BE84" rx="3" ry="3" style="stroke: #038048; stroke-width: 1.0;"/><text fill="#000000" font-family="sans-serif" font-size="11" lengthAdjust="spacingAndGlyphs" textLength="91" x="26" y="75.5898">getLabel(): String</text><ellipse cx="17" cy="85.8877" fill="#84BE84" rx="3" ry="3" style="stroke: #038048; stroke-width: 1.0;"/><text fill="#000000" font-family="sans-serif" font-size="11" lengthAdjust="spacingAndGlyphs" textLength="113" x="26" y="88.5449">setLabel(String): void</text><ellipse cx="17" cy="98.8428" fill="#84BE84" rx="3" ry="3" style="stroke: #038048; stroke-width: 1.0;"/><text fill="#000000" font-family="sans-serif" font-size="11" lengthAdjust="spacingAndGlyphs" textLength="113" x="26" y="101.5">getEncoding(): String</text><ellipse cx="17" cy="111.7979" fill="#84BE84" rx="3" ry="3" style="stroke: #038048; stroke-width: 1.0;"/><text fill="#000000" font-family="sans-serif" font-size="11" lengthAdjust="spacingAndGlyphs" textLength="135" x="26" y="114.4551">setEncoding(String): void</text><ellipse cx="17" cy="124.7529" fill="#84BE84" rx="3" ry="3" style="stroke: #038048; stroke-width: 1.0;"/><text fill="#000000" font-family="sans-serif" font-size="11" lengthAdjust="spacingAndGlyphs" textLength="117" x="26" y="127.4102">getMimeType(): String</text><ellipse cx="17" cy="137.708" fill="#84BE84" rx="3" ry="3" style="stroke: #038048; stroke-width: 1.0;"/><text fill="#000000" font-family="sans-serif" font-size="11" lengthAdjust="spacingAndGlyphs" textLength="139" x="26" y="140.3652">setMimeType(String): void</text><ellipse cx="17" cy="150.6631" fill="#84BE84" rx="3" ry="3" style="stroke: #038048; stroke-width: 1.0;"/><text fill="#000000" font-family="sans-serif" font-size="11" lengthAdjust="spacingAndGlyphs" textLength="89" x="26" y="153.3203">getType(): String</text><ellipse cx="17" cy="163.6182" fill="#84BE84" rx="3" ry="3" style="stroke: #038048; stroke-width: 1.0;"/><text fill="#000000" font-family="sans-serif" font-size="11" lengthAdjust="spacingAndGlyphs" textLength="111" x="26" y="166.2754">setType(String): void</text><ellipse cx="17" cy="176.5732" fill="#84BE84" rx="3" ry="3" style="stroke: #038048; stroke-width: 1.0;"/><text fill="#000000" font-family="sans-serif" font-size="11" lengthAdjust="spacingAndGlyphs" textLength="133" x="26" y="179.2305">getReferencedData(): URI</text><ellipse cx="17" cy="189.5283" fill="#84BE84" rx="3" ry="3" style="stroke: #038048; stroke-width: 1.0;"/><text fill="#000000" font-family="sans-serif" font-size="11" lengthAdjust="spacingAndGlyphs" textLength="155" x="26" y="192.1855">setReferencedData(URI): void</text><ellipse cx="17" cy="202.4834" fill="#84BE84" rx="3" ry="3" style="stroke: #038048; stroke-width: 1.0;"/><text fill="#000000" font-family="sans-serif" font-size="11" lengthAdjust="spacingAndGlyphs" textLength="143" x="26" y="205.1406">getEmbeddedData(): String</text><ellipse cx="17" cy="215.4385" fill="#84BE84" rx="3" ry="3" style="stroke: #038048; stroke-width: 1.0;"/><text fill="#000000" font-family="sans-serif" font-size="11" lengthAdjust="spacingAndGlyphs" textLength="165" x="26" y="218.0957">setEmbeddedData(String): void</text><ellipse cx="17" cy="228.3936" fill="#84BE84" rx="3" ry="3" style="stroke: #038048; stroke-width: 1.0;"/><text fill="#000000" font-family="sans-serif" font-size="11" lengthAdjust="spacingAndGlyphs" textLength="156" x="26" y="231.0508">createCopy(): AttachmentDto</text></a><!--
@startuml

    class AttachmentDto [[AttachmentDto.html]] {
        +AttachmentDto()
        +getLabel(): String
        +setLabel(String): void
        +getEncoding(): String
        +setEncoding(String): void
        +getMimeType(): String
        +setMimeType(String): void
        +getType(): String
        +setType(String): void
        +getReferencedData(): URI
        +setReferencedData(URI): void
        +getEmbeddedData(): String
        +setEmbeddedData(String): void
        +createCopy(): AttachmentDto
    }

@enduml

PlantUML version 1.2018.08(Sun Jun 24 14:31:00 CEST 2018)
(APACHE source distribution)
Java Runtime: Java(TM) SE Runtime Environment
JVM: Java HotSpot(TM) 64-Bit Server VM
Java Version: 1.8.0_151-b12
Operating System: Mac OS X
OS Version: 10.14.2
Default Encoding: UTF-8
Language: en
Country: US
--></g></svg>