<?xml version="1.0" encoding="UTF-8" standalone="no"?><svg xmlns="http://www.w3.org/2000/svg" xmlns:xlink="http://www.w3.org/1999/xlink" contentScriptType="application/ecmascript" contentStyleType="text/css" height="170px" preserveAspectRatio="none" style="width:373px;height:170px;" version="1.1" viewBox="0 0 373 170" width="373px" zoomAndPan="magnify"><defs><filter height="300%" id="f143lsmun4vmye" width="300%" x="-1" y="-1"><feGaussianBlur result="blurOut" stdDeviation="2.0"/><feColorMatrix in="blurOut" result="blurOut2" type="matrix" values="0 0 0 0 0 0 0 0 0 0 0 0 0 0 0 0 0 0 .4 0"/><feOffset dx="4.0" dy="4.0" in="blurOut2" result="blurOut3"/><feBlend in="SourceGraphic" in2="blurOut3" mode="normal"/></filter></defs><g><!--class TestAssertionResultDto--><a target="_top" xlink:actuate="onRequest" xlink:href="TestAssertionResultDto.html" xlink:show="new" xlink:title="TestAssertionResultDto.html" xlink:type="simple"><rect fill="#FEFECE" filter="url(#f143lsmun4vmye)" height="151.6406" id="TestAssertionResultDto" style="stroke: #A80036; stroke-width: 1.5;" width="356" x="6" y="8"/><ellipse cx="113.25" cy="24" fill="#ADD1B2" rx="11" ry="11" style="stroke: #A80036; stroke-width: 1.0;"/><path d="M115.7231,30.1431 Q115.1421,30.4419 114.5029,30.5913 Q113.8638,30.7407 113.1582,30.7407 Q110.6514,30.7407 109.3315,29.0889 Q108.0117,27.437 108.0117,24.3159 Q108.0117,21.1865 109.3315,19.5347 Q110.6514,17.8828 113.1582,17.8828 Q113.8638,17.8828 114.5112,18.0322 Q115.1587,18.1816 115.7231,18.4805 L115.7231,21.2031 Q115.0923,20.6221 114.4988,20.3523 Q113.9053,20.0825 113.2744,20.0825 Q111.9297,20.0825 111.2449,21.1492 Q110.5601,22.2158 110.5601,24.3159 Q110.5601,26.4077 111.2449,27.4744 Q111.9297,28.541 113.2744,28.541 Q113.9053,28.541 114.4988,28.2712 Q115.0923,28.0015 115.7231,27.4204 Z "/><text fill="#000000" font-family="sans-serif" font-size="12" lengthAdjust="spacingAndGlyphs" textLength="133" x="133.75" y="28.5352">TestAssertionResultDto</text><line style="stroke: #A80036; stroke-width: 1.5;" x1="7" x2="361" y1="40" y2="40"/><line style="stroke: #A80036; stroke-width: 1.5;" x1="7" x2="361" y1="48" y2="48"/><ellipse cx="17" cy="59.9775" fill="#84BE84" rx="3" ry="3" style="stroke: #038048; stroke-width: 1.0;"/><text fill="#000000" font-family="sans-serif" font-size="11" lengthAdjust="spacingAndGlyphs" textLength="135" x="26" y="62.6348">TestAssertionResultDto()</text><ellipse cx="17" cy="72.9326" fill="#84BE84" rx="3" ry="3" style="stroke: #038048; stroke-width: 1.0;"/><text fill="#000000" font-family="sans-serif" font-size="11" lengthAdjust="spacingAndGlyphs" textLength="151" x="26" y="75.5898">getArguments(): Arguments</text><ellipse cx="17" cy="85.8877" fill="#84BE84" rx="3" ry="3" style="stroke: #038048; stroke-width: 1.0;"/><text fill="#000000" font-family="sans-serif" font-size="11" lengthAdjust="spacingAndGlyphs" textLength="173" x="26" y="88.5449">setArguments(Arguments): void</text><ellipse cx="17" cy="98.8428" fill="#84BE84" rx="3" ry="3" style="stroke: #038048; stroke-width: 1.0;"/><text fill="#000000" font-family="sans-serif" font-size="11" lengthAdjust="spacingAndGlyphs" textLength="308" x="26" y="101.5">getMessages(): List&lt;TranslationArgumentCollectionDto&gt;</text><ellipse cx="17" cy="111.7979" fill="#84BE84" rx="3" ry="3" style="stroke: #038048; stroke-width: 1.0;"/><text fill="#000000" font-family="sans-serif" font-size="11" lengthAdjust="spacingAndGlyphs" textLength="330" x="26" y="114.4551">setMessages(List&lt;TranslationArgumentCollectionDto&gt;): void</text><ellipse cx="17" cy="124.7529" fill="#84BE84" rx="3" ry="3" style="stroke: #038048; stroke-width: 1.0;"/><text fill="#000000" font-family="sans-serif" font-size="11" lengthAdjust="spacingAndGlyphs" textLength="291" x="26" y="127.4102">addMessage(TranslationArgumentCollectionDto): void</text><ellipse cx="17" cy="137.708" fill="#84BE84" rx="3" ry="3" style="stroke: #038048; stroke-width: 1.0;"/><text fill="#000000" font-family="sans-serif" font-size="11" lengthAdjust="spacingAndGlyphs" textLength="89" x="26" y="140.3652">toString(): String</text><ellipse cx="17" cy="150.6631" fill="#84BE84" rx="3" ry="3" style="stroke: #038048; stroke-width: 1.0;"/><text fill="#000000" font-family="sans-serif" font-size="11" lengthAdjust="spacingAndGlyphs" textLength="202" x="26" y="153.3203">createCopy(): TestAssertionResultDto</text></a><!--
@startuml

    class TestAssertionResultDto [[TestAssertionResultDto.html]] {
        +TestAssertionResultDto()
        +getArguments(): Arguments
        +setArguments(Arguments): void
        +getMessages(): List<TranslationArgumentCollectionDto>
        +setMessages(List<TranslationArgumentCollectionDto>): void
        +addMessage(TranslationArgumentCollectionDto): void
        +toString(): String
        +createCopy(): TestAssertionResultDto
    }

@enduml

PlantUML version 1.2018.08(Sun Jun 24 14:31:00 CEST 2018)
(APACHE source distribution)
Java Runtime: Java(TM) SE Runtime Environment
JVM: Java HotSpot(TM) 64-Bit Server VM
Java Version: 1.8.0_151-b12
Operating System: Mac OS X
OS Version: 10.14.2
Default Encoding: UTF-8
Language: en
Country: US
--></g></svg>