<?xml version="1.0" encoding="UTF-8" standalone="no"?><svg xmlns="http://www.w3.org/2000/svg" xmlns:xlink="http://www.w3.org/1999/xlink" contentScriptType="application/ecmascript" contentStyleType="text/css" height="131px" preserveAspectRatio="none" style="width:322px;height:131px;" version="1.1" viewBox="0 0 322 131" width="322px" zoomAndPan="magnify"><defs><filter height="300%" id="f1xc9r9fccrw15" width="300%" x="-1" y="-1"><feGaussianBlur result="blurOut" stdDeviation="2.0"/><feColorMatrix in="blurOut" result="blurOut2" type="matrix" values="0 0 0 0 0 0 0 0 0 0 0 0 0 0 0 0 0 0 .4 0"/><feOffset dx="4.0" dy="4.0" in="blurOut2" result="blurOut3"/><feBlend in="SourceGraphic" in2="blurOut3" mode="normal"/></filter></defs><g><!--class TestModuleResultDto--><a target="_top" xlink:actuate="onRequest" xlink:href="TestModuleResultDto.html" xlink:show="new" xlink:title="TestModuleResultDto.html" xlink:type="simple"><rect fill="#FEFECE" filter="url(#f1xc9r9fccrw15)" height="112.7754" id="TestModuleResultDto" style="stroke: #A80036; stroke-width: 1.5;" width="305" x="6" y="8"/><ellipse cx="93.25" cy="24" fill="#ADD1B2" rx="11" ry="11" style="stroke: #A80036; stroke-width: 1.0;"/><path d="M95.7231,30.1431 Q95.1421,30.4419 94.5029,30.5913 Q93.8638,30.7407 93.1582,30.7407 Q90.6514,30.7407 89.3315,29.0889 Q88.0117,27.437 88.0117,24.3159 Q88.0117,21.1865 89.3315,19.5347 Q90.6514,17.8828 93.1582,17.8828 Q93.8638,17.8828 94.5112,18.0322 Q95.1587,18.1816 95.7231,18.4805 L95.7231,21.2031 Q95.0923,20.6221 94.4988,20.3523 Q93.9053,20.0825 93.2744,20.0825 Q91.9297,20.0825 91.2449,21.1492 Q90.5601,22.2158 90.5601,24.3159 Q90.5601,26.4077 91.2449,27.4744 Q91.9297,28.541 93.2744,28.541 Q93.9053,28.541 94.4988,28.2712 Q95.0923,28.0015 95.7231,27.4204 Z "/><text fill="#000000" font-family="sans-serif" font-size="12" lengthAdjust="spacingAndGlyphs" textLength="122" x="113.75" y="28.5352">TestModuleResultDto</text><line style="stroke: #A80036; stroke-width: 1.5;" x1="7" x2="310" y1="40" y2="40"/><line style="stroke: #A80036; stroke-width: 1.5;" x1="7" x2="310" y1="48" y2="48"/><ellipse cx="17" cy="59.9775" fill="#84BE84" rx="3" ry="3" style="stroke: #038048; stroke-width: 1.0;"/><text fill="#000000" font-family="sans-serif" font-size="11" lengthAdjust="spacingAndGlyphs" textLength="122" x="26" y="62.6348">TestModuleResultDto()</text><ellipse cx="17" cy="72.9326" fill="#84BE84" rx="3" ry="3" style="stroke: #038048; stroke-width: 1.0;"/><text fill="#000000" font-family="sans-serif" font-size="11" lengthAdjust="spacingAndGlyphs" textLength="257" x="26" y="75.5898">getTestCaseResults(): List&lt;TestCaseResultDto&gt;</text><ellipse cx="17" cy="85.8877" fill="#84BE84" rx="3" ry="3" style="stroke: #038048; stroke-width: 1.0;"/><text fill="#000000" font-family="sans-serif" font-size="11" lengthAdjust="spacingAndGlyphs" textLength="279" x="26" y="88.5449">setTestCaseResults(List&lt;TestCaseResultDto&gt;): void</text><ellipse cx="17" cy="98.8428" fill="#84BE84" rx="3" ry="3" style="stroke: #038048; stroke-width: 1.0;"/><text fill="#000000" font-family="sans-serif" font-size="11" lengthAdjust="spacingAndGlyphs" textLength="240" x="26" y="101.5">addTestCaseResult(TestCaseResultDto): void</text><ellipse cx="17" cy="111.7979" fill="#84BE84" rx="3" ry="3" style="stroke: #038048; stroke-width: 1.0;"/><text fill="#000000" font-family="sans-serif" font-size="11" lengthAdjust="spacingAndGlyphs" textLength="189" x="26" y="114.4551">createCopy(): TestModuleResultDto</text></a><!--
@startuml

    class TestModuleResultDto [[TestModuleResultDto.html]] {
        +TestModuleResultDto()
        +getTestCaseResults(): List<TestCaseResultDto>
        +setTestCaseResults(List<TestCaseResultDto>): void
        +addTestCaseResult(TestCaseResultDto): void
        +createCopy(): TestModuleResultDto
    }

@enduml

PlantUML version 1.2018.08(Sun Jun 24 14:31:00 CEST 2018)
(APACHE source distribution)
Java Runtime: Java(TM) SE Runtime Environment
JVM: Java HotSpot(TM) 64-Bit Server VM
Java Version: 1.8.0_151-b12
Operating System: Mac OS X
OS Version: 10.14.2
Default Encoding: UTF-8
Language: en
Country: US
--></g></svg>