<?xml version="1.0" encoding="UTF-8" standalone="no"?><svg xmlns="http://www.w3.org/2000/svg" xmlns:xlink="http://www.w3.org/1999/xlink" contentScriptType="application/ecmascript" contentStyleType="text/css" height="416px" preserveAspectRatio="none" style="width:328px;height:416px;" version="1.1" viewBox="0 0 328 416" width="328px" zoomAndPan="magnify"><defs><filter height="300%" id="fpa5meb6khp0r" width="300%" x="-1" y="-1"><feGaussianBlur result="blurOut" stdDeviation="2.0"/><feColorMatrix in="blurOut" result="blurOut2" type="matrix" values="0 0 0 0 0 0 0 0 0 0 0 0 0 0 0 0 0 0 .4 0"/><feOffset dx="4.0" dy="4.0" in="blurOut2" result="blurOut3"/><feBlend in="SourceGraphic" in2="blurOut3" mode="normal"/></filter></defs><g><!--class EtfConstants--><a target="_top" xlink:actuate="onRequest" xlink:href="EtfConstants.html" xlink:show="new" xlink:title="EtfConstants.html" xlink:type="simple"><rect fill="#FEFECE" filter="url(#fpa5meb6khp0r)" height="397.7871" id="EtfConstants" style="stroke: #A80036; stroke-width: 1.5;" width="311" x="6" y="8"/><ellipse cx="121.75" cy="24" fill="#ADD1B2" rx="11" ry="11" style="stroke: #A80036; stroke-width: 1.0;"/><path d="M124.2231,30.1431 Q123.6421,30.4419 123.0029,30.5913 Q122.3638,30.7407 121.6582,30.7407 Q119.1514,30.7407 117.8315,29.0889 Q116.5117,27.437 116.5117,24.3159 Q116.5117,21.1865 117.8315,19.5347 Q119.1514,17.8828 121.6582,17.8828 Q122.3638,17.8828 123.0112,18.0322 Q123.6587,18.1816 124.2231,18.4805 L124.2231,21.2031 Q123.5923,20.6221 122.9988,20.3523 Q122.4053,20.0825 121.7744,20.0825 Q120.4297,20.0825 119.7449,21.1492 Q119.0601,22.2158 119.0601,24.3159 Q119.0601,26.4077 119.7449,27.4744 Q120.4297,28.541 121.7744,28.541 Q122.4053,28.541 122.9988,28.2712 Q123.5923,28.0015 124.2231,27.4204 Z "/><text fill="#000000" font-family="sans-serif" font-size="12" lengthAdjust="spacingAndGlyphs" textLength="71" x="142.25" y="28.5352">EtfConstants</text><line style="stroke: #A80036; stroke-width: 1.5;" x1="7" x2="316" y1="40" y2="40"/><ellipse cx="17" cy="51.9775" fill="none" rx="3" ry="3" style="stroke: #038048; stroke-width: 1.0;"/><text fill="#000000" font-family="sans-serif" font-size="11" lengthAdjust="spacingAndGlyphs" text-decoration="underline" textLength="117" x="26" y="54.6348">ETF_PK_PREFIX: String</text><line style="stroke: #000000; stroke-width: 1.0;" x1="26" x2="143" y1="56.6348" y2="56.6348"/><ellipse cx="17" cy="64.9326" fill="none" rx="3" ry="3" style="stroke: #038048; stroke-width: 1.0;"/><text fill="#000000" font-family="sans-serif" font-size="11" lengthAdjust="spacingAndGlyphs" text-decoration="underline" textLength="153" x="26" y="67.5898">ETF_TESTDOMAIN_PK: String</text><line style="stroke: #000000; stroke-width: 1.0;" x1="26" x2="179" y1="69.5898" y2="69.5898"/><ellipse cx="17" cy="77.8877" fill="none" rx="3" ry="3" style="stroke: #038048; stroke-width: 1.0;"/><text fill="#000000" font-family="sans-serif" font-size="11" lengthAdjust="spacingAndGlyphs" text-decoration="underline" textLength="129" x="26" y="80.5449">ETF_AUTHOR_PK: String</text><line style="stroke: #000000; stroke-width: 1.0;" x1="26" x2="155" y1="82.5449" y2="82.5449"/><ellipse cx="17" cy="90.8428" fill="none" rx="3" ry="3" style="stroke: #038048; stroke-width: 1.0;"/><text fill="#000000" font-family="sans-serif" font-size="11" lengthAdjust="spacingAndGlyphs" text-decoration="underline" textLength="155" x="26" y="93.5">ETF_LAST_EDITOR_PK: String</text><line style="stroke: #000000; stroke-width: 1.0;" x1="26" x2="181" y1="95.5" y2="95.5"/><ellipse cx="17" cy="103.7979" fill="none" rx="3" ry="3" style="stroke: #038048; stroke-width: 1.0;"/><text fill="#000000" font-family="sans-serif" font-size="11" lengthAdjust="spacingAndGlyphs" text-decoration="underline" textLength="173" x="26" y="106.4551">ETF_CREATION_DATE_PK: String</text><line style="stroke: #000000; stroke-width: 1.0;" x1="26" x2="199" y1="108.4551" y2="108.4551"/><ellipse cx="17" cy="116.7529" fill="none" rx="3" ry="3" style="stroke: #038048; stroke-width: 1.0;"/><text fill="#000000" font-family="sans-serif" font-size="11" lengthAdjust="spacingAndGlyphs" text-decoration="underline" textLength="193" x="26" y="119.4102">ETF_LAST_UPDATE_DATE_PK: String</text><line style="stroke: #000000; stroke-width: 1.0;" x1="26" x2="219" y1="121.4102" y2="121.4102"/><ellipse cx="17" cy="129.708" fill="none" rx="3" ry="3" style="stroke: #038048; stroke-width: 1.0;"/><text fill="#000000" font-family="sans-serif" font-size="11" lengthAdjust="spacingAndGlyphs" text-decoration="underline" textLength="153" x="26" y="132.3652">ETF_DESCRIPTION_PK: String</text><line style="stroke: #000000; stroke-width: 1.0;" x1="26" x2="179" y1="134.3652" y2="134.3652"/><ellipse cx="17" cy="142.6631" fill="none" rx="3" ry="3" style="stroke: #038048; stroke-width: 1.0;"/><text fill="#000000" font-family="sans-serif" font-size="11" lengthAdjust="spacingAndGlyphs" text-decoration="underline" textLength="128" x="26" y="145.3203">ETF_VERSION_PK: String</text><line style="stroke: #000000; stroke-width: 1.0;" x1="26" x2="154" y1="147.3203" y2="147.3203"/><ellipse cx="17" cy="155.6182" fill="none" rx="3" ry="3" style="stroke: #038048; stroke-width: 1.0;"/><text fill="#000000" font-family="sans-serif" font-size="11" lengthAdjust="spacingAndGlyphs" text-decoration="underline" textLength="154" x="26" y="158.2754">ETF_IMPL_STATUS_PK: String</text><line style="stroke: #000000; stroke-width: 1.0;" x1="26" x2="180" y1="160.2754" y2="160.2754"/><ellipse cx="17" cy="168.5732" fill="none" rx="3" ry="3" style="stroke: #038048; stroke-width: 1.0;"/><text fill="#000000" font-family="sans-serif" font-size="11" lengthAdjust="spacingAndGlyphs" text-decoration="underline" textLength="142" x="26" y="171.2305">ETF_REFERENCE_PK: String</text><line style="stroke: #000000; stroke-width: 1.0;" x1="26" x2="168" y1="173.2305" y2="173.2305"/><ellipse cx="17" cy="181.5283" fill="none" rx="3" ry="3" style="stroke: #038048; stroke-width: 1.0;"/><text fill="#000000" font-family="sans-serif" font-size="11" lengthAdjust="spacingAndGlyphs" text-decoration="underline" textLength="271" x="26" y="184.1855">ETF_SUPPORTED_TESTOBJECT_TYPE_IDS_PK: String</text><line style="stroke: #000000; stroke-width: 1.0;" x1="26" x2="297" y1="186.1855" y2="186.1855"/><ellipse cx="17" cy="194.4834" fill="none" rx="3" ry="3" style="stroke: #038048; stroke-width: 1.0;"/><text fill="#000000" font-family="sans-serif" font-size="11" lengthAdjust="spacingAndGlyphs" text-decoration="underline" textLength="285" x="26" y="197.1406">ETF_TRANSLATION_TEMPLATE_BUNDLE_ID_PK: String</text><line style="stroke: #000000; stroke-width: 1.0;" x1="26" x2="311" y1="199.1406" y2="199.1406"/><ellipse cx="17" cy="207.4385" fill="none" rx="3" ry="3" style="stroke: #038048; stroke-width: 1.0;"/><text fill="#000000" font-family="sans-serif" font-size="11" lengthAdjust="spacingAndGlyphs" text-decoration="underline" textLength="176" x="26" y="210.0957">ETF_DEPENDENCY_IDS_PK: String</text><line style="stroke: #000000; stroke-width: 1.0;" x1="26" x2="202" y1="212.0957" y2="212.0957"/><ellipse cx="17" cy="220.3936" fill="none" rx="3" ry="3" style="stroke: #038048; stroke-width: 1.0;"/><text fill="#000000" font-family="sans-serif" font-size="11" lengthAdjust="spacingAndGlyphs" text-decoration="underline" textLength="192" x="26" y="223.0508">ETF_IGNORE_PROPERTIES_PK: String</text><line style="stroke: #000000; stroke-width: 1.0;" x1="26" x2="218" y1="225.0508" y2="225.0508"/><ellipse cx="17" cy="233.3486" fill="none" rx="3" ry="3" style="stroke: #038048; stroke-width: 1.0;"/><text fill="#000000" font-family="sans-serif" font-size="11" lengthAdjust="spacingAndGlyphs" text-decoration="underline" textLength="184" x="26" y="236.0059">ETF_PROPERTY_KEYS: Set&lt;String&gt;</text><line style="stroke: #000000; stroke-width: 1.0;" x1="26" x2="210" y1="238.0059" y2="238.0059"/><ellipse cx="17" cy="246.3037" fill="none" rx="3" ry="3" style="stroke: #038048; stroke-width: 1.0;"/><text fill="#000000" font-family="sans-serif" font-size="11" lengthAdjust="spacingAndGlyphs" text-decoration="underline" textLength="122" x="26" y="248.9609">ETF_DIR_PREFIX: String</text><line style="stroke: #000000; stroke-width: 1.0;" x1="26" x2="148" y1="250.9609" y2="250.9609"/><ellipse cx="17" cy="259.2588" fill="none" rx="3" ry="3" style="stroke: #038048; stroke-width: 1.0;"/><text fill="#000000" font-family="sans-serif" font-size="11" lengthAdjust="spacingAndGlyphs" text-decoration="underline" textLength="162" x="26" y="261.916">ETF_DATASOURCE_DIR: String</text><line style="stroke: #000000; stroke-width: 1.0;" x1="26" x2="188" y1="263.916" y2="263.916"/><ellipse cx="17" cy="272.2139" fill="none" rx="3" ry="3" style="stroke: #038048; stroke-width: 1.0;"/><text fill="#000000" font-family="sans-serif" font-size="11" lengthAdjust="spacingAndGlyphs" text-decoration="underline" textLength="163" x="26" y="274.8711">ETF_ATTACHMENT_DIR: String</text><line style="stroke: #000000; stroke-width: 1.0;" x1="26" x2="189" y1="276.8711" y2="276.8711"/><ellipse cx="17" cy="285.1689" fill="none" rx="3" ry="3" style="stroke: #038048; stroke-width: 1.0;"/><text fill="#000000" font-family="sans-serif" font-size="11" lengthAdjust="spacingAndGlyphs" text-decoration="underline" textLength="157" x="26" y="287.8262">ETF_TESTDRIVERS_DIR: String</text><line style="stroke: #000000; stroke-width: 1.0;" x1="26" x2="183" y1="289.8262" y2="289.8262"/><ellipse cx="17" cy="298.124" fill="none" rx="3" ry="3" style="stroke: #038048; stroke-width: 1.0;"/><text fill="#000000" font-family="sans-serif" font-size="11" lengthAdjust="spacingAndGlyphs" text-decoration="underline" textLength="139" x="26" y="300.7813">ETF_PROJECTS_DIR: String</text><line style="stroke: #000000; stroke-width: 1.0;" x1="26" x2="165" y1="302.7813" y2="302.7813"/><ellipse cx="17" cy="311.0791" fill="none" rx="3" ry="3" style="stroke: #038048; stroke-width: 1.0;"/><text fill="#000000" font-family="sans-serif" font-size="11" lengthAdjust="spacingAndGlyphs" text-decoration="underline" textLength="167" x="26" y="313.7363">ETF_REPORTSTYLES_DIR: String</text><line style="stroke: #000000; stroke-width: 1.0;" x1="26" x2="193" y1="315.7363" y2="315.7363"/><ellipse cx="17" cy="324.0342" fill="none" rx="3" ry="3" style="stroke: #038048; stroke-width: 1.0;"/><text fill="#000000" font-family="sans-serif" font-size="11" lengthAdjust="spacingAndGlyphs" text-decoration="underline" textLength="130" x="26" y="326.6914">ETF_BACKUP_DIR: String</text><line style="stroke: #000000; stroke-width: 1.0;" x1="26" x2="156" y1="328.6914" y2="328.6914"/><ellipse cx="17" cy="336.9893" fill="none" rx="3" ry="3" style="stroke: #038048; stroke-width: 1.0;"/><text fill="#000000" font-family="sans-serif" font-size="11" lengthAdjust="spacingAndGlyphs" text-decoration="underline" textLength="210" x="26" y="339.6465">ETF_CURRENT_MODEL_VERSION: String</text><line style="stroke: #000000; stroke-width: 1.0;" x1="26" x2="236" y1="341.6465" y2="341.6465"/><ellipse cx="17" cy="349.9443" fill="none" rx="3" ry="3" style="stroke: #038048; stroke-width: 1.0;"/><text fill="#000000" font-family="sans-serif" font-size="11" lengthAdjust="spacingAndGlyphs" text-decoration="underline" textLength="99" x="26" y="352.6016">ETF_XMLNS: String</text><line style="stroke: #000000; stroke-width: 1.0;" x1="26" x2="125" y1="354.6016" y2="354.6016"/><ellipse cx="17" cy="362.8994" fill="none" rx="3" ry="3" style="stroke: #038048; stroke-width: 1.0;"/><text fill="#000000" font-family="sans-serif" font-size="11" lengthAdjust="spacingAndGlyphs" text-decoration="underline" textLength="265" x="26" y="365.5566">ETF_TESTPROJECT_PROPERTY_FILE_SUFFIX: String</text><line style="stroke: #000000; stroke-width: 1.0;" x1="26" x2="291" y1="367.5566" y2="367.5566"/><ellipse cx="17" cy="375.8545" fill="none" rx="3" ry="3" style="stroke: #038048; stroke-width: 1.0;"/><text fill="#000000" font-family="sans-serif" font-size="11" lengthAdjust="spacingAndGlyphs" text-decoration="underline" textLength="188" x="26" y="378.5117">ETF_DATA_STORAGE_NAME: String</text><line style="stroke: #000000; stroke-width: 1.0;" x1="26" x2="214" y1="380.5117" y2="380.5117"/><ellipse cx="17" cy="388.8096" fill="none" rx="3" ry="3" style="stroke: #038048; stroke-width: 1.0;"/><text fill="#000000" font-family="sans-serif" font-size="11" lengthAdjust="spacingAndGlyphs" text-decoration="underline" textLength="91" x="26" y="391.4668">ETF_ASCII: String</text><line style="stroke: #000000; stroke-width: 1.0;" x1="26" x2="117" y1="393.4668" y2="393.4668"/><line style="stroke: #A80036; stroke-width: 1.5;" x1="7" x2="316" y1="397.7871" y2="397.7871"/></a><!--
@startuml

    class EtfConstants [[EtfConstants.html]] {
        {static} +ETF_PK_PREFIX: String
        {static} +ETF_TESTDOMAIN_PK: String
        {static} +ETF_AUTHOR_PK: String
        {static} +ETF_LAST_EDITOR_PK: String
        {static} +ETF_CREATION_DATE_PK: String
        {static} +ETF_LAST_UPDATE_DATE_PK: String
        {static} +ETF_DESCRIPTION_PK: String
        {static} +ETF_VERSION_PK: String
        {static} +ETF_IMPL_STATUS_PK: String
        {static} +ETF_REFERENCE_PK: String
        {static} +ETF_SUPPORTED_TESTOBJECT_TYPE_IDS_PK: String
        {static} +ETF_TRANSLATION_TEMPLATE_BUNDLE_ID_PK: String
        {static} +ETF_DEPENDENCY_IDS_PK: String
        {static} +ETF_IGNORE_PROPERTIES_PK: String
        {static} +ETF_PROPERTY_KEYS: Set<String>
        {static} +ETF_DIR_PREFIX: String
        {static} +ETF_DATASOURCE_DIR: String
        {static} +ETF_ATTACHMENT_DIR: String
        {static} +ETF_TESTDRIVERS_DIR: String
        {static} +ETF_PROJECTS_DIR: String
        {static} +ETF_REPORTSTYLES_DIR: String
        {static} +ETF_BACKUP_DIR: String
        {static} +ETF_CURRENT_MODEL_VERSION: String
        {static} +ETF_XMLNS: String
        {static} +ETF_TESTPROJECT_PROPERTY_FILE_SUFFIX: String
        {static} +ETF_DATA_STORAGE_NAME: String
        {static} +ETF_ASCII: String
    }

@enduml

PlantUML version 1.2018.08(Sun Jun 24 14:31:00 CEST 2018)
(APACHE source distribution)
Java Runtime: Java(TM) SE Runtime Environment
JVM: Java HotSpot(TM) 64-Bit Server VM
Java Version: 1.8.0_151-b12
Operating System: Mac OS X
OS Version: 10.14.2
Default Encoding: UTF-8
Language: en
Country: US
--></g></svg>