<svg version="1.0" xmlns="http://www.w3.org/2000/svg" viewBox="0 0 16 16">
<g transform="translate(0.000000,15.840000) scale(0.007920,-0.007920)"
fill="#000000" stroke="none">
<path d="M515 1990 c-287 -5 -302 -6 -351 -28 -63 -29 -96 -62 -126 -127 -21
-47 -23 -66 -28 -310 -10 -495 -5 -1256 9 -1312 20 -82 60 -136 125 -168 85
-42 211 -47 956 -43 567 4 662 7 703 21 130 42 172 108 187 288 12 148 12
1230 0 1378 -15 188 -69 263 -208 292 -62 13 -752 18 -1267 9z m133 -687 l3
-43 -135 0 -136 0 0 -90 0 -90 110 0 110 0 0 -40 0 -40 -110 0 -110 0 0 -100
0 -100 145 0 145 0 0 -45 0 -45 -210 0 -210 0 0 320 0 320 198 -2 197 -3 3
-42z m639 40 c8 -3 13 -21 13 -44 l0 -39 -115 0 -115 0 0 -275 0 -275 -65 0
-65 0 0 275 0 275 -115 0 -115 0 0 45 0 46 282 -2 c155 0 288 -3 295 -6z m481
-2 c19 -1 22 -7 22 -41 l0 -40 -135 0 -135 0 0 -100 0 -100 110 0 110 0 0 -40
0 -40 -110 0 -110 0 0 -135 0 -135 -65 0 -65 0 0 314 c0 291 1 315 18 319 15
3 297 2 360 -2z"/>
</g>
</svg>
