<?xml version="1.0" encoding="UTF-8" standalone="no"?><svg xmlns="http://www.w3.org/2000/svg" xmlns:xlink="http://www.w3.org/1999/xlink" contentScriptType="application/ecmascript" contentStyleType="text/css" height="258px" preserveAspectRatio="none" style="width:521px;height:258px;" version="1.1" viewBox="0 0 521 258" width="521px" zoomAndPan="magnify"><defs><filter height="300%" id="fb1x94d4e5ezp" width="300%" x="-1" y="-1"><feGaussianBlur result="blurOut" stdDeviation="2.0"/><feColorMatrix in="blurOut" result="blurOut2" type="matrix" values="0 0 0 0 0 0 0 0 0 0 0 0 0 0 0 0 0 0 .4 0"/><feOffset dx="4.0" dy="4.0" in="blurOut2" result="blurOut3"/><feBlend in="SourceGraphic" in2="blurOut3" mode="normal"/></filter></defs><g><!--cluster de.interactive_instruments.etf.dal.dao.exceptions--><polygon fill="#FFFFFF" filter="url(#fb1x94d4e5ezp)" points="14,124,368,124,375,146.4883,499,146.4883,499,246,14,246,14,124" style="stroke: #000000; stroke-width: 1.5;"/><line style="stroke: #000000; stroke-width: 1.5;" x1="14" x2="375" y1="146.4883" y2="146.4883"/><text fill="#000000" font-family="sans-serif" font-size="14" font-weight="bold" lengthAdjust="spacingAndGlyphs" textLength="348" x="18" y="139.5352">de.interactive_instruments.etf.dal.dao.exceptions</text><!--cluster de.interactive_instruments.exceptions--><polygon fill="#FFFFFF" filter="url(#fb1x94d4e5ezp)" points="124,16,401,16,408,38.4883,411,38.4883,411,99,124,99,124,16" style="stroke: #000000; stroke-width: 1.5;"/><line style="stroke: #000000; stroke-width: 1.5;" x1="124" x2="408" y1="38.4883" y2="38.4883"/><text fill="#000000" font-family="sans-serif" font-size="14" font-weight="bold" lengthAdjust="spacingAndGlyphs" textLength="271" x="128" y="31.5352">de.interactive_instruments.exceptions</text><!--class de.interactive_instruments.etf.dal.dao.exceptions.StoreException--><a target="_top" xlink:actuate="onRequest" xlink:href="StoreException.html" xlink:show="new" xlink:title="StoreException.html" xlink:type="simple"><rect fill="#FEFECE" filter="url(#fb1x94d4e5ezp)" height="86.8652" id="de.interactive_instruments.etf.dal.dao.exceptions.StoreException" style="stroke: #A80036; stroke-width: 1.5;" width="209" x="281.5" y="151"/><ellipse cx="339.25" cy="167" fill="#ADD1B2" rx="11" ry="11" style="stroke: #A80036; stroke-width: 1.0;"/><path d="M341.7231,173.1431 Q341.1421,173.4419 340.5029,173.5913 Q339.8638,173.7407 339.1582,173.7407 Q336.6514,173.7407 335.3315,172.0889 Q334.0117,170.437 334.0117,167.3159 Q334.0117,164.1865 335.3315,162.5347 Q336.6514,160.8828 339.1582,160.8828 Q339.8638,160.8828 340.5112,161.0322 Q341.1587,161.1816 341.7231,161.4805 L341.7231,164.2031 Q341.0923,163.6221 340.4988,163.3523 Q339.9053,163.0825 339.2744,163.0825 Q337.9297,163.0825 337.2449,164.1492 Q336.5601,165.2158 336.5601,167.3159 Q336.5601,169.4077 337.2449,170.4744 Q337.9297,171.541 339.2744,171.541 Q339.9053,171.541 340.4988,171.2712 Q341.0923,171.0015 341.7231,170.4204 Z "/><text fill="#000000" font-family="sans-serif" font-size="12" lengthAdjust="spacingAndGlyphs" textLength="85" x="359.75" y="171.5352">StoreException</text><line style="stroke: #A80036; stroke-width: 1.5;" x1="282.5" x2="489.5" y1="183" y2="183"/><line style="stroke: #A80036; stroke-width: 1.5;" x1="282.5" x2="489.5" y1="191" y2="191"/><ellipse cx="292.5" cy="202.9775" fill="#84BE84" rx="3" ry="3" style="stroke: #038048; stroke-width: 1.0;"/><text fill="#000000" font-family="sans-serif" font-size="11" lengthAdjust="spacingAndGlyphs" textLength="121" x="301.5" y="205.6348">StoreException(String)</text><ellipse cx="292.5" cy="215.9326" fill="#84BE84" rx="3" ry="3" style="stroke: #038048; stroke-width: 1.0;"/><text fill="#000000" font-family="sans-serif" font-size="11" lengthAdjust="spacingAndGlyphs" textLength="145" x="301.5" y="218.5898">StoreException(Throwable)</text><ellipse cx="292.5" cy="228.8877" fill="#84BE84" rx="3" ry="3" style="stroke: #038048; stroke-width: 1.0;"/><text fill="#000000" font-family="sans-serif" font-size="11" lengthAdjust="spacingAndGlyphs" textLength="183" x="301.5" y="231.5449">StoreException(String, Throwable)</text></a><!--class de.interactive_instruments.etf.dal.dao.exceptions.RetrieveException--><a target="_top" xlink:actuate="onRequest" xlink:href="RetrieveException.html" xlink:show="new" xlink:title="RetrieveException.html" xlink:type="simple"><rect fill="#FEFECE" filter="url(#fb1x94d4e5ezp)" height="86.8652" id="de.interactive_instruments.etf.dal.dao.exceptions.RetrieveException" style="stroke: #A80036; stroke-width: 1.5;" width="224" x="22" y="151"/><ellipse cx="78.25" cy="167" fill="#ADD1B2" rx="11" ry="11" style="stroke: #A80036; stroke-width: 1.0;"/><path d="M80.7231,173.1431 Q80.1421,173.4419 79.5029,173.5913 Q78.8638,173.7407 78.1582,173.7407 Q75.6514,173.7407 74.3315,172.0889 Q73.0117,170.437 73.0117,167.3159 Q73.0117,164.1865 74.3315,162.5347 Q75.6514,160.8828 78.1582,160.8828 Q78.8638,160.8828 79.5112,161.0322 Q80.1587,161.1816 80.7231,161.4805 L80.7231,164.2031 Q80.0923,163.6221 79.4988,163.3523 Q78.9053,163.0825 78.2744,163.0825 Q76.9297,163.0825 76.2449,164.1492 Q75.5601,165.2158 75.5601,167.3159 Q75.5601,169.4077 76.2449,170.4744 Q76.9297,171.541 78.2744,171.541 Q78.9053,171.541 79.4988,171.2712 Q80.0923,171.0015 80.7231,170.4204 Z "/><text fill="#000000" font-family="sans-serif" font-size="12" lengthAdjust="spacingAndGlyphs" textLength="103" x="98.75" y="171.5352">RetrieveException</text><line style="stroke: #A80036; stroke-width: 1.5;" x1="23" x2="245" y1="183" y2="183"/><line style="stroke: #A80036; stroke-width: 1.5;" x1="23" x2="245" y1="191" y2="191"/><ellipse cx="33" cy="202.9775" fill="#84BE84" rx="3" ry="3" style="stroke: #038048; stroke-width: 1.0;"/><text fill="#000000" font-family="sans-serif" font-size="11" lengthAdjust="spacingAndGlyphs" textLength="136" x="42" y="205.6348">RetrieveException(String)</text><ellipse cx="33" cy="215.9326" fill="#84BE84" rx="3" ry="3" style="stroke: #038048; stroke-width: 1.0;"/><text fill="#000000" font-family="sans-serif" font-size="11" lengthAdjust="spacingAndGlyphs" textLength="160" x="42" y="218.5898">RetrieveException(Throwable)</text><ellipse cx="33" cy="228.8877" fill="#84BE84" rx="3" ry="3" style="stroke: #038048; stroke-width: 1.0;"/><text fill="#000000" font-family="sans-serif" font-size="11" lengthAdjust="spacingAndGlyphs" textLength="198" x="42" y="231.5449">RetrieveException(String, Throwable)</text></a><!--class de.interactive_instruments.exceptions.StorageException--><rect fill="#FEFECE" filter="url(#fb1x94d4e5ezp)" height="48" id="de.interactive_instruments.exceptions.StorageException" style="stroke: #A80036; stroke-width: 1.5;" width="131" x="155.5" y="43"/><ellipse cx="170.5" cy="59" fill="#ADD1B2" rx="11" ry="11" style="stroke: #A80036; stroke-width: 1.0;"/><path d="M172.9731,65.1431 Q172.3921,65.4419 171.7529,65.5913 Q171.1138,65.7407 170.4082,65.7407 Q167.9014,65.7407 166.5815,64.0889 Q165.2617,62.437 165.2617,59.3159 Q165.2617,56.1865 166.5815,54.5347 Q167.9014,52.8828 170.4082,52.8828 Q171.1138,52.8828 171.7612,53.0322 Q172.4087,53.1816 172.9731,53.4805 L172.9731,56.2031 Q172.3423,55.6221 171.7488,55.3523 Q171.1553,55.0825 170.5244,55.0825 Q169.1797,55.0825 168.4949,56.1492 Q167.8101,57.2158 167.8101,59.3159 Q167.8101,61.4077 168.4949,62.4744 Q169.1797,63.541 170.5244,63.541 Q171.1553,63.541 171.7488,63.2712 Q172.3423,63.0015 172.9731,62.4204 Z "/><text fill="#000000" font-family="sans-serif" font-size="12" lengthAdjust="spacingAndGlyphs" textLength="99" x="184.5" y="63.5352">StorageException</text><line style="stroke: #A80036; stroke-width: 1.5;" x1="156.5" x2="285.5" y1="75" y2="75"/><line style="stroke: #A80036; stroke-width: 1.5;" x1="156.5" x2="285.5" y1="83" y2="83"/><!--link de.interactive_instruments.exceptions.StorageException to de.interactive_instruments.etf.dal.dao.exceptions.StoreException--><path d="M268.3024,103.5518 C287.436,118.3369 309.6783,135.5242 329.6427,150.9512 " fill="none" id="de.interactive_instruments.exceptions.StorageException-de.interactive_instruments.etf.dal.dao.exceptions.StoreException" style="stroke: #A80036; stroke-width: 1.0;"/><polygon fill="none" points="263.9692,109.0499,252.4236,91.2819,272.5295,97.9719,263.9692,109.0499" style="stroke: #A80036; stroke-width: 1.0;"/><!--link de.interactive_instruments.exceptions.StorageException to de.interactive_instruments.etf.dal.dao.exceptions.RetrieveException--><path d="M192.9543,108.1014 C183.6131,121.7911 173.179,137.0824 163.7157,150.9512 " fill="none" id="de.interactive_instruments.exceptions.StorageException-de.interactive_instruments.etf.dal.dao.exceptions.RetrieveException" style="stroke: #A80036; stroke-width: 1.0;"/><polygon fill="none" points="187.3762,103.8569,204.4312,91.2819,198.9405,111.7478,187.3762,103.8569" style="stroke: #A80036; stroke-width: 1.0;"/><!--
@startuml

    namespace de.interactive_instruments.etf.dal.dao.exceptions {

        class StoreException [[StoreException.html]] {
            +StoreException(String)
            +StoreException(Throwable)
            +StoreException(String, Throwable)
        }

        class RetrieveException [[RetrieveException.html]] {
            +RetrieveException(String)
            +RetrieveException(Throwable)
            +RetrieveException(String, Throwable)
        }

        class de.interactive_instruments.exceptions.StorageException
        de.interactive_instruments.exceptions.StorageException <|- - StoreException

        de.interactive_instruments.exceptions.StorageException <|- - RetrieveException

    }

@enduml

PlantUML version 1.2018.08(Sun Jun 24 14:31:00 CEST 2018)
(APACHE source distribution)
Java Runtime: Java(TM) SE Runtime Environment
JVM: Java HotSpot(TM) 64-Bit Server VM
Java Version: 1.8.0_151-b12
Operating System: Mac OS X
OS Version: 10.14.2
Default Encoding: UTF-8
Language: en
Country: US
--></g></svg>