<?xml version="1.0" encoding="UTF-8" standalone="no"?><svg xmlns="http://www.w3.org/2000/svg" xmlns:xlink="http://www.w3.org/1999/xlink" contentScriptType="application/ecmascript" contentStyleType="text/css" height="105px" preserveAspectRatio="none" style="width:241px;height:105px;" version="1.1" viewBox="0 0 241 105" width="241px" zoomAndPan="magnify"><defs><filter height="300%" id="f1qj364c0vazzn" width="300%" x="-1" y="-1"><feGaussianBlur result="blurOut" stdDeviation="2.0"/><feColorMatrix in="blurOut" result="blurOut2" type="matrix" values="0 0 0 0 0 0 0 0 0 0 0 0 0 0 0 0 0 0 .4 0"/><feOffset dx="4.0" dy="4.0" in="blurOut2" result="blurOut3"/><feBlend in="SourceGraphic" in2="blurOut3" mode="normal"/></filter></defs><g><!--class RetrieveException--><a target="_top" xlink:actuate="onRequest" xlink:href="RetrieveException.html" xlink:show="new" xlink:title="RetrieveException.html" xlink:type="simple"><rect fill="#FEFECE" filter="url(#f1qj364c0vazzn)" height="86.8652" id="RetrieveException" style="stroke: #A80036; stroke-width: 1.5;" width="224" x="6" y="8"/><ellipse cx="62.25" cy="24" fill="#ADD1B2" rx="11" ry="11" style="stroke: #A80036; stroke-width: 1.0;"/><path d="M64.7231,30.1431 Q64.1421,30.4419 63.5029,30.5913 Q62.8638,30.7407 62.1582,30.7407 Q59.6514,30.7407 58.3315,29.0889 Q57.0117,27.437 57.0117,24.3159 Q57.0117,21.1865 58.3315,19.5347 Q59.6514,17.8828 62.1582,17.8828 Q62.8638,17.8828 63.5112,18.0322 Q64.1587,18.1816 64.7231,18.4805 L64.7231,21.2031 Q64.0923,20.6221 63.4988,20.3523 Q62.9053,20.0825 62.2744,20.0825 Q60.9297,20.0825 60.2449,21.1492 Q59.5601,22.2158 59.5601,24.3159 Q59.5601,26.4077 60.2449,27.4744 Q60.9297,28.541 62.2744,28.541 Q62.9053,28.541 63.4988,28.2712 Q64.0923,28.0015 64.7231,27.4204 Z "/><text fill="#000000" font-family="sans-serif" font-size="12" lengthAdjust="spacingAndGlyphs" textLength="103" x="82.75" y="28.5352">RetrieveException</text><line style="stroke: #A80036; stroke-width: 1.5;" x1="7" x2="229" y1="40" y2="40"/><line style="stroke: #A80036; stroke-width: 1.5;" x1="7" x2="229" y1="48" y2="48"/><ellipse cx="17" cy="59.9775" fill="#84BE84" rx="3" ry="3" style="stroke: #038048; stroke-width: 1.0;"/><text fill="#000000" font-family="sans-serif" font-size="11" lengthAdjust="spacingAndGlyphs" textLength="136" x="26" y="62.6348">RetrieveException(String)</text><ellipse cx="17" cy="72.9326" fill="#84BE84" rx="3" ry="3" style="stroke: #038048; stroke-width: 1.0;"/><text fill="#000000" font-family="sans-serif" font-size="11" lengthAdjust="spacingAndGlyphs" textLength="160" x="26" y="75.5898">RetrieveException(Throwable)</text><ellipse cx="17" cy="85.8877" fill="#84BE84" rx="3" ry="3" style="stroke: #038048; stroke-width: 1.0;"/><text fill="#000000" font-family="sans-serif" font-size="11" lengthAdjust="spacingAndGlyphs" textLength="198" x="26" y="88.5449">RetrieveException(String, Throwable)</text></a><!--
@startuml

    class RetrieveException [[RetrieveException.html]] {
        +RetrieveException(String)
        +RetrieveException(Throwable)
        +RetrieveException(String, Throwable)
    }

@enduml

PlantUML version 1.2018.08(Sun Jun 24 14:31:00 CEST 2018)
(APACHE source distribution)
Java Runtime: Java(TM) SE Runtime Environment
JVM: Java HotSpot(TM) 64-Bit Server VM
Java Version: 1.8.0_151-b12
Operating System: Mac OS X
OS Version: 10.14.2
Default Encoding: UTF-8
Language: en
Country: US
--></g></svg>