<?xml version="1.0" encoding="UTF-8" standalone="no"?><svg xmlns="http://www.w3.org/2000/svg" xmlns:xlink="http://www.w3.org/1999/xlink" contentScriptType="application/ecmascript" contentStyleType="text/css" height="105px" preserveAspectRatio="none" style="width:226px;height:105px;" version="1.1" viewBox="0 0 226 105" width="226px" zoomAndPan="magnify"><defs><filter height="300%" id="fwh486b2lyo38" width="300%" x="-1" y="-1"><feGaussianBlur result="blurOut" stdDeviation="2.0"/><feColorMatrix in="blurOut" result="blurOut2" type="matrix" values="0 0 0 0 0 0 0 0 0 0 0 0 0 0 0 0 0 0 .4 0"/><feOffset dx="4.0" dy="4.0" in="blurOut2" result="blurOut3"/><feBlend in="SourceGraphic" in2="blurOut3" mode="normal"/></filter></defs><g><!--class StoreException--><a target="_top" xlink:actuate="onRequest" xlink:href="StoreException.html" xlink:show="new" xlink:title="StoreException.html" xlink:type="simple"><rect fill="#FEFECE" filter="url(#fwh486b2lyo38)" height="86.8652" id="StoreException" style="stroke: #A80036; stroke-width: 1.5;" width="209" x="6" y="8"/><ellipse cx="63.75" cy="24" fill="#ADD1B2" rx="11" ry="11" style="stroke: #A80036; stroke-width: 1.0;"/><path d="M66.2231,30.1431 Q65.6421,30.4419 65.0029,30.5913 Q64.3638,30.7407 63.6582,30.7407 Q61.1514,30.7407 59.8315,29.0889 Q58.5117,27.437 58.5117,24.3159 Q58.5117,21.1865 59.8315,19.5347 Q61.1514,17.8828 63.6582,17.8828 Q64.3638,17.8828 65.0112,18.0322 Q65.6587,18.1816 66.2231,18.4805 L66.2231,21.2031 Q65.5923,20.6221 64.9988,20.3523 Q64.4053,20.0825 63.7744,20.0825 Q62.4297,20.0825 61.7449,21.1492 Q61.0601,22.2158 61.0601,24.3159 Q61.0601,26.4077 61.7449,27.4744 Q62.4297,28.541 63.7744,28.541 Q64.4053,28.541 64.9988,28.2712 Q65.5923,28.0015 66.2231,27.4204 Z "/><text fill="#000000" font-family="sans-serif" font-size="12" lengthAdjust="spacingAndGlyphs" textLength="85" x="84.25" y="28.5352">StoreException</text><line style="stroke: #A80036; stroke-width: 1.5;" x1="7" x2="214" y1="40" y2="40"/><line style="stroke: #A80036; stroke-width: 1.5;" x1="7" x2="214" y1="48" y2="48"/><ellipse cx="17" cy="59.9775" fill="#84BE84" rx="3" ry="3" style="stroke: #038048; stroke-width: 1.0;"/><text fill="#000000" font-family="sans-serif" font-size="11" lengthAdjust="spacingAndGlyphs" textLength="121" x="26" y="62.6348">StoreException(String)</text><ellipse cx="17" cy="72.9326" fill="#84BE84" rx="3" ry="3" style="stroke: #038048; stroke-width: 1.0;"/><text fill="#000000" font-family="sans-serif" font-size="11" lengthAdjust="spacingAndGlyphs" textLength="145" x="26" y="75.5898">StoreException(Throwable)</text><ellipse cx="17" cy="85.8877" fill="#84BE84" rx="3" ry="3" style="stroke: #038048; stroke-width: 1.0;"/><text fill="#000000" font-family="sans-serif" font-size="11" lengthAdjust="spacingAndGlyphs" textLength="183" x="26" y="88.5449">StoreException(String, Throwable)</text></a><!--
@startuml

    class StoreException [[StoreException.html]] {
        +StoreException(String)
        +StoreException(Throwable)
        +StoreException(String, Throwable)
    }

@enduml

PlantUML version 1.2018.08(Sun Jun 24 14:31:00 CEST 2018)
(APACHE source distribution)
Java Runtime: Java(TM) SE Runtime Environment
JVM: Java HotSpot(TM) 64-Bit Server VM
Java Version: 1.8.0_151-b12
Operating System: Mac OS X
OS Version: 10.14.2
Default Encoding: UTF-8
Language: en
Country: US
--></g></svg>